<svg width="135" height="180" viewBox="0 0 135 180" fill="none" xmlns="http://www.w3.org/2000/svg">
<path d="M58.4492 154.547C57.062 159.139 56.026 163.82 55.3501 168.544C53.0462 168.136 50.7514 167.684 48.4684 167.187C48.7786 160.44 48.9583 153.687 49.0062 146.934L58.4492 154.547Z" fill="#F2E8D1"/>
<path d="M56.2597 157.029C55.5845 160.038 54.8781 163.042 54.1397 166.039C53.9302 166.89 53.7178 167.741 53.5034 168.591C53.4493 168.806 53.0877 168.715 53.1419 168.5C53.8975 165.506 54.622 162.506 55.3153 159.5C55.5123 158.647 55.7059 157.793 55.8981 156.939C55.9467 156.721 56.3082 156.813 56.2597 157.029Z" fill="#87795B"/>
<path d="M54.0537 156.381C53.3313 159.538 52.7581 162.725 52.3417 165.928C52.2231 166.84 52.1176 167.753 52.0239 168.667C52.0017 168.885 51.6263 168.888 51.6485 168.667C51.9816 165.425 52.4687 162.195 53.1113 158.992C53.2924 158.089 53.486 157.188 53.6914 156.29C53.7414 156.073 54.1029 156.165 54.0537 156.381Z" fill="#87795B"/>
<path d="M51.3837 157.498C51.2164 160.423 51.0492 163.348 50.8827 166.272C50.8348 167.108 50.7869 167.943 50.7397 168.779C50.7272 168.998 50.3518 169 50.365 168.779C50.5322 165.854 50.6994 162.93 50.866 160.005C50.9139 159.17 50.9617 158.334 51.0089 157.498C51.0214 157.279 51.3969 157.278 51.3837 157.498Z" fill="#87795B"/>
<path d="M49.4503 166.103C50.1109 165.48 50.7917 164.844 51.6507 164.477C52.5098 164.11 53.5993 164.064 54.3536 164.59C54.8317 164.924 55.1135 165.436 55.3681 165.934C56.4479 168.049 57.3208 170.251 57.9738 172.508C58.0724 172.849 58.1647 173.217 58.028 173.547C57.8996 173.858 57.5922 174.074 57.2875 174.254C54.6742 175.804 51.1324 175.936 48.3893 174.585C48.0166 174.402 47.6377 174.172 47.4733 173.816C47.3116 173.467 47.3886 173.068 47.4677 172.695C47.8515 170.896 48.2352 169.096 48.6189 167.296L49.4503 166.103Z" fill="#EC8117"/>
<mask id="mask0_2130_2737" style="mask-type:luminance" maskUnits="userSpaceOnUse" x="47" y="164" width="12" height="12">
<path d="M49.4503 166.103C50.1109 165.48 50.7917 164.844 51.6507 164.477C52.5098 164.11 53.5993 164.064 54.3536 164.59C54.8317 164.924 55.1135 165.436 55.3681 165.934C56.4479 168.049 57.3208 170.251 57.9738 172.508C58.0724 172.849 58.1647 173.217 58.028 173.547C57.8996 173.858 57.5922 174.074 57.2875 174.254C54.6742 175.804 51.1324 175.936 48.3893 174.585C48.0166 174.402 47.6377 174.172 47.4733 173.816C47.3116 173.467 47.3886 173.068 47.4677 172.695C47.8515 170.896 48.2352 169.096 48.6189 167.296L49.4503 166.103Z" fill="white"/>
</mask>
<g mask="url(#mask0_2130_2737)">
<path d="M47.0901 171.223C48.8486 173.258 51.7908 174.382 54.6082 174.095C55.4346 174.011 56.2646 173.807 56.9481 173.374C58.2034 172.58 58.8412 171.109 60.1839 170.445C60.8098 171.328 60.7349 172.534 60.1569 173.443C59.5788 174.352 58.565 174.982 57.4762 175.32C56.5616 175.604 55.5894 175.7 54.6235 175.713C53.5493 175.728 52.4771 175.644 51.4078 175.552C50.2468 175.454 49.0512 175.338 48.0256 174.829C47.0006 174.321 46.179 173.316 46.3081 172.255L47.0901 171.223Z" fill="#210A0A"/>
</g>
<mask id="mask1_2130_2737" style="mask-type:luminance" maskUnits="userSpaceOnUse" x="47" y="164" width="12" height="12">
<path d="M49.4503 166.103C50.1109 165.48 50.7917 164.844 51.6507 164.477C52.5098 164.11 53.5993 164.064 54.3536 164.59C54.8317 164.924 55.1135 165.436 55.3681 165.934C56.4479 168.049 57.3208 170.251 57.9738 172.508C58.0724 172.849 58.1647 173.217 58.028 173.547C57.8996 173.858 57.5922 174.074 57.2875 174.254C54.6742 175.804 51.1324 175.936 48.3893 174.585C48.0166 174.402 47.6377 174.172 47.4733 173.816C47.3116 173.467 47.3886 173.068 47.4677 172.695C47.8515 170.896 48.2352 169.096 48.6189 167.296L49.4503 166.103Z" fill="white"/>
</mask>
<g mask="url(#mask1_2130_2737)">
<path d="M47.993 168.503C49.3614 167.546 50.2413 165.943 51.8811 165.463C52.9157 165.159 54.0663 165.387 55.0232 165.856C55.9808 166.326 56.7809 167.019 57.5685 167.703C57.225 166.922 56.842 166.156 56.4207 165.407C55.9301 164.535 55.3597 163.658 54.4763 163.101C52.5805 161.906 50.0123 162.563 47.8396 163.26C47.0201 163.523 46.1811 163.796 45.5136 164.303C44.8453 164.811 44.3734 165.611 44.5379 166.391L47.993 168.503Z" fill="#4B89AF"/>
</g>
<path d="M50.9228 169.844C52.1413 169.159 53.6624 168.999 55.0329 169.352C55.4243 169.452 55.799 169.601 56.1509 169.786C56.4423 169.939 56.6678 169.509 56.3785 169.357C55.0149 168.642 53.3252 168.508 51.8332 168.943C51.4099 169.066 51.0047 169.239 50.6258 169.452C50.3399 169.612 50.6369 170.004 50.9228 169.844Z" fill="#1C1C1B"/>
<path d="M50.6715 168.971C51.8762 168.267 53.3848 168.08 54.7553 168.442C54.8906 168.477 55.0357 168.372 55.0606 168.253C55.0898 168.117 54.9906 168.009 54.8545 167.974C53.3522 167.578 51.6902 167.811 50.3745 168.579C50.0921 168.744 50.3884 169.136 50.6715 168.971Z" fill="#1C1C1B"/>
<path d="M50.9324 167.42C51.9094 166.8 53.2147 166.647 54.3264 167.042C54.4575 167.088 54.6095 167.054 54.6747 166.931C54.7323 166.823 54.6858 166.66 54.554 166.613C53.2661 166.155 51.7734 166.305 50.6354 167.028C50.3606 167.203 50.6562 167.595 50.9324 167.42Z" fill="#1C1C1B"/>
<path d="M50.0622 173.642C50.6993 172.825 51.636 172.239 52.6964 171.982C53.7373 171.729 54.8566 171.853 55.8218 172.281C56.3645 172.522 56.8627 172.858 57.261 173.274C57.3533 173.37 57.4984 173.413 57.624 173.334C57.7294 173.267 57.7829 173.1 57.6899 173.003C56.894 172.171 55.7934 171.606 54.5978 171.433C53.4014 171.26 52.178 171.5 51.1468 172.075C50.5695 172.398 50.0601 172.828 49.6674 173.331C49.5855 173.436 49.582 173.578 49.6958 173.667C49.7944 173.745 49.9797 173.747 50.0622 173.642Z" fill="#1C1C1B"/>
<path d="M95.3329 143.205C94.7417 148.454 94.435 153.731 94.4135 159.008C92.2241 159.666 90.0348 160.325 87.8454 160.983C86.3 154.178 86.6727 147.148 87.0515 140.207L95.3329 143.205Z" fill="#F2E8D1"/>
<path d="M94.3793 145.611C93.2655 149.02 92.5099 152.526 92.1268 156.067C92.0179 157.075 91.9395 158.086 91.8902 159.097C91.8791 159.333 91.4808 159.295 91.4926 159.06C91.6674 155.471 92.2205 151.902 93.1413 148.41C93.4009 147.425 93.6895 146.447 94.0067 145.477C94.0802 145.252 94.4529 145.385 94.3793 145.611Z" fill="#87795B"/>
<path d="M91.4398 145.782C90.7723 149.46 90.4031 153.183 90.3407 156.912C90.3233 157.954 90.3296 158.997 90.3594 160.039C90.3663 160.274 89.968 160.234 89.9618 160.001C89.8556 156.274 90.052 152.54 90.5523 148.839C90.6925 147.805 90.8562 146.773 91.0429 145.744C91.0838 145.513 91.4815 145.55 91.4398 145.782Z" fill="#87795B"/>
<path d="M88.1361 146.002C88.2915 149.771 88.4462 153.539 88.601 157.308C88.6447 158.361 88.6877 159.415 88.7314 160.469C88.7356 160.568 88.6835 160.66 88.5677 160.68C88.4719 160.695 88.3415 160.628 88.3373 160.529C88.1818 156.76 88.0271 152.992 87.8716 149.223C87.8279 148.169 87.7849 147.115 87.7412 146.062C87.737 145.962 87.7891 145.87 87.9057 145.851C88.0014 145.836 88.1319 145.903 88.1361 146.002Z" fill="#87795B"/>
<path d="M87.0278 156.701C88.075 157.683 90.0291 157.659 91.0492 156.654C91.9048 155.81 92.2802 154.357 93.5237 154.182C94.6715 154.02 95.4945 155.102 96.2904 155.876C97.3716 156.927 98.8379 157.563 100.28 158.147C101.722 158.732 103.207 159.304 104.382 160.266C105.558 161.228 106.386 162.897 106.097 164.316C102.474 164.156 90.1998 164.832 87.76 164.33L87.0278 156.701Z" fill="#EC8117"/>
<mask id="mask2_2130_2737" style="mask-type:luminance" maskUnits="userSpaceOnUse" x="87" y="154" width="20" height="11">
<path d="M87.0278 156.701C88.075 157.683 90.0291 157.659 91.0492 156.654C91.9048 155.81 92.2802 154.357 93.5237 154.182C94.6715 154.02 95.4945 155.102 96.2904 155.876C97.3716 156.927 98.8379 157.563 100.28 158.147C101.722 158.732 103.207 159.304 104.382 160.266C105.558 161.228 106.386 162.897 106.097 164.316C102.474 164.156 90.1998 164.832 87.76 164.33L87.0278 156.701Z" fill="white"/>
</mask>
<g mask="url(#mask2_2130_2737)">
<path d="M82.8623 163.152L83.6874 166.107L107.021 166.089L106.295 163.134C98.4841 163.14 90.6732 163.146 82.8623 163.152C90.7384 163.146 98.6152 163.14 106.491 163.134L82.8623 163.152Z" fill="#210A0A"/>
</g>
<mask id="mask3_2130_2737" style="mask-type:luminance" maskUnits="userSpaceOnUse" x="87" y="154" width="20" height="11">
<path d="M87.0278 156.701C88.075 157.683 90.0291 157.659 91.0492 156.654C91.9048 155.81 92.2802 154.357 93.5237 154.182C94.6715 154.02 95.4945 155.102 96.2904 155.876C97.3716 156.927 98.8379 157.563 100.28 158.147C101.722 158.732 103.207 159.304 104.382 160.266C105.558 161.228 106.386 162.897 106.097 164.316C102.474 164.156 90.1998 164.832 87.76 164.33L87.0278 156.701Z" fill="white"/>
</mask>
<g mask="url(#mask3_2130_2737)">
<path d="M94.7081 153.933C93.2786 155.903 91.5077 158.064 88.9353 158.29C88.3829 158.338 87.8083 158.286 87.3115 158.06C86.2949 157.597 85.8133 156.537 85.4143 155.564C88.9749 154.942 92.076 152.528 95.7004 152.535L94.7081 153.933Z" fill="#4B89AF"/>
</g>
<path d="M101.978 158.495C101.083 158.399 100.146 159.032 100.049 159.857C100.034 159.979 99.9447 160.085 99.799 160.085C99.6755 160.085 99.5346 159.98 99.5491 159.857C99.674 158.794 100.793 157.911 101.977 158.038C102.111 158.052 102.227 158.132 102.227 158.266C102.227 158.379 102.113 158.509 101.978 158.495Z" fill="#1C1C1B"/>
<path d="M99.8448 157.452C98.91 157.761 98.1856 158.513 97.942 159.391C97.8629 159.676 97.3813 159.555 97.4604 159.269C97.7484 158.23 98.6138 157.375 99.7122 157.012C99.8392 156.97 99.9857 157.059 100.02 157.171C100.057 157.298 99.9718 157.41 99.8448 157.452Z" fill="#1C1C1B"/>
<path d="M98.33 156.516C97.2162 156.924 96.3245 157.806 95.9526 158.848C95.8533 159.126 95.3704 159.007 95.471 158.727C95.9012 157.52 96.9116 156.545 98.1967 156.076C98.3216 156.03 98.4708 156.125 98.5041 156.235C98.543 156.365 98.4556 156.471 98.33 156.516Z" fill="#1C1C1B"/>
<path d="M103.639 160.354C102.567 160.968 101.846 162.01 101.668 163.152C101.65 163.275 101.48 163.341 101.362 163.312C101.218 163.276 101.168 163.154 101.187 163.031C101.383 161.775 102.214 160.631 103.387 159.959C103.659 159.803 103.911 160.198 103.639 160.354Z" fill="#1C1C1B"/>
<path d="M91.7576 163.69C91.3607 162.48 90.3517 161.487 89.0964 160.977C88.7425 160.833 88.3636 160.737 87.9819 160.681C87.8487 160.661 87.7745 160.51 87.8071 160.4C87.8459 160.271 87.9806 160.22 88.1145 160.24C89.5974 160.46 90.9346 161.323 91.7146 162.491C91.9394 162.827 92.1157 163.192 92.2392 163.569C92.3315 163.851 91.8499 163.972 91.7576 163.69Z" fill="#1C1C1B"/>
<path d="M93.1067 158.126C92.2268 157.495 90.6967 158.015 90.4802 159.019C90.2637 160.022 91.4628 161.035 92.539 160.757C93.6153 160.48 94.0594 159.043 93.3017 158.29L93.1067 158.126Z" fill="#4B89AF"/>
<path d="M81.3999 30.9032C86.4476 31.5146 92.1593 34.4861 95.4687 38.0265C98.778 41.567 103.164 57.3071 105.44 61.4742C105.689 61.9288 92.0268 56.6283 93.5111 64.4927C93.5465 64.68 93.246 64.7409 93.1961 64.5568C92.7436 62.8755 92.7131 60.0938 90.496 56.0086C89.725 62.2247 82.7816 67.4134 80.1266 73.1786C80.0114 73.4288 69.0494 73.3964 65.3001 73.6644C62.5299 73.8625 59.7313 73.7202 57.002 73.2428C53.5102 72.632 53.6178 65.8362 53.4741 64.0133C53.2125 60.6913 54.3401 57.6646 54.0785 54.3426C53.2777 59.6906 48.6568 66.3842 44.5273 65.5029C41.9479 63.3841 40.5649 57.8055 37.9856 55.6867C37.792 55.5274 37.5866 55.3508 37.5387 55.1159C37.4901 54.8791 37.615 54.6442 37.7371 54.4308C41.7723 47.343 44.5529 45.1251 49.7047 38.6716C50.8476 37.2405 52.0321 35.8112 53.5345 34.6925C54.7704 33.7724 56.1922 33.0848 57.6432 32.4848C65.2682 29.3298 73.2241 29.2745 81.3999 30.9032Z" fill="#277AAE"/>
<path d="M83.3818 27.1716C82.9315 29.5298 82.4804 31.8879 82.0293 34.2467C81.9773 34.5178 81.9197 34.801 81.7317 35.0156C81.5193 35.2582 81.1793 35.3699 80.8545 35.4595C77.8734 36.2823 74.5973 36.1814 71.6835 35.1769C70.5753 34.7947 69.4949 34.2696 68.708 33.46C68.5858 33.3343 68.4672 33.1946 68.4332 33.0295C68.3971 32.853 68.4623 32.674 68.5255 32.5045C69.6475 29.5018 70.5115 26.4192 71.1083 23.2934C73.5245 23.6813 75.9221 24.1645 78.2925 24.7417L83.3818 27.1716Z" fill="#F6A472"/>
<path d="M88.3686 11.8893C89.3977 14.6487 89.2187 17.7682 87.8801 20.4133C86.5408 23.0591 84.0565 25.2014 81.0913 26.2681C80.1857 26.5938 79.2233 26.8243 78.2511 26.7951C77.3198 26.7671 76.4136 26.5024 75.5677 26.1455C72.3985 24.8071 69.9899 22.1118 69.0204 19.0431C68.0517 15.9745 68.4909 12.5839 70.0641 9.73237C71.0564 7.93359 72.4644 6.35895 73.8606 4.80017L88.3686 11.8893Z" fill="#512C13"/>
<path d="M87.5505 11.6201C86.7442 14.5002 86.5783 17.5028 85.8254 20.395C85.0725 23.2871 83.5965 26.1989 80.8825 27.8339C79.9138 28.4174 78.7778 28.8238 77.619 28.7774C75.9584 28.7107 74.4893 27.7279 73.4339 26.5526C71.6526 24.5703 70.7844 22.0077 70.5055 19.454C70.2272 16.9002 70.4985 14.3262 70.7692 11.7718C70.9725 9.8556 71.1758 7.93999 71.3791 6.02374L87.5505 11.6201Z" fill="#F6A472"/>
<path d="M70.7212 18.565C70.3403 17.9574 69.8157 17.2698 69.0502 17.2786C68.3064 17.2875 67.7859 17.9752 67.6013 18.6349C67.2953 19.732 67.5756 20.953 68.3383 21.8445C69.1009 22.7359 70.3299 23.2776 71.5671 23.268L70.7212 18.565Z" fill="#F6A472"/>
<path d="M85.7433 19.9549C86.4331 19.36 87.313 18.7574 88.238 18.9473C89.0159 19.1066 89.553 19.8241 89.6293 20.5505C89.7057 21.2768 89.3996 21.9962 88.9805 22.6166C88.0916 23.9322 86.1881 24.9665 84.7427 24.1645L85.7433 19.9549Z" fill="#F6A472"/>
<path d="M70.7753 19.2635C70.846 16.7688 71.2582 14.2786 71.9987 11.876C72.0812 11.608 72.1756 11.3287 72.3893 11.1344C72.66 10.8874 73.061 10.8322 73.433 10.796C77.8346 10.3661 82.3244 10.8804 86.4678 12.2893C86.5809 12.3281 86.7009 12.3725 86.7676 12.4671C86.8474 12.5808 86.8266 12.7306 86.8023 12.8665C86.3367 15.4913 85.871 18.1162 85.4054 20.7404C85.6386 20.7823 85.8724 20.8236 86.1056 20.8655C86.372 18.5054 87.9785 16.4298 88.3879 14.0862C88.9659 10.7769 86.805 7.2911 83.5373 6.04218C80.2696 4.79325 76.2101 5.79709 73.8466 8.31589C73.1367 9.0721 72.5691 9.94451 71.8127 10.6594C71.3991 11.0506 70.9245 11.4011 70.6379 11.8823C70.3943 12.2912 70.3061 12.7624 70.2215 13.2233C69.9515 14.6945 69.5262 15.8361 69.2562 17.3073C69.9696 17.6241 70.6705 18.586 70.8565 19.3124L70.7753 19.2635Z" fill="#512C13"/>
<path d="M89.9548 15.1795C89.553 15.1941 89.172 15.0227 88.9382 14.7332C88.3643 14.0246 87.347 13.6017 86.3866 13.2963C81.0163 11.5877 75.0165 11.5039 69.649 13.0633C69.2902 13.1674 68.9245 13.2798 68.545 13.2684C67.6803 13.2417 66.9406 12.4531 67.0828 11.7102C67.2258 10.9667 68.2139 10.4562 69.0376 10.7007C69.4873 8.07775 70.0577 5.2472 72.2748 3.45857C73.7314 2.28394 77.8971 1.30169 77.8971 1.30169C78.8283 -0.211373 80.951 -0.404394 82.1779 0.717543C82.3798 0.90231 82.9537 1.92393 83.1536 2.1106C83.5866 2.51569 84.1695 2.76649 84.6934 3.07888C87.8647 4.97036 88.4857 8.75333 88.8112 12.0747C89.6134 12.116 90.3656 12.6265 90.6126 13.2976C90.8597 13.9687 90.5849 14.7541 89.9548 15.1795Z" fill="#EC8117"/>
<path d="M90.1221 15.6145C90.4038 15.3936 90.4274 14.9859 90.1665 14.7516C87.3748 12.2455 83.5998 10.8309 79.7589 10.5058C75.6932 10.1623 71.5601 10.9807 67.7435 12.4557C67.5305 12.5382 67.3056 12.6303 67.2432 12.8957C67.1717 13.1967 67.3584 13.4894 67.6484 13.6138C68.1286 13.8195 68.6436 13.6202 69.1196 13.4468C72.6434 12.1592 76.4655 12.1014 80.2238 12.3357C80.4091 12.3471 80.6374 12.3712 80.8963 12.4055C83.5679 12.7554 86.1174 13.6589 88.3692 15.0202L89.3886 15.6361C89.6058 15.791 89.9084 15.7821 90.1221 15.6145Z" fill="#B26016"/>
<path d="M83.0037 2.41334C82.9912 4.74166 82.8469 7.06998 82.5686 9.38497C82.4902 10.0345 82.4014 10.6834 82.3021 11.3304C82.2709 11.5361 81.9233 11.4803 81.9545 11.2745C82.3028 8.99702 82.5242 6.70299 82.6103 4.40451C82.6346 3.75116 82.6484 3.0978 82.6519 2.44381C82.6533 2.23746 83.0044 2.20571 83.0037 2.41334Z" fill="#B26016"/>
<path d="M77.9379 1.78099C78.2287 4.16328 78.2363 6.57351 77.9602 8.95771C77.8817 9.63328 77.7804 10.307 77.6569 10.9768C77.6194 11.1819 77.2717 11.126 77.3092 10.9209C77.7415 8.57611 77.8963 6.19255 77.7652 3.81724C77.7284 3.14738 77.668 2.47816 77.5868 1.81147C77.5611 1.60512 77.9122 1.57464 77.9379 1.78099Z" fill="#B26016"/>
<path d="M73.3006 3.30038C73.9376 4.10993 74.0792 5.14171 74.2076 6.10618C74.3554 7.21478 74.4206 8.33291 74.404 9.44977C74.3949 10.0784 74.3595 10.7057 74.2999 11.3317C74.2804 11.5387 73.9328 11.4816 73.9522 11.2758C74.0542 10.2028 74.0806 9.12468 74.0285 8.04845C73.9793 7.01477 73.8856 5.96268 73.6566 4.94805C73.5393 4.4293 73.352 3.91945 73.0112 3.48579C72.8787 3.31689 73.1681 3.13149 73.3006 3.30038Z" fill="#B26016"/>
<path d="M86.2243 4.79894C85.5644 6.60915 85.105 8.48095 84.8531 10.375C84.7817 10.9128 84.7275 11.4525 84.6887 11.9934C84.6741 12.2004 84.3264 12.1426 84.341 11.9376C84.4784 10.0099 84.8261 8.09554 85.3826 6.232C85.5401 5.70373 85.7157 5.1799 85.9051 4.66052C85.9773 4.46369 86.2958 4.60338 86.2243 4.79894Z" fill="#B26016"/>
<path d="M88.46 12.0791C87.6217 11.6836 86.7828 11.2873 85.9445 10.8918C85.7432 10.7965 85.8932 10.5045 86.0958 10.5997C86.934 10.9959 87.7723 11.3915 88.6113 11.787C88.8125 11.8823 88.6626 12.1744 88.46 12.0791Z" fill="#B26016"/>
<path d="M73.2629 9.99718C72.0756 10.1991 70.8974 10.4435 69.7309 10.7305C69.513 10.7845 69.3887 10.4816 69.608 10.4277C70.8037 10.1331 72.0118 9.88226 73.2296 9.67527C73.4531 9.63781 73.4843 9.95972 73.2629 9.99718Z" fill="#B26016"/>
<path d="M88.1431 20.4318C87.3167 20.9308 86.6554 21.628 86.2341 22.4483C86.1377 22.6363 85.8185 22.4985 85.9149 22.3099C86.3611 21.4419 87.0655 20.6959 87.9405 20.167C88.13 20.0527 88.3333 20.3168 88.1431 20.4318Z" fill="#7F4924"/>
<path d="M87.3285 21.8769C87.1127 21.7308 86.8968 21.5842 86.681 21.4381C86.6068 21.388 86.5984 21.2718 86.6602 21.2108C86.7282 21.1429 86.8295 21.1384 86.9086 21.1918C87.1244 21.3378 87.3403 21.4845 87.5561 21.6305C87.6303 21.6807 87.6386 21.7969 87.5769 21.8578C87.5089 21.9258 87.4083 21.9309 87.3285 21.8769Z" fill="#7F4924"/>
<path d="M69.9544 20.5886C69.5838 20.068 69.2133 19.5473 68.842 19.0267C68.7178 18.8527 69.0065 18.6667 69.1307 18.8413C69.5013 19.3619 69.8718 19.8826 70.2431 20.4032C70.3673 20.5772 70.0786 20.7632 69.9544 20.5886Z" fill="#7F4924"/>
<path d="M69.3841 19.9841C69.3744 19.9879 69.3646 19.993 69.3542 19.9968C69.391 19.9778 69.332 20.0057 69.3542 19.9968C69.3376 20.0057 69.3202 20.0152 69.3036 20.0248C69.2876 20.0349 69.2716 20.0451 69.2564 20.0559C69.2481 20.0622 69.2397 20.0686 69.2314 20.0749C69.2279 20.0775 69.2064 20.0959 69.2238 20.0806C69.2425 20.0641 69.2162 20.0883 69.212 20.0914C69.2044 20.0984 69.1967 20.1054 69.1898 20.113C69.1766 20.1264 69.1641 20.1397 69.1516 20.1537C69.1391 20.1676 69.128 20.1822 69.1169 20.1968C69.1023 20.2102 69.1037 20.214 69.1169 20.1968C69.11 20.2032 69.1051 20.214 69.1003 20.2216C69.0808 20.2527 69.0642 20.2851 69.0489 20.3181C69.0447 20.327 69.0413 20.3365 69.0371 20.346C69.0281 20.3664 69.0378 20.3492 69.0392 20.3384C69.0371 20.3568 69.0267 20.3778 69.0225 20.3956C69.0142 20.4305 69.0086 20.4654 69.0052 20.501C69.001 20.5397 69.0045 20.4768 69.0052 20.4991C69.0052 20.5092 69.0052 20.5188 69.0052 20.5289C69.0059 20.5486 69.0072 20.5689 69.0093 20.5886C69.0183 20.6724 68.9448 20.76 68.8505 20.7645C68.7547 20.7689 68.6679 20.7092 68.6582 20.6191C68.6138 20.2248 68.8685 19.84 69.2613 19.6806C69.3459 19.6463 69.4597 19.6965 69.4881 19.7759C69.5187 19.8641 69.4743 19.9473 69.3841 19.9841Z" fill="#7F4924"/>
<path d="M80.2522 15.7472C80.1946 16.9212 80.1099 18.0946 79.9954 19.2654C79.9385 19.8508 79.874 20.4356 79.8032 21.0197C79.7706 21.2858 79.7567 21.5633 79.6977 21.8255C79.6554 22.0147 79.5263 22.2147 79.2862 22.1995C79.137 22.1899 79.0142 22.0953 78.899 22.0166C78.779 21.9341 78.6631 21.8458 78.5535 21.7525C78.3224 21.5563 78.1135 21.3379 77.9296 21.1036C77.7971 20.9347 78.0858 20.7493 78.2183 20.9182C78.3654 21.1061 78.5271 21.282 78.7089 21.4432C78.7929 21.5175 78.8796 21.5886 78.9698 21.6572C79.0461 21.715 79.1745 21.8414 79.2731 21.8636C79.3216 21.8744 79.2883 21.8852 79.3216 21.8522C79.3431 21.8306 79.3473 21.7829 79.3529 21.755C79.3785 21.6356 79.3869 21.5112 79.4022 21.3899C79.4362 21.1245 79.4688 20.8591 79.5 20.5937C79.6207 19.5575 79.72 18.52 79.7963 17.48C79.84 16.8844 79.8761 16.2888 79.9052 15.6932C79.915 15.4844 80.2626 15.5421 80.2522 15.7472Z" fill="#7F4924"/>
<path d="M76.9215 14.6266C77.045 14.9009 76.8827 15.2526 76.5815 15.3631C76.3969 15.431 76.1894 15.4126 75.9916 15.3942C74.8314 15.2831 73.6718 15.172 72.5123 15.0602C72.5067 14.7447 72.7795 14.4697 73.0959 14.344C73.413 14.2189 73.7683 14.2126 74.1139 14.2081C74.9542 14.1973 75.7946 14.1866 76.6349 14.1758C76.7612 14.1739 76.8986 14.1758 76.9972 14.2481C77.0957 14.3205 77.1096 14.4907 76.9937 14.5358L76.9215 14.6266Z" fill="#512C13"/>
<path d="M81.6215 14.1795C81.4036 14.3985 81.4258 14.7808 81.6673 14.9776C81.8158 15.0989 82.017 15.1465 82.2107 15.1903C83.3425 15.4468 84.4749 15.7033 85.6067 15.9605C85.7296 15.6652 85.5755 15.3217 85.3243 15.1052C85.0731 14.8887 84.7407 14.7719 84.418 14.6601C83.6318 14.3884 82.8456 14.116 82.06 13.8442C81.9421 13.8036 81.8123 13.7623 81.6923 13.7992C81.5729 13.836 81.4959 13.9922 81.5882 14.0709L81.6215 14.1795Z" fill="#512C13"/>
<path d="M73.8647 22.8389C75.2325 22.0605 76.9403 21.7989 78.5099 22.1278C80.0796 22.4567 81.4931 23.3723 82.3536 24.618C83.4146 23.2459 84.4764 21.8738 85.5374 20.5017L85.6192 20.329C85.7573 20.3823 85.8954 20.4357 86.0342 20.489C86.0058 23.0757 84.5603 25.4625 82.9788 27.6079C82.2079 28.6537 81.3773 29.6905 80.2684 30.4391C79.1595 31.1884 77.7209 31.6201 76.383 31.3179C74.6774 30.9331 73.5254 29.4931 72.708 28.0702C70.8115 24.7698 69.9024 20.9995 70.1057 17.2756C71.1848 19.2223 72.4436 21.0852 73.8647 22.8389ZM75.8286 25.7926C76.4823 26.4257 77.4857 26.7558 78.4225 26.6003C79.4072 26.4371 81.362 25.1971 81.6521 25.2275C81.6521 25.2275 78.8021 23.9367 78.3566 22.9703C77.4767 23.7367 76.0465 23.9113 74.9778 23.3831C74.8723 24.2491 75.1749 25.1596 75.8286 25.7926Z" fill="#512C13"/>
<path d="M81.3446 13.4945C81.2128 13.9618 81.1406 14.4424 81.1392 14.9256C81.1392 15.0126 81.0816 15.0926 80.9803 15.1015C80.8929 15.1091 80.7874 15.0437 80.7881 14.9561C80.7895 14.4437 80.8568 13.9345 80.997 13.4386C81.0206 13.3541 81.1018 13.2919 81.201 13.3078C81.2898 13.3217 81.3689 13.4094 81.3446 13.4945Z" fill="#512C13"/>
<path d="M77.7757 14.4279C77.7236 14.6983 77.6723 14.9695 77.6202 15.24C77.6043 15.3231 77.5092 15.3898 77.4162 15.3707C77.3225 15.3517 77.2559 15.273 77.2733 15.1841C77.3253 14.9136 77.3774 14.6425 77.4287 14.372C77.4447 14.2888 77.5397 14.2221 77.6327 14.2412C77.7264 14.2596 77.793 14.3383 77.7757 14.4279Z" fill="#512C13"/>
<path d="M83.4874 35.9859C81.4264 37.0234 79.0962 37.5669 76.7472 37.6138C74.4121 37.6608 72.0639 37.2329 69.9391 36.3427C68.7393 35.8398 67.6137 35.1871 66.6124 34.4017C66.4403 34.2665 66.6679 34.0195 66.8407 34.1553C68.579 35.5192 70.6872 36.4583 72.9147 36.9307C75.1366 37.4018 77.4738 37.4221 79.7006 36.9605C80.949 36.7014 82.1633 36.2868 83.2854 35.7217C83.4818 35.6227 83.6865 35.8862 83.4874 35.9859Z" fill="#3DA7E9"/>
<path d="M54.0794 54.561C54.6012 52.4664 54.9967 50.345 55.2611 48.2104C55.5262 46.0725 55.6608 43.9213 55.6622 41.7695C55.6629 40.5568 55.6213 39.3434 55.5394 38.1332C55.5255 37.9263 55.8766 37.8951 55.8905 38.1028C56.0369 40.2622 56.0515 42.4273 55.9349 44.588C55.8191 46.743 55.5713 48.8916 55.1938 51.0206C54.9794 52.2263 54.7233 53.4257 54.4263 54.6169C54.3764 54.8188 54.0287 54.7636 54.0794 54.561Z" fill="#3DA7E9"/>
<path d="M54.9842 41.8502C55.1403 43.7302 55.2333 45.6147 55.2604 47.5005C55.268 48.0351 55.2701 48.5704 55.2673 49.1056C55.2659 49.312 54.9148 49.3437 54.9162 49.1361C54.9259 47.2503 54.8711 45.3646 54.751 43.482C54.717 42.948 54.6775 42.414 54.6331 41.8807C54.6157 41.6737 54.9668 41.6432 54.9842 41.8502Z" fill="#3DA7E9"/>
<path d="M92.4815 40.7245C92.265 44.2135 91.8625 47.6923 91.274 51.1457C91.1068 52.1274 90.9243 53.1064 90.7272 54.0836C90.6863 54.2881 90.3386 54.2322 90.3796 54.0277C91.0721 50.5908 91.5822 47.124 91.9041 43.6414C91.9957 42.6515 92.0721 41.6604 92.1338 40.6686C92.147 40.4616 92.494 40.5194 92.4815 40.7245Z" fill="#3DA7E9"/>
<path d="M93.8035 42.9042C93.2879 44.3518 92.6655 45.7658 91.9396 47.136C91.8411 47.3227 91.5212 47.1849 91.6204 46.9976C92.3456 45.6274 92.9687 44.2134 93.4843 42.7657C93.5544 42.5689 93.8729 42.7086 93.8035 42.9042Z" fill="#3DA7E9"/>
<path d="M97.0205 49.3544C96.7963 49.7665 96.5715 50.1792 96.3474 50.5913C96.2461 50.7767 95.9268 50.6395 96.0282 50.4529C96.2523 50.0408 96.4771 49.6281 96.7012 49.216C96.8026 49.0306 97.1218 49.1677 97.0205 49.3544Z" fill="#3DA7E9"/>
<path d="M95.7735 48.7373C95.6306 48.9925 95.4883 49.2484 95.3454 49.5037C95.3037 49.5786 95.1962 49.6218 95.1101 49.5805C95.0275 49.5405 94.981 49.4459 95.0261 49.3652C95.1691 49.11 95.3113 48.8541 95.4543 48.5989C95.4959 48.5239 95.6035 48.4808 95.6895 48.522C95.7721 48.562 95.8179 48.6567 95.7735 48.7373Z" fill="#3DA7E9"/>
<path d="M94.53 49.1704C94.5147 49.2517 94.4987 49.3329 94.4834 49.4142C94.4758 49.4548 94.4481 49.4948 94.4113 49.5183C94.3759 49.5412 94.3224 49.5539 94.2794 49.545C94.235 49.5361 94.1906 49.5152 94.1656 49.4783C94.1406 49.4421 94.1282 49.4009 94.1365 49.3577C94.1517 49.2764 94.1677 49.1951 94.183 49.1139C94.1906 49.0732 94.2184 49.0332 94.2558 49.0097C94.2912 48.9869 94.3447 48.9742 94.3877 48.9831C94.4321 48.992 94.4765 49.0129 94.5015 49.0497C94.5258 49.0859 94.5383 49.1272 94.53 49.1704Z" fill="#3DA7E9"/>
<path d="M94.6589 52.3329C94.5957 52.4898 94.5326 52.6466 94.4694 52.8034C94.4548 52.8396 94.409 52.8726 94.3716 52.8853C94.3306 52.8993 94.2738 52.8987 94.2349 52.8796C94.1953 52.8606 94.1593 52.8301 94.1447 52.7901C94.1294 52.7469 94.1336 52.7075 94.1509 52.665C94.2141 52.5082 94.2772 52.3513 94.3404 52.1945C94.3549 52.1583 94.4007 52.1253 94.4382 52.1126C94.4791 52.0986 94.5361 52.0993 94.5749 52.1183C94.6145 52.1374 94.6506 52.1678 94.6651 52.2078C94.6804 52.251 94.6762 52.2898 94.6589 52.3329Z" fill="#3DA7E9"/>
<path d="M52.3286 50.9298C52.2953 51.4263 52.2627 51.9235 52.2294 52.42C52.2238 52.507 52.1114 52.5647 52.0253 52.5508C51.9226 52.5343 51.8761 52.4511 51.8824 52.3641C51.9157 51.8676 51.9483 51.3704 51.9816 50.8739C51.9872 50.7869 52.0996 50.7291 52.1856 50.7431C52.2883 50.759 52.3348 50.8422 52.3286 50.9298Z" fill="#3DA7E9"/>
<path d="M50.9539 52.2555C51.0101 52.7679 50.9713 53.2892 50.8366 53.7895C50.8137 53.874 50.7305 53.9362 50.6326 53.9203C50.5438 53.9057 50.4668 53.8187 50.4897 53.7337C50.6174 53.2587 50.6562 52.773 50.6035 52.2866C50.5799 52.079 50.931 52.0485 50.9539 52.2555Z" fill="#3DA7E9"/>
<path d="M50.8096 55.9114C50.8581 56.1914 50.8214 56.4759 50.7166 56.7419C50.6854 56.8213 50.5598 56.8569 50.4814 56.8188C50.3905 56.7743 50.3641 56.6892 50.3974 56.6035C50.4029 56.5883 50.4092 56.573 50.4147 56.5578C50.4189 56.5464 50.4182 56.5489 50.4119 56.5661C50.4147 56.5572 50.4175 56.5483 50.4203 56.5394C50.4286 56.5127 50.4355 56.4861 50.4425 56.4594C50.4571 56.3991 50.4675 56.3375 50.4744 56.2759C50.4758 56.26 50.4772 56.2442 50.4786 56.2276C50.482 56.1921 50.4786 56.2549 50.4793 56.2162C50.4799 56.1864 50.48 56.1565 50.4786 56.1267C50.4758 56.0645 50.4696 56.0029 50.4585 55.9419C50.4439 55.8581 50.5265 55.7698 50.6174 55.766C50.718 55.7616 50.7943 55.8219 50.8096 55.9114Z" fill="#3DA7E9"/>
<path d="M49.5805 52.2492C49.5382 52.394 49.509 52.5413 49.4945 52.6905C49.491 52.7248 49.4882 52.7597 49.4868 52.794C49.4882 52.7692 49.4861 52.8226 49.4854 52.8283C49.4848 52.8486 49.4847 52.8683 49.4847 52.8886C49.4847 52.9635 49.4889 53.0384 49.4958 53.1127C49.5035 53.1965 49.4327 53.2842 49.3369 53.2886C49.2418 53.2931 49.153 53.2334 49.1447 53.1432C49.1149 52.8251 49.1433 52.5013 49.2328 52.1927C49.2564 52.1114 49.3383 52.0416 49.4369 52.0619C49.5243 52.0797 49.6055 52.1616 49.5805 52.2492Z" fill="#3DA7E9"/>
<path d="M50.7749 47.9214C50.7124 48.2459 50.65 48.571 50.5882 48.8961C50.5723 48.9792 50.4772 49.0459 50.3842 49.0269C50.2905 49.0078 50.2239 48.9291 50.2413 48.8402C50.3037 48.5151 50.3655 48.1906 50.4279 47.8662C50.4439 47.783 50.539 47.7163 50.632 47.7354C50.7249 47.7532 50.7916 47.8319 50.7749 47.9214Z" fill="#3DA7E9"/>
<path d="M82.6417 45.7512C82.7166 45.9868 82.7035 46.2337 82.5994 46.4604C82.5633 46.5385 82.446 46.5766 82.3641 46.5372C82.2767 46.4947 82.242 46.4058 82.2801 46.322C82.2919 46.2972 82.3017 46.2718 82.3107 46.2464C82.3058 46.2604 82.301 46.2737 82.2961 46.2877C82.3211 46.2134 82.3357 46.1372 82.3398 46.0591C82.3391 46.0737 82.3384 46.0883 82.3377 46.1023C82.3391 46.0566 82.3377 46.0115 82.3322 45.9658C82.3294 45.9442 82.326 45.9226 82.3211 45.901C82.3197 45.8947 82.3183 45.8877 82.3162 45.8814C82.3183 45.8883 82.3197 45.8953 82.3218 45.9023C82.3155 45.8979 82.3128 45.8706 82.31 45.8629C82.2843 45.7823 82.319 45.6833 82.4141 45.6553C82.5001 45.6306 82.6139 45.6648 82.6417 45.7512Z" fill="#3DA7E9"/>
<path d="M81.1307 45.0947C81.1099 45.4141 81.0169 45.729 80.8629 46.0167C80.8226 46.0922 80.713 46.1348 80.6276 46.0935C80.5444 46.0529 80.5006 45.9595 80.5437 45.8783C80.6179 45.7398 80.67 45.6122 80.7068 45.4827C80.7477 45.3373 80.7727 45.1887 80.7824 45.0389C80.7879 44.9544 80.901 44.8903 80.9864 44.9081C81.0891 44.929 81.1363 45.0046 81.1307 45.0947Z" fill="#3DA7E9"/>
<path d="M80.4174 41.0844C80.3855 41.1314 80.3571 41.1802 80.3328 41.231C80.321 41.2564 80.3092 41.2818 80.2995 41.3085C80.296 41.318 80.2807 41.353 80.2974 41.3123C80.2918 41.325 80.2884 41.339 80.2849 41.3523C80.2696 41.4037 80.2578 41.4564 80.2502 41.5091C80.246 41.5364 80.2439 41.5644 80.2419 41.5917C80.2384 41.6323 80.2419 41.5549 80.2419 41.5961C80.2419 41.612 80.2419 41.6279 80.2419 41.6437C80.2433 41.7276 80.1829 41.8152 80.083 41.8196C79.9934 41.8234 79.8921 41.7644 79.8908 41.6742C79.8859 41.4196 79.9525 41.1644 80.0996 40.9466C80.1246 40.9098 80.1517 40.8799 80.1975 40.8647C80.2384 40.8507 80.2953 40.8513 80.3342 40.8704C80.4105 40.9066 80.4695 41.0075 80.4174 41.0844Z" fill="#3DA7E9"/>
<path d="M77.4225 44.4153C77.3551 44.767 77.2878 45.1188 77.2198 45.4705C77.2039 45.5537 77.1088 45.6204 77.0158 45.6013C76.9221 45.5823 76.8555 45.5035 76.8729 45.414C76.9402 45.0623 77.0075 44.7105 77.0755 44.3587C77.0915 44.2756 77.1865 44.2089 77.2795 44.2279C77.3732 44.2476 77.4398 44.3264 77.4225 44.4153Z" fill="#3DA7E9"/>
<path d="M104.627 118.824L87.1437 74.1392C87.2006 70.9868 90.3656 45.2025 89.222 32.6422C88.3546 32.3774 87.6003 31.8333 86.1853 31.8485C85.7371 38.5369 87.4379 39.3198 86.5545 45.5333C86.5011 45.9099 86.4358 46.308 86.1694 46.5988C85.7856 47.0178 85.1188 47.0819 84.5227 47.115C79.0851 47.4172 73.6467 47.7188 68.2091 48.021C65.7817 42.2304 65.992 34.9927 62.038 29.9557C61.3198 30.385 59.8646 31.1145 59.1464 31.5431C63.8658 36.7953 63.1823 45.2552 62.7756 52.0446C62.5258 56.2117 50.2571 69.5581 50.5479 71.6979L46.9949 86.4107L47.0061 108.216L46.8881 159.291L52.7782 161.355L61.1324 159.975L70.9703 96.5018L85.0612 117.414L85.1118 117.426C83.971 127.823 83.402 138.272 83.4131 148.722C87.8279 149.141 92.2434 149.56 96.6582 149.978C97.028 150.013 97.4361 150.039 97.7352 149.837C97.9718 149.677 98.0849 149.41 98.1848 149.157C101.136 141.732 102.216 126.459 104.55 118.836L104.627 118.824Z" fill="#C2B38C"/>
<path d="M72.5704 40.6241C72.5135 40.9219 72.4566 41.2197 72.399 41.5175C72.3831 41.6006 72.288 41.6673 72.195 41.6482C72.1013 41.6292 72.0347 41.5505 72.0521 41.4616C72.109 41.1638 72.1659 40.866 72.2235 40.5682C72.2394 40.485 72.3345 40.4184 72.4275 40.4374C72.5205 40.4558 72.5871 40.5346 72.5704 40.6241Z" fill="#3DA7E9"/>
<path d="M69.7857 39.7554C69.6698 40.1008 69.5539 40.4463 69.4387 40.7917C69.4117 40.8723 69.3353 40.9434 69.2347 40.9225C69.1507 40.9053 69.0626 40.8221 69.0918 40.7358C69.2076 40.3904 69.3235 40.045 69.4387 39.6996C69.4658 39.6189 69.5421 39.5478 69.6427 39.5688C69.7267 39.5859 69.8148 39.6691 69.7857 39.7554Z" fill="#3DA7E9"/>
<path d="M89.261 48.2561C89.3519 48.658 89.2387 49.0802 88.9542 49.3977C88.6725 49.712 88.2069 49.8701 87.7773 49.7342C87.3631 49.6034 87.0043 49.251 87.0022 48.8339C86.9994 48.3761 87.42 48.0624 87.844 47.9018C88.1174 47.7983 88.4386 47.7138 88.7356 47.7646C89.0215 47.8135 89.2665 48.0269 89.2707 48.3018C89.2741 48.5094 88.9209 48.5094 88.9181 48.3018C88.9161 48.1488 88.728 48.0764 88.5844 48.0726C88.3838 48.0675 88.1736 48.1278 87.9883 48.1945C87.7059 48.2967 87.3777 48.4955 87.3554 48.8015C87.336 49.072 87.5768 49.3126 87.8356 49.4117C88.1333 49.5253 88.4435 49.4307 88.6566 49.2206C88.8883 48.9913 88.9896 48.6478 88.9209 48.3431C88.8751 48.1393 89.2152 48.0529 89.261 48.2561Z" fill="#827454"/>
<path d="M66.8914 48.5951C67.2557 48.8853 67.3841 49.3812 67.246 49.7996C67.0975 50.2491 66.6582 50.5329 66.1537 50.5615C65.6381 50.5914 65.1094 50.3234 64.9435 49.8612C64.8547 49.6136 64.9151 49.3361 65.0636 49.1183C65.2225 48.8859 65.4647 48.7297 65.7388 48.6281C66.0101 48.5278 66.3383 48.4592 66.6298 48.5157C66.8956 48.5672 67.1349 48.7488 67.0683 49.0186C67.0184 49.2212 66.6776 49.1355 66.7283 48.9329C66.7394 48.8885 66.7332 48.9475 66.7297 48.9062C66.7318 48.9272 66.711 48.9024 66.7276 48.9126C66.7186 48.9069 66.704 48.8891 66.6936 48.8821C66.636 48.8459 66.5611 48.8281 66.4945 48.8212C66.2967 48.7996 66.0732 48.8593 65.89 48.9202C65.5271 49.0415 65.1503 49.3774 65.2808 49.7634C65.3897 50.0872 65.7721 50.251 66.1197 50.2409C66.4493 50.2314 66.7616 50.0625 66.8845 49.7755C67.0246 49.4485 66.9344 49.0561 66.643 48.8243C66.4702 48.6866 66.7207 48.4592 66.8914 48.5951Z" fill="#827454"/>
<path d="M85.3956 58.9084C83.3437 59.0678 81.2897 59.1942 79.2328 59.2862C77.1663 59.3789 75.0984 59.4386 73.0298 59.464C71.8688 59.478 70.7072 59.4818 69.5463 59.4748C69.4505 59.4742 69.37 59.4011 69.37 59.3135C69.3582 57.1325 69.3464 54.9521 69.3346 52.7711C69.3312 52.1457 69.3277 51.5196 69.3242 50.8942C69.3235 50.8072 69.4054 50.733 69.5005 50.733C71.5913 50.7317 73.6814 50.6657 75.7673 50.5336C77.8561 50.4015 79.9406 50.2047 82.0148 49.9406C83.1792 49.792 84.3395 49.6231 85.4969 49.4345C85.6066 49.4167 85.7225 49.4777 85.7204 49.5901C85.7037 50.6269 85.6871 51.6631 85.6704 52.7C85.6441 54.34 85.6177 55.9801 85.5906 57.6201C85.5844 57.996 85.5788 58.3713 85.5726 58.7472C85.5691 58.9548 85.2166 58.9554 85.2201 58.7472C85.2367 57.7103 85.2534 56.6741 85.2707 55.6372C85.2971 53.9972 85.3235 52.3571 85.3505 50.7171C85.3568 50.3412 85.363 49.9659 85.3686 49.5901C85.4428 49.6421 85.5171 49.6936 85.592 49.7456C83.5283 50.0828 81.4513 50.3558 79.3675 50.5634C77.2697 50.7723 75.165 50.9152 73.0569 50.9914C71.873 51.0339 70.6878 51.0549 69.5033 51.0561C69.5622 51.0022 69.6205 50.9482 69.6795 50.8949C69.6913 53.0759 69.7031 55.2563 69.7149 57.4373C69.7184 58.0627 69.7218 58.6887 69.7246 59.3142C69.6656 59.2602 69.6073 59.2069 69.5484 59.1529C71.6073 59.1649 73.6661 59.144 75.7243 59.0894C77.7922 59.0348 79.8588 58.9459 81.9232 58.8234C83.0821 58.7548 84.2402 58.6754 85.397 58.5859C85.6219 58.5681 85.6205 58.8913 85.3956 58.9084Z" fill="#827454"/>
<path d="M85.2943 52.3361C83.3284 52.7031 81.3347 52.9336 79.3348 53.0764C77.3176 53.2205 75.2934 53.2758 73.2706 53.2999C72.1346 53.3132 70.9986 53.3171 69.862 53.3202C69.6351 53.3209 69.6344 52.9983 69.862 52.9977C71.8674 52.992 73.8729 52.9856 75.8777 52.9247C77.8776 52.8637 79.8775 52.7481 81.8642 52.5227C82.9828 52.3958 84.0959 52.2319 85.1999 52.0256C85.422 51.983 85.5171 52.2948 85.2943 52.3361Z" fill="#827454"/>
<path d="M53.7532 79.2976C52.1842 81.0062 50.5771 82.6856 48.9325 84.3333C48.4696 84.7968 48.004 85.2577 47.5356 85.7162C47.3802 85.8685 47.131 85.6393 47.2865 85.4876C48.9519 83.8577 50.5812 82.1961 52.171 80.5039C52.6186 80.0284 53.0627 79.5496 53.5034 79.069C53.6498 78.9102 53.8982 79.1395 53.7532 79.2976Z" fill="#827454"/>
<path d="M83.7867 79.1998C84.8512 80.2043 85.9156 81.2088 86.9808 82.2139C87.139 82.3631 86.8899 82.5917 86.7317 82.4425C85.6672 81.438 84.6027 80.4335 83.5375 79.429C83.3793 79.2786 83.6285 79.05 83.7867 79.1998Z" fill="#827454"/>
<path d="M86.4429 77.2569C85.3972 77.0271 84.3035 77.0753 83.2363 77.0753C82.1253 77.0753 81.0136 77.0773 79.9026 77.0811C77.68 77.0887 75.4573 77.1033 73.2354 77.1249C68.7907 77.1687 64.3461 77.2411 59.9022 77.342C57.4082 77.3985 54.9149 77.4646 52.4209 77.5395C52.194 77.5465 52.194 77.2233 52.4209 77.2169C56.8864 77.083 61.3525 76.9776 65.8193 76.9014C70.2632 76.8258 74.7086 76.7788 79.1532 76.761C80.4002 76.756 81.6479 76.7534 82.8956 76.7528C84.1044 76.7522 85.3514 76.6855 86.5359 76.9458C86.7573 76.9947 86.6636 77.3058 86.4429 77.2569Z" fill="#827454"/>
<path d="M74.9146 95.0307C72.7211 95.4053 70.5109 95.6987 68.2917 95.9069C67.6595 95.9666 67.026 96.0187 66.3924 96.0644C66.1662 96.0809 66.1669 95.7577 66.3924 95.7418C68.595 95.5825 70.7906 95.3412 72.9709 95.0161C73.5892 94.924 74.2054 94.825 74.8209 94.7196C75.0423 94.6815 75.138 94.9926 74.9146 95.0307Z" fill="#827454"/>
<path d="M47.7541 105.218C48.9553 105.308 50.1565 105.397 51.3577 105.487C51.9628 105.532 52.5686 105.577 53.1744 105.623C53.4769 105.646 53.7802 105.668 54.0828 105.691C54.3326 105.709 54.6032 105.705 54.8467 105.765C55.4172 105.906 55.3249 106.517 55.3423 106.941C55.3645 107.485 55.3818 108.029 55.395 108.573C55.4214 109.651 55.4297 110.731 55.4213 111.81C55.4047 113.969 55.3186 116.127 55.1639 118.281C55.0092 120.435 54.7864 122.584 54.4942 124.727C54.2021 126.875 53.842 129.014 53.4131 131.143C53.3611 131.402 53.3076 131.66 53.2535 131.919C53.2382 131.99 53.1564 132.034 53.0835 132.037C51.407 132.126 49.7207 131.986 48.0872 131.627C47.8665 131.578 47.9602 131.267 48.1809 131.316C49.7846 131.669 51.4368 131.802 53.0835 131.715C53.0266 131.754 52.9704 131.794 52.9135 131.834C53.3486 129.754 53.7205 127.662 54.0238 125.563C54.327 123.466 54.5643 121.362 54.7364 119.253C54.9071 117.153 55.0133 115.048 55.0528 112.942C55.0931 110.828 55.0674 108.712 54.9744 106.599C54.9696 106.484 54.9786 106.356 54.946 106.244C54.9141 106.132 54.8287 106.09 54.7121 106.067C54.4526 106.016 54.1709 106.02 53.9065 106C53.3208 105.956 52.7344 105.912 52.1487 105.868C50.9767 105.781 49.8047 105.694 48.6333 105.606C48.3405 105.585 48.047 105.562 47.7541 105.541C47.5293 105.524 47.5272 105.201 47.7541 105.218Z" fill="#827454"/>
<path d="M54.8643 110.029C52.4147 109.737 49.9353 109.681 47.4732 109.86C47.247 109.877 47.2484 109.554 47.4732 109.537C49.936 109.357 52.4147 109.414 54.8643 109.706C54.9593 109.717 55.0399 109.772 55.0406 109.867C55.0419 109.946 54.9587 110.041 54.8643 110.029Z" fill="#827454"/>
<path d="M52.6901 88.8713C52.7935 89.5138 52.8254 90.1621 52.7775 90.8104C52.7622 91.0167 52.409 91.018 52.425 90.8104C52.4708 90.1926 52.4486 89.5703 52.3501 88.9576C52.3362 88.8713 52.3737 88.7843 52.4736 88.7589C52.5562 88.7373 52.6762 88.7843 52.6901 88.8713Z" fill="#827454"/>
<path d="M51.1559 91.0978C51.2441 91.3207 51.2781 91.5645 51.2524 91.8001C51.2475 91.8439 51.2357 91.882 51.2011 91.9144C51.1705 91.9423 51.1199 91.9632 51.0762 91.9613C50.988 91.9575 50.8902 91.8896 50.8999 91.8001C50.9117 91.6902 50.9096 91.581 50.8964 91.4718C50.8915 91.4305 50.9034 91.5074 50.8957 91.4667C50.8929 91.4528 50.8909 91.4388 50.8881 91.4248C50.8825 91.3988 50.877 91.3728 50.8701 91.3474C50.8555 91.2921 50.8374 91.2375 50.8159 91.1842C50.7847 91.1048 50.8513 91.0038 50.9388 90.9854C51.0387 90.9638 51.1226 91.0127 51.1559 91.0978Z" fill="#827454"/>
<path d="M50.3493 85.7829C50.3493 86.1404 50.3493 86.4972 50.35 86.8547C50.35 86.9391 50.2689 87.0198 50.1738 87.016C50.078 87.0122 49.9975 86.9449 49.9975 86.8547C49.9975 86.4972 49.9975 86.1404 49.9968 85.7829C49.9968 85.6985 50.078 85.6178 50.1731 85.6217C50.2688 85.6255 50.3493 85.6921 50.3493 85.7829Z" fill="#827454"/>
<path d="M49.893 94.891C50.0678 95.3837 50.1643 95.8987 50.1817 96.4161C50.1886 96.6238 49.8361 96.6238 49.8291 96.4161C49.8125 95.926 49.7188 95.4434 49.553 94.9767C49.4822 94.7786 49.8229 94.6935 49.893 94.891Z" fill="#827454"/>
<path d="M86.0002 91.2096C85.9537 91.6503 85.9079 92.0915 85.8614 92.5322C85.8524 92.6192 85.7871 92.6935 85.6851 92.6935C85.597 92.6935 85.4999 92.6192 85.5089 92.5322C85.5554 92.0915 85.6012 91.6503 85.6477 91.2096C85.6567 91.1226 85.7226 91.0483 85.8239 91.0483C85.912 91.0483 86.0099 91.1226 86.0002 91.2096Z" fill="#827454"/>
<path d="M84.6586 86.3905C84.565 86.8292 84.4706 87.2686 84.3769 87.7073C84.3589 87.793 84.2465 87.8419 84.1597 87.8203C84.0619 87.7956 84.0182 87.7073 84.0362 87.6216C84.1299 87.1829 84.2236 86.7435 84.3179 86.3047C84.336 86.219 84.4484 86.1701 84.5351 86.1917C84.633 86.2165 84.6767 86.3047 84.6586 86.3905Z" fill="#827454"/>
<path d="M84.8517 89.3531C84.8517 89.5727 84.8517 89.7924 84.8517 90.0128C84.8517 90.0972 84.7705 90.1778 84.6754 90.174C84.5797 90.1702 84.4991 90.1029 84.4991 90.0128C84.4991 89.7931 84.4991 89.5734 84.4991 89.3531C84.4991 89.2686 84.5804 89.188 84.6754 89.1918C84.7712 89.1956 84.8517 89.2629 84.8517 89.3531Z" fill="#827454"/>
<path d="M86.6538 85.7721C86.6878 86.0349 86.6545 86.3067 86.5594 86.5568C86.5289 86.6362 86.4373 86.6978 86.3422 86.6699C86.2562 86.6445 86.1868 86.5568 86.2187 86.4711C86.2416 86.4108 86.2611 86.3492 86.2763 86.287C86.2826 86.2603 86.2888 86.2337 86.2937 86.2064C86.295 86.1994 86.3048 86.1403 86.2985 86.1816C86.3006 86.1683 86.302 86.1543 86.3041 86.141C86.318 86.0184 86.3166 85.8946 86.3006 85.7721C86.2895 85.6876 86.3894 85.607 86.4768 85.6108C86.5823 85.6146 86.642 85.6819 86.6538 85.7721Z" fill="#827454"/>
<path d="M62.7667 154.81C60.1006 155.681 57.3547 156.405 54.5346 156.633C51.7145 156.861 48.8027 156.573 46.2289 155.494C46.0311 156.752 45.8327 158.01 45.6349 159.269C45.6058 159.452 45.5808 159.652 45.6891 159.808C45.764 159.916 45.8903 159.984 46.0124 160.046C50.9664 162.563 57.0938 163.064 62.4565 161.389C62.469 159.234 62.6348 157.08 62.9526 154.945L62.7667 154.81Z" fill="#827454"/>
<path d="M61.551 119.33C61.0812 122.705 60.4851 126.065 59.7593 129.402C59.5525 130.354 59.3346 131.304 59.107 132.251C59.0584 132.453 58.7177 132.368 58.7669 132.165C59.5622 128.856 60.2311 125.523 60.7717 122.172C60.9244 121.226 61.0666 120.279 61.1985 119.33C61.2262 119.127 61.5794 119.125 61.551 119.33Z" fill="#827454"/>
<path d="M58.4101 123.019C58.1249 124.55 57.839 126.082 57.5538 127.614C57.5157 127.818 57.1756 127.731 57.2138 127.528C57.499 125.997 57.7849 124.464 58.0701 122.933C58.1083 122.729 58.4483 122.816 58.4101 123.019Z" fill="#827454"/>
<path d="M57.5797 148.016C57.5797 148.675 57.5804 149.334 57.5804 149.994C57.5804 150.202 57.2279 150.202 57.2272 149.994C57.2272 149.334 57.2264 148.675 57.2264 148.016C57.2264 147.808 57.5797 147.808 57.5797 148.016Z" fill="#827454"/>
<path d="M55.7517 144.352C55.9099 144.867 55.7607 145.431 55.3728 145.83C55.3097 145.895 55.1876 145.889 55.123 145.83C55.0522 145.765 55.0599 145.666 55.123 145.601C55.4297 145.286 55.5332 144.835 55.411 144.437C55.3507 144.237 55.6907 144.151 55.7517 144.352Z" fill="#827454"/>
<path d="M53.5158 142.947C54.107 143.292 54.107 144.17 53.5172 144.516C53.4367 144.563 53.3222 144.531 53.2757 144.458C53.2257 144.38 53.2583 144.284 53.3388 144.237C53.3527 144.229 53.3666 144.221 53.3798 144.212C53.3527 144.229 53.393 144.201 53.395 144.2C53.4193 144.18 53.4409 144.158 53.4631 144.136C53.4881 144.112 53.4527 144.152 53.4756 144.122C53.4832 144.112 53.4908 144.102 53.4984 144.092C53.5144 144.069 53.529 144.045 53.5421 144.021C53.5456 144.014 53.5623 143.979 53.5505 144.005C53.5567 143.991 53.5623 143.977 53.5671 143.963C53.5775 143.934 53.5866 143.906 53.5935 143.876C53.597 143.861 53.5998 143.846 53.6025 143.831C53.6088 143.801 53.6026 143.841 53.6039 143.822C53.6067 143.791 53.6088 143.762 53.6088 143.731C53.6088 143.703 53.606 143.676 53.6046 143.648C53.6018 143.6 53.6116 143.678 53.6025 143.631C53.5998 143.616 53.597 143.601 53.5935 143.586C53.5866 143.557 53.5775 143.528 53.5671 143.5C53.563 143.488 53.5581 143.476 53.5533 143.465C53.5484 143.454 53.5491 143.455 53.5554 143.469C53.5519 143.462 53.5484 143.456 53.5449 143.449C53.5318 143.425 53.5179 143.401 53.5019 143.377C53.4936 143.365 53.4839 143.353 53.4748 143.341C53.4471 143.304 53.4964 143.359 53.4623 143.327C53.4401 143.305 53.4187 143.283 53.3944 143.263C53.3916 143.261 53.3583 143.236 53.3743 143.247C53.386 143.255 53.3437 143.229 53.3382 143.225C53.2577 143.178 53.2257 143.082 53.275 143.004C53.3215 142.932 53.4353 142.9 53.5158 142.947Z" fill="#827454"/>
<path d="M52.1759 152.304C52.1759 152.853 52.1766 153.403 52.1766 153.952C52.1766 154.16 51.8241 154.161 51.8241 153.952C51.8241 153.402 51.8234 152.853 51.8234 152.304C51.8227 152.096 52.1759 152.096 52.1759 152.304Z" fill="#827454"/>
<path d="M81.8068 19.6177C81.7166 20.0857 81.9948 20.5213 82.4271 20.5905C82.8595 20.6603 83.2835 20.3371 83.373 19.8698C83.4632 19.4019 83.1849 18.9663 82.7526 18.8971C82.3203 18.8272 81.897 19.1498 81.8068 19.6177Z" fill="black"/>
<path d="M74.6115 18.8634C74.5213 19.3314 74.7995 19.767 75.2319 19.8362C75.6642 19.906 76.0882 19.5828 76.1777 19.1149C76.2679 18.6469 75.9896 18.2114 75.5573 18.1422C75.1243 18.073 74.701 18.3955 74.6115 18.8634Z" fill="black"/>
<path d="M78.8679 25.044C78.0414 25.1436 77.1789 24.6205 76.9575 23.8852C77.5828 24.2439 78.3572 24.3792 79.083 24.2554L78.8679 25.044Z" fill="white"/>
<path d="M78.8678 24.8237C78.1399 24.9049 77.3939 24.4814 77.1898 23.8268C77.0719 23.9093 76.9539 23.9925 76.836 24.0757C77.5257 24.4662 78.3515 24.5989 79.1475 24.4681C79.0489 24.3779 78.9504 24.2878 78.8511 24.197C78.779 24.4598 78.7075 24.7227 78.636 24.9856C78.5611 25.2605 79.0253 25.378 79.1003 25.1024C79.1717 24.8395 79.2439 24.5767 79.3154 24.3138C79.3626 24.1405 79.1981 24.0135 79.0191 24.0427C78.3515 24.1525 77.6541 24.0198 77.0788 23.6947C76.8998 23.5931 76.668 23.7614 76.7256 23.9436C76.9831 24.769 77.9282 25.3691 78.8678 25.2637C78.9969 25.2491 79.1086 25.1729 79.1086 25.0433C79.1086 24.936 78.9982 24.8091 78.8678 24.8237Z" fill="#7F4924"/>
<path d="M74.705 26.5894C74.7091 26.6148 74.7091 26.6123 74.7043 26.5824C74.7057 26.5939 74.707 26.6053 74.7084 26.6167C74.7105 26.6371 74.7126 26.6567 74.714 26.6771C74.7168 26.7202 74.7174 26.7634 74.7161 26.8066C74.7147 26.8466 74.7105 26.8866 74.707 26.9272C74.7022 26.9786 74.7147 26.8904 74.7057 26.9374C74.7015 26.9602 74.6973 26.9825 74.6925 27.0053C74.6751 27.084 74.6502 27.1621 74.6189 27.2371C74.6148 27.2479 74.6099 27.2587 74.6051 27.2694C74.6175 27.2434 74.6182 27.2415 74.6071 27.2644C74.5988 27.2802 74.5912 27.2955 74.5829 27.3114C74.5607 27.3526 74.5363 27.3926 74.51 27.432C74.4447 27.5304 74.4829 27.6784 74.596 27.7336C74.7133 27.7901 74.8555 27.7596 74.9256 27.6549C75.1623 27.2987 75.2386 26.8821 75.1685 26.4732C75.1491 26.3589 74.9867 26.2859 74.8722 26.3196C74.7369 26.3589 74.6841 26.4675 74.705 26.5894Z" fill="#7F4924"/>
<path d="M73.4469 26.3277C73.4518 26.4122 73.4483 26.496 73.4365 26.5792C73.4393 26.5595 73.4421 26.5404 73.4448 26.5208C73.4268 26.6401 73.3921 26.7563 73.3414 26.8674C73.3498 26.8497 73.3574 26.8325 73.3657 26.8147C73.3539 26.8408 73.3407 26.8662 73.3269 26.8909C73.2707 26.9938 73.2928 27.1341 73.4129 27.1925C73.5218 27.2452 73.6822 27.2236 73.7425 27.1132C73.8744 26.87 73.9438 26.6001 73.9278 26.3277C73.9209 26.2128 73.8216 26.1023 73.687 26.1074C73.5628 26.1125 73.4393 26.2046 73.4469 26.3277Z" fill="#7F4924"/>
<path d="M74.6795 26.7652C74.5803 27.0237 74.4804 27.2821 74.3811 27.5405C74.3395 27.6491 74.4283 27.7862 74.5491 27.8116C74.6837 27.8396 74.8003 27.7742 74.8454 27.658C74.9446 27.3995 75.0445 27.1411 75.1438 26.8827C75.1854 26.7741 75.0966 26.637 74.9758 26.6116C74.8412 26.583 74.7246 26.6484 74.6795 26.7652Z" fill="#7F4924"/>
<path d="M73.4755 25.5405C73.4456 25.6954 73.4158 25.851 73.3859 26.0059C73.3741 26.0656 73.3756 26.1215 73.4103 26.1754C73.4394 26.2211 73.497 26.265 73.5539 26.2764C73.6156 26.2891 73.6851 26.2865 73.7392 26.2542C73.7891 26.225 73.8391 26.178 73.8495 26.1227C73.8793 25.9672 73.9092 25.8122 73.939 25.6567C73.9508 25.597 73.9494 25.5411 73.9147 25.4872C73.8856 25.4414 73.828 25.3976 73.7711 25.3862C73.7093 25.3735 73.6406 25.376 73.5858 25.4084C73.5365 25.4383 73.4866 25.4846 73.4755 25.5405Z" fill="#7F4924"/>
<path d="M72.9016 24.5531C72.8135 24.7442 72.7254 24.9353 72.6372 25.1271C72.615 25.176 72.6338 25.2534 72.6615 25.2966C72.6907 25.3423 72.7483 25.3861 72.8052 25.3976C72.8669 25.4103 72.9356 25.4077 72.9904 25.3753C73.0064 25.3639 73.0231 25.3525 73.039 25.3411C73.0689 25.3138 73.0897 25.2814 73.1008 25.2439C73.1889 25.0528 73.2771 24.8617 73.3652 24.6699C73.3874 24.621 73.3686 24.5436 73.3409 24.5004C73.3117 24.4547 73.2542 24.4109 73.1973 24.3994C73.1355 24.3867 73.0661 24.3893 73.012 24.4217C72.996 24.4331 72.9793 24.4445 72.9634 24.456C72.9335 24.4833 72.9127 24.5156 72.9016 24.5531Z" fill="#7F4924"/>
<path d="M71.7934 23.7607C71.776 23.8496 71.7594 23.9378 71.7421 24.0267C71.7316 24.0559 71.7302 24.0851 71.7379 24.1143C71.7393 24.1435 71.749 24.1709 71.7663 24.1963C71.7816 24.2216 71.8024 24.2426 71.8281 24.2578C71.8517 24.2775 71.8788 24.2902 71.91 24.2972C71.9718 24.3099 72.0404 24.3074 72.0952 24.275C72.1112 24.2636 72.1279 24.2521 72.1438 24.2407C72.1737 24.2134 72.1945 24.181 72.2056 24.1435C72.2229 24.0547 72.2396 23.9664 72.257 23.8775C72.2674 23.8483 72.2687 23.8191 72.2611 23.7899C72.2597 23.7607 72.25 23.7334 72.2326 23.708C72.2174 23.6826 72.1966 23.6616 72.1709 23.6464C72.1473 23.6267 72.1203 23.614 72.089 23.607C72.0273 23.5943 71.9585 23.5969 71.9037 23.6292C71.8878 23.6407 71.8711 23.6521 71.8551 23.6635C71.8253 23.6908 71.8045 23.7232 71.7934 23.7607Z" fill="#7F4924"/>
<path d="M72.6935 22.5936C72.6921 22.6222 72.6893 22.6502 72.6851 22.6787C72.6879 22.659 72.6907 22.6394 72.6935 22.6203C72.681 22.699 72.658 22.7746 72.6254 22.8483C72.6338 22.8305 72.6414 22.8133 72.6497 22.7955C72.6157 22.8686 72.5727 22.9365 72.52 23C72.5325 22.9854 72.545 22.9702 72.5575 22.9556C72.5408 22.9752 72.5227 22.9949 72.504 23.0133C72.461 23.0565 72.4332 23.1098 72.4332 23.1689C72.4332 23.2229 72.4596 23.2876 72.504 23.3245C72.5498 23.3632 72.6102 23.3918 72.674 23.3892C72.7365 23.3867 72.801 23.3683 72.844 23.3245C73.0446 23.1225 73.1605 22.8667 73.1743 22.5943C73.1799 22.4787 73.0599 22.3689 72.9336 22.3739C72.7982 22.379 72.699 22.4698 72.6935 22.5936Z" fill="#7F4924"/>
<path d="M71.914 22.3765C71.9189 22.3791 71.9237 22.3816 71.9279 22.3841C71.9119 22.3727 71.8953 22.3613 71.8793 22.3499C71.8849 22.3543 71.8904 22.3588 71.8946 22.3638C71.8821 22.3492 71.8696 22.334 71.8571 22.3194C71.8626 22.3257 71.8668 22.3321 71.8696 22.3397C71.8612 22.3219 71.8536 22.3048 71.8453 22.287C71.8488 22.2953 71.8515 22.3041 71.8529 22.3137C71.8501 22.294 71.8474 22.2749 71.8446 22.2553C71.846 22.266 71.846 22.2768 71.8446 22.287C71.8474 22.2673 71.8501 22.2483 71.8529 22.2286C71.8515 22.2394 71.8481 22.2495 71.8439 22.2597C71.8522 22.2419 71.8599 22.2248 71.8682 22.207C71.8641 22.2159 71.8592 22.2235 71.8529 22.2311C71.8654 22.2165 71.8779 22.2013 71.8904 22.1867C71.8849 22.193 71.8793 22.1987 71.8724 22.2032C71.8883 22.1918 71.905 22.1803 71.9209 22.1689C71.9154 22.1727 71.9091 22.1759 71.9022 22.1791C71.9216 22.1714 71.9404 22.1645 71.9598 22.1568C71.9528 22.1594 71.9459 22.1613 71.9383 22.1619C71.907 22.1689 71.8793 22.1816 71.8564 22.2013C71.83 22.2165 71.8099 22.2375 71.7946 22.2629C71.7773 22.2883 71.7676 22.3156 71.7662 22.3448C71.7592 22.374 71.7606 22.4032 71.7703 22.4324C71.7787 22.4502 71.7863 22.4673 71.7946 22.4851C71.8162 22.5181 71.8446 22.5448 71.8807 22.5638C71.9001 22.5715 71.9188 22.5784 71.9383 22.5861C71.9806 22.5968 72.0236 22.5968 72.066 22.5861C72.0701 22.5854 72.075 22.5848 72.0791 22.5835C72.1062 22.5746 72.1284 22.5657 72.1478 22.5575C72.1513 22.5556 72.1555 22.5537 72.1589 22.5518C72.1686 22.5454 72.1791 22.5378 72.1881 22.5315C72.1971 22.5251 72.2082 22.5175 72.2179 22.5105C72.2214 22.508 72.2242 22.5048 72.227 22.5023C72.2429 22.4851 72.2582 22.4673 72.2721 22.4489C72.2748 22.4457 72.2769 22.4419 72.279 22.4388C72.2908 22.4191 72.2991 22.3968 72.3081 22.3759C72.3116 22.3683 72.3144 22.36 72.3158 22.3518C72.3199 22.3289 72.3234 22.3061 72.3262 22.2826C72.3269 22.2781 72.3269 22.273 72.3269 22.2686C72.3269 22.2641 72.3262 22.2603 72.3262 22.2565C72.3234 22.2337 72.3213 22.2095 72.3158 22.1873C72.3151 22.1835 72.3137 22.1797 72.3123 22.1759C72.304 22.1549 72.2943 22.1333 72.2832 22.113C72.2811 22.1092 72.2783 22.1048 72.2755 22.1016C72.263 22.0851 72.2485 22.0679 72.2346 22.0527C72.2075 22.0299 72.1888 22.0165 72.1707 22.0051C72.1659 22.0019 72.1617 21.9994 72.1569 21.9975C72.1291 21.9816 72.0993 21.9727 72.0674 21.9714C72.0354 21.9651 72.0035 21.9664 71.9716 21.9753C71.9404 21.9822 71.9133 21.9949 71.8897 22.0146C71.8633 22.0299 71.8425 22.0508 71.8279 22.0762C71.8196 22.094 71.812 22.1111 71.8037 22.1289C71.7926 22.1683 71.7926 22.207 71.8037 22.2457C71.812 22.2635 71.8196 22.2806 71.8279 22.2984C71.8494 22.3302 71.8779 22.3568 71.914 22.3765Z" fill="#7F4924"/>
<path d="M71.4116 21.1023C71.3734 21.1645 71.3352 21.2261 71.297 21.2883C71.2797 21.3137 71.27 21.341 71.2686 21.3702C71.2617 21.3994 71.2631 21.4287 71.2728 21.4579C71.2804 21.4864 71.2943 21.5112 71.3158 21.5328C71.3325 21.5569 71.3554 21.576 71.3831 21.5893C71.4025 21.5969 71.4213 21.6039 71.4407 21.6115C71.4837 21.6217 71.5261 21.6217 71.5684 21.6115C71.5878 21.6039 71.6066 21.5969 71.626 21.5893C71.6621 21.5696 71.6912 21.5436 71.712 21.5106C71.7502 21.4483 71.7883 21.3867 71.8265 21.3245C71.8439 21.2991 71.8536 21.2718 71.855 21.2426C71.8619 21.2134 71.8605 21.1842 71.8508 21.155C71.8432 21.1264 71.8293 21.101 71.8078 21.0801C71.7904 21.0559 71.7682 21.0369 71.7405 21.0236C71.7211 21.0159 71.7023 21.009 71.6829 21.0013C71.6406 20.9912 71.5975 20.9912 71.5552 21.0013C71.5358 21.009 71.517 21.0159 71.4976 21.0236C71.4615 21.0432 71.4331 21.0693 71.4116 21.1023Z" fill="#7F4924"/>
<path d="M69.985 15.9854C69.985 16.0419 69.9808 16.0971 69.9732 16.153C69.976 16.1333 69.9787 16.1143 69.9815 16.0946C69.9655 16.1994 69.935 16.301 69.8913 16.3981C69.8997 16.3803 69.9073 16.3632 69.9156 16.3454C69.8962 16.3873 69.8739 16.4286 69.8497 16.4679C69.7886 16.5689 69.8198 16.713 69.9364 16.7695C70.0495 16.8241 70.2001 16.7981 70.2653 16.6908C70.3965 16.4756 70.4666 16.2317 70.4659 15.9854C70.4659 15.8705 70.3555 15.76 70.2251 15.7651C70.0946 15.7701 69.985 15.8622 69.985 15.9854Z" fill="#7F4924"/>
<path d="M69.7207 14.3155C69.5812 14.5783 69.5007 14.8564 69.4799 15.1485C69.4716 15.2634 69.5965 15.3739 69.7207 15.3688C69.8581 15.3631 69.9524 15.2717 69.9615 15.1485C69.9642 15.1047 69.9691 15.0609 69.9753 15.0177C69.9726 15.0374 69.9698 15.0564 69.967 15.0761C69.992 14.906 70.0413 14.7402 70.1134 14.5815C70.1051 14.5993 70.0975 14.6164 70.0892 14.6342C70.1044 14.6018 70.1204 14.5701 70.137 14.5383C70.1655 14.4844 70.1794 14.4278 70.1613 14.3688C70.1461 14.318 70.103 14.2621 70.051 14.2374C69.9427 14.1847 69.7797 14.205 69.7207 14.3155Z" fill="#7F4924"/>
<path d="M70.3708 13.9973C70.3583 14.064 70.3452 14.1307 70.3327 14.1967C70.323 14.2259 70.3208 14.2551 70.3285 14.2843C70.3299 14.3135 70.3396 14.3408 70.3569 14.3662C70.3722 14.3916 70.393 14.4126 70.4187 14.4278C70.4423 14.4475 70.4694 14.4602 70.5006 14.4672C70.5221 14.4697 70.5436 14.4723 70.5644 14.4748C70.6081 14.4748 70.6484 14.4646 70.6859 14.445C70.7018 14.4335 70.7185 14.4221 70.7344 14.4107C70.7643 14.3834 70.7851 14.351 70.7962 14.3135C70.8087 14.2469 70.8219 14.1808 70.8344 14.1142C70.8441 14.085 70.8455 14.0558 70.8385 14.0265C70.8372 13.9973 70.8274 13.97 70.8101 13.9446C70.7948 13.9192 70.774 13.8983 70.7483 13.883C70.7247 13.8634 70.6976 13.8507 70.6664 13.8437C70.6449 13.8411 70.6234 13.8386 70.6026 13.8361C70.5589 13.8361 70.5186 13.8462 70.4812 13.8659C70.4652 13.8773 70.4485 13.8888 70.4326 13.9002C70.4027 13.9275 70.3819 13.9599 70.3708 13.9973Z" fill="#7F4924"/>
<path d="M82.9615 25.3297C82.9123 25.364 82.863 25.3983 82.8207 25.4389C82.777 25.4802 82.7381 25.5259 82.7027 25.5735C82.6784 25.6059 82.6562 25.6408 82.6382 25.6764C82.6118 25.7285 82.5875 25.7824 82.5702 25.8377C82.5535 25.8929 82.5632 25.9583 82.5945 26.0072C82.6236 26.0529 82.6812 26.0967 82.7381 26.1082C82.7999 26.1209 82.8686 26.1183 82.9234 26.0859C82.9761 26.0548 83.0171 26.011 83.0337 25.9545C83.042 25.9259 83.0532 25.898 83.0656 25.8701C83.0573 25.8878 83.0497 25.905 83.0413 25.9228C83.0677 25.8662 83.1017 25.8129 83.1426 25.764C83.1302 25.7786 83.1177 25.7939 83.1052 25.8085C83.1455 25.7615 83.1913 25.7189 83.2426 25.6827C83.2266 25.6942 83.21 25.7056 83.194 25.717C83.1975 25.7145 83.201 25.712 83.2044 25.71C83.2322 25.6961 83.2551 25.677 83.2717 25.6535C83.2933 25.6326 83.3071 25.6072 83.3148 25.5786C83.3307 25.5259 83.3238 25.4554 83.2905 25.4091C83.2572 25.3621 83.2079 25.3208 83.1468 25.3081C83.0885 25.2954 83.0122 25.2948 82.9615 25.3297Z" fill="#7F4924"/>
<path d="M81.1113 26.7684C81.094 26.8573 81.0774 26.9456 81.06 27.0345C81.0503 27.0637 81.0489 27.0929 81.0559 27.1221C81.0572 27.1513 81.0669 27.1786 81.0843 27.204C81.0995 27.2294 81.1204 27.2504 81.1461 27.2656C81.169 27.2853 81.1967 27.298 81.2279 27.305C81.2897 27.3177 81.3591 27.3151 81.4132 27.2827C81.4292 27.2713 81.4458 27.2599 81.4618 27.2484C81.4916 27.2211 81.5125 27.1888 81.5236 27.1513C81.5409 27.0624 81.5576 26.9742 81.5749 26.8853C81.5846 26.8561 81.586 26.8269 81.5791 26.7976C81.5777 26.7684 81.5679 26.7411 81.5506 26.7157C81.5353 26.6903 81.5145 26.6694 81.4888 26.6541C81.4652 26.6345 81.4382 26.6218 81.407 26.6148C81.3452 26.6021 81.2765 26.6046 81.2217 26.637C81.2057 26.6484 81.1891 26.6599 81.1731 26.6713C81.1433 26.6986 81.1224 26.731 81.1113 26.7684Z" fill="#7F4924"/>
<path d="M79.9642 27.2618C79.9642 27.3145 79.9601 27.3666 79.9524 27.4186C79.9552 27.399 79.958 27.3793 79.9608 27.3602C79.9448 27.4644 79.9142 27.566 79.8698 27.6631C79.8782 27.6453 79.8858 27.6282 79.8941 27.6104C79.8733 27.6555 79.849 27.6993 79.8226 27.7418C79.7602 27.8422 79.7935 27.9869 79.9094 28.0434C80.0239 28.0987 80.1717 28.0714 80.239 27.9647C80.3723 27.7514 80.4437 27.5075 80.4458 27.2618C80.4465 27.1463 80.3341 27.0364 80.205 27.0415C80.0739 27.0472 79.9649 27.1386 79.9642 27.2618Z" fill="#7F4924"/>
<path d="M77.8013 26.5983C77.8013 26.8008 77.8013 27.0034 77.8013 27.2066C77.8013 27.3215 77.9123 27.432 78.0421 27.4269C78.1725 27.4218 78.2828 27.3304 78.2828 27.2066C78.2828 27.004 78.2828 26.8015 78.2828 26.5983C78.2828 26.4827 78.1725 26.3729 78.0421 26.378C77.9116 26.3831 77.8013 26.4745 77.8013 26.5983Z" fill="#7F4924"/>
<path d="M78.5411 27.6587C78.5154 27.792 78.4897 27.9247 78.4648 28.058C78.4544 28.0873 78.4537 28.1165 78.4606 28.1457C78.462 28.1749 78.4717 28.2022 78.489 28.2276C78.5182 28.2733 78.5758 28.3171 78.6327 28.3292C78.6945 28.3419 78.7638 28.3393 78.818 28.3069C78.8679 28.2777 78.9179 28.2307 78.9283 28.1755C78.954 28.0422 78.9797 27.9095 79.0053 27.7761C79.015 27.7469 79.0171 27.7177 79.0095 27.6885C79.0081 27.6593 78.9984 27.632 78.9811 27.6066C78.9519 27.5609 78.8943 27.5171 78.8374 27.5056C78.7756 27.4929 78.707 27.4955 78.6521 27.5279C78.6022 27.5558 78.5522 27.6028 78.5411 27.6587Z" fill="#7F4924"/>
<path d="M84.3963 23.4991C84.4012 23.515 84.4046 23.5315 84.4074 23.548C84.4046 23.5284 84.4019 23.5093 84.3991 23.4896C84.4033 23.5195 84.4025 23.5493 84.3984 23.5798C84.4012 23.5601 84.4039 23.5404 84.4067 23.5214C84.4019 23.5512 84.3935 23.5804 84.3811 23.6084C84.3894 23.5906 84.397 23.5734 84.4053 23.5557C84.3928 23.5817 84.3776 23.6065 84.3589 23.6293C84.3713 23.6147 84.3838 23.5995 84.3963 23.5849C84.3887 23.5944 84.3803 23.6033 84.3713 23.6115C84.3283 23.6534 84.3005 23.7087 84.3005 23.7671C84.3005 23.8211 84.3269 23.8858 84.3713 23.9227C84.4171 23.9614 84.4775 23.99 84.5414 23.9874C84.6038 23.9849 84.6677 23.9658 84.7114 23.9227C84.8578 23.7798 84.9189 23.5728 84.8599 23.3823C84.8432 23.329 84.8023 23.2788 84.7495 23.2509C84.7218 23.235 84.6919 23.2261 84.66 23.2249C84.6281 23.2185 84.5962 23.2198 84.5642 23.2287C84.5059 23.2458 84.4498 23.2788 84.4206 23.3296C84.3908 23.3817 84.3783 23.4407 84.3963 23.4991Z" fill="#7F4924"/>
<path d="M83.5152 23.9924C83.5187 24.0229 83.5186 24.0534 83.5145 24.0838C83.5173 24.0642 83.5201 24.0451 83.5228 24.0254C83.5173 24.061 83.5075 24.0953 83.493 24.1283C83.5013 24.1105 83.509 24.0934 83.5173 24.0756C83.502 24.1086 83.4826 24.1391 83.459 24.1676C83.4714 24.153 83.484 24.1378 83.4964 24.1232C83.4846 24.1365 83.4728 24.1492 83.459 24.1613C83.4152 24.2007 83.3882 24.261 83.3882 24.3169C83.3882 24.3708 83.4145 24.4356 83.459 24.4724C83.5048 24.5112 83.5652 24.5397 83.629 24.5372C83.6929 24.5346 83.7525 24.515 83.799 24.4724C83.876 24.4032 83.9274 24.3207 83.9635 24.2286C83.9787 24.1911 83.985 24.1524 83.9905 24.113C83.9968 24.0724 84.0002 24.0331 83.9954 23.9924C83.9968 23.9619 83.9898 23.934 83.9746 23.9073C83.9649 23.88 83.9482 23.8565 83.9246 23.8362C83.883 23.7981 83.8143 23.7695 83.7546 23.7715C83.6921 23.774 83.6276 23.793 83.5846 23.8362C83.5457 23.8775 83.509 23.9353 83.5152 23.9924Z" fill="#7F4924"/>
<path d="M87.2902 17.1257C87.2125 17.2971 87.1348 17.4685 87.057 17.64C87.0348 17.6889 87.0536 17.7663 87.0813 17.8095C87.1105 17.8552 87.168 17.899 87.2249 17.9105C87.2867 17.9232 87.3561 17.9206 87.4102 17.8882C87.4262 17.8768 87.4429 17.8654 87.4588 17.8539C87.4887 17.8266 87.5095 17.7943 87.5206 17.7568C87.5983 17.5854 87.676 17.4139 87.7537 17.2425C87.7759 17.1936 87.7572 17.1161 87.7295 17.073C87.7003 17.0273 87.6427 16.9834 87.5858 16.972C87.524 16.9593 87.4547 16.9619 87.4005 16.9942C87.3846 17.0057 87.3679 17.0171 87.352 17.0285C87.3221 17.0558 87.302 17.0882 87.2902 17.1257Z" fill="#7F4924"/>
<path d="M87.2292 15.4342C87.1918 15.4609 87.1654 15.4945 87.1369 15.5294C87.1203 15.5498 87.1064 15.5714 87.096 15.5942C87.0772 15.6336 87.0585 15.6717 87.0509 15.7136C87.0432 15.7568 87.0349 15.8012 87.0398 15.845C87.0384 15.8755 87.0453 15.9034 87.0606 15.9301C87.0703 15.9574 87.087 15.9809 87.1105 16.0012C87.1321 16.0228 87.1584 16.038 87.1883 16.0469C87.2167 16.0609 87.248 16.0672 87.2813 16.066C87.3437 16.0634 87.4083 16.0444 87.4513 16.0012C87.4638 15.9866 87.4762 15.9714 87.4887 15.9568C87.5102 15.9225 87.5213 15.885 87.5213 15.8456C87.5193 15.8234 87.5193 15.8018 87.5221 15.7803C87.5193 15.7999 87.5165 15.8196 87.5137 15.8387C87.5179 15.8133 87.5248 15.7885 87.5359 15.7644C87.5276 15.7822 87.52 15.7993 87.5116 15.8171C87.5227 15.7936 87.5366 15.7714 87.554 15.7504C87.5415 15.765 87.529 15.7802 87.5165 15.7949C87.5325 15.7764 87.5498 15.7606 87.5699 15.746C87.5935 15.7263 87.6102 15.7022 87.6199 15.6749C87.6352 15.6488 87.6421 15.6202 87.6407 15.5898C87.6421 15.5593 87.6352 15.5314 87.6199 15.5047C87.6102 15.4774 87.5935 15.4539 87.5699 15.4336C87.5241 15.3948 87.4638 15.3663 87.3999 15.3688C87.3784 15.3713 87.3576 15.3739 87.3361 15.3764C87.2944 15.3879 87.2591 15.4069 87.2292 15.4342Z" fill="#7F4924"/>
<path d="M87.6989 15.8925C87.6816 15.9814 87.6649 16.0703 87.6475 16.1586C87.6371 16.1878 87.6358 16.217 87.6434 16.2462C87.6448 16.2754 87.6545 16.3027 87.6719 16.3281C87.6871 16.3535 87.7079 16.3744 87.7336 16.3897C87.7572 16.4094 87.7843 16.4221 87.8155 16.429C87.8772 16.4417 87.946 16.4392 88.0008 16.4068C88.0167 16.3954 88.0334 16.384 88.0494 16.3725C88.0792 16.3452 88.1 16.3128 88.1111 16.2754C88.1285 16.1865 88.1451 16.0982 88.1624 16.0093C88.1729 15.9801 88.1743 15.9509 88.1666 15.9217C88.1653 15.8925 88.1555 15.8652 88.1382 15.8398C88.1229 15.8138 88.1021 15.7935 88.0764 15.7782C88.0528 15.7585 88.0257 15.7458 87.9945 15.7389C87.9328 15.7262 87.8641 15.7287 87.8093 15.7611C87.7933 15.7725 87.7766 15.7839 87.7607 15.7954C87.7308 15.8227 87.71 15.8551 87.6989 15.8925Z" fill="#7F4924"/>
<path d="M75.7341 28.0344C75.7383 28.0389 75.7425 28.0433 75.7466 28.0478C75.7341 28.0332 75.7216 28.0179 75.7091 28.0033C75.7182 28.0148 75.7258 28.0262 75.7321 28.0395C75.7237 28.0217 75.7161 28.0046 75.7077 27.9868C75.7154 28.0027 75.7202 28.0198 75.7223 28.037C75.7195 28.0173 75.7168 27.9976 75.714 27.9786C75.7161 27.9964 75.7161 28.0135 75.714 28.0306C75.7168 28.0109 75.7195 27.9919 75.7223 27.9722C75.7195 27.9894 75.7154 28.0065 75.7077 28.023C75.7161 28.0052 75.7237 27.9881 75.7321 27.9703C75.7251 27.9856 75.7161 27.9995 75.7057 28.0122C75.7182 27.9976 75.7307 27.9824 75.7432 27.9678C75.7369 27.9748 75.7299 27.9817 75.7223 27.9881C75.6987 28.0078 75.6821 28.0319 75.6724 28.0592C75.6571 28.0852 75.6502 28.1138 75.6515 28.1443C75.6502 28.1748 75.6571 28.2027 75.6724 28.2294C75.6821 28.2567 75.6987 28.2802 75.7223 28.3005C75.7681 28.3392 75.8285 28.3678 75.8923 28.3652C75.9138 28.3627 75.9347 28.3602 75.9562 28.3576C75.9971 28.3475 76.0325 28.3284 76.0623 28.3011C76.0873 28.2802 76.1075 28.2541 76.1262 28.2294C76.1345 28.2192 76.1408 28.2078 76.1463 28.1957C76.1595 28.1684 76.1755 28.1386 76.1824 28.1081C76.1893 28.0776 76.1942 28.0459 76.1956 28.0148C76.197 27.9836 76.19 27.9506 76.1852 27.9214C76.1831 27.9087 76.1803 27.8967 76.1755 27.884C76.1526 27.8217 76.122 27.7728 76.0728 27.7246C76.0512 27.703 76.0249 27.6878 75.995 27.6789C75.9666 27.6649 75.9354 27.6586 75.9021 27.6598C75.8688 27.6586 75.8382 27.6649 75.8091 27.6789C75.7792 27.6878 75.7535 27.703 75.7313 27.7246C75.689 27.7665 75.6578 27.8217 75.6606 27.8802C75.6633 27.8998 75.6661 27.9189 75.6689 27.9386C75.6835 27.9748 75.7043 28.0071 75.7341 28.0344Z" fill="#7F4924"/>
<path d="M72.9612 27.5005C72.9119 27.5907 72.8627 27.6808 72.8134 27.771C72.7961 27.7964 72.7864 27.8237 72.785 27.8529C72.778 27.8821 72.7794 27.9113 72.7891 27.9405C72.7968 27.9691 72.8107 27.9939 72.8322 28.0155C72.8488 28.0396 72.8717 28.0586 72.8995 28.072C72.9557 28.0986 73.023 28.1126 73.0848 28.0942C73.1424 28.077 73.2006 28.044 73.2284 27.9932C73.2777 27.9031 73.3269 27.8129 73.3762 27.7227C73.3936 27.6973 73.4033 27.67 73.4047 27.6408C73.4116 27.6116 73.4102 27.5824 73.4005 27.5532C73.3928 27.5246 73.379 27.4992 73.3575 27.4783C73.3408 27.4542 73.3179 27.4357 73.2901 27.4218C73.2339 27.3945 73.1666 27.3811 73.1049 27.3996C73.0473 27.4161 72.989 27.4491 72.9612 27.5005Z" fill="#7F4924"/>
<path d="M76.4092 26.7812C76.3662 26.8656 76.3238 26.9494 76.2808 27.0339C76.2635 27.0593 76.2538 27.0866 76.2524 27.1158C76.2454 27.145 76.2468 27.1742 76.2565 27.2034C76.2642 27.232 76.2781 27.2567 76.2996 27.2783C76.3162 27.3024 76.3391 27.3215 76.3669 27.3348C76.4231 27.3621 76.4904 27.3755 76.5522 27.357C76.5716 27.3494 76.5903 27.3424 76.6097 27.3348C76.6458 27.3151 76.675 27.2891 76.6965 27.2561C76.7388 27.1716 76.7818 27.0878 76.8242 27.0034C76.8415 26.978 76.8512 26.9507 76.8526 26.9215C76.8596 26.8923 76.8582 26.8631 76.8484 26.8339C76.8408 26.8053 76.827 26.7799 76.8054 26.7589C76.7888 26.7348 76.7659 26.7164 76.7381 26.7024C76.6819 26.6751 76.6146 26.6618 76.5528 26.6802C76.5334 26.6878 76.5147 26.6948 76.4952 26.7024C76.4599 26.7215 76.4307 26.7481 76.4092 26.7812Z" fill="#7F4924"/>
<path d="M83.0697 143.798C89.1943 143.892 95.3196 143.986 101.444 144.08C101.174 145.903 100.903 147.725 100.632 149.548C100.584 149.877 100.525 150.227 100.286 150.477C99.8947 150.887 99.2036 150.866 98.6116 150.81C93.0255 150.288 87.44 149.766 81.8539 149.243C82.0836 147.342 82.3126 145.441 82.5423 143.54L83.0697 143.798Z" fill="#827454"/>
<path d="M86.0472 117.501C88.1797 117.057 90.3114 116.615 92.4439 116.172C92.7458 116.109 92.618 115.684 92.3155 115.747C90.183 116.19 88.0513 116.633 85.9189 117.075C85.617 117.139 85.7454 117.563 86.0472 117.501Z" fill="#827454"/>
<path d="M86.0534 119.33C87.9742 118.919 89.9616 118.832 91.9178 119.062C92.2238 119.099 92.221 118.658 91.9178 118.622C89.9193 118.386 87.8868 118.485 85.925 118.905C85.6239 118.97 85.7515 119.395 86.0534 119.33Z" fill="#827454"/>
<path d="M41.8087 64.092C39.2495 63.1745 36.9907 61.3071 36.2531 58.8842C35.5161 56.4613 36.6167 53.5393 39.0823 52.4281C40.5132 51.7837 42.1862 51.7856 43.7725 51.9367C46.2408 52.1716 48.7591 52.7748 50.6667 54.2269C52.5736 55.6797 53.7193 58.1343 52.9435 60.2906C52.3398 61.9694 50.698 63.1986 48.9042 63.8532C47.1103 64.5079 45.1541 64.6704 43.2306 64.826L41.8087 64.092Z" fill="#3DA7E9"/>
<path d="M76.6884 82.5497C76.798 82.8494 76.9076 83.1491 77.0173 83.4488C77.0568 83.558 77.1852 83.6406 77.3136 83.6025C77.4323 83.5675 77.5245 83.4488 77.4815 83.3313C77.3719 83.0317 77.2622 82.732 77.1526 82.4316C77.113 82.3224 76.9847 82.2399 76.8563 82.278C76.7376 82.3142 76.6453 82.4329 76.6884 82.5497Z" fill="#C2B38C"/>
<path d="M70.3166 74.8854C70.4311 75.3826 70.6441 75.8619 70.9384 76.2931C71.005 76.3908 71.1562 76.4378 71.268 76.3718C71.3748 76.3089 71.4262 76.175 71.354 76.0702C71.0716 75.6575 70.8912 75.248 70.7808 74.7679C70.7545 74.6549 70.6032 74.5787 70.4845 74.6143C70.3541 74.653 70.2881 74.7641 70.3166 74.8854Z" fill="#7F4924"/>
<path d="M40.364 52.9926C41.0191 52.912 41.6734 52.8314 42.3285 52.7507C42.4576 52.7349 42.5277 52.5831 42.4964 52.4796C42.4583 52.352 42.3299 52.3101 42.2001 52.326C41.5458 52.4066 40.8907 52.4872 40.2356 52.5679C40.1065 52.5837 40.0365 52.7355 40.0677 52.839C40.1059 52.966 40.2342 53.0085 40.364 52.9926Z" fill="#277AAE"/>
<path d="M103.316 63.7283C104.073 64.2654 104.129 65.4039 103.407 65.9887C103.174 66.1766 103.516 66.4871 103.747 66.2998C104.648 65.5709 104.611 64.094 103.657 63.4165C103.554 63.3435 103.417 63.3251 103.316 63.4165C103.233 63.4927 103.213 63.6546 103.316 63.7283Z" fill="#7F4924"/>
<path d="M41.1917 146.275L82.7095 141.856L82.2661 149.985L39.5984 154.176L41.1917 146.275Z" fill="#244B5B"/>
<path d="M89.1897 96.0726C89.2723 96.1437 110.577 99.6854 110.577 99.6854L110.77 105.703L89.3798 102.016L89.1897 96.0726Z" fill="#32627A"/>
<path d="M106.517 103.675C108.472 113.092 110.489 122.499 112.568 131.893C114.637 141.241 116.766 150.578 118.956 159.902C120.189 165.149 121.441 170.394 122.713 175.634C122.853 176.215 123.631 176.528 124.217 176.363C124.88 176.177 125.155 175.569 125.014 174.987C122.744 165.629 120.534 156.259 118.387 146.877C116.251 137.542 114.175 128.195 112.161 118.838C111.027 113.571 109.913 108.301 108.817 103.028C108.696 102.444 107.885 102.139 107.313 102.299C106.636 102.489 106.396 103.089 106.517 103.675Z" fill="#32627A"/>
<path d="M93.8971 101.011C93.4961 102.329 93.1102 103.65 92.7251 104.971C92.1595 106.914 91.6009 108.858 91.0437 110.803C90.3567 113.203 89.6732 115.605 88.9917 118.008C88.2277 120.701 87.4665 123.395 86.7073 126.09C85.9128 128.91 85.1203 131.73 84.3292 134.551C83.5499 137.332 82.772 140.113 81.9962 142.895C81.2808 145.461 80.5667 148.026 79.8548 150.593C79.2427 152.799 78.6327 155.006 78.0256 157.215C77.5662 158.885 77.1082 160.556 76.6557 162.229C76.3941 163.197 76.129 164.165 75.8841 165.138C75.8563 165.249 75.8285 165.36 75.8022 165.472C75.671 166.035 76.0353 166.686 76.6856 166.804C77.3101 166.916 78.0006 166.598 78.1408 165.995C78.3219 165.218 78.5384 164.447 78.7452 163.675C79.1518 162.158 79.5661 160.643 79.9817 159.128C80.5556 157.035 81.133 154.943 81.7117 152.853C82.405 150.35 83.1002 147.847 83.7969 145.346C84.5624 142.598 85.3299 139.851 86.0987 137.104C86.8905 134.278 87.683 131.451 88.4782 128.626C89.2464 125.897 90.016 123.169 90.7883 120.44C91.4926 117.951 92.1998 115.463 92.9097 112.975C93.5009 110.904 94.0949 108.833 94.6937 106.763C95.1247 105.274 95.5577 103.786 96.0025 102.301C96.0789 102.045 96.1559 101.79 96.2336 101.534C96.4029 100.979 95.9734 100.315 95.3502 100.203C94.6952 100.084 94.0783 100.417 93.8971 101.011Z" fill="#32627A"/>
<path d="M107.913 111.742C104.691 114.513 101.503 117.315 98.3495 120.149C95.1956 122.983 92.0763 125.849 88.9918 128.747C87.3736 130.267 85.568 131.776 84.5271 133.705C84.2627 134.196 84.3869 134.963 85.0073 135.2C85.2848 135.306 85.5617 135.412 85.8393 135.517C86.5943 135.805 87.3486 136.092 88.1036 136.38C89.2146 136.803 90.3256 137.226 91.4365 137.65C92.7911 138.166 94.1463 138.682 95.5009 139.198C96.9908 139.766 98.4813 140.334 99.9712 140.902C101.476 141.475 102.979 142.048 104.484 142.621C105.881 143.153 107.278 143.686 108.675 144.218C109.86 144.67 111.046 145.122 112.232 145.573C113.081 145.897 113.93 146.22 114.78 146.544C115.184 146.698 115.588 146.853 115.993 147.006C116.011 147.012 116.028 147.019 116.045 147.026C116.353 147.143 116.645 147.205 116.976 147.112C117.253 147.035 117.549 146.829 117.679 146.587C117.941 146.098 117.82 145.329 117.199 145.092C116.922 144.986 116.645 144.881 116.367 144.776C115.612 144.488 114.858 144.2 114.103 143.913C112.992 143.489 111.881 143.066 110.77 142.643C109.416 142.127 108.06 141.61 106.706 141.094C105.216 140.527 103.725 139.958 102.236 139.391C100.731 138.817 99.2273 138.245 97.7229 137.671C96.326 137.139 94.9291 136.606 93.5315 136.074C92.3463 135.622 91.1604 135.171 89.9751 134.719C89.1257 134.396 88.2764 134.072 87.427 133.749C87.0224 133.594 86.6207 133.433 86.2134 133.286C86.196 133.28 86.1786 133.273 86.1613 133.267C86.3216 133.765 86.4812 134.263 86.6408 134.761C86.8559 134.363 87.1064 133.982 87.3854 133.617C87.4346 133.552 87.5929 133.403 87.3667 133.639C87.4041 133.599 87.436 133.554 87.4707 133.512C87.5408 133.427 87.6123 133.344 87.6845 133.261C87.8441 133.078 88.0092 132.899 88.1779 132.723C88.8489 132.022 89.5706 131.362 90.2798 130.695C91.8161 129.249 93.3601 127.811 94.9138 126.38C98.0018 123.536 101.125 120.723 104.28 117.942C106.064 116.369 107.859 114.806 109.665 113.253C110.125 112.858 110.087 112.07 109.615 111.697C109.096 111.286 108.404 111.32 107.913 111.742Z" fill="#32627A"/>
<path d="M77.5121 152.498L116.624 148.144L118.587 156.208L78.4405 161.433L77.5121 152.498Z" fill="#244B5B"/>
<path d="M48.9104 96.5654C48.993 96.6365 70.2973 100.178 70.2973 100.178L70.4903 106.195L49.1005 102.509L48.9104 96.5654Z" fill="#32627A"/>
<path d="M65.5959 104.185C67.5514 113.602 69.568 123.009 71.647 132.403C73.7156 141.751 75.8445 151.088 78.0353 160.412C79.2684 165.659 81.804 173.987 83.0753 179.227C83.2162 179.808 83.9941 180.121 84.5798 179.956C85.2425 179.77 85.5179 179.163 85.3764 178.58C83.1065 169.222 79.6133 156.769 77.4663 147.387C75.3296 138.052 73.2541 128.705 71.2403 119.348C70.1064 114.081 68.9927 108.811 67.897 103.538C67.7755 102.954 66.965 102.649 66.3925 102.809C65.7145 102.999 65.4745 103.599 65.5959 104.185Z" fill="#32627A"/>
<path d="M53.6179 101.504C53.2168 102.821 52.831 104.143 52.4459 105.464C51.8804 107.406 51.3217 109.35 50.7645 111.295C50.0775 113.696 49.394 116.098 48.7126 118.501C47.9485 121.194 47.1873 123.888 46.4281 126.583C45.6336 129.402 44.8411 132.223 44.05 135.044C43.2708 137.824 42.4929 140.606 41.717 143.387C41.0016 145.953 40.2876 148.519 39.5756 151.086C38.9635 153.292 38.3535 155.499 37.7463 157.707C37.287 159.377 34.743 169.858 34.2906 171.531C34.029 172.499 33.7639 173.468 33.5189 174.44C33.4912 174.551 33.4634 174.662 33.4371 174.774C33.3059 175.336 33.6702 175.988 34.3204 176.105C34.945 176.218 35.6354 175.9 35.7756 175.297C35.9567 174.519 36.1732 173.748 36.38 172.976C36.7866 171.46 37.201 169.945 37.6166 168.43C38.1905 166.337 40.8538 155.436 41.4332 153.345C42.1258 150.842 42.8218 148.34 43.5185 145.838C44.2839 143.09 45.0514 140.343 45.8202 137.596C46.6113 134.77 47.4052 131.943 48.1997 129.118C48.9679 126.389 49.7375 123.661 50.5098 120.932C51.2142 118.443 51.9213 115.955 52.6312 113.467C53.2224 111.396 53.8164 109.325 54.4153 107.255C54.8462 105.766 55.2792 104.278 55.724 102.793C55.8004 102.538 55.8774 102.282 55.9551 102.026C56.1244 101.471 55.6949 100.807 55.0717 100.695C54.416 100.577 53.7984 100.91 53.6179 101.504Z" fill="#32627A"/>
<path d="M67.6332 112.235C64.412 115.005 61.2241 117.807 58.0702 120.642C54.9163 123.476 51.7971 126.342 48.7125 129.239C47.0943 130.759 45.2887 132.269 44.2478 134.198C43.9834 134.688 44.1076 135.456 44.7273 135.693C45.0049 135.798 45.2818 135.904 45.5593 136.01C46.3143 136.297 47.0686 136.585 47.8236 136.872C48.9346 137.296 50.0456 137.719 51.1566 138.142C52.5111 138.659 53.8663 139.175 55.2209 139.691C56.7108 140.259 58.2013 140.826 59.6912 141.395C61.1957 141.968 62.7001 142.541 64.2038 143.114C65.6007 143.646 66.9976 144.179 68.3952 144.711C69.5804 145.162 70.7664 145.614 71.9516 146.066C72.801 146.39 73.6503 146.713 74.4997 147.037C74.9043 147.191 75.3081 147.346 75.7134 147.499C75.7307 147.505 75.7481 147.512 75.7654 147.518C76.0728 147.636 76.365 147.698 76.696 147.605C76.9729 147.527 77.2692 147.322 77.3989 147.08C77.6612 146.591 77.5398 145.822 76.9187 145.585C76.6411 145.48 76.3643 145.374 76.0867 145.268C75.3317 144.981 74.5774 144.693 73.8224 144.405C72.7114 143.982 71.6005 143.559 70.4895 143.136C69.1349 142.619 67.7796 142.103 66.4251 141.587C64.9352 141.019 63.4447 140.452 61.9548 139.883C60.4504 139.31 58.9466 138.737 57.4422 138.164C56.0453 137.632 54.6484 137.099 53.2508 136.567C52.0656 136.116 50.8797 135.664 49.6944 135.212C48.8451 134.888 47.9957 134.565 47.1463 134.241C46.7418 134.087 46.34 133.926 45.9327 133.779C45.9153 133.773 45.898 133.766 45.8806 133.759C46.0402 134.258 46.2005 134.756 46.3601 135.254C46.5752 134.855 46.8257 134.474 47.1047 134.11C47.154 134.045 47.3122 133.895 47.086 134.131C47.1235 134.092 47.1553 134.046 47.19 134.004C47.2601 133.92 47.3316 133.836 47.4038 133.754C47.5634 133.571 47.7286 133.392 47.8972 133.217C48.5682 132.516 49.2899 131.855 49.9991 131.187C51.5355 129.741 53.0794 128.303 54.6332 126.873C57.7211 124.029 60.8438 121.216 63.9991 118.434C65.7832 116.862 67.5784 115.299 69.384 113.746C69.8441 113.351 69.8052 112.563 69.3341 112.189C68.8171 111.779 68.1246 111.813 67.6332 112.235Z" fill="#32627A"/>
<path d="M0 100.741C0.962481 100.715 8.66926 102.418 8.66926 102.418L134.925 93.0096L122.027 91.2991L0 100.741Z" fill="#D3803C"/>
<path d="M0 100.741L0.135999 104.997L8.81013 106.822L135 95.3584L134.925 93.0098L8.66926 102.419L0 100.741Z" fill="#8C5125"/>
<path d="M8.30567 101.506C8.36257 103.279 8.41945 105.051 8.47635 106.824C8.48538 107.106 8.96698 107.107 8.95796 106.824C8.90106 105.051 8.84414 103.278 8.78723 101.506C8.77821 101.223 8.29665 101.222 8.30567 101.506Z" fill="#D3803C"/>
<path d="M96.0087 101.856C98.9461 102.617 101.958 103.122 105 103.369C105.309 103.393 105.307 102.953 105 102.928C102.001 102.685 99.0328 102.181 96.137 101.431C95.838 101.353 95.711 101.778 96.0087 101.856Z" fill="#244B5B"/>
<path d="M108.028 100.484C108.047 100.502 108.065 100.52 108.082 100.539C108.091 100.548 108.099 100.558 108.108 100.567C108.094 100.551 108.094 100.548 108.107 100.566C108.14 100.609 108.171 100.652 108.198 100.698C108.212 100.719 108.223 100.741 108.235 100.763C108.241 100.774 108.246 100.785 108.252 100.796C108.268 100.825 108.239 100.764 108.251 100.794C108.271 100.843 108.29 100.892 108.305 100.943C108.318 100.99 108.328 101.038 108.337 101.087C108.328 101.039 108.339 101.103 108.34 101.12C108.342 101.145 108.343 101.169 108.343 101.193C108.345 101.245 108.339 101.297 108.336 101.35C108.334 101.383 108.343 101.313 108.336 101.346C108.334 101.358 108.332 101.37 108.33 101.382C108.324 101.409 108.317 101.436 108.31 101.463C108.28 101.574 108.35 101.706 108.478 101.734C108.603 101.76 108.742 101.699 108.774 101.58C108.91 101.083 108.754 100.544 108.368 100.174C108.281 100.09 108.114 100.087 108.027 100.174C107.938 100.263 107.935 100.395 108.028 100.484Z" fill="#244B5B"/>
<path d="M62.9977 103.794C64.6347 104.098 66.2716 104.403 67.9086 104.707C68.2112 104.764 68.3403 104.339 68.0363 104.282C66.3993 103.978 64.7624 103.673 63.1254 103.369C62.8229 103.312 62.6938 103.737 62.9977 103.794Z" fill="#244B5B"/>
<path d="M86.8627 132.653C88.6252 130.872 90.3878 129.091 92.1504 127.31C92.3579 127.1 92.0186 126.788 91.8097 126.998C90.0471 128.779 88.2845 130.561 86.5219 132.342C86.3151 132.552 86.6545 132.864 86.8627 132.653Z" fill="#244B5B"/>
<path d="M111.709 123.685C112.377 126.315 113.045 128.945 113.714 131.575C113.905 132.325 114.095 133.075 114.286 133.825C114.356 134.101 114.82 133.984 114.75 133.708C114.082 131.078 113.414 128.448 112.745 125.818C112.555 125.068 112.364 124.318 112.173 123.568C112.103 123.292 111.639 123.409 111.709 123.685Z" fill="#244B5B"/>
<path d="M71.689 129.307C72.7466 132.301 73.5627 135.366 74.1227 138.47C74.2823 139.354 74.4211 140.242 74.5391 141.131C74.5758 141.409 75.0574 141.412 75.0206 141.131C74.6029 137.975 73.9332 134.85 73.0061 131.787C72.7424 130.916 72.458 130.049 72.154 129.189C72.0589 128.921 71.5933 129.036 71.689 129.307Z" fill="#244B5B"/>
<path d="M46.5106 129.276C46.0728 132.509 45.1998 135.693 43.9278 138.735C43.5677 139.597 43.1735 140.447 42.7496 141.283C42.6198 141.538 43.0348 141.762 43.1652 141.505C44.6932 138.493 45.8251 135.316 46.5134 132.055C46.7084 131.134 46.866 130.206 46.9923 129.275C47.0304 128.995 46.5481 128.997 46.5106 129.276Z" fill="#244B5B"/>
<path d="M75.641 76.8275L75.2885 78.1666C72.3817 79.5317 69.3312 80.6404 66.1925 81.4734C66.4923 81.9693 66.792 82.4652 67.0918 82.9604C66.8663 83.37 66.6401 83.7801 66.4146 84.1897C66.9989 84.7465 67.5838 85.304 68.1681 85.8608C67.9509 86.2608 67.7344 86.6608 67.5172 87.0608C68.3374 86.8342 68.9592 88.1396 68.2188 88.5345C68.7323 88.718 69.2458 88.9015 69.7593 89.0857C69.5886 89.5847 69.4179 90.0832 69.2472 90.5822C69.6684 90.6508 70.0889 90.72 70.5101 90.7892C70.7155 91.193 70.6572 91.6984 70.3637 92.054C70.9327 92.014 71.5136 92.1232 72.0187 92.3651C71.7988 92.7378 71.5788 93.1105 71.3588 93.4839C71.8293 93.4375 72.3192 93.588 72.6641 93.8839C72.5406 94.3836 72.4177 94.8833 72.2942 95.3836C72.7085 95.4065 73.1228 95.4293 73.5371 95.4522C73.392 96.0224 73.247 96.5932 73.1019 97.1634C73.5592 97.2643 74.0527 97.2211 74.4801 97.0427C74.97 97.6173 74.9055 98.5253 74.3386 99.0364C74.8063 98.8371 75.3871 98.8777 75.8159 99.1399C75.6084 99.6783 75.4016 100.217 75.1942 100.756C75.766 100.711 76.3551 100.883 76.7916 101.224C76.5196 101.767 76.403 102.375 76.4571 102.97C77.1816 102.938 77.9164 103.161 78.4764 103.583C78.2433 104.126 78.0101 104.67 77.7777 105.213C78.566 104.478 80.0975 105.86 79.3057 106.592C79.8921 106.773 80.4784 106.955 81.0641 107.136C80.7296 107.645 80.3952 108.154 80.0607 108.662C80.5791 108.439 81.2154 108.461 81.7129 108.722C81.6928 109.421 81.493 110.117 81.1342 110.735C81.5964 110.559 82.1217 110.526 82.6053 110.644C82.5172 111.332 81.7005 112.216 81.6123 112.904C82.4922 112.757 83.6886 113.989 82.8663 114.31C83.5019 114.324 84.1382 114.338 84.7739 114.352C84.6621 114.867 84.5497 115.383 84.438 115.899C84.8162 116.171 85.3297 116.279 85.7995 116.184C85.6385 116.705 85.4775 117.225 85.3165 117.746C85.7648 117.554 86.2901 117.52 86.764 117.65C86.6051 118.069 86.4462 118.488 86.2866 118.906C86.7405 118.956 87.1936 119.007 87.6474 119.057C87.5524 119.483 87.458 119.909 87.3629 120.334C87.8397 120.306 88.3164 120.278 88.7938 120.25C88.4267 120.556 88.2255 121.022 88.265 121.476C88.7307 121.579 89.1963 121.682 89.6619 121.784C89.5904 122.247 89.519 122.71 89.4482 123.174C89.7695 122.553 90.6633 123.432 90.7202 124.117C91.4405 122.122 95.4458 118.74 95.5013 118.763C95.6186 118.811 76.4627 76.5818 75.641 76.8275ZM91.7874 118.984C91.1684 118.947 90.6993 118.459 90.7396 117.892C90.7798 117.326 91.3142 116.897 91.9332 116.933C92.5521 116.97 93.0212 117.459 92.9817 118.026C92.9414 118.591 92.4071 119.021 91.7874 118.984Z" fill="#F2E8D1"/>
<path d="M76.6347 75.8327C76.3981 74.8911 75.8527 74.0428 75.3149 73.2116C74.435 71.8529 73.5558 70.4935 72.6759 69.1347C72.2207 68.4312 71.6773 67.6654 70.8099 67.4686C69.9446 67.2724 69.0751 67.7143 68.3138 68.1391L60.9602 72.2434C60.5557 72.4694 60.2636 72.8307 60.1456 73.251C60.0325 73.6542 60.0887 74.0821 60.3031 74.4498C61.335 76.2187 62.3668 77.9876 63.3994 79.756C64.0406 80.855 64.7123 81.9878 65.7879 82.7522C67.1501 83.7205 68.9509 83.9561 70.6614 84.158C71.4449 84.2507 72.3019 84.3294 72.9694 83.9421C73.3434 83.725 73.6085 83.3859 73.8646 83.0557C75.5279 80.9077 77.2787 78.4004 76.6347 75.8327ZM70.948 78.4016C70.2228 78.8505 69.3658 79.0785 68.5248 79.3001C67.7823 79.4956 66.9551 79.6855 66.266 79.3655C65.7824 79.1413 65.4646 78.7058 65.1731 78.2873C64.1176 76.773 63.11 75.2307 62.151 73.6637L61.99 73.524C63.4174 72.0846 65.0864 70.8465 66.9197 69.8661C67.5019 69.555 68.2063 69.2636 68.8246 69.508C69.3478 69.715 69.6198 70.2338 69.8481 70.7119C70.5011 72.0783 71.1534 73.4447 71.8064 74.8117C72.0541 75.3311 72.3074 75.872 72.2866 76.4384C72.2581 77.2384 71.6731 77.9527 70.948 78.4016Z" fill="#827454"/>
<path d="M43.6044 53.3501C44.3108 53.2548 45.0325 53.3101 45.7091 53.5196C54.7857 56.3311 58.9569 64.9447 68.5935 66.6387C69.8391 66.8578 71.4345 67.2279 71.5657 68.3829C71.6219 68.875 71.3596 69.3442 71.193 69.8147C70.7517 71.0604 70.996 72.4935 71.8321 73.557C72.243 74.0796 72.7863 74.5177 73.1104 75.0891C73.4344 75.6606 73.4663 76.4542 72.9258 76.8663C72.3852 77.2784 71.3151 76.8231 71.5226 76.2085C71.6281 76.6517 71.5663 77.126 71.3491 77.5336C70.6198 77.3324 70.2104 77.4098 69.7989 77.06C69.1195 77.9825 67.3813 77.9762 66.7095 77.0485C66.7644 77.6657 65.9934 78.133 65.3217 78.0562C64.6506 77.9794 64.1038 77.5343 63.6542 77.072C62.14 75.5139 61.1983 73.4992 61.0124 71.4211C54.7122 70.0902 41.2201 64.5193 40.6191 64.085C37.57 61.8824 36.3015 57.0702 37.5083 54.8269C38.3722 53.2193 41.694 53.6072 43.6044 53.3501Z" fill="#F6A472"/>
<path d="M78.6874 87.6826C80.1918 90.2274 81.6345 92.8027 83.012 95.4072C84.3846 98.001 85.6927 100.623 86.9362 103.27C87.6405 104.77 88.3233 106.279 88.986 107.795C89.0998 108.055 89.5655 107.942 89.4503 107.678C88.2734 104.985 87.0319 102.315 85.7245 99.6728C84.4151 97.0263 83.0405 94.4072 81.6012 91.8173C80.7887 90.3557 79.9559 88.9036 79.1031 87.461C78.956 87.2108 78.5403 87.433 78.6874 87.6826Z" fill="#C2B38C"/>
<path d="M73.6906 92.9004C73.9092 92.8001 74.1278 92.7004 74.3464 92.6007C74.3984 92.5772 74.4421 92.5188 74.4567 92.4693C74.4727 92.4166 74.4657 92.3467 74.4324 92.2998C74.3581 92.1944 74.2235 92.1651 74.1028 92.221C73.8842 92.3213 73.6656 92.421 73.447 92.5207C73.395 92.5442 73.3513 92.6026 73.3367 92.6521C73.3207 92.7048 73.3277 92.7747 73.361 92.8217C73.4359 92.9271 73.5699 92.9556 73.6906 92.9004Z" fill="#C2B38C"/>
<path d="M74.88 95.0301C74.9896 95.0301 75.0986 95.0301 75.2075 95.0301C75.2693 95.0301 75.3338 95.0053 75.3775 94.9653C75.4011 94.9456 75.4178 94.9215 75.4275 94.8942C75.4428 94.8682 75.4497 94.8396 75.4483 94.8091C75.4456 94.752 75.4247 94.6929 75.3775 94.6536C75.3303 94.6142 75.2727 94.5888 75.2075 94.5888C75.0986 94.5888 74.9889 94.5888 74.88 94.5888C74.8182 94.5888 74.7537 94.6136 74.71 94.6536C74.6864 94.6733 74.6697 94.6974 74.66 94.7247C74.6447 94.7507 74.6378 94.7793 74.6392 94.8098C74.642 94.8669 74.6628 94.926 74.71 94.9653C74.7572 95.0053 74.8148 95.0301 74.88 95.0301Z" fill="#C2B38C"/>
<path d="M76.3308 96.5323C76.5487 96.4307 76.7658 96.3291 76.9837 96.2275C77.0962 96.1755 77.1378 96.0224 77.0705 95.9259C76.9962 95.8212 76.8616 95.7907 76.7409 95.8472C76.523 95.9488 76.3058 96.0504 76.0879 96.1513C75.9755 96.204 75.9339 96.3571 76.0012 96.4529C76.0754 96.5583 76.2107 96.5888 76.3308 96.5323Z" fill="#C2B38C"/>
<path d="M80.2946 103.663C80.4043 103.562 80.5133 103.463 80.6222 103.363C80.6659 103.323 80.693 103.264 80.693 103.207C80.6944 103.177 80.6874 103.149 80.6721 103.122C80.6624 103.095 80.6458 103.072 80.6222 103.051C80.5764 103.013 80.516 102.984 80.4522 102.986C80.3883 102.989 80.328 103.009 80.2822 103.051C80.1732 103.151 80.0636 103.251 79.9546 103.351C79.9109 103.391 79.8838 103.45 79.8838 103.507C79.8825 103.537 79.8894 103.565 79.9047 103.592C79.9144 103.619 79.931 103.642 79.9546 103.663C80.0004 103.701 80.0608 103.73 80.1246 103.727C80.1885 103.725 80.2481 103.705 80.2946 103.663Z" fill="#C2B38C"/>
<path d="M68.502 81.8519C70.0134 82.6164 72.0237 82.2043 73.1625 81.05C73.4921 80.716 73.7398 80.3274 73.8911 79.8995C73.9868 79.629 73.5219 79.5134 73.4268 79.7827C72.8349 81.4583 70.4277 82.3231 68.7456 81.4722C68.4736 81.3345 68.23 81.7148 68.502 81.8519Z" fill="#C2B38C"/>
<path d="M63.3664 77.0048C63.8479 77.573 64.5953 78.1172 65.4308 78.0454C66.1559 77.9832 66.8589 77.467 66.8443 76.7603C66.7076 76.8124 66.5702 76.8645 66.4335 76.9159C66.9137 77.453 67.5681 77.8619 68.346 77.8854C68.9955 77.9051 69.6672 77.6588 69.8088 77.0219C69.6541 77.0219 69.4993 77.0219 69.3446 77.0219C69.5472 77.5273 70.1509 77.6264 70.6741 77.5572C71.2668 77.4784 71.7171 77.0003 71.6997 76.4486C71.5499 76.4854 71.4007 76.5229 71.2515 76.5597C71.867 77.3 73.2528 77.1229 73.6011 76.239C73.7066 75.9717 73.2416 75.8568 73.1369 76.1222C72.9391 76.6238 72.0266 76.7692 71.6671 76.3375C71.5346 76.1781 71.2112 76.2086 71.2189 76.4486C71.23 76.7902 70.9656 77.0759 70.5964 77.1261C70.3535 77.1591 69.9136 77.166 69.8088 76.9051C69.7339 76.7191 69.3959 76.6733 69.3446 76.9051C69.237 77.3895 68.7027 77.4759 68.2336 77.4391C67.6326 77.3921 67.1413 77.0143 66.7742 76.6041C66.6389 76.453 66.3599 76.5806 66.3634 76.7597C66.3738 77.2746 65.7895 77.6226 65.2684 77.6092C64.6168 77.5927 64.0832 77.1362 63.707 76.6924C63.5169 76.4695 63.1783 76.7838 63.3664 77.0048Z" fill="#7F4924"/>
<path d="M68.5895 75.8492C68.84 76.2594 69.0912 76.6689 69.3417 77.0791C69.4034 77.1794 69.5631 77.2219 69.6713 77.1578C69.7823 77.0924 69.8233 76.9642 69.7573 76.8562C69.5068 76.4467 69.2556 76.0365 69.0051 75.627C68.9434 75.526 68.7838 75.4841 68.6755 75.5482C68.5645 75.6136 68.5242 75.7419 68.5895 75.8492Z" fill="#7F4924"/>
<path d="M65.9741 76.2886C66.0394 76.5159 66.1677 76.7095 66.3454 76.8772C66.4168 76.9445 66.4925 77.0073 66.5639 77.0746C66.6028 77.1108 66.6403 77.147 66.6757 77.1858C66.6861 77.1966 66.6965 77.208 66.7062 77.2194C66.7159 77.2302 66.752 77.2607 66.709 77.222C66.7326 77.2429 66.7506 77.2746 66.7694 77.2994C66.8401 77.3947 66.9845 77.4461 67.099 77.3781C67.2024 77.3172 67.2614 77.1788 67.185 77.0765C67.0497 76.8943 66.8818 76.747 66.7132 76.5921C66.6792 76.561 66.6458 76.5292 66.6139 76.4956C66.607 76.488 66.5993 76.4803 66.5924 76.4727C66.5785 76.4568 66.5681 76.4302 66.5973 76.4791C66.5855 76.4594 66.5681 76.4422 66.5549 76.4232C66.5265 76.3826 66.5029 76.34 66.48 76.2962C66.4675 76.2721 66.4987 76.3413 66.4835 76.3032C66.4779 76.2892 66.4723 76.2759 66.4668 76.2619C66.4557 76.2321 66.4467 76.2022 66.4376 76.1718C66.4057 76.06 66.2642 75.9819 66.1413 76.0181C66.0171 76.0549 65.9401 76.1692 65.9741 76.2886Z" fill="#7F4924"/>
<path d="M65.1995 76.4365C67.3181 76.1654 69.377 75.5914 71.3068 74.7463C71.5858 74.6238 71.3422 74.2441 71.0639 74.366C69.173 75.1939 67.1474 75.7457 65.0719 76.0117C64.7666 76.0505 64.8963 76.4752 65.1995 76.4365Z" fill="#7F4924"/>
<path d="M61.1554 71.2275C61.8625 70.1005 62.7153 69.0592 63.7 68.1233C63.9152 67.9188 63.5752 67.6071 63.3593 67.8121C62.3476 68.7741 61.4656 69.8478 60.7397 71.0052C60.5857 71.2516 61.0013 71.4738 61.1554 71.2275Z" fill="#7F4924"/>
<path d="M115.509 94.1278C117.059 94.9697 120.044 96.5654 120.038 95.5907C120.037 95.4453 118.806 94.138 118.666 94.0688L116.014 92.3887C116.78 92.4922 117.554 92.5513 118.328 92.5621C118.515 92.5646 118.71 92.5627 118.874 92.4814C119.038 92.4002 119.156 92.2135 119.085 92.056C119.022 91.9189 118.852 91.8566 118.697 91.809C117.62 91.4776 116.53 91.1804 115.457 90.8357C113.591 90.2356 111.782 89.489 110.053 88.6108L108.007 87.3143C107.289 86.9606 106.437 79.5744 106.232 76.4911C105.791 69.8408 106.611 65.5143 103.675 59.417C103.48 59.0119 93.7 61.5142 93.7 61.5142C92.419 72.4345 100.395 77.5959 100.213 88.5778C100.172 91.0287 97.577 93.0402 96.5472 95.2847C99.0461 95.5895 103.24 92.3055 104.156 92.5995C108.565 94.0154 116.897 99.5 117.475 98.1787C117.52 98.0752 115.669 96.2999 114.036 95.2079C116.095 96.4307 120.684 98.766 120.371 96.9616C120.357 96.8777 117.54 95.2625 115.509 94.1278Z" fill="#F6A472"/>
<path d="M111.609 93.5647C112.901 94.5729 114.266 95.5006 115.558 96.5089C115.792 96.6917 116.134 96.3819 115.898 96.1971C114.606 95.1888 113.242 94.2612 111.95 93.2529C111.715 93.07 111.373 93.3799 111.609 93.5647Z" fill="#7F4924"/>
<path d="M113.154 92.7214C114.789 93.7615 116.4 94.832 117.987 95.9323C118.234 96.1038 118.474 95.7209 118.23 95.552C116.643 94.4523 115.031 93.3818 113.397 92.3411C113.142 92.1786 112.902 92.5602 113.154 92.7214Z" fill="#7F4924"/>
<path d="M114.133 91.395C114.889 92.0287 115.756 92.5297 116.702 92.8909C116.822 92.9367 116.967 92.8414 116.999 92.7373C117.037 92.6103 116.951 92.5125 116.831 92.4662C115.965 92.136 115.165 91.663 114.473 91.0839C114.245 90.8928 113.904 91.2033 114.133 91.395Z" fill="#7F4924"/>
<path d="M114.364 90.7507C113.201 91.9755 111.801 92.9882 110.229 93.7393C109.955 93.8707 110.198 94.2511 110.472 94.1196C112.077 93.3533 113.517 92.3126 114.705 91.0624C114.907 90.8491 114.567 90.5367 114.364 90.7507Z" fill="#7F4924"/>
<path d="M105.826 87.882C105.837 87.8731 105.847 87.8649 105.858 87.8566C105.874 87.8445 105.879 87.8414 105.86 87.8547C105.883 87.8388 105.906 87.8236 105.93 87.8096C105.977 87.7804 106.026 87.7544 106.078 87.7309C106.103 87.7188 106.129 87.708 106.155 87.6972C106.134 87.7061 106.137 87.7036 106.158 87.6972C106.171 87.6928 106.184 87.6877 106.198 87.6839C106.255 87.6655 106.313 87.6496 106.373 87.6375C106.4 87.6318 106.429 87.6268 106.457 87.6223C106.461 87.6217 106.507 87.6153 106.477 87.6191C106.448 87.6229 106.493 87.6179 106.499 87.6172C106.556 87.6122 106.613 87.6103 106.67 87.6109C106.698 87.6115 106.727 87.6128 106.755 87.6147C106.77 87.616 106.783 87.6166 106.797 87.6185C106.802 87.6191 106.847 87.6249 106.818 87.6204C106.79 87.616 106.834 87.6236 106.839 87.6242C106.853 87.6268 106.867 87.6293 106.881 87.6318C106.912 87.6382 106.943 87.6452 106.974 87.6528C107.096 87.6833 107.241 87.6147 107.271 87.4991C107.3 87.3823 107.232 87.261 107.103 87.228C106.538 87.0845 105.926 87.221 105.487 87.5715C105.391 87.6477 105.395 87.8064 105.487 87.8833C105.587 87.9677 105.725 87.9633 105.826 87.882Z" fill="#7F4924"/>
<path d="M91.2394 60.9598C92.3386 59.3566 94.7999 58.2525 96.7603 57.648C98.7206 57.0435 100.817 56.9064 102.885 56.9254C103.299 56.9293 103.734 56.9445 104.089 57.1407C104.514 57.3756 104.498 58.0144 104.931 58.236C106.484 59.0284 105.441 61.4741 104.96 62.5021C102.521 62.5434 101.637 61.7675 99.2696 62.3027C96.9019 62.838 95.2239 63.8018 93.5668 65.4387C92.6134 64.1022 91.4288 62.5821 91.3192 60.989L91.2394 60.9598Z" fill="#3DA7E9"/>
<path d="M92.5765 62.5123C94.1691 61.2545 95.8768 59.9313 98.0148 59.5948C98.3194 59.5465 98.1904 59.1224 97.8871 59.17C95.6686 59.5186 93.888 60.8957 92.2365 62.2005C92.0005 62.3859 92.3426 62.6964 92.5765 62.5123Z" fill="#277AAE"/>
<path d="M93.5681 62.7256C94.3397 62.0406 95.262 61.504 96.2716 61.1637C96.3938 61.1224 96.4763 61.0145 96.4396 60.8926C96.407 60.7853 96.2661 60.6977 96.1433 60.7389C95.0538 61.1059 94.0608 61.6736 93.2273 62.4139C93.0053 62.612 93.346 62.9231 93.5681 62.7256Z" fill="#277AAE"/>
<path d="M102.489 58.9306C102.976 58.6595 103.535 58.4811 104.094 58.4265C104.223 58.4138 104.335 58.3344 104.335 58.2061C104.335 58.0969 104.225 57.9731 104.094 57.9858C103.439 58.05 102.81 58.2366 102.246 58.5503C102.135 58.6119 102.093 58.7478 102.16 58.8519C102.225 58.9535 102.378 58.9928 102.489 58.9306Z" fill="#277AAE"/>
<path d="M102.564 59.6487C103.14 59.4672 103.716 59.2856 104.292 59.104C104.415 59.0652 104.496 58.9529 104.46 58.8328C104.427 58.7236 104.287 58.6398 104.164 58.6792C103.588 58.8608 103.012 59.0424 102.437 59.2233C102.314 59.2621 102.233 59.3744 102.269 59.4944C102.301 59.6043 102.441 59.6875 102.564 59.6487Z" fill="#277AAE"/>
<path d="M37.9678 55.1349C37.5743 55.9692 37.5861 56.907 38.0108 57.7299C38.0663 57.8378 38.2349 57.8651 38.3404 57.8086C38.4604 57.7445 38.4827 57.6156 38.4265 57.507C38.0837 56.8416 38.0642 56.0333 38.3834 55.3565C38.4348 55.2473 38.4188 55.1203 38.2974 55.0549C38.196 55.0016 38.0198 55.0251 37.9678 55.1349Z" fill="#7F4924"/>
</svg>
