<svg width="135" height="180" viewBox="0 0 135 180" fill="none" xmlns="http://www.w3.org/2000/svg">
<path d="M135 0H45.0052V85.9896H135V0Z" fill="#5B5B5B"/>
<path d="M130.283 3.61035H50.9037V82.3776H130.283V3.61035Z" fill="#ADADAD"/>
<path d="M86.1372 11.074H55.2651V16.6436H86.1372V11.074Z" fill="#827454"/>
<path d="M63.1621 3.61035H60.7021V11.0303H63.1621V3.61035Z" fill="#3C3C3C"/>
<path d="M69.0996 3.61035H66.6396V11.0303H69.0996V3.61035Z" fill="#3C3C3C"/>
<path d="M75.6351 3.61035H73.1752V11.0303H75.6351V3.61035Z" fill="#3C3C3C"/>
<path d="M81.5727 3.61035H79.1127V11.0303H81.5727V3.61035Z" fill="#3C3C3C"/>
<path d="M121.406 3.61035H118.946V82.3776H121.406V3.61035Z" fill="#3C3C3C"/>
<path d="M115.468 3.61035H113.008V82.3776H115.468V3.61035Z" fill="#3C3C3C"/>
<path d="M125.968 11.074H95.0956V16.6436H125.968V11.074Z" fill="white"/>
<path d="M102.995 3.61035H100.535V11.0303H102.995V3.61035Z" fill="#3C3C3C"/>
<path d="M108.933 3.61035H106.473V11.0303H108.933V3.61035Z" fill="#3C3C3C"/>
<path d="M60.813 19.9349H59.1561V22.4778H60.813V19.9349Z" fill="#827454"/>
<path d="M54.0744 19.9349H52.4198V22.4778H54.0744V19.9349Z" fill="#827454"/>
<path d="M67.2997 19.9349H65.6428V22.4778H67.2997V19.9349Z" fill="#827454"/>
<path d="M74.0335 19.9349H72.3766V22.4778H74.0335V19.9349Z" fill="#827454"/>
<path d="M92.4695 19.9349H90.8126V22.4778H92.4695V19.9349Z" fill="#827454"/>
<path d="M85.9665 19.9349H84.3096V22.4778H85.9665V19.9349Z" fill="#827454"/>
<path d="M98.9566 19.9349H97.2997V22.4778H98.9566V19.9349Z" fill="#827454"/>
<path d="M105.688 19.9349H104.033V22.4778H105.688V19.9349Z" fill="#827454"/>
<path d="M83.5228 40.9421H81.8658V43.4865H83.5228V40.9421Z" fill="#827454"/>
<path d="M76.7844 40.9421H75.1298V43.4865H76.7844V40.9421Z" fill="#827454"/>
<path d="M90.0074 40.9421H88.3528V43.4865H90.0074V40.9421Z" fill="#827454"/>
<path d="M96.7435 40.9421H95.0865V43.4865H96.7435V40.9421Z" fill="#827454"/>
<path d="M115.179 40.9421H113.522V43.4865H115.179V40.9421Z" fill="#827454"/>
<path d="M108.676 40.9421H107.02V43.4865H108.676V40.9421Z" fill="#827454"/>
<path d="M121.666 40.9421H120.01V43.4865H121.666V40.9421Z" fill="#827454"/>
<path d="M128.398 40.9421H126.743V43.4865H128.398V40.9421Z" fill="#827454"/>
<path d="M61.0597 62.1672H59.4028V64.7116H61.0597V62.1672Z" fill="#827454"/>
<path d="M54.3237 62.1672H52.6691V64.7116H54.3237V62.1672Z" fill="#827454"/>
<path d="M67.5466 62.1672H65.8896V64.7116H67.5466V62.1672Z" fill="#827454"/>
<path d="M74.2806 62.1672H72.626V64.7116H74.2806V62.1672Z" fill="#827454"/>
<path d="M92.7142 62.1672H91.0596V64.7116H92.7142V62.1672Z" fill="#827454"/>
<path d="M86.2112 62.1672H84.5566V64.7116H86.2112V62.1672Z" fill="#827454"/>
<path d="M99.2034 62.1672H97.5465V64.7116H99.2034V62.1672Z" fill="#827454"/>
<path d="M105.94 62.1672H104.283V64.7116H105.94V62.1672Z" fill="#827454"/>
<path d="M75.8497 22.4778H50.9037V38.3682H75.8497V22.4778Z" fill="white"/>
<path d="M57.3282 22.4778H55.8536V38.3682H57.3282V22.4778Z" fill="#7C7C7C"/>
<path d="M63.9006 22.4778H62.426V38.3682H63.9006V22.4778Z" fill="#7C7C7C"/>
<path d="M70.5743 22.4778H69.0997V38.3682H70.5743V22.4778Z" fill="#7C7C7C"/>
<path d="M54.4784 33.9595H52.0208V36.4494H54.4784V33.9595Z" fill="#3C3C3C"/>
<path d="M61.2121 33.9595H58.7544V36.4494H61.2121V33.9595Z" fill="#3C3C3C"/>
<path d="M67.6989 33.9595H65.2412V36.4494H67.6989V33.9595Z" fill="#3C3C3C"/>
<path d="M74.4352 33.9595H71.9775V36.4494H74.4352V33.9595Z" fill="#3C3C3C"/>
<path d="M107.571 22.4778H82.6228V38.3682H107.571V22.4778Z" fill="white"/>
<path d="M89.0496 22.4778H87.575V38.3682H89.0496V22.4778Z" fill="#7C7C7C"/>
<path d="M95.6218 22.4778H94.1472V38.3682H95.6218V22.4778Z" fill="#7C7C7C"/>
<path d="M102.296 22.4778H100.821V38.3682H102.296V22.4778Z" fill="#7C7C7C"/>
<path d="M86.1974 33.9595H83.7397V36.4494H86.1974V33.9595Z" fill="#3C3C3C"/>
<path d="M92.9335 33.9595H90.4758V36.4494H92.9335V33.9595Z" fill="#3C3C3C"/>
<path d="M99.4203 33.9595H96.9626V36.4494H99.4203V33.9595Z" fill="#3C3C3C"/>
<path d="M106.154 33.9595H103.696V36.4494H106.154V33.9595Z" fill="#3C3C3C"/>
<path d="M98.5619 43.4445H73.6136V59.3348H98.5619V43.4445Z" fill="white"/>
<path d="M80.0404 43.4445H78.5658V59.3348H80.0404V43.4445Z" fill="#7C7C7C"/>
<path d="M86.6103 43.4445H85.1357V59.3348H86.6103V43.4445Z" fill="#7C7C7C"/>
<path d="M93.2866 43.4445H91.812V59.3348H93.2866V43.4445Z" fill="#7C7C7C"/>
<path d="M77.1883 54.9261H74.7306V57.4161H77.1883V54.9261Z" fill="#3C3C3C"/>
<path d="M83.9242 54.9261H81.4666V57.4161H83.9242V54.9261Z" fill="#3C3C3C"/>
<path d="M90.4112 54.9261H87.9535V57.4161H90.4112V54.9261Z" fill="#3C3C3C"/>
<path d="M97.1449 54.9261H94.6873V57.4161H97.1449V54.9261Z" fill="#3C3C3C"/>
<path d="M130.281 43.4445H105.335V59.3348H130.281V43.4445Z" fill="white"/>
<path d="M111.762 43.4445H110.287V59.3348H111.762V43.4445Z" fill="#7C7C7C"/>
<path d="M118.332 43.4445H116.857V59.3348H118.332V43.4445Z" fill="#7C7C7C"/>
<path d="M125.008 43.4445H123.533V59.3348H125.008V43.4445Z" fill="#7C7C7C"/>
<path d="M108.909 54.9261H106.452V57.4161H108.909V54.9261Z" fill="#3C3C3C"/>
<path d="M115.646 54.9261H113.188V57.4161H115.646V54.9261Z" fill="#3C3C3C"/>
<path d="M122.13 54.9261H119.672V57.4161H122.13V54.9261Z" fill="#3C3C3C"/>
<path d="M128.866 54.9261H126.409V57.4161H128.866V54.9261Z" fill="#3C3C3C"/>
<path d="M75.9142 64.7101H50.9683V80.6005H75.9142V64.7101Z" fill="white"/>
<path d="M57.3951 64.7101H55.9205V80.6005H57.3951V64.7101Z" fill="#7C7C7C"/>
<path d="M63.9675 64.7101H62.4929V80.6005H63.9675V64.7101Z" fill="#7C7C7C"/>
<path d="M70.6414 64.7101H69.1667V80.6005H70.6414V64.7101Z" fill="#7C7C7C"/>
<path d="M54.5452 76.1916H52.0875V78.6815H54.5452V76.1916Z" fill="#3C3C3C"/>
<path d="M61.2791 76.1916H58.8214V78.6815H61.2791V76.1916Z" fill="#3C3C3C"/>
<path d="M67.7659 76.1916H65.3082V78.6815H67.7659V76.1916Z" fill="#3C3C3C"/>
<path d="M74.4998 76.1916H72.0421V78.6815H74.4998V76.1916Z" fill="#3C3C3C"/>
<path d="M107.638 64.7101H82.6897V80.6005H107.638V64.7101Z" fill="white"/>
<path d="M89.1166 64.7101H87.642V80.6005H89.1166V64.7101Z" fill="#7C7C7C"/>
<path d="M95.6887 64.7101H94.2141V80.6005H95.6887V64.7101Z" fill="#7C7C7C"/>
<path d="M102.363 64.7101H100.888V80.6005H102.363V64.7101Z" fill="#7C7C7C"/>
<path d="M86.2643 76.1916H83.8066V78.6815H86.2643V76.1916Z" fill="#3C3C3C"/>
<path d="M93.0003 76.1916H90.5426V78.6815H93.0003V76.1916Z" fill="#3C3C3C"/>
<path d="M99.4872 76.1916H97.0295V78.6815H99.4872V76.1916Z" fill="#3C3C3C"/>
<path d="M106.221 76.1916H103.763V78.6815H106.221V76.1916Z" fill="#3C3C3C"/>
<path d="M130.283 18.6339H50.9037V19.9349H130.283V18.6339Z" fill="#827454"/>
<path d="M130.283 40.3445H50.9037V41.6455H130.283V40.3445Z" fill="#827454"/>
<path d="M130.283 61.1339H50.9037V62.4348H130.283V61.1339Z" fill="#827454"/>
<path d="M77.768 49.158L67.9348 47.3488L62.2333 61.4412L72.0665 63.2504L77.768 49.158Z" fill="#EC8117"/>
<path d="M79.5635 49.4145L69.7303 47.6053L64.0289 61.6977L73.8621 63.5069L79.5635 49.4145Z" fill="#FF7F00" fill-opacity="0.88"/>
<path d="M46.733 53.0851C46.733 53.0851 54.5838 60.2561 56.2852 61.3049C63.7132 65.8833 73.9727 71.302 82.1432 72.2731C85.8243 72.7104 97.02 72.4972 98.4574 73.2939C100.435 74.3879 97.2613 75.4337 94.3556 76.3768C91.2788 77.3759 87.3359 76.7051 86.5976 77.0724C85.7191 77.5113 90.0456 78.8185 89.1444 79.5483C87.7834 80.6532 82.9949 78.9227 79.4789 77.8349C75.5689 76.6258 56.3099 72.1003 51.1441 68.9179C45.9782 65.7355 36.3147 58.2766 36.3147 58.2766L46.733 53.0851Z" fill="#ED8A40"/>
<path d="M27.0265 40.5158C28.2019 39.9073 34.0689 41.9724 36.4405 43.86C38.812 45.7462 46.733 53.0852 46.733 53.0852L37.6407 58.2767L27.0265 40.5158Z" fill="#C2B38C"/>
<path d="M36.4879 16.5907C35.894 14.8711 35.2815 14.0416 32.8687 12.7764C30.458 11.5128 21.0316 10.2538 16.4618 13.1764C11.8919 16.1005 13.6943 21.5083 14.4408 23.3586C15.2884 25.4579 16.8165 28.0599 17.3444 30.9622C17.5836 32.2756 15.9462 35.2138 15.4121 35.967C15.41 35.9701 15.408 35.9716 15.4059 35.9747C17.2784 37.6788 20.7244 38.3526 23.4857 38.5549C25.0488 38.6701 26.3934 38.5658 27.6637 38.3371C27.4863 38.1628 27.3276 37.9791 27.2286 37.7675C26.8801 37.0252 27.0512 33.8801 27.9132 33.1518C29.1341 32.1169 30.5755 32.1885 32.3614 32.4624C34.7268 32.825 34.1947 30.5218 35.6836 30.1468C36.6529 29.9009 36.0239 29.5227 35.7785 29.1477C35.9414 28.8925 36.6838 28.7586 36.8385 28.5361C37.2159 27.9914 36.3807 27.7875 36.4982 27.5074C36.7931 26.8009 39.4554 26.7714 39.21 26.0104C38.7873 24.6938 35.729 22.1323 36.1579 21.2717C37.0241 19.535 37.0509 18.2231 36.4879 16.5907Z" fill="#FFB680"/>
<path d="M36.2983 16.0819C36.2983 16.0819 33.1349 15.1622 28.8393 17.6241C26.0904 19.1989 25.9955 21.0477 22.3309 21.8149C19.1758 22.4763 19.7449 24.171 19.7449 24.171L17.029 29.9445C17.029 29.9445 12.2612 26.8928 11.8528 20.1171C11.459 13.5966 14.0615 12.8107 14.0615 12.8107C14.0615 12.8107 18.7159 10.0843 28.0144 10.6227C33.2504 10.9262 36.3127 12.21 36.3127 12.21C36.3127 12.21 35.7188 14.1817 36.2983 16.0819Z" fill="#3C3C3C"/>
<path d="M23.1042 22.0204C23.1042 22.0204 23.0032 19.8728 20.3079 20.1265C17.6126 20.3786 17.2991 23.2591 20.2419 24.9616C23.1847 26.6625 23.1042 22.0204 23.1042 22.0204Z" fill="#FFB680"/>
<path d="M38.7709 15.7706L30.8643 15.1497C30.8643 15.1497 31.6459 11.8894 35.426 10.9884C33.8669 9.40883 31.3407 7.92886 27.208 7.49157C13.8903 6.08321 11.7806 15.6087 11.7806 15.6087L48.0735 18.8036L48.5354 17.0591L38.7709 15.7706Z" fill="#F1A934"/>
<path d="M30.8663 15.1496L38.7729 15.7705L37.8861 15.6538C37.8861 15.6538 37.6283 13.2199 35.4259 10.9899C31.6479 11.8894 30.8663 15.1496 30.8663 15.1496Z" fill="#FF6E83"/>
<path d="M25.6593 177.22C26.7234 176.672 27.6514 176.336 28.5835 176.215C27.7792 175.155 26.5625 174.106 25.4077 173.481C22.7351 172.03 17.1671 169.302 17.1671 169.302L3.99988 168.331C3.99988 168.331 4.30302 170.885 4.34427 172.573C6.8746 174.105 10.9949 176.388 14.3336 177.222C19.5366 178.521 23.0197 178.58 25.6593 177.22Z" fill="#C2B38C"/>
<path d="M67.6746 176.349C68.6356 175.854 69.4853 175.527 70.3287 175.378C69.5286 174.273 68.2583 173.16 67.0539 172.507C64.3813 171.056 58.8113 168.328 58.8113 168.328L46.8401 169.008L45.644 169.077C45.644 169.077 45.9059 170.255 45.9761 171.469C48.4569 172.991 52.837 175.473 56.349 176.351C61.5519 177.65 65.035 177.711 67.6746 176.349Z" fill="#C2B38C"/>
<path d="M4.33401 173.431C4.23915 174.896 7.78822 176.693 12.7746 178.408C17.7611 180.123 25.9274 180.387 28.5114 179.513C29.9797 179.016 29.6373 177.606 28.5815 176.214C27.6494 176.335 26.7193 176.671 25.6573 177.219C23.0197 178.579 19.5346 178.52 14.3316 177.219C10.9929 176.385 6.87259 174.102 4.34226 172.571C4.35051 172.897 4.35051 173.193 4.33401 173.431Z" fill="#C2B38C"/>
<path d="M45.9803 172.458C45.8854 173.923 49.4345 175.72 54.4209 177.435C59.4074 179.15 67.5737 179.415 70.1577 178.54C71.5765 178.061 71.3022 176.724 70.3268 175.378C69.4833 175.527 68.6337 175.852 67.6727 176.349C65.0351 177.709 61.55 177.65 56.347 176.349C52.8351 175.471 48.455 172.991 45.9741 171.467C45.9947 171.803 46.0009 172.142 45.9803 172.458Z" fill="#C2B38C"/>
<path d="M9.85242 169.159C9.85242 169.159 13.6572 171.979 18.1755 174.164C21.8153 175.924 24.855 175.37 21.8132 173.145C18.7715 170.921 15.8328 169.201 15.8328 169.201L9.85242 169.159Z" fill="white"/>
<path d="M52.4288 169.159C52.4288 169.159 56.2336 171.979 60.7519 174.164C64.3917 175.924 67.4314 175.37 64.3897 173.145C61.3479 170.921 58.4092 169.201 58.4092 169.201L52.4288 169.159Z" fill="white"/>
<path d="M11.8135 86.2402C14.4944 87.51 25.3334 84.0195 30.1569 84.6778C33.1636 85.087 37.8984 85.9181 41.0433 86.4876C39.3832 73.3175 40.0905 57.3182 39.2244 54.8905C36.8879 48.3373 32.7305 42.8937 27.6616 38.3402C21.5595 39.7035 15.4121 35.9702 15.4121 35.9702C15.4121 35.9702 8.45004 38.874 5.39384 41.7343C1.77879 45.1191 1.57463 54.9714 2.00563 63.5663C4.72775 67.6918 8.11184 72.8537 9.37185 74.911C11.6135 78.5697 9.13263 84.9703 11.8135 86.2402Z" fill="#C2B38C"/>
<path d="M2.24275 91.9732C2.24275 91.9732 20.1077 92.9318 26.3397 92.6704C30.6807 92.4883 41.6227 90.3874 41.6227 90.3874C41.4021 89.1285 41.2103 87.8213 41.0412 86.4876C37.8963 85.9196 33.1615 85.0885 30.1548 84.6777C25.3313 84.0194 14.4923 87.51 11.8114 86.2401C9.13054 84.9718 11.6114 78.5712 9.36976 74.9125C8.10975 72.8552 4.72566 67.6933 2.00354 63.5678C2.14583 66.3892 2.35412 69.0752 2.53353 71.3504C3.15219 79.1548 1.81175 86.5094 2.24275 91.9732Z" fill="#C2B38C"/>
<path d="M39.7029 116.84C42.3446 123.443 44.5038 129.377 47.3867 131.754C50.2676 134.132 56.6254 137.755 54.887 139.206C53.1485 140.654 51.4678 139.025 49.7871 139.206C48.1064 139.386 48.6426 142.452 49.4263 145.818C49.748 147.194 51.9133 161.14 53.2867 170.045L64.6722 170.096C64.4433 160.357 63.9813 130.102 61.3108 125.528C58.599 120.88 45.6153 93.0423 41.6228 85.7001C40.0143 86.0425 34.966 87.594 33.5101 87.8415C23.496 89.5455 9.0894 87.026 2.25523 86.083C0.446671 93.1544 0.4178 101.237 0.0857837 105.143C-0.615368 113.432 3.23272 134.23 2.53363 139.386C1.97065 143.53 2.25523 162.628 1.84073 170.006H20.8564C21.4689 162.152 23.1021 140.858 23.1021 137.203C23.1021 130.986 28.1545 107.524 28.1545 107.524L29.9384 105.358C29.9384 105.358 37.0633 110.237 39.7029 116.84Z" fill="#1599EA"/>
<path d="M44.3697 170.006L53.2888 170.046C51.9154 161.142 49.75 147.195 49.4283 145.819C48.6426 142.453 48.1085 139.388 49.7892 139.207C51.4699 139.026 53.1506 140.656 54.8891 139.207C56.6275 137.758 50.2697 134.134 47.3888 131.756C44.5079 129.378 42.3467 123.444 39.705 116.841C37.0633 110.238 29.9404 105.358 29.9404 105.358L28.1566 107.524C28.1566 107.524 41.3321 130.094 42.2085 134.99C42.9241 138.995 44.0006 161.842 44.3697 170.006Z" fill="#057FD3"/>
<path d="M9.85242 88.6273C9.85242 88.6273 20.1243 74.6152 23.0588 68.4107C25.9933 62.2061 28.1566 52.7428 28.1566 52.7428C28.1566 52.7428 34.8196 52.1468 37.6222 51.157C43.0664 57.2854 42.1219 93.1948 42.1219 93.1948L9.85242 88.6273Z" fill="#1599EA"/>
<path d="M78.4189 59.3396C76.3093 58.4837 68.7471 60.5565 67.6933 59.9667C66.6395 59.3769 67.949 58.3016 69.0049 56.2054C70.0587 54.1092 67.2231 55.127 64.0618 57.5795C60.8983 60.0321 59.8445 60.762 55.8913 61.856C50.5563 63.3328 34.4608 65.3777 31.6273 64.9435C28.1442 64.4097 24.0652 57.6791 24.0652 57.6791L10.6855 62.1548C10.6855 62.1548 18.1487 69.5452 21.4441 72.6965C23.4506 74.6153 27.3482 77.0461 34.8196 75.1226C40.5113 73.6567 54.6643 68.9756 58.9392 67.6699C59.9209 67.3696 69.1616 66.2989 73.2943 65.2921C77.5095 64.2634 80.5285 60.1955 78.4189 59.3396Z" fill="#FFB680"/>
<path d="M25.6594 58.5677C24.2509 56.3548 21.4009 51.2785 20.7142 50.3681C12.3148 39.2101 2.10478 38.7495 2.55021 49.6694C2.75437 54.6726 8.62755 60.5192 11.7807 64.8081C17.1053 62.4334 20.4997 61.1588 25.6594 58.5677Z" fill="#C2B38C"/>
<path d="M7.10767 40.382C7.10767 40.382 12.4405 39.1401 20.178 44.8109C25.4634 48.6843 28.0226 52.6651 29.5755 54.973C31.1427 57.3041 33.704 55.9783 32.7575 53.9038C31.4809 51.1089 27.8267 45.8505 21.8174 42.2136C14.3337 37.6835 10.0772 38.6033 10.0772 38.6033L7.10767 40.382Z" fill="#3C3C3C"/>
<path d="M1.84277 88.5651L2.33358 84.6761C2.33358 84.6761 18.9364 87.3544 28.5835 87.0774C38.2305 86.8004 42.1838 83.8716 42.1838 83.8716L43.0829 88.4919C43.0829 88.4919 36.822 91.2822 23.8569 90.7329C12.4817 90.2536 1.84277 88.5651 1.84277 88.5651Z" fill="#057FD3"/>
<path d="M18.1571 88.0795C18.1571 88.0795 17.2807 97.5599 12.4922 101.097C8.32242 104.177 0.246791 103.694 0.246791 103.694L0.0281982 106.114C0.0281982 106.114 10.3289 107.146 16.0124 101.944C21.6959 96.7414 21.4401 88.7176 21.4401 88.7176L18.1571 88.0795Z" fill="#057FD3"/>
<path d="M28.1566 107.523L30.4312 106.794C30.4312 106.794 33.2214 102.546 33.8607 99.1644C34.5 95.7828 35.0609 89.8646 34.7413 89.8646C34.4216 89.8646 31.0602 90.1384 31.0602 90.1384C31.0602 90.1384 31.0107 94.4491 30.4993 98.6945C30.1343 101.738 28.1566 107.523 28.1566 107.523Z" fill="#057FD3"/>
<path d="M30.9014 54.716C31.4322 54.716 31.8624 54.3509 31.8624 53.9005C31.8624 53.4502 31.4322 53.0851 30.9014 53.0851C30.3707 53.0851 29.9404 53.4502 29.9404 53.9005C29.9404 54.3509 30.3707 54.716 30.9014 54.716Z" fill="white"/>
</svg>
