<svg width="110" height="180" viewBox="0 0 110 180" fill="none" xmlns="http://www.w3.org/2000/svg">
<path d="M55.1103 33.3535C56.1021 36.2898 55.4592 39.1813 53.6745 39.8118C51.8897 40.4423 49.639 38.573 48.6472 35.6367C47.6555 32.7003 48.2983 29.8088 50.083 29.1783C51.8678 28.5478 54.1186 30.4171 55.1103 33.3535ZM49.5679 35.3114C50.2771 37.4112 51.8866 38.7479 53.1629 38.297C54.4391 37.8462 54.8988 35.7785 54.1896 33.6787C53.4804 31.579 51.8709 30.2423 50.5947 30.6931C49.3184 31.144 48.8587 33.2117 49.5679 35.3114Z" fill="#BEAEAE"/>
<path d="M92.4818 158.617C94.1552 163.264 95.4051 168.002 96.2208 172.782C99.0005 172.369 101.768 171.911 104.522 171.408C104.148 164.58 103.931 157.747 103.874 150.913L92.4818 158.617Z" fill="#F2E8D1"/>
<path d="M95.1236 161.129C95.9385 164.175 96.7904 167.214 97.6809 170.247C97.9336 171.108 98.1896 171.969 98.4481 172.829C98.5138 173.047 98.9504 172.955 98.8847 172.738C97.973 169.708 97.099 166.672 96.2627 163.63C96.0256 162.767 95.7909 161.902 95.5603 161.037C95.5012 160.818 95.0645 160.91 95.1236 161.129Z" fill="#87795B"/>
<path d="M97.785 160.473C98.6557 163.669 99.3475 166.893 99.8498 170.135C99.9926 171.058 100.121 171.982 100.234 172.907C100.261 173.127 100.713 173.13 100.686 172.907C100.284 169.626 99.6963 166.357 98.9216 163.116C98.7033 162.202 98.4694 161.29 98.2216 160.381C98.1617 160.162 97.7251 160.254 97.785 160.473Z" fill="#87795B"/>
<path d="M101.005 161.604C101.207 164.564 101.408 167.524 101.61 170.483C101.668 171.328 101.725 172.174 101.783 173.02C101.798 173.242 102.251 173.243 102.236 173.02C102.034 170.06 101.833 167.101 101.631 164.141C101.573 163.295 101.516 162.449 101.458 161.604C101.443 161.382 100.99 161.381 101.005 161.604Z" fill="#87795B"/>
<path d="M103.337 170.312C102.54 169.682 101.719 169.038 100.683 168.666C99.6463 168.295 98.3315 168.248 97.4222 168.781C96.8453 169.119 96.5056 169.637 96.1978 170.142C94.8954 172.282 93.8417 174.51 93.0555 176.794C92.9365 177.139 92.8248 177.512 92.9898 177.846C93.1449 178.16 93.5158 178.378 93.8827 178.561C97.0357 180.129 101.307 180.263 104.616 178.897C105.066 178.711 105.522 178.478 105.722 178.117C105.916 177.764 105.823 177.36 105.728 176.984C105.265 175.162 104.803 173.341 104.339 171.52L103.337 170.312Z" fill="#EC8117"/>
<mask id="mask0_2133_5875" style="mask-type:luminance" maskUnits="userSpaceOnUse" x="92" y="168" width="14" height="12">
<path d="M103.337 170.312C102.54 169.682 101.719 169.038 100.683 168.666C99.6463 168.295 98.3315 168.248 97.4222 168.781C96.8453 169.119 96.5056 169.637 96.1978 170.142C94.8954 172.282 93.8417 174.51 93.0555 176.794C92.9365 177.139 92.8248 177.512 92.9898 177.846C93.1449 178.16 93.5158 178.378 93.8827 178.561C97.0357 180.129 101.307 180.263 104.616 178.897C105.066 178.711 105.522 178.478 105.722 178.117C105.916 177.764 105.823 177.36 105.728 176.984C105.265 175.162 104.803 173.341 104.339 171.52L103.337 170.312Z" fill="white"/>
</mask>
<g mask="url(#mask0_2133_5875)">
<path d="M106.185 175.494C104.063 177.553 100.514 178.69 97.1153 178.4C96.1182 178.315 95.1178 178.109 94.2922 177.67C92.7781 176.866 92.0083 175.378 90.3891 174.706C89.6341 175.599 89.7243 176.82 90.4219 177.74C91.1186 178.661 92.3415 179.298 93.6554 179.639C94.7584 179.927 95.9319 180.024 97.0964 180.038C98.3923 180.053 99.6857 179.967 100.976 179.875C102.377 179.775 103.819 179.658 105.055 179.143C106.292 178.628 107.283 177.612 107.128 176.538L106.185 175.494Z" fill="#210A0A"/>
</g>
<mask id="mask1_2133_5875" style="mask-type:luminance" maskUnits="userSpaceOnUse" x="92" y="168" width="14" height="12">
<path d="M103.337 170.312C102.54 169.682 101.719 169.038 100.683 168.666C99.6463 168.295 98.3315 168.248 97.4222 168.781C96.8453 169.119 96.5056 169.637 96.1978 170.142C94.8954 172.282 93.8417 174.51 93.0555 176.794C92.9365 177.139 92.8248 177.512 92.9898 177.846C93.1449 178.16 93.5158 178.378 93.8827 178.561C97.0357 180.129 101.307 180.263 104.616 178.897C105.066 178.711 105.522 178.478 105.722 178.117C105.916 177.764 105.823 177.36 105.728 176.984C105.265 175.162 104.803 173.341 104.339 171.52L103.337 170.312Z" fill="white"/>
</mask>
<g mask="url(#mask1_2133_5875)">
<path d="M105.095 172.74C103.444 171.773 102.383 170.15 100.405 169.663C99.1571 169.357 97.7694 169.587 96.6147 170.062C95.46 170.538 94.4949 171.239 93.5446 171.931C93.959 171.141 94.4211 170.365 94.9291 169.608C95.5208 168.725 96.2093 167.838 97.2746 167.275C99.561 166.065 102.66 166.73 105.28 167.435C106.269 167.701 107.28 167.978 108.086 168.491C108.892 169.005 109.461 169.815 109.263 170.605L105.095 172.74Z" fill="#4B89AF"/>
</g>
<path d="M101.562 174.097C100.092 173.405 98.2571 173.243 96.6043 173.599C96.1324 173.7 95.6802 173.851 95.2551 174.039C94.903 174.193 94.6314 173.758 94.9802 173.604C96.6256 172.881 98.6634 172.745 100.463 173.185C100.974 173.31 101.463 173.485 101.919 173.7C102.264 173.863 101.907 174.26 101.562 174.097Z" fill="#1C1C1B"/>
<path d="M101.865 173.214C100.411 172.502 98.5918 172.313 96.939 172.678C96.7757 172.714 96.6009 172.607 96.5705 172.487C96.536 172.35 96.655 172.241 96.8192 172.205C98.6312 171.804 100.636 172.04 102.223 172.817C102.563 172.984 102.205 173.381 101.865 173.214Z" fill="#1C1C1B"/>
<path d="M101.55 171.645C100.371 171.017 98.7962 170.862 97.4552 171.262C97.2969 171.309 97.1139 171.274 97.0351 171.151C96.9653 171.041 97.022 170.875 97.1804 170.828C98.7339 170.365 100.534 170.518 101.907 171.248C102.24 171.425 101.883 171.822 101.55 171.645Z" fill="#1C1C1B"/>
<path d="M102.6 177.94C101.831 177.113 100.702 176.521 99.4222 176.26C98.1666 176.005 96.8157 176.131 95.652 176.563C94.9971 176.807 94.3964 177.147 93.9163 177.568C93.8047 177.666 93.6299 177.709 93.4789 177.629C93.3517 177.562 93.2869 177.392 93.3993 177.294C94.3595 176.453 95.6865 175.88 97.1293 175.705C98.572 175.531 100.047 175.773 101.292 176.356C101.988 176.682 102.603 177.117 103.077 177.627C103.175 177.733 103.179 177.877 103.042 177.967C102.922 178.046 102.699 178.048 102.6 177.94Z" fill="#1C1C1B"/>
<path d="M59.2176 155.164C59.9307 160.476 60.3008 165.815 60.3262 171.155C62.9672 171.822 65.6081 172.488 68.2491 173.154C70.1128 166.268 69.6639 159.153 69.2068 152.129L59.2176 155.164Z" fill="#F2E8D1"/>
<path d="M60.3672 157.597C61.7114 161.048 62.6216 164.595 63.0844 168.179C63.2157 169.199 63.311 170.222 63.37 171.246C63.384 171.484 63.8641 171.446 63.8501 171.208C63.6392 167.576 62.972 163.964 61.8616 160.431C61.5481 159.434 61.2001 158.445 60.8177 157.462C60.7282 157.234 60.2785 157.37 60.3672 157.597Z" fill="#87795B"/>
<path d="M63.9135 157.771C64.7186 161.494 65.1642 165.261 65.2397 169.034C65.261 170.089 65.2528 171.144 65.2175 172.198C65.2093 172.436 65.6894 172.395 65.6976 172.161C65.8248 168.388 65.5884 164.61 64.9852 160.865C64.8162 159.818 64.6184 158.774 64.3936 157.733C64.3435 157.499 63.8626 157.536 63.9135 157.771Z" fill="#87795B"/>
<path d="M67.8985 157.994C67.7114 161.807 67.5243 165.621 67.3372 169.435C67.2846 170.502 67.2329 171.568 67.1804 172.634C67.1755 172.735 67.2386 172.828 67.3781 172.848C67.4939 172.864 67.6514 172.796 67.6563 172.696C67.8434 168.882 68.0306 165.069 68.2177 161.254C68.2703 160.188 68.3227 159.122 68.3744 158.055C68.3793 157.954 68.3162 157.861 68.1767 157.842C68.061 157.825 67.9034 157.893 67.8985 157.994Z" fill="#87795B"/>
<path d="M69.2355 168.821C67.9717 169.815 65.6147 169.791 64.3853 168.773C63.3529 167.919 62.9008 166.449 61.3998 166.272C60.0145 166.108 59.0231 167.203 58.0621 167.986C56.7581 169.049 54.9895 169.693 53.2497 170.284C51.5099 170.875 49.7191 171.454 48.301 172.428C46.8829 173.402 45.8833 175.091 46.2329 176.527C50.603 176.365 65.4095 177.048 68.3525 176.541L69.2355 168.821Z" fill="#EC8117"/>
<mask id="mask2_2133_5875" style="mask-type:luminance" maskUnits="userSpaceOnUse" x="46" y="166" width="24" height="11">
<path d="M69.2355 168.821C67.9717 169.815 65.6147 169.791 64.3853 168.773C63.3529 167.919 62.9008 166.449 61.3998 166.272C60.0145 166.108 59.0231 167.203 58.0621 167.986C56.7581 169.049 54.9895 169.693 53.2497 170.284C51.5099 170.875 49.7191 171.454 48.301 172.428C46.8829 173.402 45.8833 175.091 46.2329 176.527C50.603 176.365 65.4095 177.048 68.3525 176.541L69.2355 168.821Z" fill="white"/>
</mask>
<g mask="url(#mask2_2133_5875)">
<path d="M74.2605 175.349L73.265 178.339L45.1184 178.321L45.9941 175.331C55.4162 175.337 64.8384 175.343 74.2605 175.349C64.7596 175.342 55.2587 175.336 45.757 175.331L74.2605 175.349Z" fill="#210A0A"/>
</g>
<mask id="mask3_2133_5875" style="mask-type:luminance" maskUnits="userSpaceOnUse" x="46" y="166" width="24" height="11">
<path d="M69.2355 168.821C67.9717 169.815 65.6147 169.791 64.3853 168.773C63.3529 167.919 62.9008 166.449 61.3998 166.272C60.0145 166.108 59.0231 167.203 58.0621 167.986C56.7581 169.049 54.9895 169.693 53.2497 170.284C51.5099 170.875 49.7191 171.454 48.301 172.428C46.8829 173.402 45.8833 175.091 46.2329 176.527C50.603 176.365 65.4095 177.048 68.3525 176.541L69.2355 168.821Z" fill="white"/>
</mask>
<g mask="url(#mask3_2133_5875)">
<path d="M59.971 166.02C61.6953 168.014 63.8315 170.201 66.9344 170.429C67.6008 170.478 68.2934 170.425 68.8925 170.196C70.1194 169.728 70.7005 168.655 71.1814 167.67C66.8869 167.041 63.1454 164.598 58.7729 164.605L59.971 166.02Z" fill="#4B89AF"/>
</g>
<path d="M51.202 170.636C52.2812 170.539 53.4121 171.18 53.5286 172.014C53.5458 172.138 53.6542 172.245 53.8298 172.245C53.9792 172.245 54.149 172.139 54.131 172.014C53.98 170.938 52.63 170.045 51.202 170.173C51.0404 170.188 50.9008 170.269 50.9008 170.404C50.9008 170.518 51.0395 170.651 51.202 170.636Z" fill="#1C1C1B"/>
<path d="M53.775 169.581C54.9026 169.894 55.7766 170.654 56.0704 171.543C56.1656 171.831 56.7474 171.709 56.6514 171.42C56.3035 170.368 55.2603 169.503 53.9358 169.135C53.7823 169.093 53.6058 169.182 53.5648 169.296C53.5188 169.425 53.6215 169.539 53.775 169.581Z" fill="#1C1C1B"/>
<path d="M55.6025 168.634C56.9459 169.047 58.0218 169.94 58.4699 170.993C58.5897 171.275 59.1716 171.155 59.051 170.87C58.5315 169.65 57.3128 168.664 55.7634 168.187C55.6124 168.141 55.4326 168.238 55.3924 168.349C55.3448 168.481 55.4507 168.587 55.6025 168.634Z" fill="#1C1C1B"/>
<path d="M49.1989 172.518C50.4914 173.14 51.3605 174.194 51.5755 175.35C51.5985 175.474 51.8029 175.542 51.9457 175.512C52.1189 175.475 52.1796 175.352 52.1566 175.228C51.9202 173.957 50.9173 172.799 49.5033 172.119C49.1734 171.96 48.8706 172.36 49.1989 172.518Z" fill="#1C1C1B"/>
<path d="M63.5302 175.894C64.0086 174.67 65.2257 173.665 66.7407 173.148C67.1674 173.003 67.6246 172.906 68.085 172.848C68.2458 172.828 68.3352 172.675 68.2958 172.564C68.2491 172.433 68.0865 172.382 67.9257 172.402C66.1366 172.625 64.524 173.499 63.5827 174.68C63.3119 175.02 63.0993 175.389 62.95 175.771C62.8375 176.056 63.4194 176.179 63.5302 175.894Z" fill="#1C1C1B"/>
<path d="M61.9028 170.262C62.9647 169.624 64.8096 170.15 65.0706 171.166C65.3315 172.181 63.8847 173.206 62.5872 172.925C61.2889 172.644 60.7538 171.19 61.6673 170.429L61.9028 170.262Z" fill="#4B89AF"/>
<path d="M103.836 58.401C103.785 58.556 103.738 58.7109 103.695 58.8653C102.824 61.9728 103.365 65.0224 102.346 68.1363C101.76 69.9304 99.4208 71.8511 97.951 73.317C95.3363 75.9257 90.6577 76.7213 86.3705 76.7698C83.0189 76.8082 79.6615 76.5008 76.4158 75.8595C71.953 74.9776 67.7437 73.4771 63.5607 71.9948C63.3802 71.9305 62.9633 71.6433 62.791 71.567C62.4651 71.4221 58.9904 73.2622 58.9116 72.9989C57.0725 66.8273 56.6293 62.7798 57.1324 56.4608C51.249 59.957 45.5561 62.725 41.7604 63.1616C44.1363 58.5906 43.8679 58.2618 43.1293 53.3733C43.03 52.7163 42.9045 52.0391 43.1449 51.4041C43.3427 50.8838 36.7855 49.3209 37.2057 48.8856C40.8618 45.0976 53.6462 38.502 58.3856 35.5035C63.1258 32.5055 70.589 30.4594 76.7259 30.6591C86.8112 30.3467 96.2506 31.6765 104.589 36.0427C104.985 36.2506 105.38 36.5467 105.764 36.8988C107.829 38.7937 108.582 41.3368 107.91 43.7533L103.836 58.401Z" fill="#277AAE"/>
<path d="M75.2239 26.6236C75.2215 29.0464 75.2182 31.4692 75.2157 33.892C75.2157 34.1705 75.2198 34.4621 75.3938 34.7066C75.5908 34.9825 75.9691 35.1482 76.3343 35.2893C79.6884 36.587 83.603 37.0116 87.2944 36.478C88.6985 36.2751 90.1019 35.9243 91.2221 35.2439C91.3961 35.1381 91.5684 35.0184 91.6464 34.8584C91.7292 34.6883 91.6931 34.4993 91.6562 34.3204C91.0087 31.148 90.6853 27.9371 90.6902 24.7262C87.7317 24.7256 84.7724 24.8226 81.8245 25.0179L75.2239 26.6236Z" fill="#F6A472"/>
<path d="M106.286 111.733L106.299 89.6663L102.013 74.7773C102.364 72.6115 103.096 70.4338 103.606 68.2857C103.686 67.9511 103.758 67.5996 103.616 67.2777C103.463 66.9325 103.09 66.6774 102.746 66.4254C98.7673 63.5087 97.2425 59.1053 96.9413 54.8891C96.4506 48.0182 95.6258 39.4571 101.319 34.1422C100.452 33.7081 98.6967 32.9698 97.8301 32.5358C93.0604 37.6334 93.3139 44.9578 90.3858 50.8177C83.8261 50.5121 77.2665 50.2066 70.7077 49.9011C69.9879 49.8677 69.1837 49.8028 68.7208 49.3782C68.3999 49.084 68.3212 48.6809 68.2564 48.3004C67.1903 42.0122 69.2428 38.0995 68.702 31.3307C66.9958 31.3156 66.0857 31.8661 65.0393 32.1339C63.6598 44.8444 65.9232 54.8639 60.3328 66.6635C60.1826 66.9804 60.0086 67.3136 59.6541 67.5127C59.2995 67.7118 58.7086 67.6985 58.5002 67.4018L58.1687 67.6822C57.8995 70.8659 57.7993 74.0579 57.8675 77.248L55.4054 95.3434L55.3939 121.361L57.0337 149.817L58.8449 164.22L68.4271 165.5L75.3666 163.875L77.3773 99.8778L89.245 164.111L99.3229 165.508L106.428 163.419L106.286 111.733Z" fill="#C2B38C"/>
<path d="M72.7875 10.592C70.9353 13.1773 70.4354 16.3151 71.4227 19.1663C72.41 22.0174 74.872 24.5517 78.1523 26.0901C79.1535 26.56 80.2449 26.9437 81.4062 27.0709C82.5182 27.1925 83.6565 27.0741 84.7423 26.8536C88.8128 26.0277 92.29 23.7271 94.1414 20.8243C95.9929 17.9215 96.2448 14.4712 95.0269 11.3775C94.2579 9.42529 92.9449 7.63055 91.6416 5.85345L72.7875 10.592Z" fill="#512C13"/>
<path d="M73.8206 10.4546C74.121 13.4545 73.6335 16.4739 73.8674 19.4768C74.1021 22.4805 75.1912 25.6189 78.0414 27.6839C79.059 28.4209 80.3155 29.008 81.7032 29.1473C83.6917 29.347 85.6613 28.6023 87.1837 27.6007C89.7524 25.9106 91.3691 23.4953 92.2825 20.995C93.1959 18.4948 93.4618 15.8855 93.7228 13.2964C93.9189 11.3542 94.1142 9.41208 94.3095 7.4693L73.8206 10.4546Z" fill="#F6A472"/>
<path d="M92.2308 20.0746C92.8216 19.5297 93.6021 18.9287 94.5089 19.0604C95.3903 19.1882 95.8524 19.9574 95.9205 20.6447C96.0337 21.7874 95.4223 22.9591 94.3119 23.7258C93.2015 24.4918 91.6185 24.8351 90.1503 24.6273L92.2308 20.0746Z" fill="#F6A472"/>
<path d="M74.0652 19.0517C73.3816 18.3481 72.4739 17.6066 71.3315 17.6476C70.3705 17.6822 69.5688 18.3109 69.3127 19.0221C69.0567 19.7333 69.2553 20.4993 69.6115 21.1854C70.3673 22.6393 72.3927 23.9754 74.2934 23.4078L74.0652 19.0517Z" fill="#F6A472"/>
<path d="M92.0067 20.762C92.4925 18.2643 92.5704 15.7161 92.2389 13.2026C92.2019 12.9223 92.1536 12.6287 91.9443 12.4007C91.6784 12.1115 91.2156 11.9918 90.7815 11.8961C85.6498 10.7622 80.1981 10.5549 74.954 11.2951C74.8112 11.3153 74.6577 11.3405 74.5568 11.4236C74.4361 11.5238 74.4263 11.6769 74.4246 11.8161C74.3787 14.5066 74.3326 17.1971 74.2867 19.8883C73.9995 19.8927 73.7131 19.8965 73.4258 19.9009C73.6482 17.5058 72.2137 15.18 72.2622 12.7787C72.3311 9.38761 75.6934 6.25989 79.8608 5.53923C84.0281 4.81856 88.6222 6.46967 90.8553 9.35926C91.5258 10.2267 92.0018 11.1874 92.7363 12.0214C93.1384 12.4775 93.6217 12.9028 93.8532 13.4281C94.0493 13.8748 94.0468 14.3586 94.0419 14.8317C94.0263 16.341 94.2717 17.5474 94.2561 19.0574C93.3361 19.259 92.2841 20.105 91.8976 20.7992L92.0067 20.762Z" fill="#512C13"/>
<path d="M70.1513 13.617C70.6256 13.6964 71.1171 13.5861 71.461 13.3354C72.3038 12.7212 73.6095 12.4629 74.8208 12.3123C81.5905 11.4701 88.7386 12.3489 94.7591 14.7635C95.1612 14.9248 95.5699 15.0955 96.0237 15.1446C97.057 15.2568 98.1165 14.5896 98.1165 13.8255C98.1165 13.062 97.0586 12.3942 96.0245 12.5057C96.0894 9.81962 96.0574 6.90672 93.8309 4.76866C92.3685 3.36449 87.6438 1.71779 87.6438 1.71779C86.8822 0.0603848 84.4055 -0.472556 82.6919 0.449066C82.4096 0.600885 81.4945 1.52692 81.2147 1.68126C80.6074 2.01576 79.8582 2.17262 79.1647 2.40003C74.9662 3.77711 73.3642 7.44785 72.2194 10.706C71.2567 10.619 70.2473 11.0071 69.8 11.6364C69.3536 12.2651 69.4996 13.0922 70.1513 13.617Z" fill="#EC8117"/>
<path d="M69.8543 14.024C69.5704 13.7588 69.6351 13.3487 69.9987 13.1572C73.887 11.1073 78.6954 10.3016 83.3322 10.5939C88.2406 10.9032 92.9644 12.3817 97.1621 14.4637C97.3968 14.5803 97.6422 14.7081 97.6562 14.9828C97.6726 15.294 97.3837 15.5561 97.0103 15.6335C96.3932 15.7614 95.8261 15.4805 95.3009 15.231C91.4084 13.3827 86.8808 12.7124 82.3622 12.3433C82.1398 12.325 81.8623 12.3124 81.548 12.3049C78.294 12.2255 75.059 12.7175 72.0734 13.7128L70.7217 14.1632C70.4271 14.2823 70.0702 14.2256 69.8543 14.024Z" fill="#B26016"/>
<path d="M81.3248 2.00769C80.8086 4.33096 80.4484 6.67438 80.2506 9.026C80.1948 9.68619 80.1529 10.347 80.1226 11.0078C80.1127 11.2182 80.5386 11.2176 80.5484 11.0078C80.6543 8.68205 80.9153 6.36004 81.3372 4.05567C81.457 3.40051 81.5899 2.74725 81.7352 2.09525C81.7803 1.88863 81.3708 1.80043 81.3248 2.00769Z" fill="#B26016"/>
<path d="M87.4872 2.18974C86.5985 4.51742 86.0387 6.9188 85.8229 9.33908C85.7613 10.0251 85.7285 10.7124 85.7228 11.4003C85.7211 11.6107 86.1463 11.6107 86.1487 11.4003C86.1701 8.99387 86.5303 6.59311 87.2279 4.24717C87.4248 3.58509 87.6489 2.92805 87.8976 2.27667C87.9747 2.07446 87.5636 1.98815 87.4872 2.18974Z" fill="#B26016"/>
<path d="M92.65 4.44736C91.7087 5.15228 91.3041 6.15769 90.9323 7.09821C90.5039 8.17984 90.1716 9.28351 89.936 10.3992C89.8039 11.0266 89.7021 11.6584 89.6299 12.2915C89.6061 12.5013 90.0321 12.5001 90.0559 12.2915C90.179 11.2055 90.394 10.127 90.7009 9.0624C90.9955 8.03998 91.3467 7.00623 91.8498 6.03169C92.1075 5.5334 92.4465 5.05526 92.9504 4.67792C93.1473 4.53114 92.8462 4.29995 92.65 4.44736Z" fill="#B26016"/>
<path d="M76.953 3.8685C77.3239 5.77852 77.4421 7.71751 77.3092 9.6458C77.2714 10.1932 77.2131 10.74 77.1352 11.2849C77.1056 11.4935 77.5316 11.4922 77.5611 11.2849C77.8385 9.34153 77.8615 7.37797 77.6252 5.43141C77.5587 4.87957 77.47 4.32963 77.3633 3.78157C77.3231 3.57494 76.9136 3.66313 76.953 3.8685Z" fill="#B26016"/>
<path d="M72.6355 10.7664C73.7221 10.5062 74.8087 10.246 75.8953 9.98584C76.1562 9.92348 76.0446 9.60787 75.782 9.67087C74.6954 9.93104 73.6089 10.1912 72.5223 10.4514C72.2622 10.5137 72.3729 10.8294 72.6355 10.7664Z" fill="#B26016"/>
<path d="M91.1653 11.1281C92.5301 11.5193 93.8744 11.952 95.1949 12.4251C95.4419 12.5133 95.6577 12.2317 95.4098 12.1429C94.0566 11.6578 92.6787 11.2144 91.2794 10.8131C91.0218 10.7394 90.9109 11.055 91.1653 11.1281Z" fill="#B26016"/>
<path d="M71.1057 19.1424C71.974 19.7723 72.6001 20.5736 72.9136 21.4587C72.9859 21.6616 73.3962 21.5752 73.324 21.3718C72.9924 20.435 72.3261 19.5783 71.4069 18.9112C71.2075 18.7669 70.9063 18.9975 71.1057 19.1424Z" fill="#7F4924"/>
<path d="M71.7444 20.7133C72.0341 20.6025 72.3237 20.491 72.6134 20.3801C72.7135 20.3417 72.7497 20.2277 72.6897 20.1565C72.6241 20.0784 72.5051 20.0569 72.3984 20.0979C72.1087 20.2088 71.819 20.3203 71.5293 20.4311C71.4291 20.4696 71.3931 20.5836 71.453 20.6548C71.5187 20.7335 71.6368 20.7543 71.7444 20.7133Z" fill="#7F4924"/>
<path d="M92.6789 22.2146C93.2378 21.7553 93.7975 21.2955 94.3564 20.8362C94.5435 20.6825 94.2431 20.4513 94.0552 20.605C93.4963 21.0643 92.9366 21.5242 92.3777 21.9834C92.1915 22.1371 92.4918 22.3689 92.6789 22.2146Z" fill="#7F4924"/>
<path d="M93.4946 21.7037C93.5053 21.7094 93.516 21.7157 93.5266 21.7207C93.5513 21.7333 93.4881 21.6955 93.5266 21.7207C93.5447 21.7327 93.5627 21.744 93.5791 21.7566C93.5964 21.7692 93.6128 21.7818 93.6284 21.7957C93.6375 21.8032 93.6457 21.8108 93.6539 21.8183C93.6572 21.8215 93.6784 21.8429 93.6612 21.8253C93.6423 21.8057 93.6686 21.8341 93.6727 21.8379C93.6801 21.8461 93.6875 21.8542 93.694 21.8631C93.7072 21.8782 93.7186 21.8939 93.7301 21.9097C93.7416 21.9254 93.7523 21.9418 93.7622 21.9582C93.7761 21.9733 93.7737 21.9777 93.7622 21.9582C93.7687 21.9657 93.772 21.9777 93.7761 21.9865C93.7917 22.0206 93.8048 22.0552 93.8147 22.0911C93.8171 22.1012 93.8196 22.1106 93.8221 22.1207C93.8278 22.1421 93.8205 22.1232 93.8213 22.1132C93.8196 22.1321 93.827 22.1541 93.8278 22.173C93.8302 22.2089 93.8278 22.2448 93.8245 22.2814C93.8204 22.321 93.8311 22.2574 93.8254 22.2795C93.8229 22.2896 93.8212 22.299 93.8188 22.3091C93.8138 22.3286 93.8073 22.3481 93.7999 22.3677C93.7696 22.4496 93.8368 22.5491 93.9484 22.5686C94.0617 22.5881 94.1774 22.5428 94.2103 22.4546C94.3531 22.0684 94.138 21.6445 93.708 21.4221C93.6152 21.3742 93.4684 21.4064 93.4166 21.4807C93.3617 21.5626 93.3961 21.652 93.4946 21.7037Z" fill="#7F4924"/>
<path d="M81.5497 15.738C81.3494 16.9173 81.1836 18.1004 81.0515 19.2853C80.9858 19.8781 80.9284 20.4709 80.88 21.0643C80.8578 21.3346 80.811 21.6136 80.8217 21.8839C80.829 22.0792 80.9366 22.299 81.2247 22.3223C81.4044 22.3368 81.5718 22.2625 81.7269 22.202C81.8886 22.139 82.0461 22.0697 82.1979 21.9941C82.518 21.836 82.8152 21.6514 83.0876 21.4473C83.2838 21.2999 82.9825 21.0693 82.7864 21.2161C82.5689 21.3793 82.3359 21.5292 82.0839 21.6609C81.9674 21.7213 81.8476 21.7787 81.7253 21.8322C81.6211 21.8776 81.4397 21.9834 81.3182 21.9891C81.2583 21.9922 81.2953 22.0086 81.2632 21.9696C81.2419 21.9444 81.2492 21.8965 81.2484 21.8675C81.2451 21.744 81.264 21.6187 81.2731 21.4958C81.2936 21.2262 81.3149 20.956 81.3387 20.6863C81.4314 19.6343 81.5512 18.5842 81.6981 17.5359C81.7818 16.9356 81.8755 16.3359 81.9764 15.7374C82.0109 15.5302 81.585 15.5321 81.5497 15.738Z" fill="#7F4924"/>
<path d="M80.2809 13.9559C80.4902 14.2091 80.377 14.5865 80.0446 14.744C79.8402 14.841 79.5899 14.8561 79.351 14.8687C77.9477 14.943 76.5443 15.0174 75.141 15.0917C75.063 14.7774 75.3241 14.4599 75.672 14.2847C76.02 14.1096 76.4409 14.046 76.8505 13.9868C77.8468 13.8419 78.8422 13.697 79.8385 13.5515C79.9879 13.5294 80.152 13.5093 80.2858 13.5653C80.4196 13.6214 80.4745 13.789 80.3473 13.8526L80.2809 13.9559Z" fill="#512C13"/>
<path d="M87.5199 23.8304C86.0731 22.8351 84.1035 22.3009 82.1634 22.3771C80.2233 22.4534 78.335 23.1394 77.0285 24.243C76.0806 22.7053 75.1328 21.1676 74.1857 19.6299L74.1282 19.4447C73.9518 19.4756 73.7754 19.5071 73.5989 19.5379C73.0425 22.1207 74.2153 24.7319 75.6038 27.1232C76.2809 28.2886 77.0318 29.4553 78.1775 30.3801C79.3231 31.3048 80.9341 31.965 82.5927 31.8794C84.7067 31.7697 86.4047 30.5186 87.7005 29.2317C90.7066 26.2463 92.6467 22.6342 93.2565 18.8897C91.5298 20.6555 89.6085 22.3104 87.5199 23.8304ZM84.513 26.4599C83.5922 26.9859 82.3243 27.1541 81.2468 26.8492C80.1142 26.5292 78.0748 24.9795 77.7227 24.9631C77.7227 24.9631 81.4027 24.1328 82.1536 23.2421C83.0243 24.1467 84.6837 24.5498 86.0739 24.1952C86.0009 25.0746 85.4338 25.9332 84.513 26.4599Z" fill="#512C13"/>
<path d="M80.7659 13.3178C80.8159 13.8048 80.7913 14.2955 80.683 14.7768C80.6633 14.8637 80.7134 14.9525 80.8316 14.9777C80.9342 14.9992 81.0736 14.9513 81.0933 14.8637C81.2082 14.3528 81.2443 13.835 81.1918 13.3178C81.1828 13.2296 81.1007 13.1547 80.9792 13.1547C80.8701 13.1547 80.7568 13.2296 80.7659 13.3178Z" fill="#512C13"/>
<path d="M84.244 16.3208C84.0348 16.574 84.148 16.9513 84.4796 17.1095C84.6839 17.2065 84.9334 17.2216 85.173 17.2348C86.5763 17.3098 87.9797 17.3848 89.383 17.4603C89.4618 17.1466 89.2009 16.8285 88.8529 16.6534C88.5049 16.4776 88.084 16.4146 87.6745 16.3548C86.6782 16.2093 85.6827 16.0637 84.6872 15.9182C84.5379 15.8962 84.3737 15.876 84.2399 15.9321C84.1062 15.9881 84.0512 16.1557 84.1784 16.2193L84.244 16.3208Z" fill="#512C13"/>
<path d="M83.2745 15.9857C83.2745 16.2635 83.2745 16.542 83.2745 16.8198C83.2745 16.9054 83.3722 16.9873 83.4871 16.9829C83.6028 16.9792 83.6997 16.9111 83.6997 16.8198C83.6997 16.542 83.6997 16.2635 83.6997 15.9857C83.6997 15.9 83.602 15.8181 83.4871 15.8226C83.3722 15.8263 83.2745 15.8944 83.2745 15.9857Z" fill="#512C13"/>
<path d="M73.0868 35.3921C75.2985 36.7565 77.9427 37.6719 80.7223 38.0952C83.4855 38.516 86.3726 38.4662 89.1005 37.9194C90.6401 37.6108 92.1264 37.1408 93.4961 36.5178C93.7316 36.4107 93.5174 36.1285 93.281 36.2356C90.9043 37.3159 88.1855 37.9144 85.4313 38.0278C82.6837 38.1412 79.9024 37.7865 77.3625 36.9695C75.9386 36.5115 74.5903 35.903 73.3863 35.1602C73.1762 35.0305 72.8734 35.2598 73.0868 35.3921Z" fill="#3DA7E9"/>
<path d="M61.32 38.6728C60.7817 42.1848 60.4649 45.717 60.3762 49.2529C60.3508 50.2583 60.3442 51.2631 60.3549 52.2685C60.3574 52.4789 60.7825 52.4789 60.7809 52.2685C60.7423 48.7319 60.9286 45.1948 61.3406 41.6721C61.4579 40.6711 61.5933 39.6707 61.7468 38.6722C61.7772 38.4643 61.3512 38.4662 61.32 38.6728Z" fill="#3DA7E9"/>
<path d="M59.2521 40.6332C59.5344 42.1589 59.9513 43.6677 60.5004 45.1499C60.575 45.3515 60.9862 45.2659 60.9107 45.063C60.3617 43.5814 59.9448 42.072 59.6625 40.5462C59.6247 40.339 59.2144 40.4272 59.2521 40.6332Z" fill="#3DA7E9"/>
<path d="M53.9578 46.5466C54.1301 46.9932 54.3025 47.4405 54.4748 47.8871C54.5528 48.0881 54.9631 48.0024 54.8852 47.8002C54.7128 47.3536 54.5405 46.9063 54.3681 46.4597C54.2902 46.2587 53.8798 46.3444 53.9578 46.5466Z" fill="#3DA7E9"/>
<path d="M55.5805 46.1314C55.6921 46.4086 55.8029 46.6864 55.9145 46.9636C55.9474 47.0455 56.0647 47.1053 56.1763 47.0776C56.283 47.0511 56.3601 46.9642 56.3249 46.8766C56.2132 46.5995 56.1025 46.3217 55.9909 46.0445C55.958 45.9626 55.8407 45.9027 55.7291 45.9305C55.6224 45.9569 55.5452 46.0438 55.5805 46.1314Z" fill="#3DA7E9"/>
<path d="M56.9592 46.762C56.9592 46.8452 56.9592 46.929 56.9592 47.0121C56.9592 47.0537 56.983 47.0978 57.0215 47.1274C57.0585 47.1557 57.1192 47.1772 57.1717 47.1753C57.2267 47.1734 57.2841 47.1595 57.3219 47.1274C57.3605 47.0953 57.3843 47.0562 57.3843 47.0121C57.3843 46.929 57.3843 46.8452 57.3843 46.762C57.3843 46.7205 57.3605 46.6764 57.3219 46.6467C57.2849 46.6184 57.2242 46.597 57.1717 46.5989C57.1167 46.6008 57.0593 46.6146 57.0215 46.6467C56.983 46.6782 56.9592 46.7179 56.9592 46.762Z" fill="#3DA7E9"/>
<path d="M56.0833 49.8934C56.1227 50.0597 56.162 50.226 56.2006 50.3923C56.2096 50.4308 56.2564 50.4711 56.2983 50.49C56.3442 50.5108 56.4107 50.519 56.4624 50.5064C56.5141 50.4938 56.5633 50.4692 56.5896 50.4314C56.6175 50.3904 56.6216 50.3508 56.6109 50.3054C56.5715 50.1391 56.533 49.9728 56.4936 49.8059C56.4846 49.7674 56.4378 49.7271 56.396 49.7082C56.35 49.6874 56.2826 49.6792 56.2318 49.6918C56.1801 49.7044 56.1309 49.729 56.1046 49.7668C56.0767 49.8084 56.0726 49.8481 56.0833 49.8934Z" fill="#3DA7E9"/>
<path d="M71.8633 45.2602C71.7205 45.4833 71.6794 45.7315 71.7516 45.974C71.7762 46.0571 71.9076 46.1145 72.0135 46.088C72.1275 46.0597 72.189 45.9765 72.1619 45.8871C72.1537 45.8606 72.148 45.8335 72.1423 45.8064C72.1448 45.8209 72.1473 45.8354 72.1497 45.8499C72.1366 45.7718 72.1366 45.6937 72.1497 45.6155C72.1473 45.63 72.1448 45.6445 72.1423 45.659C72.1505 45.613 72.1628 45.5683 72.1801 45.5242C72.1883 45.5028 72.1973 45.482 72.2079 45.4612C72.2112 45.4549 72.2145 45.4486 72.2177 45.4423C72.2136 45.4492 72.2104 45.4555 72.2071 45.4625C72.2153 45.4593 72.2251 45.4322 72.2301 45.4253C72.2793 45.3484 72.2604 45.2451 72.1537 45.2017C72.0585 45.1626 71.9158 45.1784 71.8633 45.2602Z" fill="#3DA7E9"/>
<path d="M73.8083 44.8482C73.7599 45.1694 73.7984 45.4989 73.9158 45.8095C73.947 45.8914 74.0676 45.9512 74.1776 45.9235C74.2859 45.8964 74.359 45.8107 74.3261 45.7225C74.2695 45.5726 74.2367 45.4372 74.2227 45.3024C74.2071 45.1512 74.2112 44.9987 74.2342 44.8482C74.2473 44.7631 74.1274 44.6812 74.0216 44.685C73.8944 44.6888 73.8214 44.7568 73.8083 44.8482Z" fill="#3DA7E9"/>
<path d="M75.5701 40.9651C75.5972 41.0174 75.6194 41.0703 75.6374 41.1251C75.6457 41.1522 75.6538 41.1799 75.6596 41.2076C75.662 41.2177 75.6719 41.2549 75.6612 41.2114C75.6645 41.2253 75.6653 41.2391 75.6669 41.253C75.6735 41.3065 75.6752 41.3607 75.6727 41.4149C75.6711 41.4426 75.6678 41.4709 75.6645 41.4987C75.6596 41.5396 75.6727 41.4621 75.6637 41.5031C75.6604 41.5188 75.6563 41.5346 75.653 41.5503C75.6316 41.6341 75.6834 41.7305 75.8015 41.7513C75.9066 41.7695 76.0411 41.7267 76.0633 41.6372C76.1273 41.384 76.106 41.1194 75.9813 40.8788C75.9599 40.8378 75.9353 40.8045 75.8836 40.7811C75.8376 40.7604 75.7704 40.7522 75.7195 40.7648C75.6185 40.7893 75.5266 40.88 75.5701 40.9651Z" fill="#3DA7E9"/>
<path d="M78.3678 44.7657C78.3678 45.1273 78.3678 45.4889 78.367 45.8499C78.367 45.9356 78.4647 46.0175 78.5796 46.0131C78.6953 46.0093 78.7921 45.9412 78.7921 45.8499C78.7921 45.4883 78.7921 45.1267 78.7929 44.7657C78.7929 44.6801 78.6953 44.5982 78.5804 44.6026C78.4655 44.6064 78.3678 44.6738 78.3678 44.7657Z" fill="#3DA7E9"/>
<path d="M84.9983 41.7639C84.9983 42.0701 84.9983 42.3756 84.9983 42.6818C84.9983 42.7674 85.096 42.8493 85.2109 42.8449C85.3266 42.8411 85.4235 42.7731 85.4235 42.6818C85.4235 42.3756 85.4235 42.0701 85.4235 41.7639C85.4235 41.6782 85.3258 41.5963 85.2109 41.6008C85.096 41.6045 84.9983 41.6726 84.9983 41.7639Z" fill="#3DA7E9"/>
<path d="M88.5048 41.3452C88.5639 41.708 88.6221 42.0709 88.6812 42.4337C88.6951 42.5181 88.769 42.6013 88.8938 42.5969C88.9972 42.5931 89.1211 42.5244 89.1064 42.4337C89.0473 42.0709 88.9889 41.708 88.9298 41.3452C88.9159 41.2607 88.8421 41.1776 88.7174 41.182C88.614 41.1858 88.49 41.2544 88.5048 41.3452Z" fill="#3DA7E9"/>
<path d="M64.9935 51.0539C64.8835 51.4608 65.0198 51.8879 65.3636 52.2086C65.7034 52.5267 66.2655 52.6867 66.7834 52.5494C67.2832 52.4171 67.7157 52.0605 67.719 51.6385C67.7223 51.1748 67.215 50.8573 66.7037 50.6948C66.3738 50.5896 65.9857 50.5045 65.6279 50.5556C65.2832 50.6047 64.987 50.8208 64.9821 51.0992C64.978 51.3096 65.4038 51.3096 65.4079 51.0992C65.4112 50.9443 65.6369 50.8712 65.81 50.8674C66.0521 50.8617 66.3058 50.9228 66.529 50.9909C66.8696 51.0942 67.2659 51.2951 67.2922 51.6051C67.3152 51.8791 67.0255 52.1223 66.7129 52.2224C66.3534 52.3377 65.98 52.242 65.7231 52.029C65.4432 51.7972 65.3209 51.4495 65.4046 51.1408C65.4588 50.9354 65.0485 50.8472 64.9935 51.0539Z" fill="#827454"/>
<path d="M91.9772 51.3966C91.5373 51.6902 91.383 52.1922 91.5496 52.6149C91.7285 53.0698 92.2587 53.357 92.8668 53.386C93.488 53.4162 94.1266 53.1454 94.3268 52.6773C94.4335 52.4272 94.3613 52.1456 94.1824 51.9251C93.9911 51.6895 93.699 51.532 93.3683 51.4287C93.0408 51.3267 92.6452 51.2574 92.2932 51.3153C91.9731 51.3676 91.6843 51.5509 91.7647 51.8243C91.8254 52.0291 92.2358 51.9428 92.1751 51.7374C92.1619 51.6927 92.1692 51.7525 92.1734 51.7103C92.1709 51.7311 92.1964 51.7065 92.1759 51.7166C92.1873 51.7109 92.2038 51.6927 92.2177 51.6857C92.2867 51.6492 92.3778 51.6309 92.4574 51.624C92.6954 51.602 92.9653 51.6624 93.1869 51.7248C93.6251 51.8476 94.0789 52.1872 93.9222 52.5778C93.7901 52.906 93.3297 53.0716 92.9095 53.0609C92.5114 53.0509 92.1357 52.8801 91.9871 52.5897C91.8181 52.259 91.9264 51.8615 92.2784 51.6272C92.4852 51.4892 92.1832 51.2593 91.9772 51.3966Z" fill="#827454"/>
<path d="M69.6556 61.8336C72.1307 61.9948 74.6092 62.1221 77.0892 62.2159C79.5816 62.3104 82.0765 62.3703 84.5713 62.3961C85.9722 62.4106 87.3731 62.4144 88.7732 62.4074C88.8889 62.4068 88.9857 62.3331 88.9857 62.2443C88.9996 60.0376 89.0136 57.8308 89.0283 55.6241C89.0324 54.991 89.0366 54.3579 89.0407 53.7248C89.0415 53.6366 88.9431 53.5616 88.8282 53.5616C86.3063 53.5604 83.7851 53.4936 81.2689 53.3601C78.7495 53.2265 76.2349 53.0268 73.7335 52.7597C72.3293 52.6098 70.9292 52.4384 69.5333 52.2476C69.4012 52.2293 69.2616 52.291 69.2641 52.405C69.2846 53.4539 69.3044 54.5034 69.3249 55.5523C69.3569 57.2116 69.3889 58.8715 69.4209 60.5308C69.4283 60.9107 69.4356 61.2912 69.443 61.671C69.4471 61.8808 69.8731 61.8814 69.869 61.671C69.8485 60.6222 69.8288 59.5727 69.8083 58.5238C69.7763 56.8639 69.7442 55.2046 69.7122 53.5453C69.7048 53.1654 69.6975 52.7849 69.6901 52.405C69.6006 52.4573 69.5103 52.5102 69.4209 52.5625C71.9108 52.904 74.4155 53.1799 76.93 53.3903C79.4602 53.602 81.9993 53.7462 84.5426 53.8231C85.9706 53.8659 87.4002 53.8873 88.8298 53.8886C88.7584 53.8338 88.6878 53.7796 88.6172 53.7254C88.6032 55.9322 88.5885 58.1389 88.5745 60.3462C88.5704 60.9793 88.5663 61.6124 88.5622 62.2455C88.6328 62.1914 88.7042 62.1366 88.7748 62.0824C86.2914 62.0944 83.8073 62.0736 81.3247 62.0181C78.8299 61.9627 76.3376 61.8733 73.8468 61.7491C72.4492 61.6799 71.0524 61.5992 69.6564 61.5085C69.3831 61.489 69.3848 61.8159 69.6556 61.8336Z" fill="#827454"/>
<path d="M69.7781 55.1826C72.1498 55.5536 74.5543 55.7873 76.9663 55.9316C79.3996 56.0771 81.8411 56.1332 84.2818 56.1577C85.6523 56.1716 87.0228 56.1747 88.3934 56.1779C88.6675 56.1785 88.6675 55.8516 88.3934 55.851C85.974 55.8453 83.5546 55.839 81.1369 55.7772C78.7242 55.7155 76.3115 55.5983 73.9151 55.3703C72.5659 55.2418 71.2232 55.0761 69.8913 54.8676C69.6237 54.8254 69.5097 55.1404 69.7781 55.1826Z" fill="#827454"/>
<path d="M99.5241 65.7368C100.387 66.6862 101.62 67.4024 103.046 67.7804C102.996 67.7136 102.946 67.6462 102.897 67.5795C101.854 69.9021 101.354 72.3495 101.256 74.8012C101.156 77.2814 101.459 79.7628 101.979 82.2095C102.273 83.5935 102.64 84.9681 103.052 86.3344C103.114 86.5392 103.525 86.4522 103.462 86.2475C102.737 83.8455 102.15 81.4139 101.86 78.957C101.572 76.5273 101.567 74.0642 102.043 71.6483C102.31 70.2952 102.726 68.9609 103.307 67.667C103.347 67.5795 103.262 67.4932 103.159 67.4661C101.844 67.1177 100.687 66.4481 99.8917 65.5724C99.7358 65.4011 99.3665 65.5642 99.5241 65.7368Z" fill="#827454"/>
<path d="M98.1471 82.4671C100.04 84.1963 101.978 85.8953 103.962 87.5628C104.52 88.0315 105.083 88.4983 105.647 88.9619C105.834 89.1156 106.135 88.8844 105.948 88.7307C103.939 87.0809 101.974 85.3995 100.056 83.6873C99.5167 83.2054 98.9808 82.7216 98.4482 82.2353C98.2718 82.0746 97.9723 82.3065 98.1471 82.4671Z" fill="#827454"/>
<path d="M61.9183 82.3677C60.6339 83.3844 59.3495 84.4012 58.0652 85.4173C57.8748 85.5685 58.1752 85.7997 58.3664 85.6485C59.6508 84.6317 60.9351 83.6156 62.2194 82.5989C62.4098 82.4477 62.1095 82.2165 61.9183 82.3677Z" fill="#827454"/>
<path d="M58.7146 80.4022C59.976 80.1697 61.2948 80.2182 62.5825 80.2182C63.9226 80.2182 65.2636 80.2201 66.6038 80.2239C69.2849 80.2314 71.9653 80.2459 74.6464 80.268C80.0079 80.3121 85.3692 80.3851 90.7298 80.4878C93.7384 80.5451 96.7463 80.6119 99.754 80.6875C100.028 80.6944 100.027 80.3675 99.754 80.3606C94.368 80.2251 88.9802 80.1187 83.5916 80.0418C78.231 79.9656 72.8688 79.9177 67.5073 79.8994C66.003 79.8944 64.4979 79.8913 62.9936 79.8906C61.5353 79.89 60.0319 79.8226 58.6022 80.0859C58.3355 80.1357 58.4479 80.4513 58.7146 80.4022Z" fill="#827454"/>
<path d="M72.6208 98.3885C75.2666 98.7677 77.933 99.0645 80.61 99.2755C81.3732 99.3353 82.1364 99.3883 82.9013 99.4349C83.1746 99.4513 83.1729 99.1249 82.9013 99.1079C80.244 98.9467 77.5964 98.7029 74.9654 98.3734C74.2202 98.2802 73.4759 98.18 72.7332 98.0735C72.4664 98.0345 72.3516 98.3495 72.6208 98.3885Z" fill="#827454"/>
<path d="M105.384 108.698C103.934 108.788 102.486 108.879 101.037 108.97C100.306 109.016 99.5758 109.061 98.8454 109.107C98.4802 109.13 98.1151 109.153 97.7499 109.176C97.4479 109.195 97.122 109.19 96.8282 109.252C96.1405 109.394 96.2513 110.012 96.2308 110.442C96.2045 110.992 96.1832 111.543 96.1676 112.093C96.1365 113.185 96.1257 114.277 96.1356 115.37C96.1561 117.554 96.2596 119.738 96.4458 121.918C96.6321 124.098 96.9013 126.273 97.2534 128.441C97.6063 130.614 98.0404 132.78 98.5574 134.934C98.6206 135.196 98.6846 135.458 98.7495 135.72C98.7675 135.793 98.866 135.836 98.9546 135.839C100.978 135.929 103.011 135.788 104.982 135.424C105.248 135.374 105.135 135.059 104.868 135.109C102.933 135.466 100.941 135.601 98.9546 135.512C99.0228 135.552 99.0917 135.592 99.1598 135.632C98.6346 133.527 98.1864 131.411 97.8204 129.286C97.4544 127.164 97.168 125.034 96.9612 122.901C96.7552 120.775 96.6272 118.645 96.5796 116.515C96.5312 114.375 96.5623 112.234 96.674 110.096C96.6797 109.978 96.669 109.85 96.7076 109.736C96.7462 109.623 96.8496 109.581 96.9899 109.558C97.3026 109.506 97.6431 109.51 97.9616 109.49C98.6682 109.446 99.3756 109.401 100.082 109.357C101.496 109.269 102.909 109.18 104.323 109.092C104.677 109.069 105.03 109.047 105.384 109.025C105.655 109.008 105.657 108.681 105.384 108.698Z" fill="#827454"/>
<path d="M96.8069 113.566C99.7621 113.271 102.753 113.213 105.723 113.395C105.996 113.412 105.994 113.085 105.723 113.068C102.752 112.886 99.7613 112.944 96.8069 113.239C96.692 113.25 96.5951 113.306 96.5943 113.402C96.5926 113.482 96.6928 113.578 96.8069 113.566Z" fill="#827454"/>
<path d="M56.0547 109.766C58.4888 109.738 60.9245 109.792 63.3529 109.928C63.2815 109.874 63.211 109.819 63.1404 109.765C63.1051 112.738 63.1059 115.71 63.1445 118.683C63.1831 121.655 63.2577 124.627 63.3693 127.599C63.4317 129.266 63.5064 130.933 63.5926 132.599C63.6443 132.547 63.6968 132.494 63.7485 132.441C61.5565 132.935 59.298 133.237 57.0173 133.34C56.7449 133.352 56.7432 133.679 57.0173 133.667C59.3349 133.563 61.6337 133.258 63.8618 132.757C63.9488 132.737 64.0218 132.671 64.0177 132.599C63.865 129.629 63.7485 126.658 63.6689 123.686C63.5892 120.713 63.5466 117.741 63.5408 114.768C63.5375 113.101 63.5458 111.433 63.5655 109.766C63.5663 109.672 63.467 109.609 63.3529 109.602C60.9245 109.466 58.4896 109.412 56.0547 109.44C55.7806 109.442 55.7798 109.769 56.0547 109.766Z" fill="#827454"/>
<path d="M55.8314 113.829C58.149 113.744 60.4723 113.766 62.7866 113.897C63.0599 113.912 63.0582 113.586 62.7866 113.57C60.4723 113.439 58.149 113.417 55.8314 113.502C55.559 113.513 55.5573 113.839 55.8314 113.829Z" fill="#827454"/>
<path d="M99.4297 92.1552C99.305 92.8053 99.2664 93.4611 99.3238 94.1175C99.3419 94.326 99.7678 94.3279 99.7498 94.1175C99.6948 93.492 99.721 92.8627 99.84 92.2421C99.8564 92.1552 99.8121 92.0664 99.6915 92.0412C99.5913 92.0198 99.4461 92.067 99.4297 92.1552Z" fill="#827454"/>
<path d="M101.28 94.408C101.174 94.6335 101.133 94.8798 101.164 95.1185C101.169 95.1626 101.183 95.2017 101.226 95.2338C101.263 95.2622 101.324 95.2836 101.376 95.2817C101.482 95.2779 101.601 95.2093 101.589 95.1185C101.575 95.0077 101.577 94.8968 101.593 94.7866C101.599 94.7444 101.585 94.8225 101.594 94.7809C101.597 94.7664 101.599 94.7525 101.603 94.7381C101.609 94.7116 101.616 94.6858 101.624 94.6599C101.641 94.6039 101.663 94.5491 101.689 94.4949C101.727 94.4143 101.646 94.3122 101.54 94.2939C101.422 94.2731 101.32 94.3223 101.28 94.408Z" fill="#827454"/>
<path d="M102.253 89.0299C102.253 89.3915 102.253 89.7531 102.253 90.1141C102.253 90.1997 102.35 90.2816 102.465 90.2772C102.581 90.2734 102.678 90.2054 102.678 90.1141C102.678 89.7525 102.678 89.3909 102.678 89.0299C102.678 88.9442 102.58 88.8623 102.465 88.8667C102.35 88.8699 102.253 88.9379 102.253 89.0299Z" fill="#827454"/>
<path d="M102.803 98.2469C102.593 98.7458 102.477 99.2668 102.456 99.7903C102.447 100.001 102.872 100 102.881 99.7903C102.902 99.2939 103.014 98.8057 103.215 98.3332C103.299 98.1335 102.888 98.0472 102.803 98.2469Z" fill="#827454"/>
<path d="M59.2478 94.5219C59.3036 94.9679 59.3594 95.4139 59.4152 95.8606C59.4259 95.9481 59.5055 96.0237 59.6278 96.0237C59.7345 96.0237 59.8519 95.9488 59.8404 95.8606C59.7846 95.4146 59.7288 94.9686 59.673 94.5219C59.6623 94.4344 59.5835 94.3588 59.4604 94.3588C59.3537 94.3581 59.2372 94.4337 59.2478 94.5219Z" fill="#827454"/>
<path d="M60.8664 89.6448C60.9796 90.0889 61.0928 90.533 61.2061 90.9771C61.2282 91.0634 61.3628 91.1132 61.4678 91.0912C61.586 91.066 61.6386 90.9771 61.6164 90.8902C61.5032 90.4461 61.39 90.002 61.2767 89.5572C61.2545 89.4709 61.1199 89.4212 61.0148 89.4432C60.8975 89.4684 60.8442 89.5579 60.8664 89.6448Z" fill="#827454"/>
<path d="M60.6332 92.6428C60.6332 92.8651 60.6332 93.0875 60.6332 93.3099C60.6332 93.3955 60.7309 93.4774 60.8458 93.473C60.9615 93.4693 61.0583 93.4012 61.0583 93.3099C61.0583 93.0875 61.0583 92.8651 61.0583 92.6428C61.0583 92.5571 60.9607 92.4752 60.8458 92.4796C60.7309 92.4834 60.6332 92.5514 60.6332 92.6428Z" fill="#827454"/>
<path d="M58.4601 89.0186C58.4191 89.2845 58.4593 89.5598 58.5733 89.8124C58.6103 89.893 58.7211 89.9547 58.8352 89.9264C58.9394 89.9006 59.0231 89.8117 58.9837 89.7254C58.9558 89.6643 58.9328 89.6026 58.9139 89.539C58.9057 89.5119 58.8992 89.4848 58.8926 89.4577C58.891 89.4502 58.8787 89.3909 58.8869 89.4325C58.8844 89.4187 58.8827 89.4048 58.8803 89.3916C58.863 89.2675 58.8655 89.1421 58.8844 89.0186C58.8975 88.9336 58.7769 88.8517 58.6718 88.8555C58.5462 88.8593 58.4741 88.9273 58.4601 89.0186Z" fill="#827454"/>
<path d="M87.2738 158.883C90.49 159.765 93.8022 160.498 97.2039 160.729C100.606 160.96 104.118 160.668 107.223 159.577C107.461 160.85 107.7 162.124 107.94 163.397C107.974 163.582 108.005 163.785 107.874 163.943C107.784 164.052 107.631 164.121 107.484 164.184C101.508 166.731 94.1173 167.238 87.648 165.543C87.6332 163.362 87.433 161.182 87.0489 159.021L87.2738 158.883Z" fill="#827454"/>
<path d="M57.0624 158.913C58.6717 159.702 60.8908 159.895 62.977 160.005C65.6557 160.147 68.3425 160.21 71.0236 160.193C72.8915 160.182 74.8176 160.124 76.4745 159.662C76.4384 161.224 76.4031 162.787 76.367 164.35C74.2948 164.86 72.1586 165.328 69.9001 165.479C65.9871 165.741 62.0398 165.036 58.2376 164.34C58.039 164.304 57.8264 164.261 57.7041 164.164C57.5761 164.062 57.5843 163.928 57.5949 163.805C57.7353 162.236 57.5375 160.651 57.0074 159.097L57.0624 158.913Z" fill="#827454"/>
<path d="M88.7413 122.979C89.3076 126.394 90.0265 129.795 90.9022 133.171C91.1517 134.135 91.4143 135.096 91.6892 136.055C91.7483 136.26 92.1586 136.173 92.0995 135.968C91.141 132.62 90.3334 129.246 89.681 125.855C89.4972 124.898 89.3257 123.939 89.1665 122.979C89.1328 122.773 88.7068 122.771 88.7413 122.979Z" fill="#827454"/>
<path d="M92.5293 126.712C92.874 128.262 93.2179 129.812 93.5626 131.362C93.6086 131.568 94.0189 131.481 93.9729 131.275C93.6282 129.724 93.2844 128.175 92.9397 126.625C92.8937 126.418 92.4834 126.506 92.5293 126.712Z" fill="#827454"/>
<path d="M66.9959 124.306C66.991 126.229 67.3308 128.149 68.0037 130C68.0776 130.202 68.4879 130.117 68.4141 129.913C67.751 128.088 67.4169 126.201 67.4218 124.306C67.4226 124.096 66.9968 124.096 66.9959 124.306Z" fill="#827454"/>
<path d="M70.5418 123.644C70.3079 124.999 70.4154 126.381 70.8496 127.707C70.916 127.911 71.3272 127.824 71.2599 127.62C70.8348 126.321 70.7388 124.971 70.9678 123.644C70.9834 123.556 70.8594 123.482 70.7552 123.481C70.6272 123.48 70.5574 123.557 70.5418 123.644Z" fill="#827454"/>
<path d="M63.4908 153.39C63.7723 154.17 64.0538 154.95 64.3352 155.731C64.4083 155.933 64.8186 155.847 64.7456 155.644C64.4641 154.863 64.1827 154.083 63.9012 153.303C63.8281 153.101 63.417 153.186 63.4908 153.39Z" fill="#827454"/>
<path d="M66.0439 153.336C66.0439 153.781 66.0439 154.226 66.0431 154.671C66.0431 154.881 66.469 154.881 66.469 154.671C66.469 154.226 66.469 153.781 66.4698 153.336C66.4698 153.125 66.0439 153.125 66.0439 153.336Z" fill="#827454"/>
<path d="M67.8863 147.33C67.8863 147.775 67.8855 148.22 67.8855 148.665C67.8855 148.876 68.3106 148.876 68.3115 148.665C68.3115 148.22 68.3114 147.775 68.3123 147.33C68.3123 147.12 67.8863 147.119 67.8863 147.33Z" fill="#827454"/>
<path d="M93.5315 152.008C93.5315 152.675 93.5307 153.343 93.5307 154.01C93.5307 154.221 93.9566 154.221 93.9566 154.01C93.9566 153.343 93.9575 152.675 93.9575 152.008C93.9566 151.798 93.5315 151.797 93.5315 152.008Z" fill="#827454"/>
<path d="M95.7357 148.3C95.5453 148.821 95.7251 149.392 96.1929 149.796C96.2692 149.862 96.416 149.856 96.494 149.796C96.5794 149.73 96.5703 149.631 96.494 149.565C96.1239 149.245 95.9992 148.79 96.1461 148.387C96.2199 148.184 95.8096 148.097 95.7357 148.3Z" fill="#827454"/>
<path d="M98.4326 146.879C97.7194 147.228 97.7185 148.117 98.4309 148.466C98.5277 148.513 98.6656 148.481 98.7222 148.408C98.7821 148.329 98.7427 148.232 98.6459 148.184C98.6286 148.176 98.6123 148.168 98.5959 148.158C98.6287 148.176 98.5795 148.147 98.5778 148.146C98.5483 148.125 98.5228 148.103 98.4957 148.081C98.4661 148.057 98.508 148.098 98.481 148.067C98.4719 148.057 98.4621 148.047 98.4539 148.037C98.4342 148.013 98.4169 147.989 98.4013 147.965C98.3972 147.958 98.3776 147.922 98.3907 147.949C98.3833 147.935 98.3767 147.921 98.3702 147.906C98.3579 147.877 98.3472 147.848 98.339 147.819C98.3349 147.803 98.3316 147.788 98.3275 147.774C98.3201 147.743 98.3275 147.783 98.3259 147.764C98.3226 147.734 98.3201 147.703 98.3201 147.672C98.3201 147.644 98.3233 147.616 98.325 147.589C98.3291 147.541 98.316 147.619 98.3275 147.572C98.3308 147.556 98.3341 147.541 98.339 147.527C98.3472 147.497 98.3579 147.468 98.3702 147.439C98.3751 147.427 98.3808 147.415 98.3874 147.404C98.3931 147.393 98.3923 147.395 98.3849 147.408C98.389 147.402 98.3931 147.395 98.3972 147.388C98.4136 147.363 98.43 147.339 98.4489 147.315C98.4596 147.303 98.4703 147.29 98.4818 147.278C98.5154 147.241 98.4563 147.297 98.4965 147.264C98.5236 147.242 98.5491 147.22 98.5786 147.2C98.5819 147.197 98.6221 147.173 98.6032 147.184C98.5892 147.192 98.6402 147.165 98.6476 147.162C98.7444 147.115 98.7838 147.017 98.7239 146.939C98.6673 146.863 98.5302 146.831 98.4326 146.879Z" fill="#827454"/>
<path d="M100.05 156.347C100.05 156.904 100.049 157.46 100.049 158.016C100.049 158.226 100.475 158.226 100.475 158.016C100.475 157.459 100.476 156.903 100.476 156.347C100.475 156.137 100.05 156.137 100.05 156.347Z" fill="#827454"/>
<path d="M78.06 18.4727C78.06 18.9534 77.6309 19.3427 77.1007 19.3427C76.5706 19.3427 76.1413 18.9534 76.1413 18.4727C76.1413 17.9921 76.5706 17.6021 77.1007 17.6021C77.6309 17.6027 78.06 17.9921 78.06 18.4727Z" fill="black"/>
<path d="M86.7815 18.8746C86.7815 19.3552 86.3522 19.7445 85.8221 19.7445C85.2919 19.7445 84.8628 19.3552 84.8628 18.8746C84.8628 18.3939 85.2919 18.004 85.8221 18.004C86.3514 18.004 86.7815 18.3939 86.7815 18.8746Z" fill="black"/>
<path d="M81.9978 29.0106C81.914 29.4232 82.0059 29.8434 82.2907 30.2031C82.3678 30.3007 82.5492 30.3461 82.6805 30.2812C82.8085 30.2182 82.8651 30.0865 82.7831 29.982C82.7535 29.9448 82.7257 29.9064 82.7002 29.8673C82.6887 29.8491 82.6772 29.8308 82.6657 29.8119C82.6526 29.7892 82.6534 29.7905 82.6674 29.8157C82.6616 29.805 82.6558 29.7942 82.6509 29.7829C82.6132 29.7067 82.5837 29.6279 82.5624 29.5479C82.5566 29.5278 82.5525 29.5076 82.5475 29.4875C82.5459 29.4786 82.5443 29.4704 82.5426 29.4616C82.5476 29.4906 82.5483 29.4931 82.5442 29.4679C82.5393 29.427 82.5344 29.3867 82.5336 29.3457C82.532 29.3048 82.5328 29.2638 82.5352 29.2235C82.5369 29.2002 82.5393 29.1769 82.5426 29.1536C82.5443 29.1422 82.5459 29.1303 82.5475 29.1189C82.5426 29.1479 82.5418 29.1504 82.5467 29.1252C82.5697 29.0131 82.5099 28.8846 82.3482 28.8562C82.2111 28.8342 82.0224 28.8896 81.9978 29.0106Z" fill="#7F4924"/>
<path d="M83.4947 28.8626C83.4758 29.1372 83.5587 29.41 83.7171 29.6551C83.7835 29.7577 83.9829 29.7943 84.1068 29.7332C84.2439 29.6658 84.28 29.5442 84.2086 29.434C84.1922 29.4088 84.1766 29.3829 84.1618 29.3571C84.1717 29.3747 84.1808 29.3917 84.1906 29.4094C84.129 29.2973 84.0871 29.1794 84.0658 29.0585C84.0691 29.078 84.0724 29.0969 84.0757 29.1165C84.0617 29.032 84.0576 28.947 84.0634 28.862C84.0716 28.7473 83.9263 28.6383 83.7786 28.6434C83.6185 28.6497 83.5029 28.7404 83.4947 28.8626Z" fill="#7F4924"/>
<path d="M85.0924 27.6927C85.1515 27.9661 85.2105 28.2395 85.2704 28.5129C85.2811 28.5639 85.346 28.6187 85.4009 28.6433C85.4617 28.671 85.5519 28.6823 85.62 28.6653C85.7792 28.6256 85.8448 28.5179 85.8186 28.3963C85.7595 28.1229 85.7005 27.8495 85.6414 27.5761C85.6307 27.5251 85.5658 27.4703 85.5108 27.4457C85.4501 27.418 85.3599 27.4067 85.2917 27.4237C85.1317 27.4633 85.0661 27.5711 85.0924 27.6927Z" fill="#7F4924"/>
<path d="M86.792 26.6067C86.792 26.7661 86.792 26.9261 86.792 27.0855C86.792 27.1415 86.824 27.2001 86.8757 27.2398C86.925 27.2776 87.0062 27.3059 87.0768 27.304C87.1507 27.3015 87.227 27.2833 87.2779 27.2398C87.3287 27.197 87.3615 27.1447 87.3615 27.0855C87.3615 26.9261 87.3615 26.7667 87.3615 26.6067C87.3615 26.5506 87.3296 26.492 87.2779 26.4523C87.2286 26.4146 87.1474 26.3862 87.0768 26.3881C87.0029 26.3906 86.9266 26.4089 86.8757 26.4523C86.824 26.4946 86.792 26.5475 86.792 26.6067Z" fill="#7F4924"/>
<path d="M87.7096 25.7726C87.7712 25.9774 87.8319 26.1821 87.8935 26.3868C87.9271 26.4983 88.1019 26.5746 88.2439 26.5393C88.3957 26.5015 88.4786 26.39 88.4425 26.2703C88.3809 26.0656 88.3202 25.8608 88.2586 25.6561C88.225 25.5446 88.0502 25.4684 87.9082 25.5036C87.7564 25.5421 87.6735 25.6536 87.7096 25.7726Z" fill="#7F4924"/>
<path d="M89.1967 25.1024C89.1967 25.1938 89.1967 25.2845 89.1967 25.3758C89.1967 25.4319 89.2286 25.4905 89.2803 25.5302C89.3057 25.5516 89.337 25.5667 89.3723 25.5755C89.4059 25.5894 89.4429 25.5957 89.4823 25.5944C89.5561 25.5919 89.6324 25.5736 89.6833 25.5302C89.7342 25.4873 89.767 25.435 89.767 25.3758C89.767 25.2845 89.767 25.1938 89.767 25.1024C89.767 25.0464 89.735 24.9878 89.6833 24.9481C89.6579 24.9267 89.6267 24.9115 89.5914 24.9027C89.5577 24.8889 89.5208 24.8826 89.4814 24.8838C89.4075 24.8863 89.3312 24.9046 89.2803 24.9481C89.2286 24.9909 89.1967 25.0432 89.1967 25.1024Z" fill="#7F4924"/>
<path d="M88.3973 23.7353C88.3554 23.9835 88.4399 24.2493 88.6131 24.4598C88.6927 24.5561 88.8699 24.6034 89.0029 24.5379C89.1284 24.4755 89.19 24.3426 89.1047 24.2386C89.0686 24.1945 89.0374 24.1492 89.0111 24.1013C89.0209 24.1189 89.03 24.136 89.0398 24.1536C88.9988 24.0767 88.9709 23.9967 88.9561 23.9142C88.9594 23.9337 88.9627 23.9533 88.966 23.9722C88.9529 23.8928 88.9529 23.814 88.966 23.7347C88.9742 23.683 88.9282 23.615 88.8823 23.5803C88.833 23.5425 88.7518 23.5142 88.6812 23.5161C88.6073 23.5186 88.531 23.5369 88.4801 23.5803C88.4654 23.5948 88.4506 23.6099 88.4359 23.6244C88.4104 23.6591 88.3973 23.6956 88.3973 23.7353Z" fill="#7F4924"/>
<path d="M89.7662 23.2622C89.7383 23.2685 89.7112 23.2785 89.685 23.288C89.68 23.2899 89.6743 23.2918 89.6702 23.2943C89.6431 23.3094 89.621 23.3214 89.6021 23.3346C89.598 23.3378 89.5939 23.3403 89.5906 23.3441C89.5701 23.3623 89.5446 23.3844 89.5299 23.4077C89.5167 23.4278 89.5061 23.4486 89.4954 23.4694C89.4938 23.4738 89.4912 23.4776 89.4904 23.482C89.4888 23.4864 89.488 23.4902 89.4872 23.4946C89.4831 23.5173 89.4773 23.5412 89.4757 23.5645C89.474 23.5923 89.4823 23.6206 89.4872 23.6471C89.4888 23.6559 89.4913 23.6641 89.4954 23.6723C89.5053 23.6931 89.5167 23.7138 89.5299 23.734C89.5323 23.7378 89.5356 23.7416 89.5389 23.7453C89.5537 23.7617 89.5709 23.7787 89.5873 23.7938C89.6053 23.809 89.6217 23.8172 89.6349 23.8253C89.648 23.8335 89.6627 23.843 89.6783 23.8493C89.6915 23.8543 89.7071 23.8587 89.7194 23.8625C89.7334 23.8669 89.7481 23.8726 89.7629 23.8764C89.8006 23.8852 89.8384 23.8871 89.8762 23.8801C89.9139 23.8789 89.9492 23.8701 89.982 23.8543C90.0148 23.8405 90.0419 23.8216 90.0616 23.7983C90.0871 23.7775 90.1035 23.7523 90.1125 23.7239C90.1158 23.7044 90.1191 23.6849 90.1223 23.666C90.1223 23.6263 90.1092 23.5897 90.0838 23.5557C90.069 23.5412 90.0543 23.5261 90.0395 23.5116C90.0042 23.4845 89.9624 23.4656 89.914 23.4556C89.9271 23.46 89.95 23.4675 89.9722 23.4751C89.9648 23.4726 89.9574 23.4694 89.9508 23.4656C89.9697 23.477 89.9895 23.4883 90.0083 23.4997C90.0009 23.4952 89.9944 23.4896 89.9878 23.4839C90.0026 23.4984 90.0173 23.5135 90.0321 23.528C90.0255 23.5217 90.0206 23.5148 90.0165 23.5072C90.0264 23.5248 90.0353 23.5419 90.0452 23.5595C90.0403 23.5501 90.037 23.54 90.0346 23.5299C90.0379 23.5494 90.0411 23.5689 90.0444 23.5878C90.0428 23.5771 90.0428 23.5658 90.0444 23.5551C90.0411 23.5746 90.0379 23.5935 90.0346 23.613C90.0362 23.6023 90.0403 23.5916 90.046 23.5815C90.0362 23.5992 90.0272 23.6162 90.0173 23.6338C90.0215 23.6263 90.0271 23.6193 90.0329 23.613C90.0181 23.6275 90.0034 23.6427 89.9886 23.6571C89.9943 23.6515 90 23.6471 90.0074 23.6426C89.9886 23.654 89.9689 23.6653 89.95 23.6767C89.9574 23.6723 89.9648 23.6691 89.973 23.666C89.95 23.6735 89.9278 23.6804 89.9048 23.688C89.9541 23.6779 89.9861 23.6647 90.014 23.6458C90.0452 23.6307 90.0698 23.6099 90.0871 23.5847C90.1076 23.5595 90.1191 23.5324 90.1207 23.5034C90.1289 23.4745 90.1273 23.4455 90.1158 23.4165C90.106 23.3989 90.0969 23.3818 90.0871 23.3642C90.0616 23.3314 90.028 23.305 89.9853 23.2861C89.9623 23.2785 89.9401 23.2716 89.9172 23.264C89.8671 23.2521 89.8171 23.2521 89.7662 23.2622Z" fill="#7F4924"/>
<path d="M90.2841 22.6285C90.3152 22.6965 90.3464 22.7646 90.3776 22.8326C90.3866 22.8609 90.4031 22.8855 90.4285 22.9069C90.4482 22.9309 90.4753 22.9491 90.5082 22.963C90.541 22.9787 90.5762 22.9876 90.6139 22.9888C90.6517 22.9951 90.6895 22.9939 90.7272 22.985C90.7502 22.9775 90.7724 22.9706 90.7954 22.963C90.838 22.9435 90.8725 22.9176 90.898 22.8849C90.9078 22.8673 90.9168 22.8502 90.9266 22.8326C90.9406 22.7942 90.9406 22.7551 90.9266 22.7167C90.8954 22.6486 90.8643 22.5806 90.8331 22.5126C90.8241 22.4842 90.8077 22.459 90.7822 22.4383C90.7617 22.4143 90.7354 22.3954 90.7026 22.3822C90.6698 22.3664 90.6345 22.3576 90.5967 22.3564C90.559 22.3501 90.5213 22.3513 90.4835 22.3601C90.4605 22.3677 90.4384 22.3746 90.4154 22.3822C90.3727 22.4017 90.3382 22.4275 90.3136 22.4603C90.3038 22.4779 90.2947 22.4949 90.2849 22.5126C90.2701 22.551 90.2701 22.5901 90.2841 22.6285Z" fill="#7F4924"/>
<path d="M93.1335 17.5253C93.0768 17.771 93.0908 18.0236 93.1975 18.2605C93.2221 18.3146 93.2623 18.3613 93.3279 18.3909C93.3886 18.418 93.479 18.4299 93.5471 18.4129C93.6858 18.3783 93.7982 18.2598 93.7457 18.1439C93.7096 18.0645 93.6849 17.9833 93.6701 17.9001C93.6734 17.9197 93.6768 17.9386 93.6801 17.9581C93.6628 17.8523 93.6628 17.7452 93.6801 17.6393C93.6768 17.6589 93.6734 17.6784 93.6701 17.6973C93.6734 17.6784 93.6776 17.6595 93.6817 17.6406C93.6956 17.5814 93.6939 17.5259 93.6529 17.4724C93.6184 17.427 93.5504 17.3836 93.4831 17.3722C93.4101 17.3596 93.3287 17.3621 93.2639 17.3943C93.2048 17.4239 93.1458 17.4699 93.1335 17.5253Z" fill="#7F4924"/>
<path d="M93.8415 16.1355C93.8752 16.2255 93.8998 16.3175 93.9171 16.4107C93.9138 16.3912 93.9105 16.3717 93.9073 16.3528C93.9343 16.5115 93.9367 16.6709 93.9138 16.8303C93.9064 16.8826 93.9507 16.9494 93.9975 16.9846C94.0468 17.0224 94.128 17.0508 94.1986 17.0489C94.2724 17.0464 94.3488 17.0275 94.3996 16.9846C94.4538 16.9393 94.4744 16.8908 94.4834 16.8303C94.522 16.56 94.4875 16.2816 94.3906 16.0196C94.3504 15.9099 94.1879 15.8306 94.0402 15.8671C93.8949 15.9024 93.798 16.0177 93.8415 16.1355Z" fill="#7F4924"/>
<path d="M93.1153 15.5995C93.1153 15.6681 93.1153 15.7362 93.1153 15.8048C93.1137 15.8351 93.1218 15.8628 93.1399 15.8892C93.1514 15.9163 93.1711 15.9396 93.199 15.9598C93.2244 15.9812 93.2557 15.9963 93.291 16.0052C93.3246 16.019 93.3615 16.0253 93.4009 16.0241C93.4263 16.0215 93.4518 16.019 93.4764 16.0165C93.5248 16.0058 93.5666 15.9875 93.6019 15.9604C93.6167 15.9459 93.6315 15.9308 93.6463 15.9163C93.6717 15.8823 93.6849 15.8451 93.6849 15.8061C93.6849 15.7381 93.6849 15.6694 93.6849 15.6007C93.6865 15.5705 93.6783 15.5428 93.6602 15.5163C93.6487 15.4892 93.629 15.4659 93.6011 15.4458C93.5757 15.4243 93.5445 15.4092 93.5093 15.4004C93.4756 15.3865 93.4387 15.3802 93.3993 15.3815C93.3738 15.384 93.3483 15.3865 93.3237 15.3891C93.2753 15.3998 93.2335 15.418 93.1982 15.4451C93.1834 15.4596 93.1687 15.4747 93.1539 15.4892C93.1285 15.5232 93.1153 15.5598 93.1153 15.5995Z" fill="#7F4924"/>
<path d="M75.7547 25.1792C75.7752 25.1962 75.7949 25.2139 75.813 25.2315C75.7982 25.217 75.7834 25.2019 75.7686 25.1874C75.8178 25.2372 75.8581 25.2907 75.8901 25.3481C75.8803 25.3304 75.8712 25.3134 75.8614 25.2958C75.8926 25.3531 75.9139 25.4136 75.9246 25.4753C75.9213 25.4558 75.918 25.4363 75.9147 25.4174C75.9163 25.4268 75.918 25.4356 75.9188 25.4451C75.9171 25.4753 75.9254 25.503 75.9434 25.5295C75.9549 25.5566 75.9746 25.5799 76.0025 25.6C76.0518 25.6378 76.133 25.6662 76.2036 25.6643C76.2774 25.6618 76.3538 25.6429 76.4046 25.6C76.4531 25.5597 76.495 25.5024 76.4884 25.4457C76.481 25.389 76.4711 25.3311 76.4522 25.2756C76.4334 25.2196 76.4039 25.166 76.3727 25.1131C76.321 25.0243 76.2438 24.9424 76.1576 24.8718C76.1084 24.8315 76.0271 24.8076 75.9565 24.8076C75.8868 24.8076 75.8031 24.8315 75.7555 24.8718C75.7054 24.9134 75.6686 24.9682 75.6718 25.0262C75.6743 25.0841 75.7013 25.1358 75.7547 25.1792Z" fill="#7F4924"/>
<path d="M77.4397 26.6066C77.4397 26.698 77.4397 26.7887 77.4397 26.88C77.4397 26.9361 77.4718 26.9947 77.5235 27.0344C77.5489 27.0558 77.5801 27.0709 77.6153 27.0797C77.649 27.0936 77.6859 27.0999 77.7253 27.0986C77.7992 27.0961 77.8755 27.0772 77.9264 27.0344C77.9773 26.9915 78.0102 26.9392 78.0102 26.88C78.0102 26.7887 78.0102 26.698 78.0102 26.6066C78.0102 26.5506 77.9781 26.492 77.9264 26.4523C77.901 26.4309 77.8698 26.4158 77.8345 26.4069C77.8009 26.3931 77.7639 26.3868 77.7245 26.388C77.6507 26.3906 77.5744 26.4088 77.5235 26.4523C77.4726 26.4945 77.4397 26.5474 77.4397 26.6066Z" fill="#7F4924"/>
<path d="M78.7027 27.1648C78.6485 27.4104 78.664 27.6624 78.774 27.8987C78.7994 27.9528 78.8381 27.9994 78.9045 28.0291C78.9653 28.0568 79.0555 28.0681 79.1236 28.0511C79.2615 28.0171 79.3765 27.8974 79.3223 27.7821C79.2845 27.7008 79.2574 27.6177 79.2418 27.5326C79.2451 27.5522 79.2484 27.5711 79.2517 27.5906C79.2336 27.4829 79.2328 27.3745 79.2517 27.2668C79.2484 27.2863 79.2451 27.3052 79.2418 27.3248C79.2443 27.3103 79.2476 27.2952 79.2509 27.2807C79.264 27.2215 79.2631 27.166 79.2221 27.1125C79.1876 27.0671 79.1195 27.0236 79.0522 27.0123C78.9792 26.9997 78.8979 27.0022 78.8331 27.0344C78.7748 27.0627 78.715 27.1093 78.7027 27.1648Z" fill="#7F4924"/>
<path d="M78.2416 29.1359C78.2416 29.3413 78.2416 29.546 78.2416 29.7514C78.2416 29.8654 78.372 29.975 78.5263 29.97C78.6806 29.965 78.8111 29.8742 78.8111 29.7514C78.8111 29.546 78.8111 29.3413 78.8111 29.1359C78.8111 29.0213 78.6806 28.9123 78.5263 28.9173C78.372 28.923 78.2416 29.0137 78.2416 29.1359Z" fill="#7F4924"/>
<path d="M80.29 27.9056C80.29 28.0423 80.29 28.179 80.29 28.3157C80.29 28.3718 80.3221 28.4304 80.3738 28.4701C80.423 28.5079 80.5043 28.5362 80.5748 28.5343C80.6487 28.5318 80.725 28.5129 80.7759 28.4701C80.8268 28.4272 80.8596 28.3749 80.8596 28.3157C80.8596 28.179 80.8596 28.0423 80.8596 27.9056C80.8596 27.8496 80.8276 27.791 80.7759 27.7513C80.7267 27.7135 80.6454 27.6852 80.5748 27.687C80.501 27.6896 80.4247 27.7078 80.3738 27.7513C80.3229 27.7941 80.29 27.8464 80.29 27.9056Z" fill="#7F4924"/>
<path d="M74.3483 22.5946C74.3212 22.6374 74.2958 22.6821 74.2835 22.7294C74.2712 22.7773 74.2622 22.8283 74.2663 22.8774C74.2704 22.9253 74.2785 22.9751 74.2974 23.0211C74.3171 23.067 74.3426 23.1137 74.3771 23.154C74.4173 23.2012 74.4746 23.239 74.5469 23.2541C74.615 23.2686 74.7061 23.2623 74.7661 23.2321C74.8268 23.2019 74.8801 23.1571 74.8965 23.1017C74.9129 23.0463 74.9096 22.9826 74.8677 22.9335C74.853 22.9159 74.8398 22.897 74.8292 22.8774C74.839 22.8951 74.8481 22.9121 74.8579 22.9297C74.8432 22.902 74.8333 22.873 74.8276 22.8428C74.8309 22.8623 74.8341 22.8818 74.8374 22.9007C74.8325 22.8692 74.8325 22.8371 74.8374 22.8056C74.8341 22.8251 74.8309 22.844 74.8276 22.8636C74.8333 22.8352 74.8424 22.8081 74.8563 22.7817C74.8465 22.7993 74.8374 22.8163 74.8276 22.834C74.8317 22.8277 74.835 22.8207 74.8391 22.8144C74.8596 22.7892 74.8711 22.7621 74.8727 22.7332C74.881 22.7042 74.8792 22.6752 74.8677 22.6462C74.8497 22.5958 74.7989 22.5404 74.7373 22.5158C74.6717 22.4888 74.5913 22.4755 74.5182 22.4938C74.4517 22.5108 74.3803 22.5436 74.3483 22.5946Z" fill="#7F4924"/>
<path d="M75.2304 23.3366C75.2132 23.3832 75.2042 23.4336 75.2009 23.4821C75.1976 23.5313 75.2066 23.5804 75.2173 23.6289C75.2239 23.6591 75.2346 23.6888 75.2494 23.7171C75.274 23.7637 75.2978 23.8084 75.3355 23.8494C75.3536 23.8746 75.3782 23.8954 75.4086 23.9105C75.4356 23.93 75.4685 23.9426 75.5054 23.9495C75.5735 23.964 75.6646 23.9577 75.7245 23.9275C75.7852 23.8973 75.8385 23.8525 75.855 23.7971C75.8714 23.7429 75.8706 23.6762 75.8263 23.6289C75.8041 23.605 75.7853 23.5791 75.7705 23.5514C75.7803 23.5691 75.7893 23.5861 75.7992 23.6037C75.7819 23.5709 75.7697 23.5369 75.7631 23.5023C75.7664 23.5218 75.7696 23.5407 75.7729 23.5602C75.7672 23.5256 75.7664 23.4903 75.7721 23.455C75.7688 23.4746 75.7656 23.4935 75.7623 23.513C75.7656 23.4928 75.7713 23.4727 75.7787 23.4531C75.7992 23.399 75.7869 23.3335 75.75 23.285C75.7155 23.2396 75.6474 23.1961 75.5801 23.1848C75.507 23.1722 75.4258 23.1747 75.361 23.2068C75.2986 23.2371 75.2509 23.2805 75.2304 23.3366Z" fill="#7F4924"/>
<path d="M72.3098 16.0632C72.3632 16.2465 72.4157 16.4298 72.469 16.6131C72.501 16.7246 72.6783 16.8008 72.8194 16.7655C72.9721 16.7278 73.0534 16.6162 73.0181 16.4966C72.9647 16.3132 72.9121 16.1299 72.8588 15.9466C72.8268 15.8351 72.6495 15.7589 72.5084 15.7942C72.3557 15.8326 72.2754 15.9435 72.3098 16.0632Z" fill="#7F4924"/>
<path d="M72.8941 14.5903C72.8999 14.5953 72.9056 14.601 72.9113 14.606C72.8966 14.5915 72.8817 14.5764 72.867 14.5619C72.8867 14.5821 72.9031 14.6035 72.9163 14.6268C72.9064 14.6092 72.8973 14.5922 72.8875 14.5745C72.9006 14.5991 72.9096 14.6249 72.9145 14.6514C72.9113 14.6319 72.908 14.6123 72.9047 14.5934C72.9088 14.6186 72.9088 14.6438 72.9047 14.6684C72.908 14.6489 72.9113 14.6293 72.9145 14.6104C72.9121 14.6243 72.9089 14.6382 72.9039 14.6514C72.8924 14.6804 72.89 14.7093 72.899 14.7383C72.9007 14.7673 72.9122 14.7944 72.9327 14.8196C72.9507 14.8448 72.9753 14.8656 73.0057 14.8807C73.0328 14.9002 73.0656 14.9128 73.1025 14.9197C73.1755 14.9323 73.2577 14.9298 73.3217 14.8977C73.384 14.8668 73.4316 14.8234 73.4521 14.7673C73.4562 14.7553 73.4604 14.7427 73.4628 14.7308C73.4686 14.6999 73.4759 14.6684 73.4768 14.6369C73.4768 14.6243 73.4759 14.6117 73.4743 14.5991C73.4701 14.5682 73.4652 14.5367 73.4562 14.5059C73.4521 14.4939 73.448 14.4813 73.4423 14.47C73.4283 14.4422 73.4135 14.4139 73.3963 14.3868C73.3889 14.3748 73.3799 14.3635 73.3701 14.3528C73.3471 14.3282 73.3233 14.3036 73.297 14.281C73.2716 14.2596 73.2404 14.2444 73.2051 14.2356C73.1706 14.2218 73.1346 14.2155 73.0952 14.2167C73.0558 14.2155 73.0196 14.2218 72.9852 14.2356C72.9499 14.2444 72.9195 14.2596 72.8932 14.281C72.8431 14.3225 72.8063 14.3773 72.8096 14.4353C72.8128 14.4548 72.8161 14.4737 72.8194 14.4933C72.8341 14.5311 72.858 14.5632 72.8941 14.5903Z" fill="#7F4924"/>
<path d="M72.0964 14.7107C72.0964 14.802 72.0964 14.8928 72.0964 14.9841C72.0964 15.0402 72.1285 15.0987 72.1802 15.1384C72.2056 15.1599 72.2367 15.175 72.272 15.1838C72.3057 15.1976 72.3426 15.2039 72.382 15.2027C72.4559 15.2002 72.5322 15.1813 72.5831 15.1384C72.634 15.0956 72.6667 15.0433 72.6667 14.9841C72.6667 14.8928 72.6667 14.802 72.6667 14.7107C72.6667 14.6546 72.6348 14.596 72.5831 14.5564C72.5576 14.5349 72.5264 14.5198 72.4911 14.511C72.4575 14.4971 72.4206 14.4908 72.3812 14.4921C72.3074 14.4946 72.231 14.5135 72.1802 14.5564C72.1285 14.5992 72.0964 14.6515 72.0964 14.7107Z" fill="#7F4924"/>
<path d="M80.904 30.2774C80.8449 30.3265 80.8112 30.3732 80.7825 30.4355C80.7767 30.4481 80.7726 30.4614 80.7701 30.4752C80.7644 30.5061 80.7562 30.5376 80.7578 30.5684C80.7595 30.5993 80.7652 30.6314 80.7734 30.6617C80.7816 30.6919 80.7997 30.7196 80.8161 30.7473C80.8227 30.7593 80.8301 30.7707 80.84 30.7814C80.8629 30.8072 80.8875 30.8337 80.9179 30.8551C80.9729 30.8941 81.0435 30.9193 81.119 30.9193C81.1584 30.9206 81.1945 30.9143 81.229 30.9004C81.2642 30.8916 81.2946 30.8765 81.3208 30.8551C81.3709 30.8135 81.4079 30.7587 81.4046 30.7007C81.4013 30.644 81.3766 30.5855 81.3208 30.5464C81.3118 30.5401 81.3036 30.5332 81.2954 30.5256C81.3101 30.5401 81.325 30.5552 81.3398 30.5697C81.3266 30.5565 81.3159 30.5426 81.3077 30.5275C81.3175 30.5451 81.3266 30.5621 81.3364 30.5798C81.3282 30.5634 81.3225 30.5464 81.3192 30.5288C81.3225 30.5483 81.3258 30.5672 81.329 30.5867C81.3266 30.5691 81.3266 30.5514 81.329 30.5338C81.3258 30.5533 81.3225 30.5722 81.3192 30.5918C81.3225 30.5741 81.3282 30.5571 81.3373 30.5407C81.3274 30.5584 81.3183 30.5754 81.3085 30.593C81.3159 30.5798 81.325 30.5678 81.3356 30.5565C81.3209 30.571 81.306 30.5861 81.2913 30.6006C81.2962 30.5962 81.3012 30.5918 81.3061 30.5873C81.357 30.5451 81.3897 30.491 81.3897 30.433C81.3914 30.4028 81.3832 30.375 81.3651 30.3486C81.3536 30.3215 81.334 30.2982 81.3061 30.278C81.2519 30.2396 81.1805 30.2113 81.105 30.2138C81.0312 30.2163 80.9557 30.2346 80.904 30.2774Z" fill="#7F4924"/>
<path d="M84.1586 30.2718C84.2177 30.3632 84.2777 30.4539 84.3367 30.5452C84.3548 30.5704 84.3794 30.5912 84.4098 30.6063C84.4369 30.6258 84.4696 30.6384 84.5065 30.6454C84.5443 30.6542 84.5821 30.6554 84.6199 30.6492C84.6576 30.6479 84.6929 30.6391 84.7257 30.6233C84.7865 30.5931 84.8398 30.5484 84.8562 30.4929C84.8595 30.4734 84.8628 30.4545 84.8661 30.435C84.8661 30.3953 84.853 30.3587 84.8275 30.3247C84.7684 30.2334 84.7085 30.1427 84.6494 30.0513C84.6314 30.0261 84.6067 30.0053 84.5764 29.9902C84.5493 29.9707 84.5164 29.9581 84.4795 29.9512C84.4417 29.9423 84.404 29.9405 84.3663 29.9474C84.3285 29.9486 84.2932 29.9575 84.2604 29.9732C84.1997 30.0034 84.1463 30.0482 84.1299 30.1036C84.1266 30.1231 84.1233 30.142 84.1201 30.1616C84.1201 30.2013 84.1332 30.2378 84.1586 30.2718Z" fill="#7F4924"/>
<path d="M83.0499 27.4873C83.0811 27.578 83.1131 27.6687 83.1443 27.7595C83.1624 27.8124 83.214 27.8628 83.2748 27.8899C83.3076 27.9056 83.3429 27.9144 83.3806 27.9157C83.4184 27.922 83.4562 27.9207 83.4939 27.9119C83.5629 27.8949 83.6293 27.8621 83.6637 27.8118C83.6999 27.7595 83.713 27.7015 83.6925 27.6436C83.6613 27.5528 83.6293 27.4621 83.5981 27.3714C83.5801 27.3185 83.5283 27.2681 83.4676 27.241C83.4348 27.2253 83.3996 27.2164 83.3618 27.2152C83.3241 27.2089 83.2863 27.2101 83.2485 27.219C83.1796 27.236 83.1131 27.2687 83.0786 27.3191C83.0425 27.3714 83.0294 27.4294 83.0499 27.4873Z" fill="#7F4924"/>
<path d="M76.1989 57.4158C78.3671 59.3831 81.6326 60.3287 84.8447 60.8125C85.7828 60.9536 86.7289 61.0588 87.6776 61.1438C88.0412 61.1766 88.0379 60.7394 87.6776 60.7066C84.5229 60.4232 81.2296 59.8997 78.5772 58.486C77.8427 58.0948 77.1796 57.6306 76.6018 57.1071C76.3647 56.8916 75.9634 57.2022 76.1989 57.4158Z" fill="#C2B38C"/>
<path d="M81.3379 24.8264C81.5578 24.9064 81.8032 24.9266 82.0387 24.8718C82.2677 24.8189 82.4688 24.7055 82.5927 24.5473C82.6691 24.4491 82.6256 24.3029 82.4902 24.2481C82.3523 24.1921 82.1824 24.2217 82.1004 24.3262C82.0864 24.3439 82.0716 24.3609 82.0552 24.3773C82.07 24.3628 82.0847 24.3476 82.0995 24.3332C82.0658 24.3653 82.0281 24.3936 81.9855 24.4188C82.0043 24.4075 82.024 24.3962 82.0429 24.3848C81.9969 24.4113 81.9468 24.4333 81.8943 24.451C81.9173 24.4434 81.9394 24.4365 81.9624 24.4289C81.9017 24.4484 81.8393 24.4617 81.7745 24.4686C81.7999 24.4661 81.8254 24.4636 81.85 24.461C81.7893 24.4667 81.7285 24.4673 81.667 24.461C81.6924 24.4636 81.7179 24.4661 81.7425 24.4686C81.6892 24.4629 81.6383 24.4522 81.5882 24.4371C81.6112 24.4447 81.6334 24.4516 81.6564 24.4591C81.6457 24.4554 81.635 24.4522 81.6251 24.4484C81.5545 24.4226 81.4832 24.41 81.406 24.4264C81.3404 24.4402 81.2681 24.4793 81.2361 24.5272C81.1688 24.6248 81.1943 24.7741 81.3379 24.8264Z" fill="#7F4924"/>
<path d="M99.7267 36.0087C94.1592 37.9521 91.2574 42.5105 86.9275 45.8272C81.5497 49.9464 73.6474 58.7595 73.6433 59.3749C73.6367 60.3325 82.6912 70.6202 83.1705 70.6713C93.3805 71.7573 102.138 58.8439 108.372 51.0715C109.668 49.4576 109.435 47.2534 109.891 45.39C110.429 43.1895 108.908 39.0224 106.862 37.4267C104.817 35.8304 101.417 35.2484 98.8281 36.2802L99.7267 36.0087Z" fill="#277AAE"/>
<path d="M41.761 47.2837C45.0363 49.7065 47.9037 51.4074 48.593 54.8589C49.2824 58.3104 48.3058 60.3571 44.7974 62.5796C41.2891 64.8027 36.887 66.1376 33.4795 63.825C32.2239 62.9727 31.3204 61.8501 30.6663 60.6652C30.1969 59.8141 29.8432 58.8868 30.018 57.9721C30.1805 57.1204 30.7828 56.362 31.3721 55.63C33.4656 53.0289 35.5592 50.4284 37.6527 47.8273L41.761 47.2837Z" fill="#3DA7E9"/>
<path d="M30.7534 58.2096C30.6762 59.1986 34.9034 64.186 36.6761 64.4436C37.4122 64.5507 38.1722 64.6131 38.9092 64.5085C40.2912 64.3132 44.9361 60.2532 45.7462 59.375C48.589 56.2914 41.3194 42.639 40.2501 38.1059C40.0384 37.2063 39.8251 36.2922 39.9523 35.3839C40.1599 33.8959 42.7794 26.6325 41.9505 24.7049C41.1775 22.9064 40.2534 22.1523 37.9392 21.4776C35.6257 20.803 33.0594 20.7727 30.6138 21.0688C30.4439 21.4487 30.2741 21.8285 30.1034 22.209C29.6931 21.9419 29.0078 22.1158 28.7123 22.4604C28.4169 22.8049 28.4136 23.2472 28.4645 23.6573C28.6352 25.0388 29.2999 26.3774 29.3024 27.7652C29.304 29.3968 30.279 34.8282 30.7344 36.0075C31.1448 37.0684 31.0208 38.2016 30.8936 39.3041C30.2108 45.2137 31.034 54.5956 30.7534 58.2096Z" fill="#F6A472"/>
<path d="M36.8722 26.8529C37.633 26.5323 38.5333 26.4346 39.3794 26.5833C39.7364 26.6463 39.8882 26.2248 39.5304 26.1618C38.5333 25.9867 37.482 26.0976 36.585 26.4756C36.2633 26.611 36.5505 26.9883 36.8722 26.8529Z" fill="#7F4924"/>
<path d="M37.624 26.143C37.24 25.2466 36.7689 24.3514 36.0032 23.6043C35.638 23.2478 35.1966 22.9334 34.6853 22.7041C34.0698 22.4288 33.3886 22.3375 32.7033 22.2184C32.009 22.0981 31.1646 21.8707 30.9881 21.2703C30.9069 20.9963 30.3586 21.1122 30.4391 21.3862C30.581 21.8675 31.0841 22.2197 31.652 22.4187C32.3307 22.6562 33.0849 22.6858 33.7866 22.8666C34.9478 23.1665 35.7356 23.9394 36.2789 24.747C36.6047 25.2315 36.8543 25.7424 37.0759 26.2596C37.1891 26.5254 37.7389 26.4114 37.624 26.143Z" fill="#7F4924"/>
<path d="M36.0451 23.9073C36.3381 23.7265 36.6319 23.5463 36.9249 23.3655C36.9782 23.3328 37.0085 23.2609 37.0085 23.2112C37.0085 23.1576 36.9774 23.0934 36.9249 23.0568C36.8707 23.0184 36.7992 22.9901 36.7237 22.9926C36.6441 22.9951 36.5842 23.0184 36.5227 23.0568C36.2297 23.2376 35.936 23.4178 35.643 23.5986C35.5896 23.6314 35.5592 23.7032 35.5592 23.7529C35.5592 23.8065 35.5905 23.8707 35.643 23.9073C35.6971 23.9457 35.7685 23.9741 35.844 23.9715C35.9237 23.969 35.9827 23.9457 36.0451 23.9073Z" fill="#7F4924"/>
<path d="M29.8303 22.1938C29.7466 22.958 30.1561 23.741 30.8988 24.2525C31.0129 24.3313 31.1885 24.3388 31.3017 24.2525C31.4059 24.1725 31.4166 24.0226 31.3017 23.9432C30.6599 23.5004 30.3276 22.8528 30.4006 22.1932C30.4137 22.0754 30.2602 21.9746 30.1158 21.9746C29.9508 21.9752 29.8434 22.0754 29.8303 22.1938Z" fill="#7F4924"/>
<path d="M28.0132 23.1325C28.3341 24.7382 29.3746 26.2382 30.9175 27.3481C31.185 27.5403 31.5879 27.2322 31.3204 27.0395C29.8407 25.9749 28.8699 24.5549 28.5622 23.0166C28.5072 22.7388 27.9582 22.8566 28.0132 23.1325Z" fill="#7F4924"/>
<path d="M30.4014 28.0632C30.9792 27.6443 31.6415 27.306 32.3695 27.0508C32.509 27.0017 32.5435 26.8467 32.4721 26.7516C32.3883 26.6414 32.2226 26.6237 32.0823 26.6735C31.3158 26.9425 30.6115 27.3104 29.9993 27.7539C29.8877 27.8351 29.8926 27.9813 29.9993 28.0632C30.1109 28.1489 30.2898 28.1444 30.4014 28.0632Z" fill="#7F4924"/>
<path d="M31.0955 28.9388C32.2978 29.9927 33.1529 31.257 33.5944 32.6158C33.6831 32.8886 34.2321 32.7727 34.1435 32.4999C33.6782 31.0668 32.7648 29.7401 31.4985 28.6295C31.2564 28.4178 30.8551 28.7284 31.0955 28.9388Z" fill="#7F4924"/>
<path d="M35.181 31.0813C34.2651 29.5826 32.5991 26.2559 32.0821 24.6495C31.9459 24.2274 31.8252 23.7808 31.9827 23.3631C32.1403 22.9455 32.6722 22.5776 33.2319 22.6525C33.4592 22.6828 33.6619 22.7798 33.8449 22.8875C35.4961 23.8583 35.8843 25.6744 37.3623 26.797C38.2576 27.4773 39.6479 28.0897 39.478 29.0459L35.181 31.0813Z" fill="#F6A472"/>
<path d="M35.0463 32.0977C34.4882 31.183 34.0032 30.2412 33.5346 29.2976C33.0315 28.2846 32.5465 27.2628 32.1534 26.2209C31.9523 25.6879 31.6273 25.0177 31.9088 24.4753C32.036 24.2296 32.3495 23.9808 32.718 23.9883C33.0947 23.9959 33.441 24.2655 33.6905 24.4589C34.7492 25.2785 35.203 26.43 36.0327 27.3724C36.5054 27.9098 37.1135 28.3085 37.7397 28.7344C38.2928 29.1111 38.9059 29.5552 38.8123 30.1732C38.7696 30.4523 39.34 30.4498 39.3818 30.1732C39.5714 28.9196 37.6379 28.2581 36.7787 27.4216C35.7807 26.4495 35.3385 25.2079 34.2535 24.28C33.7094 23.8145 32.9018 23.3174 32.0721 23.6885C31.1932 24.0816 31.1628 24.8992 31.3499 25.579C31.6519 26.6744 32.1788 27.7441 32.6827 28.7923C33.2547 29.9817 33.8546 31.1698 34.5555 32.3188C34.7098 32.5727 35.2005 32.3516 35.0463 32.0977Z" fill="#7F4924"/>
<path d="M77.1608 53.8277C78.812 53.3861 80.6495 53.3678 82.3146 53.7754C84.569 54.3279 86.4031 55.6067 87.9041 57.0115C90.4269 59.3719 92.2554 62.3321 92.0264 65.3804C91.7975 68.4287 89.1048 71.4702 85.2173 72.1159C84.061 72.308 82.8627 72.2891 81.6851 72.2116C79.4963 72.0674 77.2642 71.702 75.4554 70.7451C73.6467 69.7882 72.3376 68.1396 72.5806 66.4633L77.1608 53.8277Z" fill="#3DA7E9"/>
<path d="M78.7831 53.9132C81.5003 50.9127 84.3924 48.0067 87.451 45.2066C88.9881 43.7999 90.5671 42.4191 92.1855 41.0672C92.8355 40.5242 93.4682 39.9572 94.1863 39.4658C94.7903 39.052 95.4379 38.6759 96.0944 38.3137C97.6012 37.4827 99.176 36.6871 100.831 36.0376C101.157 35.9098 100.869 35.5324 100.543 35.6603C99.0684 36.2398 97.6627 36.9404 96.3045 37.6667C95.6004 38.0434 94.9069 38.434 94.2454 38.8535C93.5692 39.2819 92.9808 39.7663 92.385 40.2589C89.1179 42.9577 86.0116 45.7704 83.0769 48.6852C81.4273 50.3231 79.832 51.9931 78.2924 53.6927C78.0823 53.9239 78.5754 54.1425 78.7831 53.9132Z" fill="#3DA7E9"/>
<path d="M89.561 43.3602C91.8006 41.8521 94.1789 40.4687 96.6778 39.224C97.3869 38.8706 98.1058 38.5291 98.8329 38.1984C99.148 38.0548 98.8616 37.6774 98.5457 37.8211C95.954 39.001 93.4755 40.3232 91.1317 41.7759C90.4628 42.1904 89.8047 42.6163 89.1588 43.0516C88.8823 43.2374 89.286 43.5454 89.561 43.3602Z" fill="#3DA7E9"/>
<path d="M90.4926 68.966C92.4236 68.2567 94.0231 67.1322 95.4182 65.9038C96.9332 64.5702 98.2832 63.1245 99.6775 61.7171C100.466 60.9209 101.255 60.1253 102.043 59.329C102.775 58.5907 103.527 57.8612 104.229 57.1059C105.472 55.771 106.549 54.3423 107.48 52.8663C108.515 51.224 109.403 49.4979 109.881 47.7057C109.954 47.4311 109.406 47.3139 109.332 47.5898C108.912 49.1628 108.174 50.6841 107.3 52.1393C106.406 53.6279 105.359 55.068 104.157 56.4236C103.533 57.1273 102.85 57.7976 102.179 58.4748C101.409 59.2515 100.639 60.0289 99.8696 60.8056C98.4416 62.2476 97.0522 63.7204 95.5462 65.1151C94.0469 66.5035 92.3481 67.8012 90.2054 68.588C89.8746 68.7103 90.1635 69.087 90.4926 68.966Z" fill="#3DA7E9"/>
<path d="M99.6232 54.8916C99.2974 55.2872 98.9717 55.6828 98.6467 56.0778C98.5671 56.1748 98.6163 56.3228 98.7493 56.377C98.8896 56.4337 99.0537 56.4022 99.1383 56.2989C99.4641 55.9033 99.7898 55.5083 100.116 55.1127C100.195 55.0157 100.146 54.8676 100.013 54.8135C99.8727 54.7561 99.7086 54.7883 99.6232 54.8916Z" fill="#3DA7E9"/>
<path d="M101.82 54.7701C101.484 55.2608 101.148 55.7522 100.813 56.2429C100.742 56.3475 100.779 56.4804 100.915 56.5421C101.043 56.5995 101.233 56.5686 101.305 56.464C101.641 55.9733 101.976 55.4819 102.311 54.9912C102.383 54.8866 102.346 54.7537 102.209 54.692C102.081 54.634 101.892 54.6649 101.82 54.7701Z" fill="#3DA7E9"/>
<path d="M101.872 48.873C101.507 49.0016 101.221 49.2894 101.16 49.5943C101.148 49.6548 101.147 49.7084 101.189 49.7625C101.223 49.8079 101.292 49.8514 101.359 49.8627C101.432 49.8753 101.513 49.8728 101.578 49.8406C101.636 49.8117 101.698 49.7651 101.709 49.7102C101.722 49.6466 101.745 49.5849 101.777 49.5257C101.767 49.5433 101.758 49.5603 101.748 49.578C101.783 49.5162 101.827 49.4583 101.881 49.4047C101.866 49.4192 101.851 49.4343 101.837 49.4488C101.891 49.3959 101.952 49.348 102.021 49.3065C102.002 49.3178 101.983 49.3291 101.964 49.3405C102.025 49.3046 102.089 49.2743 102.158 49.2504C102.22 49.229 102.272 49.1679 102.289 49.12C102.308 49.0677 102.299 48.9978 102.26 48.9518C102.221 48.9052 102.162 48.8642 102.09 48.8516C102.013 48.8371 101.946 48.8472 101.872 48.873Z" fill="#3DA7E9"/>
<path d="M97.7054 49.9912C97.4411 50.3855 97.1769 50.7799 96.9134 51.1748C96.8453 51.2763 96.8749 51.4167 97.016 51.4741C97.1465 51.527 97.3328 51.5043 97.405 51.3959C97.6693 51.0016 97.9335 50.6066 98.1969 50.2123C98.2651 50.1108 98.2356 49.9704 98.0953 49.913C97.9648 49.8601 97.7784 49.8828 97.7054 49.9912Z" fill="#3DA7E9"/>
<path d="M87.8401 48.4395C87.3633 48.7387 87.0129 49.1469 86.8225 49.5955C86.7765 49.7045 86.8759 49.8386 87.0211 49.8645C87.1771 49.8915 87.3223 49.8286 87.3716 49.712C87.3921 49.6629 87.4151 49.615 87.4397 49.5671C87.466 49.5155 87.4241 49.5936 87.4413 49.564C87.4487 49.5507 87.4561 49.5375 87.4634 49.5249C87.4774 49.5016 87.4913 49.4783 87.5069 49.455C87.5676 49.3605 87.6374 49.2691 87.7154 49.1816C87.7343 49.1602 87.754 49.1394 87.7737 49.1186C87.7827 49.1091 87.7917 49.1003 87.7999 49.0909C87.8205 49.0695 87.7696 49.1199 87.8032 49.0877C87.8459 49.048 87.8885 49.0084 87.9337 48.9706C88.0297 48.8906 88.1323 48.8162 88.2422 48.7476C88.3579 48.6751 88.3481 48.5132 88.2422 48.4382C88.1191 48.3526 87.9632 48.362 87.8401 48.4395Z" fill="#3DA7E9"/>
<path d="M89.6883 49.4348C89.5611 49.6836 89.4347 49.9318 89.3075 50.1806C89.2821 50.2304 89.3025 50.3047 89.3362 50.3488C89.3706 50.3942 89.4388 50.4377 89.5061 50.449C89.5791 50.4616 89.6603 50.4591 89.7252 50.4269C89.7908 50.3942 89.8278 50.352 89.8557 50.2965C89.9829 50.0477 90.1093 49.7995 90.2365 49.5507C90.2619 49.5009 90.2414 49.4266 90.2077 49.3825C90.1733 49.3371 90.1052 49.2937 90.0379 49.2823C89.9649 49.2697 89.8836 49.2722 89.8187 49.3044C89.7531 49.3365 89.717 49.3787 89.6883 49.4348Z" fill="#3DA7E9"/>
<path d="M45.4301 47.8556C47.627 49.2837 49.2463 51.202 50.0514 53.3236C50.2787 53.9234 50.4428 54.5382 50.5348 55.1587C50.5758 55.4352 51.1453 55.4384 51.1043 55.1587C50.7678 52.8745 49.5508 50.7018 47.6329 48.9366C47.0871 48.4339 46.4839 47.9697 45.8331 47.5463C45.5541 47.3655 45.1494 47.6736 45.4301 47.8556Z" fill="#3DA7E9"/>
<path d="M51.0026 52.5808C51.6238 53.2921 52.0489 54.0845 52.2606 54.9249C52.2902 55.0408 52.4707 55.1069 52.6111 55.0773C52.7694 55.044 52.8393 54.9249 52.8097 54.8083C52.5898 53.9352 52.1392 53.0987 51.4942 52.3603C51.2906 52.1279 50.7974 52.3465 51.0026 52.5808Z" fill="#3DA7E9"/>
<path d="M57.4916 52.0372C57.3956 53.706 57.1995 55.371 56.8991 57.0252C56.8778 57.143 56.9368 57.2583 57.0977 57.2942C57.2306 57.3232 57.4268 57.2583 57.4481 57.1417C57.7559 55.4484 57.9626 53.7457 58.0611 52.0379C58.0775 51.7557 57.508 51.7569 57.4916 52.0372Z" fill="#3DA7E9"/>
<path d="M87.5054 60.7519C88.6223 62.9013 89.0408 65.6895 88.5747 67.9756C88.4179 68.7435 88.1989 69.5738 87.4315 70.0797C86.7299 70.5421 85.7384 70.6202 84.8143 70.6542C82.3638 70.7449 79.9027 70.6743 77.4678 70.445C76.748 70.377 76.0127 70.2913 75.3758 70.0249C74.7144 69.7483 74.2105 69.2992 73.7263 68.8563C66.6865 62.4201 58.9222 48.5768 58.4618 48.449C56.7761 47.9822 53.3622 46.9427 52.7918 45.6394C52.2206 44.3354 52.2764 41.5428 52.2337 40.1682C51.0905 40.3729 49.7242 39.9597 49.3212 39.113C48.9183 38.267 49.8382 37.8601 50.997 38.0043C50.1517 37.8544 49.4911 37.2289 49.4755 36.563C49.4599 35.8971 50.0893 35.2533 50.9272 35.0801C50.2025 34.6681 49.7857 34.6114 49.9843 33.9361C50.1829 33.2608 50.9338 32.7007 51.8193 32.5678C51.3285 31.9385 51.6313 31.6128 52.4693 31.3174C53.2382 31.0465 54.1205 31.0345 54.9132 31.2619C57.5566 32.0191 60.0301 33.0762 60.8451 35.1437C61.2685 36.2171 61.3358 37.3504 61.5246 38.4629C61.9407 40.9223 62.9641 43.3205 64.525 45.4913C64.525 45.4913 86.5969 59.0026 87.5054 60.7519Z" fill="#F6A472"/>
<path d="M50.0661 38.3421C51.2011 38.1399 52.4067 38.2848 53.4112 38.7364C53.7279 38.8788 54.0152 38.5015 53.6984 38.3591C52.5609 37.8476 51.1969 37.6926 49.9142 37.9207C49.558 37.9843 49.7091 38.4057 50.0661 38.3421Z" fill="#7F4924"/>
<path d="M50.4381 35.5891C51.807 35.63 53.1316 35.962 54.2756 36.5403C54.5825 36.6952 54.8681 36.3173 54.5628 36.1629C53.3367 35.5431 51.9047 35.1953 50.4381 35.1519C50.0721 35.1412 50.0721 35.5783 50.4381 35.5891Z" fill="#7F4924"/>
<path d="M51.6821 32.8501C53.0386 33.0813 54.364 33.4139 55.6319 33.8511C55.7731 33.8996 55.9364 33.8813 56.0217 33.773C56.094 33.6797 56.0595 33.5222 55.9192 33.4737C54.6053 33.0208 53.2397 32.6687 51.8339 32.4286C51.4769 32.3675 51.3242 32.789 51.6821 32.8501Z" fill="#7F4924"/>
<path d="M56.1187 32.9363C55.0067 35.3314 53.9513 37.7422 52.9517 40.1663C52.8409 40.4353 53.3908 40.5499 53.5008 40.2828C54.5004 37.8588 55.5557 35.4479 56.6677 33.0528C56.7908 32.787 56.241 32.673 56.1187 32.9363Z" fill="#7F4924"/>
<path d="M58.7072 48.7029C59.4179 48.2077 60.1285 47.7126 60.8384 47.2175C60.9525 47.1381 60.9435 46.9888 60.8384 46.9088C60.7252 46.8218 60.5504 46.8294 60.4363 46.9088C59.7256 47.4039 59.0149 47.8991 58.305 48.3942C58.1909 48.4736 58.1999 48.6229 58.305 48.7035C58.4174 48.7898 58.5923 48.7823 58.7072 48.7029Z" fill="#7F4924"/>
<path d="M47.6288 44.0337C47.3736 44.251 47.2701 44.5578 47.3744 44.8419C47.4146 44.9522 47.5779 45.0309 47.7248 44.9944C47.8709 44.9579 47.9669 44.8432 47.9234 44.7254C47.9128 44.6958 47.9045 44.6662 47.8996 44.636C47.9029 44.6555 47.9061 44.675 47.9094 44.6939C47.9012 44.6391 47.9013 44.5849 47.9103 44.5301C47.907 44.5497 47.9037 44.5685 47.9004 44.5881C47.9111 44.5308 47.9308 44.4747 47.9595 44.4211C47.9497 44.4388 47.9406 44.4558 47.9308 44.4734C47.9587 44.423 47.9949 44.3758 48.0383 44.3323C48.0236 44.3468 48.0087 44.3619 47.994 44.3764C48.0063 44.3644 48.0194 44.3531 48.0325 44.3418C48.0834 44.2989 48.1163 44.2466 48.1163 44.1874C48.1163 44.1339 48.0851 44.0696 48.0325 44.0331C47.9226 43.9569 47.7355 43.943 47.6288 44.0337Z" fill="#3DA7E9"/>
<path d="M48.7451 44.0778C48.558 44.3285 48.37 44.5792 48.1829 44.8299C48.1091 44.9288 48.1485 45.0737 48.2855 45.1292C48.4209 45.184 48.5957 45.1569 48.6745 45.0504C48.8616 44.7997 49.0496 44.549 49.2367 44.2982C49.3106 44.1993 49.2712 44.0545 49.1349 43.999C48.9987 43.9442 48.8239 43.9719 48.7451 44.0778Z" fill="#3DA7E9"/>
<path d="M71.274 36.446C71.0187 36.6633 70.9153 36.9701 71.0195 37.2542C71.0597 37.3644 71.223 37.4432 71.3699 37.4066C71.516 37.3701 71.6121 37.2555 71.5686 37.1377C71.5579 37.1081 71.5497 37.0784 71.5447 37.0482C71.548 37.0677 71.5513 37.0866 71.5546 37.1062C71.5464 37.0514 71.5464 36.9972 71.5555 36.9424C71.5522 36.9619 71.5488 36.9814 71.5455 37.0003C71.5562 36.943 71.5759 36.8869 71.6046 36.8334C71.5948 36.851 71.5857 36.868 71.5759 36.8857C71.6038 36.8353 71.6399 36.788 71.6834 36.7446C71.6686 36.7591 71.6539 36.7742 71.6391 36.7887C71.6514 36.7767 71.6646 36.7653 71.6777 36.754C71.7286 36.7112 71.7614 36.6583 71.7614 36.5997C71.7614 36.5461 71.7302 36.4819 71.6777 36.4453C71.5677 36.3697 71.3806 36.3553 71.274 36.446Z" fill="#3DA7E9"/>
<path d="M72.7275 37.5817C72.6602 37.8293 72.5937 38.0768 72.5272 38.3244C72.4969 38.4359 72.5699 38.5657 72.7258 38.5934C72.8678 38.6186 73.0434 38.5606 73.0762 38.4409C73.1427 38.1934 73.21 37.9458 73.2773 37.6982C73.3076 37.5867 73.2347 37.457 73.0787 37.4292C72.9351 37.4047 72.7595 37.462 72.7275 37.5817Z" fill="#3DA7E9"/>
<path d="M66.7924 78.6067C67.0353 79.3538 67.2774 80.1003 67.5203 80.8475C67.609 81.1202 68.158 81.0049 68.0694 80.7315C67.8265 79.9844 67.5844 79.2379 67.3415 78.4908C67.2529 78.218 66.7038 78.3333 66.7924 78.6067Z" fill="#827454"/>
<path d="M68.5124 78.7995C68.395 79.3387 68.427 79.8874 68.6232 80.4147C68.665 80.5281 68.8241 80.5987 68.9735 80.5672C69.1212 80.5363 69.2148 80.4122 69.1722 80.2982C69.0056 79.8496 68.9629 79.3715 69.0622 78.9154C69.0876 78.7989 69.0228 78.6804 68.8636 78.6464C68.7266 78.6181 68.5378 78.6823 68.5124 78.7995Z" fill="#827454"/>
<path d="M89.0596 79.5014C89.177 79.7527 89.2943 80.0041 89.4117 80.2548C89.4371 80.309 89.4757 80.3556 89.5422 80.3852C89.6029 80.4123 89.6932 80.4243 89.7613 80.4072C89.8992 80.3732 90.014 80.2535 89.9599 80.1383C89.8425 79.8869 89.7252 79.6356 89.6078 79.3848C89.5824 79.3307 89.5438 79.284 89.4773 79.2544C89.4166 79.2267 89.3263 79.2154 89.2582 79.2324C89.1211 79.267 89.0063 79.3867 89.0596 79.5014Z" fill="#827454"/>
<path d="M91.547 79.301C91.5363 79.6481 91.5248 79.9952 91.5142 80.3417C91.5109 80.4564 91.648 80.5653 91.799 80.5603C91.9565 80.5546 92.0796 80.4646 92.0837 80.3417C92.0943 79.9946 92.1059 79.6481 92.1165 79.301C92.1198 79.187 91.9827 79.0774 91.8317 79.0824C91.6742 79.0881 91.5511 79.1788 91.547 79.301Z" fill="#827454"/>
<path d="M96.3882 79.5385C96.3611 79.6198 96.33 79.6998 96.293 79.7785C96.284 79.798 96.2741 79.8176 96.2643 79.8371C96.2586 79.8484 96.2258 79.9152 96.2545 79.8579C96.2364 79.8944 96.2134 79.9297 96.1913 79.965C96.0977 80.1136 95.9853 80.2541 95.8557 80.3858C95.8146 80.428 95.8097 80.5055 95.8269 80.554C95.845 80.6044 95.8958 80.6598 95.9573 80.6844C96.0238 80.7108 96.1035 80.7247 96.1765 80.7064C96.252 80.6875 96.2996 80.6541 96.3463 80.6063C96.6229 80.324 96.8241 79.9965 96.9365 79.6544C96.9726 79.5435 96.8897 79.4119 96.7378 79.3854C96.5909 79.3596 96.4276 79.4201 96.3882 79.5385Z" fill="#827454"/>
<path d="M27.9602 138.821C28.7416 137.371 29.1451 135.725 29.1291 134.053C29.1291 129.745 26.6269 126.25 23.5277 126.25C20.4286 126.25 17.9264 129.745 17.9264 134.053C17.9104 135.725 18.3139 137.371 19.0952 138.821C18.3288 140.279 17.9264 141.92 17.9264 143.59C17.9264 145.26 18.3288 146.901 19.0952 148.358C18.3288 149.815 17.9264 151.457 17.9264 153.127C17.9264 154.797 18.3288 156.438 19.0952 157.895C18.3288 159.352 17.9264 160.994 17.9264 162.664C17.9264 164.334 18.3288 165.975 19.0952 167.432C18.3134 168.883 17.9099 170.529 17.9264 172.201C17.9264 176.509 20.4286 180 23.5277 180C26.6269 180 29.1291 176.509 29.1291 172.201C29.1449 170.53 28.7414 168.885 27.9602 167.436C28.7267 165.979 29.1291 164.337 29.1291 162.668C29.1291 160.998 28.7267 159.356 27.9602 157.899C28.7267 156.442 29.1291 154.8 29.1291 153.131C29.1291 151.461 28.7267 149.819 27.9602 148.362C28.7267 146.905 29.1291 145.263 29.1291 143.594C29.1291 141.924 28.7267 140.282 27.9602 138.825V138.821Z" fill="#3F3D56"/>
<path d="M23.5277 133.75C26.6215 133.75 29.1296 129.833 29.1296 125C29.1296 120.168 26.6215 116.25 23.5277 116.25C20.4339 116.25 17.9259 120.168 17.9259 125C17.9259 129.833 20.4339 133.75 23.5277 133.75Z" fill="#3F3D56"/>
<path d="M23.5277 122.5C26.6215 122.5 29.1296 119.142 29.1296 115C29.1296 110.858 26.6215 107.5 23.5277 107.5C20.4339 107.5 17.9259 110.858 17.9259 115C17.9259 119.142 20.4339 122.5 23.5277 122.5Z" fill="#3F3D56"/>
<path d="M5.02902 50.2665C4.36005 49.2506 3.7501 48.1818 3.20338 47.0675L16.0987 44.553L2.15121 44.6758C0.813482 41.2174 0.0837986 37.4711 0.00680263 33.6662C-0.0701933 29.8614 0.507117 26.0778 1.70342 22.5471L20.4138 34.0782L3.15641 19.0096C4.76815 15.6796 6.94078 12.7803 9.53852 10.4929C12.1362 8.20542 15.1032 6.57902 18.2541 5.7153C21.4049 4.85158 24.6719 4.76912 27.8507 5.47305C31.0296 6.17699 34.0521 7.65219 36.7293 9.80648C39.4065 11.9608 41.6809 14.7478 43.4102 17.9935C45.1396 21.2391 46.2868 24.8736 46.7802 28.6697C47.2736 32.4659 47.1025 36.3421 46.2777 40.0562C45.4529 43.7702 43.992 47.2423 41.9864 50.2553C43.0307 51.834 43.9294 53.5412 44.6669 55.3477L27.9293 65.6885L45.7786 58.5727C47.0315 62.9741 47.3412 67.6771 46.6796 72.2565C46.018 76.8358 44.4061 81.1471 41.9895 84.8005C44.7186 88.9196 46.4166 93.8678 46.8895 99.0794C47.3624 104.291 46.5911 109.555 44.6637 114.271C42.7363 118.986 39.7306 122.962 35.9905 125.743C32.2504 128.525 27.9267 130 23.514 130C19.1012 130 14.7776 128.525 11.0375 125.743C7.29732 122.962 4.29169 118.986 2.36429 114.271C0.436897 109.555 -0.334462 104.291 0.138433 99.0794C0.611328 93.8678 2.30938 88.9196 5.03841 84.8005C1.7806 79.8769 0.00960266 73.7959 0.00960266 67.5335C0.00960266 61.2711 1.7806 55.1902 5.03841 50.2665H5.02902Z" fill="#57B894"/>
<path opacity="0.1" d="M47.0493 69.1512C47.0572 75.253 45.284 81.1794 42.0166 85.971C44.7475 89.9834 46.4468 94.8035 46.92 99.8801C47.3933 104.957 46.6214 110.085 44.6926 114.678C42.7638 119.271 39.756 123.144 36.0132 125.853C32.2704 128.563 27.9437 130 23.5278 130C19.1119 130 14.7851 128.563 11.0423 125.853C7.29951 123.144 4.29173 119.271 2.36296 114.678C0.434181 110.085 -0.337727 104.957 0.135506 99.8801C0.608739 94.8035 2.30801 89.9834 5.03899 85.971C1.86456 81.3403 47.0493 66.0966 47.0493 69.1512Z" fill="black"/>
<path d="M14.2331 176.25C13.6364 174.832 14.3113 173.094 15.1021 171.826C15.8928 170.557 16.8256 169.244 16.8053 167.629C16.7763 165.312 14.8674 163.943 13.3293 162.716C12.1962 161.804 11.151 160.722 10.2154 159.493C9.8243 159.02 9.50075 158.461 9.25955 157.844C8.94382 156.937 8.95251 155.908 8.96989 154.916C9.03748 151.608 9.16493 148.303 9.35224 145" stroke="#3F3D56" stroke-width="4" stroke-miterlimit="10"/>
<path d="M5.60494 154.883C5.627 154.464 5.76669 154.057 6.01116 153.699C6.25563 153.341 6.59703 153.044 7.00396 152.834L7.6312 153.941L7.61097 152.602C8.18057 152.452 8.78877 152.468 9.34777 152.647C9.90677 152.825 10.3876 153.158 10.7209 153.597C11.0542 154.035 11.2227 154.557 11.202 155.087C11.1813 155.617 10.9726 156.127 10.6059 156.544C10.2392 156.961 9.73356 157.263 9.16197 157.406C8.59038 157.55 7.98243 157.528 7.4259 157.343C6.86937 157.158 6.39306 156.82 6.06575 156.378C5.73844 155.936 5.57707 155.412 5.60494 154.883Z" fill="#57B894"/>
<path d="M10.4546 170.466C10.7933 171.201 11.3405 171.79 12.011 172.142C12.6816 172.495 13.4378 172.59 14.1621 172.414C14.8863 172.237 15.5379 171.799 16.0154 171.167C16.4929 170.535 16.7695 169.745 16.8022 168.92C16.823 168.402 16.7486 167.885 16.5837 167.401C16.3381 166.691 15.9045 166.081 15.3404 165.652C14.7763 165.223 14.1085 164.996 13.4256 165C12.7428 165.004 12.0772 165.24 11.5174 165.676C10.9576 166.111 10.5301 166.727 10.2915 167.44L12.3901 169.345L10.0834 168.75C10.0813 169.347 10.2086 169.936 10.4546 170.466Z" fill="#57B894"/>
<path d="M12.7575 171.247C13.1245 171.266 13.4913 171.204 13.8369 171.065C14.1824 170.925 14.5001 170.711 14.7717 170.435C15.0432 170.158 15.2634 169.824 15.4196 169.453C15.5758 169.081 15.6649 168.679 15.682 168.269C15.7031 167.78 15.62 167.292 15.4395 166.846C15.2719 166.428 15.0242 166.056 14.7139 165.756C14.4036 165.457 14.0383 165.237 13.6438 165.113V166.404L13.0116 165.003C12.6446 164.984 12.2778 165.046 11.9322 165.186C11.5866 165.325 11.269 165.539 10.9974 165.816C10.7259 166.092 10.5057 166.426 10.3495 166.797C10.1933 167.169 10.1041 167.571 10.0871 167.981C10.0703 168.341 10.1104 168.702 10.2055 169.046C10.3762 169.662 10.713 170.204 11.1698 170.598C11.6266 170.992 12.1811 171.218 12.7575 171.247Z" fill="#57B894"/>
<path d="M5.42471 166.244C5.94525 166.28 6.46511 166.158 6.94315 165.887C7.4212 165.616 7.84431 165.205 8.17902 164.684C8.51372 164.164 8.75084 163.549 8.87161 162.889C8.99238 162.228 8.99349 161.54 8.87484 160.879C8.7562 160.218 8.52106 159.602 8.18803 159.08C7.855 158.558 7.43321 158.144 6.95605 157.87C6.47888 157.597 5.95942 157.472 5.43877 157.505C4.91812 157.539 4.41056 157.729 3.95626 158.062L4.54849 160.182L3.3294 158.653C3.00542 159.039 2.74294 159.504 2.55694 160.021C2.37095 160.539 2.26507 161.099 2.24537 161.67C2.2289 162.075 2.25689 162.48 2.32849 162.875C2.49427 163.797 2.88592 164.625 3.44439 165.233C4.00286 165.841 4.69789 166.195 5.42471 166.244Z" fill="#57B894"/>
<path opacity="0.1" d="M5.92047 154.811C6.57526 154.9 7.20958 155.145 7.86729 155.194C8.52499 155.244 9.24408 155.052 9.65917 154.435C9.85234 154.074 10.0271 153.7 10.1824 153.313C10.3614 152.975 10.6064 152.695 10.8957 152.5C11.0784 152.936 11.1824 153.414 11.2008 153.903C11.2191 154.392 11.1514 154.88 11.0022 155.334C10.853 155.789 10.6256 156.199 10.3354 156.539C10.0451 156.878 9.69856 157.138 9.31891 157.302C8.93926 157.465 8.53522 157.529 8.13377 157.488C7.73231 157.447 7.34268 157.302 6.99088 157.064C6.63908 156.826 6.33321 156.499 6.09368 156.105C5.85415 155.712 5.68648 155.261 5.60185 154.783C5.70709 154.79 5.81524 154.797 5.92047 154.811Z" fill="black"/>
<path opacity="0.1" d="M5.40038 166.244C5.98701 166.286 6.57068 166.093 7.09472 165.684C7.61875 165.275 8.06533 164.664 8.39108 163.909C8.71683 163.155 8.91069 162.284 8.95382 161.38C8.99694 160.476 8.88787 159.57 8.63721 158.75C8.36577 159.04 8.1333 159.408 7.95264 159.834C7.74983 160.431 7.52476 161.01 7.27858 161.568C6.74848 162.527 5.84273 162.841 5.02124 162.787C4.19974 162.733 3.40984 162.364 2.59186 162.245C2.47951 162.245 2.36366 162.245 2.24079 162.213C2.41184 163.324 2.81281 164.318 3.38296 165.046C3.95311 165.773 4.66136 166.194 5.40038 166.244Z" fill="black"/>
<path opacity="0.1" d="M12.6891 171.246C13.0647 171.268 13.44 171.198 13.7937 171.039C14.1473 170.881 14.4724 170.638 14.7503 170.324C15.0282 170.01 15.2535 169.632 15.4134 169.21C15.5732 168.788 15.6645 168.331 15.6819 167.865C15.7036 167.31 15.6185 166.756 15.4337 166.25C15.198 166.447 14.9928 166.695 14.8281 166.983C14.6404 167.395 14.4333 167.794 14.2077 168.177C13.7261 168.847 12.9137 169.081 12.181 169.059C11.4483 169.037 10.7895 168.825 10.0834 168.755C10.2588 169.452 10.603 170.065 11.0692 170.511C11.5354 170.956 12.101 171.213 12.6891 171.246Z" fill="black"/>
<path opacity="0.1" d="M11.2038 170.007C11.5025 170.907 11.9852 171.63 12.5766 172.062C13.1681 172.493 13.8351 172.61 14.4739 172.394C15.1127 172.178 15.6874 171.641 16.1086 170.866C16.5298 170.092 16.7738 169.123 16.8026 168.112C16.8209 167.477 16.7553 166.844 16.6098 166.25C16.3646 166.498 16.1449 166.801 15.9582 167.15C15.713 167.715 15.4485 168.259 15.1658 168.78C14.5539 169.699 13.581 170.083 12.7182 170.116C12.2124 170.125 11.7068 170.089 11.2038 170.007Z" fill="black"/>
<path d="M17.9259 175.354C17.9259 175.354 15.8191 174.112 15.172 173.437C14.5248 172.763 11.9307 171.944 11.7737 173.024C11.6167 174.104 8.62323 178.453 10.9916 178.482C13.3599 178.511 16.5186 179.07 17.152 178.482C17.7854 177.895 17.9259 175.354 17.9259 175.354Z" fill="#656380"/>
<path opacity="0.2" d="M10.9544 178.282C13.3324 178.304 16.482 178.715 17.1158 178.282C17.598 177.956 17.7909 176.789 17.857 176.25H17.9259C17.9259 176.25 17.7936 178.13 17.1598 178.556C16.5261 178.983 13.3765 178.575 10.9957 178.556C10.3096 178.556 10.0726 178.279 10.0836 177.88C10.1801 178.127 10.4364 178.279 10.9544 178.282Z" fill="black"/>
<path d="M45.4433 37.5563V37.5563C45.182 36.3286 40.2552 10.9678 39.9258 9.74595C39.3673 7.67447 38.7349 5.33015 38.0216 2.68743" stroke="#BEAEAE" stroke-width="1.5"/>
<mask id="path-189-inside-1_2133_5875" fill="white">
<path d="M42.4627 20.2802C42.5609 20.571 42.4909 20.8596 42.3063 20.9248C42.1216 20.99 41.8923 20.8072 41.7941 20.5164C41.6959 20.2256 41.766 19.937 41.9506 19.8718C42.1352 19.8065 42.3645 19.9894 42.4627 20.2802ZM41.8894 20.4827C41.9596 20.6907 42.1236 20.8214 42.2556 20.7748C42.3876 20.7281 42.4377 20.5218 42.3675 20.3138C42.2972 20.1059 42.1333 19.9751 42.0013 20.0218C41.8692 20.0684 41.8191 20.2748 41.8894 20.4827Z"/>
</mask>
<path d="M42.4627 20.2802C42.5609 20.571 42.4909 20.8596 42.3063 20.9248C42.1216 20.99 41.8923 20.8072 41.7941 20.5164C41.6959 20.2256 41.766 19.937 41.9506 19.8718C42.1352 19.8065 42.3645 19.9894 42.4627 20.2802ZM41.8894 20.4827C41.9596 20.6907 42.1236 20.8214 42.2556 20.7748C42.3876 20.7281 42.4377 20.5218 42.3675 20.3138C42.2972 20.1059 42.1333 19.9751 42.0013 20.0218C41.8692 20.0684 41.8191 20.2748 41.8894 20.4827Z" fill="#A39898" stroke="#BEAEAE" stroke-width="6" mask="url(#path-189-inside-1_2133_5875)"/>
<mask id="path-190-inside-2_2133_5875" fill="white">
<path d="M45.4698 35.5809C46.4615 38.5172 45.8187 41.4087 44.034 42.0392C42.2492 42.6697 39.9985 40.8005 39.0067 37.8641C38.015 34.9278 38.6578 32.0362 40.4425 31.4057C42.2273 30.7752 44.4781 32.6445 45.4698 35.5809ZM39.9274 37.5388C40.6366 39.6386 42.2461 40.9753 43.5224 40.5244C44.7986 40.0736 45.2583 38.0059 44.5491 35.9061C43.8399 33.8064 42.2304 32.4697 40.9542 32.9205C39.6779 33.3714 39.2182 35.4391 39.9274 37.5388Z"/>
</mask>
<path d="M45.4698 35.5809C46.4615 38.5172 45.8187 41.4087 44.034 42.0392C42.2492 42.6697 39.9985 40.8005 39.0067 37.8641C38.015 34.9278 38.6578 32.0362 40.4425 31.4057C42.2273 30.7752 44.4781 32.6445 45.4698 35.5809ZM39.9274 37.5388C40.6366 39.6386 42.2461 40.9753 43.5224 40.5244C44.7986 40.0736 45.2583 38.0059 44.5491 35.9061C43.8399 33.8064 42.2304 32.4697 40.9542 32.9205C39.6779 33.3714 39.2182 35.4391 39.9274 37.5388Z" fill="#D9D9D9" stroke="#BEAEAE" stroke-width="2" mask="url(#path-190-inside-2_2133_5875)"/>
<path d="M49.2211 35.7177V35.7177C48.6767 34.565 37.2076 11.3072 36.7225 10.1149C35.9727 8.27187 35.1319 6.20482 34.1924 3.89443" stroke="#BEAEAE" stroke-width="1.5"/>
</svg>
