<svg width="186" height="139" viewBox="0 0 186 139" fill="none" xmlns="http://www.w3.org/2000/svg">
<g id="Group">
<path id="Vector" d="M155.023 51.3295L155.013 51.3098V53.013C154.713 52.3161 154.408 51.6202 154.096 50.9239C147.486 36.186 139.497 24.4292 130.352 15.9816C118.871 5.37753 105.554 0 90.7682 0C75.9729 0 62.8812 5.38439 51.8579 16.0042C43.0757 24.4646 35.601 36.2362 29.6414 50.9934C29.1643 52.1758 28.7042 53.3583 28.2612 54.5392V48.0252L28.2585 48.0313L28.2612 64.1171H30.9648L31.7463 68.0884L28.262 67.6813L28.2621 69.4941L31.1062 69.8264C29.997 72.905 29.0585 75.9169 28.2638 78.7905L28.2659 90.2945C29.6397 83.0771 32.0535 73.573 36.2331 64.1173H146.752C150.741 72.4999 153.346 80.9226 155.013 87.7608V92.6471L155.023 92.6337V51.3295ZM150.524 50.4556L143.237 51.7488L144.957 39.7672C146.895 43.1018 148.75 46.6637 150.524 50.4556ZM141.976 50.2239C140.048 47.373 137.999 44.734 135.841 42.3007L143.682 38.3405L141.976 50.2239ZM143.104 36.683L134.69 40.9327L136.458 27.247C138.765 30.13 140.981 33.2772 143.104 36.683ZM117.911 10.8228C120.276 12.1953 122.574 13.7639 124.807 15.5272L117.911 27.2169V10.8228ZM116 9.76432L109.089 23.8372L106.073 5.74342C109.497 6.73722 112.808 8.07685 116 9.76432ZM116.454 12.3136V27.5748C114.42 26.6214 112.329 25.7889 110.182 25.0842L116.454 12.3136ZM103.808 5.14077L97.7952 21.7815L92.212 3.6386C96.2072 3.7363 100.073 4.23726 103.808 5.14077ZM90.8295 4.2127L96.4052 22.3322C94.5764 22.1814 92.7192 22.0999 90.8299 22.0999C89.2544 22.0999 87.7054 22.1611 86.1759 22.2657L90.8295 4.2127ZM89.4477 3.63642L84.7655 21.7989L75.4991 5.76183C79.9264 4.45398 84.5777 3.74496 89.4477 3.63642ZM74.4946 7.12567L83.3879 22.5153C80.0839 22.8868 76.8939 23.5154 73.8202 24.3922L74.4946 7.12567ZM73.0579 6.54868L72.361 24.3944L62.1022 11.9827C65.5784 9.70923 69.231 7.89699 73.0579 6.54868ZM61.1467 13.3498L70.9983 25.269C67.0294 26.6346 63.2738 28.4472 59.7351 30.687L61.1467 13.3498ZM59.6544 13.6866L58.2489 30.9441L48.871 23.8627C52.238 19.8873 55.8338 16.4945 59.6544 13.6866ZM46.6595 26.5884L47.8609 40.5199L39.7568 37.0072C41.9301 33.2153 44.2305 29.7369 46.6595 26.5884ZM38.884 38.5411L46.7694 41.9594C44.4132 44.6793 42.2119 47.6726 40.167 50.9237L38.4044 39.436C38.5652 39.1385 38.7222 38.8348 38.884 38.5411ZM32.2826 52.5216C33.8473 48.6562 35.5069 45.0246 37.2555 41.6139L38.9822 52.8685C38.8214 53.1396 38.6607 53.4115 38.5027 53.687H31.8171C31.9704 53.2987 32.1261 52.9104 32.2826 52.5216ZM29.4671 60.0556C29.6138 59.631 29.7621 59.2053 29.9137 58.7793L30.1654 60.0556H29.4671ZM32.7468 65.5456L32.4648 64.1168H33.3392C33.1371 64.5935 32.9397 65.0705 32.7468 65.5456ZM35.1639 60.0556H31.6648L30.8871 56.1064C30.9639 55.9023 31.0427 55.697 31.1206 55.492H37.4929C36.6878 56.9687 35.9094 58.4873 35.1639 60.0556ZM41.5856 60.0556H38.146C39.2367 57.8652 40.3838 55.7773 41.5856 53.7915V60.0556ZM48.0375 60.0556H43.4079V50.9134C44.875 48.7149 46.42 46.6619 48.0375 44.7434V60.0556ZM48.0171 25.332L57.2908 32.334C56.2336 33.086 55.1913 33.8672 54.1776 34.7014C52.4617 36.1118 50.8119 37.6461 49.2209 39.2879L48.0171 25.332ZM54.4897 60.0556H49.8595V42.6809C51.3445 41.0705 52.8878 39.5711 54.4897 38.1836V60.0556ZM60.9419 60.0556H56.312V36.6718C57.8072 35.4866 59.3509 34.3927 60.9419 33.3913V60.0556ZM67.3943 60.0556H62.7634V32.2977C64.2671 31.437 65.809 30.6501 67.3943 29.946V60.0556ZM73.8458 60.0556H69.2155V29.181C70.7245 28.5809 72.2675 28.049 73.8458 27.5862V60.0556ZM80.298 60.0556H75.6675V27.0836C77.1794 26.6971 78.7245 26.3776 80.298 26.1136V60.0556ZM86.7497 60.0556H82.1192V25.8344C83.6349 25.6289 85.1791 25.4808 86.7497 25.3862V60.0556ZM99.6538 60.0556H88.5716V25.2957C89.3184 25.2719 90.0706 25.2589 90.8299 25.2589C91.6266 25.2589 92.4167 25.2733 93.2014 25.3002V59.9519H95.0233V25.3914C96.5918 25.4889 98.136 25.6379 99.6538 25.8453V60.0556ZM106.105 60.0556H101.476V26.1266C103.046 26.3905 104.591 26.7098 106.105 27.095V60.0556ZM99.0915 22.613L104.775 6.88169L107.683 24.3286C104.905 23.5566 102.041 22.9827 99.0915 22.613ZM112.557 60.0556H107.927V27.595C109.502 28.0534 111.046 28.5789 112.557 29.1714V60.0556ZM119.01 60.0556H114.379V29.9238C115.96 30.6133 117.502 31.3846 119.01 32.2254V60.0556ZM125.462 36.4681V60.0556H120.832V33.2902C122.423 34.2625 123.973 35.3194 125.479 36.4681H125.462ZM124.631 32.2832C122.751 30.9806 120.812 29.802 118.814 28.7483L125.554 17.3198L124.631 32.2832ZM127.014 17.3469C129.626 19.6072 132.143 22.1449 134.564 24.9589L126.04 33.1316L127.014 17.3469ZM131.914 60.0556H127.283V37.9053C128.876 39.2259 130.421 40.6474 131.914 42.1729V60.0556ZM127.881 34.6914C127.683 34.5321 127.478 34.3848 127.277 34.228L135.042 26.7823L133.378 39.667C131.613 37.8764 129.783 36.2127 127.881 34.6914ZM138.366 60.0556H133.735V44.1218C135.342 45.9075 136.885 47.8195 138.366 49.8562V60.0556ZM140.187 60.0556V52.466C141.771 54.8404 143.274 57.3734 144.701 60.0556H140.187ZM147.739 60.0556C146.565 57.7467 145.327 55.5406 144.033 53.4305L151.058 52.1841L147.798 60.0556H147.739ZM152.036 53.7782C152.957 55.8763 153.821 57.9737 154.635 60.0556H149.435L152.036 53.7782ZM155.013 78.0168C153.619 73.6051 151.874 68.8864 149.697 64.1168H155.013V78.0168Z" fill="#D6A447"/>
<path id="Vector_2" d="M28.3788 18.6265H6.76904V109.118H28.3788V18.6265Z" fill="#5D5D60"/>
<path id="Vector_3" d="M33.5152 19.2623C33.5152 21.7571 32.5487 23.7803 31.3572 23.7803H3.78544C2.59355 23.7803 1.6272 21.7571 1.6272 19.2623V10.642C1.6272 8.14716 2.59342 6.12354 3.78544 6.12354H31.3572C32.5489 6.12354 33.5152 8.14716 33.5152 10.642V19.2623Z" fill="#5D5D60"/>
<g id="Group_2">
<g id="Group_3">
<path id="Vector_4" d="M23.9534 37.09C23.9534 30.9499 21.5757 25.9707 18.6426 25.9707H16.5026C13.5694 25.9707 11.1914 30.9497 11.1914 37.09V52.4736H23.9534V37.09Z" fill="#B2BBB7"/>
</g>
</g>
<path id="Vector_5" d="M26.2679 73.8579C26.2679 75.6861 25.5597 77.1688 24.6868 77.1688H10.4554C9.58205 77.1688 8.87427 75.6861 8.87427 73.8579C8.87427 72.0292 9.58218 70.5479 10.4554 70.5479H24.6868C25.5597 70.5479 26.2679 72.0292 26.2679 73.8579Z" fill="#B2BBB7"/>
<path id="Vector_6" d="M1.61938 62.1399C1.61938 63.5422 2.16266 64.68 2.83279 64.68H35.8935C36.5635 64.68 37.1066 63.5422 37.1066 62.1399C37.1066 60.737 36.5635 59.5996 35.8935 59.5996H2.83279C2.16266 59.5996 1.61938 60.737 1.61938 62.1399Z" fill="#D6A447"/>
<path id="Vector_7" d="M176.472 18.6265H154.862V109.118H176.472V18.6265Z" fill="#5D5D60"/>
<path id="Vector_8" d="M149.724 19.2623C149.724 21.7571 150.69 23.7803 151.882 23.7803H179.454C180.646 23.7803 181.612 21.7571 181.612 19.2623V10.642C181.612 8.14716 180.646 6.12354 179.454 6.12354H151.882C150.69 6.12354 149.724 8.14716 149.724 10.642V19.2623Z" fill="#5D5D60"/>
<g id="Group_4">
<g id="Group_5">
<path id="Vector_9" d="M159.284 37.09C159.284 30.9499 161.662 25.9707 164.595 25.9707H166.735C169.669 25.9707 172.046 30.9497 172.046 37.09V52.4736H159.284V37.09Z" fill="#B2BBB7"/>
</g>
</g>
<path id="Vector_10" d="M156.971 73.8579C156.971 75.6861 157.679 77.1688 158.552 77.1688H172.784C173.657 77.1688 174.365 75.6861 174.365 73.8579C174.365 72.0292 173.657 70.5479 172.784 70.5479H158.552C157.679 70.5479 156.971 72.0292 156.971 73.8579Z" fill="#B2BBB7"/>
<path id="Vector_11" d="M181.62 62.1399C181.62 63.5422 181.076 64.68 180.407 64.68H147.345C146.675 64.68 146.132 63.5422 146.132 62.1399C146.132 60.737 146.675 59.5996 147.345 59.5996H180.407C181.076 59.5996 181.62 60.737 181.62 62.1399Z" fill="#D6A447"/>
<g id="text" filter="url(#filter0_d_2164_987)">
<path d="M1.416 115.664C1.416 115.248 1.568 114.904 1.872 114.632C2.176 114.344 2.56 114.2 3.024 114.2H9.432C11.16 114.2 12.496 114.656 13.44 115.568C14.4 116.48 14.88 117.76 14.88 119.408C14.88 120.352 14.688 121.152 14.304 121.808C13.92 122.448 13.336 122.96 12.552 123.344V123.416C13.96 124.04 14.664 125.224 14.664 126.968V128.84C14.664 129.608 14.392 130.2 13.848 130.616C13.304 131.016 12.504 131.216 11.448 131.216V127.112C11.448 126.264 11.28 125.64 10.944 125.24C10.608 124.84 10.096 124.64 9.408 124.64H4.584V128.84C4.584 129.624 4.312 130.216 3.768 130.616C3.24 131.016 2.456 131.216 1.416 131.216V115.664ZM9.264 121.904C10.032 121.904 10.624 121.688 11.04 121.256C11.456 120.808 11.664 120.184 11.664 119.384C11.664 117.752 10.864 116.936 9.264 116.936H4.584V121.904H9.264ZM24.0009 131.216C22.6889 131.216 21.4889 130.96 20.4009 130.448C19.3129 129.92 18.4489 129.208 17.8089 128.312C17.1849 127.416 16.8729 126.44 16.8729 125.384V119.792C16.8729 118.736 17.1849 117.768 17.8089 116.888C18.4489 115.992 19.3129 115.288 20.4009 114.776C21.4889 114.248 22.6889 113.984 24.0009 113.984C25.3129 113.984 26.5129 114.248 27.6009 114.776C28.7049 115.288 29.5689 115.992 30.1929 116.888C30.8329 117.768 31.1529 118.736 31.1529 119.792V125.384C31.1529 126.44 30.8329 127.416 30.1929 128.312C29.5689 129.208 28.7049 129.92 27.6009 130.448C26.5129 130.96 25.3129 131.216 24.0009 131.216ZM24.0009 128.408C25.2009 128.408 26.1609 128.128 26.8809 127.568C27.6009 126.992 27.9609 126.248 27.9609 125.336V119.864C27.9609 118.936 27.6009 118.192 26.8809 117.632C26.1609 117.056 25.2009 116.768 24.0009 116.768C22.8169 116.768 21.8649 117.056 21.1449 117.632C20.4249 118.192 20.0649 118.936 20.0649 119.864V125.336C20.0649 126.248 20.4249 126.992 21.1449 127.568C21.8649 128.128 22.8169 128.408 24.0009 128.408ZM33.3604 131C32.9124 131 32.5524 130.88 32.2804 130.64C32.0244 130.384 31.8964 130.048 31.8964 129.632C31.8964 129.248 31.9924 128.936 32.1844 128.696L42.8884 116.072L42.6724 115.904L41.7604 116.936H34.7524C34.0004 116.936 33.4244 116.704 33.0244 116.24C32.6404 115.776 32.4484 115.096 32.4484 114.2H45.2404C45.7204 114.2 46.0804 114.32 46.3204 114.56C46.5764 114.784 46.7044 115.12 46.7044 115.568C46.7044 115.952 46.6084 116.264 46.4164 116.504L35.8084 129.104L36.0244 129.296L36.9364 128.264H44.4964C45.2324 128.264 45.7924 128.496 46.1764 128.96C46.5764 129.424 46.7764 130.104 46.7764 131H33.3604ZM55.4139 131.216C53.9899 131.216 52.7179 130.944 51.5979 130.4C50.4939 129.856 49.6299 129.096 49.0059 128.12C48.3819 127.144 48.0699 126.032 48.0699 124.784V120.368C48.0699 119.12 48.3739 118.016 48.9819 117.056C49.6059 116.08 50.4619 115.328 51.5499 114.8C52.6379 114.256 53.8859 113.984 55.2939 113.984C56.7019 113.984 57.9499 114.2 59.0379 114.632C60.1419 115.048 60.9979 115.632 61.6059 116.384C62.2139 117.136 62.5179 118 62.5179 118.976C62.5179 119.568 62.3179 120.032 61.9179 120.368C61.5339 120.704 61.0139 120.872 60.3579 120.872C60.0379 120.872 59.6859 120.824 59.3019 120.728C59.3339 120.344 59.3499 119.968 59.3499 119.6C59.3499 118.752 58.9739 118.064 58.2219 117.536C57.4699 117.008 56.4939 116.744 55.2939 116.744C54.1099 116.744 53.1419 117.08 52.3899 117.752C51.6539 118.424 51.2859 119.296 51.2859 120.368V124.784C51.2859 125.856 51.6699 126.736 52.4379 127.424C53.2059 128.112 54.1979 128.456 55.4139 128.456C56.5979 128.456 57.5579 128.184 58.2939 127.64C59.0459 127.08 59.4219 126.36 59.4219 125.48V124.736H57.3579C56.7499 124.736 56.2539 124.504 55.8699 124.04C55.4859 123.56 55.2939 122.944 55.2939 122.192H61.1259C61.5739 122.192 61.9339 122.328 62.2059 122.6C62.4779 122.872 62.6139 123.232 62.6139 123.68V125.552C62.6139 126.656 62.3099 127.64 61.7019 128.504C61.0939 129.352 60.2379 130.016 59.1339 130.496C58.0459 130.976 56.8059 131.216 55.4139 131.216ZM66.6825 131.216C65.9945 131.136 65.4505 130.896 65.0505 130.496C64.6665 130.096 64.4745 129.592 64.4745 128.984C64.4745 128.52 64.5865 128.04 64.8105 127.544L70.3065 115.04C70.6105 114.336 71.1385 113.984 71.8905 113.984C72.6265 113.984 73.1465 114.336 73.4505 115.04L78.9465 127.544C79.1705 128.072 79.2825 128.552 79.2825 128.984C79.2825 129.592 79.0825 130.096 78.6825 130.496C78.2985 130.896 77.7545 131.136 77.0505 131.216L75.0345 126.656H68.7225L66.6825 131.216ZM74.0505 123.92L71.4105 117.344L71.1225 117.464L71.6985 118.952L69.6825 123.92H74.0505ZM83.3231 131.216C82.6351 131.136 82.0911 130.896 81.6911 130.496C81.3071 130.096 81.1151 129.592 81.1151 128.984C81.1151 128.52 81.2271 128.04 81.4511 127.544L86.9471 115.04C87.2511 114.336 87.7791 113.984 88.5311 113.984C89.2671 113.984 89.7871 114.336 90.0911 115.04L95.5871 127.544C95.8111 128.072 95.9231 128.552 95.9231 128.984C95.9231 129.592 95.7231 130.096 95.3231 130.496C94.9391 130.896 94.3951 131.136 93.6911 131.216L91.6751 126.656H85.3631L83.3231 131.216ZM90.6911 123.92L88.0511 117.344L87.7631 117.464L88.3391 118.952L86.3231 123.92H90.6911ZM98.2598 115.664C98.2598 115.248 98.4118 114.904 98.7158 114.632C99.0198 114.344 99.4038 114.2 99.8678 114.2H106.276C108.004 114.2 109.34 114.656 110.284 115.568C111.244 116.48 111.724 117.76 111.724 119.408C111.724 120.352 111.532 121.152 111.148 121.808C110.764 122.448 110.18 122.96 109.396 123.344V123.416C110.804 124.04 111.508 125.224 111.508 126.968V128.84C111.508 129.608 111.236 130.2 110.692 130.616C110.148 131.016 109.348 131.216 108.292 131.216V127.112C108.292 126.264 108.124 125.64 107.788 125.24C107.452 124.84 106.94 124.64 106.252 124.64H101.428V128.84C101.428 129.624 101.156 130.216 100.612 130.616C100.084 131.016 99.2998 131.216 98.2598 131.216V115.664ZM106.108 121.904C106.876 121.904 107.468 121.688 107.884 121.256C108.3 120.808 108.508 120.184 108.508 119.384C108.508 117.752 107.708 116.936 106.108 116.936H101.428V121.904H106.108ZM127.102 131.216C125.662 131.216 124.406 131.04 123.334 130.688C122.262 130.336 121.438 129.84 120.862 129.2C120.302 128.544 120.022 127.784 120.022 126.92C120.022 125.608 120.91 124.952 122.686 124.952C122.75 126.168 123.158 127.088 123.91 127.712C124.678 128.336 125.75 128.648 127.126 128.648C128.262 128.648 129.142 128.456 129.766 128.072C130.39 127.672 130.702 127.12 130.702 126.416C130.702 125.952 130.582 125.576 130.342 125.288C130.102 124.984 129.694 124.72 129.118 124.496C128.542 124.256 127.702 124.016 126.598 123.776C125.03 123.408 123.79 123 122.878 122.552C121.982 122.104 121.334 121.568 120.934 120.944C120.534 120.304 120.334 119.512 120.334 118.568C120.334 117.656 120.598 116.856 121.126 116.168C121.67 115.48 122.43 114.944 123.406 114.56C124.398 114.176 125.534 113.984 126.814 113.984C128.046 113.984 129.142 114.152 130.102 114.488C131.078 114.808 131.838 115.264 132.382 115.856C132.942 116.448 133.222 117.128 133.222 117.896C133.222 119.08 132.366 119.696 130.654 119.744C130.558 118.64 130.206 117.832 129.598 117.32C128.99 116.808 128.062 116.552 126.814 116.552C125.742 116.552 124.918 116.728 124.342 117.08C123.766 117.432 123.478 117.928 123.478 118.568C123.478 119.016 123.59 119.392 123.814 119.696C124.038 119.984 124.414 120.24 124.942 120.464C125.47 120.672 126.222 120.888 127.198 121.112C128.846 121.48 130.15 121.896 131.11 122.36C132.07 122.808 132.766 123.36 133.198 124.016C133.63 124.656 133.846 125.448 133.846 126.392C133.846 127.368 133.566 128.224 133.006 128.96C132.462 129.68 131.678 130.24 130.654 130.64C129.646 131.024 128.462 131.216 127.102 131.216ZM136.158 115.664C136.158 115.264 136.31 114.92 136.614 114.632C136.934 114.344 137.318 114.2 137.766 114.2H148.47C148.47 115.16 148.302 115.864 147.966 116.312C147.646 116.744 147.118 116.96 146.382 116.96H139.374V121.136H145.758C145.758 122.096 145.59 122.8 145.254 123.248C144.934 123.68 144.406 123.896 143.67 123.896H139.374V128.24H146.886C147.606 128.24 148.126 128.464 148.446 128.912C148.782 129.344 148.95 130.04 148.95 131H137.766C137.318 131 136.934 130.864 136.614 130.592C136.31 130.304 136.158 129.952 136.158 129.536V115.664ZM156.315 116.984H150.531C150.531 115.128 151.371 114.2 153.051 114.2H165.315C165.315 116.056 164.467 116.984 162.771 116.984H159.531V128.84C159.531 129.608 159.259 130.2 158.715 130.616C158.171 131.016 157.371 131.216 156.315 131.216V116.984ZM174.337 131.216C172.993 131.216 171.777 130.944 170.689 130.4C169.617 129.856 168.777 129.104 168.169 128.144C167.561 127.184 167.257 126.096 167.257 124.88V116.36C167.257 115.592 167.529 115.008 168.073 114.608C168.617 114.192 169.417 113.984 170.473 113.984V124.88C170.473 125.952 170.825 126.808 171.529 127.448C172.233 128.088 173.169 128.408 174.337 128.408C175.505 128.408 176.441 128.088 177.145 127.448C177.849 126.808 178.201 125.952 178.201 124.88V116.36C178.201 115.576 178.473 114.984 179.017 114.584C179.561 114.184 180.361 113.984 181.417 113.984V124.88C181.417 126.096 181.113 127.184 180.505 128.144C179.897 129.104 179.049 129.856 177.961 130.4C176.889 130.944 175.681 131.216 174.337 131.216Z" fill="#3C3C3E"/>
</g>
</g>
<defs>
<filter id="filter0_d_2164_987" x="1.41602" y="113.984" width="181.001" height="18.2319" filterUnits="userSpaceOnUse" color-interpolation-filters="sRGB">
<feFlood flood-opacity="0" result="BackgroundImageFix"/>
<feColorMatrix in="SourceAlpha" type="matrix" values="0 0 0 0 0 0 0 0 0 0 0 0 0 0 0 0 0 0 127 0" result="hardAlpha"/>
<feOffset dx="1" dy="1"/>
<feComposite in2="hardAlpha" operator="out"/>
<feColorMatrix type="matrix" values="0 0 0 0 1 0 0 0 0 1 0 0 0 0 1 0 0 0 1 0"/>
<feBlend mode="normal" in2="BackgroundImageFix" result="effect1_dropShadow_2164_987"/>
<feBlend mode="normal" in="SourceGraphic" in2="effect1_dropShadow_2164_987" result="shape"/>
</filter>
</defs>
</svg>
