<svg width="87" height="92" viewBox="0 0 87 92" fill="none" xmlns="http://www.w3.org/2000/svg">
<path d="M51.386 45.8665C51.386 45.8665 62.6843 40.8499 67.7394 35.4592C72.7937 30.0684 63.0824 30.3023 63.0824 30.3023L50.0768 37.4134L51.386 45.8665Z" fill="#BF482A"/>
<path d="M63.0817 25.5438C63.0817 25.5438 57.8341 23.6127 54.2659 24.0779C50.6982 24.5431 49.8062 27.7634 51.9617 29.423C54.1179 31.0817 63.0817 25.5438 63.0817 25.5438Z" fill="#BF482A"/>
<path d="M40.4657 31.0643C49.8355 29.315 52.9137 28.0301 54.5362 27.5787C56.1586 27.1273 57.4505 25.7858 58.0535 24.5365C58.6565 23.2872 60.663 30.3342 60.663 30.3342C60.663 30.3342 62.1892 37.5149 61.0842 36.7408C59.9792 35.9668 58.2571 35.5779 56.635 36.0292C55.013 36.4806 51.709 36.8565 42.7375 40.2105C33.766 43.5641 24.9932 45.5669 24.9932 45.5669L20.1859 41.596L21.9469 35.8809C21.9458 35.8805 31.0958 32.8136 40.4657 31.0643Z" fill="#697D8C"/>
<path d="M72.6965 20.2467C73.0022 20.4814 72.9039 20.991 72.5382 21.092C71.3686 21.4155 69.4378 21.9503 69.4378 21.9503C68.7656 22.1372 68.2387 22.6895 68.0557 23.3995L66.996 27.507C66.8125 28.2169 67.0016 28.9759 67.4904 29.4989L70.3213 32.5243C70.8106 33.047 71.5256 33.254 72.1978 33.0671C72.1978 33.0671 74.1261 32.5281 75.2952 32.2012C75.6686 32.0969 75.9803 32.5013 75.8187 32.8726C74.5802 35.7174 72.1311 37.9432 68.97 38.6443C64.2009 39.7021 59.3511 36.7735 57.791 31.8877C55.9688 26.1797 59.1099 20.131 64.5208 18.6256C67.4514 17.8101 70.4201 18.5016 72.6965 20.2467Z" fill="#8FABBC"/>
<path d="M71.0612 33.3831C70.3889 33.5701 69.6735 33.3635 69.1847 32.8409L66.3537 29.8154C65.8645 29.2928 65.6759 28.5335 65.8594 27.8235L66.9186 23.716C67.1017 23.0065 67.6285 22.4537 68.3008 22.2668C68.3008 22.2668 68.787 22.1323 69.4195 21.9571C68.7562 22.149 68.237 22.6968 68.0557 23.3996L66.996 27.5071C66.8126 28.217 67.0016 28.976 67.4904 29.499L70.3214 32.5244C70.8059 33.0424 71.5123 33.2486 72.179 33.0709C71.547 33.2474 71.0612 33.3831 71.0612 33.3831Z" fill="#697D8C"/>
<path d="M71.5596 20.5631C69.4329 18.9329 66.702 18.2229 63.9625 18.8013C64.1464 18.7376 64.332 18.678 64.5215 18.6257C67.4516 17.8105 70.4203 18.502 72.6967 20.2471C73.0024 20.4818 72.9041 20.9914 72.5384 21.0924C72.204 21.185 71.8072 21.2949 71.4116 21.4042C71.7678 21.2961 71.8623 20.7953 71.5596 20.5631Z" fill="#697D8C"/>
<path d="M68.879 38.6619C71.5334 37.744 73.5844 35.711 74.6821 33.1885C74.8421 32.821 74.5376 32.422 74.1689 32.5159C74.5649 32.4052 74.9614 32.2946 75.2954 32.2007C75.6687 32.0964 75.9804 32.5008 75.8188 32.8721C74.5803 35.7169 72.1312 37.9427 68.9701 38.6438C68.9402 38.6509 68.9094 38.6556 68.879 38.6619Z" fill="#697D8C"/>
<path d="M26.0834 40.6384C26.9081 45.2229 24.3243 49.8161 20.1259 51.2406C17.5062 52.1291 14.8147 51.6593 12.6918 50.2285C12.2484 49.9296 12.3588 49.2122 12.8672 49.071L15.5919 48.3128C16.1133 48.1678 16.5243 47.7433 16.6744 47.1947L17.7876 43.1232C17.9445 42.5495 17.7909 41.9309 17.3878 41.513L14.5273 38.5472C14.142 38.1478 13.587 37.9919 13.0651 38.1373L10.3404 38.8954C9.83245 39.0367 9.4029 38.4696 9.64995 37.9793C10.7641 35.7661 12.7132 34.0319 15.1853 33.3442C20.0907 31.9796 25.1181 35.2724 26.0834 40.6384Z" fill="#8FABBC"/>
<path d="M19.1471 51.3571C23.3454 49.9331 25.9292 45.3394 25.1045 40.7549C24.2549 36.0327 20.26 32.9176 15.9702 33.1677C20.6152 32.3392 25.169 35.5582 26.0832 40.6385C26.9079 45.2229 24.3241 49.8161 20.1258 51.2406C19.3874 51.4912 18.6435 51.6299 17.9082 51.6735C18.3212 51.5994 18.7349 51.4971 19.1471 51.3571Z" fill="#A5C6D6"/>
<path d="M12.0862 38.2541C12.3032 38.1938 12.5257 38.1883 12.7399 38.2281L10.3402 38.8958C10.1921 38.9368 10.0536 38.9129 9.93323 38.8534L12.0862 38.2541Z" fill="#A5C6D6"/>
<path d="M26.8759 39.6074L26.9349 39.8446C27.1598 40.7498 28.0727 41.2879 28.9279 41.0503L55.0618 33.7795C55.9171 33.5414 56.4333 32.6061 56.2083 31.7004L56.1493 31.4632C55.9244 30.5575 55.0409 30.0115 54.1852 30.2495L28.0514 37.5203C27.1958 37.7584 26.651 38.7017 26.8759 39.6074Z" fill="#8FABBC"/>
<path d="M62.8302 20.9826C62.8302 20.9826 59.4566 22.5068 58.3982 27.0297C57.3393 31.5529 59.8372 35.054 62.56 36.1181C64.5716 36.7945 63.6248 34.228 61.753 31.203C59.8821 28.1784 60.5971 23.3605 62.8302 20.9826Z" fill="#A5C6D6"/>
<path d="M51.9418 25.7467C51.9418 25.7467 50.097 26.75 48.2268 27.926C46.3571 29.102 45.8336 28.8308 45.8774 29.2503C45.9211 29.6702 47.916 29.371 48.8585 28.9037C47.0595 30.2075 46.5466 33.1562 46.9744 33.6906C47.4021 34.2249 47.5513 33.6499 47.8366 32.888C48.1219 32.1261 48.5468 30.9221 49.4326 30.2075C48.6017 31.7623 47.6942 33.8813 48.2331 34.4831C48.6112 34.9055 48.9803 34.3611 49.0573 33.8587C49.231 32.7258 50.1654 31.4254 50.559 30.7662C50.1269 32.3306 49.652 33.7505 49.9383 34.2765C50.1384 34.6436 50.5912 34.5116 50.8106 33.9969C51.03 33.4823 51.4669 31.7179 51.8504 30.9334C51.5862 32.3512 51.5232 33.2246 52.1458 33.59C52.7686 33.9559 52.8238 33.4781 52.7972 32.2644C52.7575 30.4158 54.1097 29.4196 54.6797 28.6464C55.2493 27.8732 54.0879 25.5263 51.9418 25.7467Z" fill="#FFBC8A"/>
<path d="M35.3967 37.6132C35.3967 37.6132 27.0689 40.7719 25.4494 42.7953C24.464 46.0454 32.774 64.5942 26.4988 73.5416C40.7861 76.7853 55.4121 71.4771 55.4121 71.4771C53.9008 70.0026 49.3049 64.8513 49.1803 61.7881C48.8381 53.3803 53.7956 43.263 50.1253 41.1826C46.8399 38.3211 43.2525 37.8278 43.2525 37.8278L35.3967 37.6132Z" fill="#BF482A"/>
<path d="M24.2397 43.6771C24.2397 43.6771 27.3306 40.1832 31.9242 39.0453C31.9377 43.9068 42.3907 51.854 44.693 52.859C45.6847 56.4118 46.2053 65.9812 45.9344 69.5199C45.6635 73.0589 42.2723 76.0704 38.2788 76.6993C34.2857 77.3283 27.3335 76.1013 24.8056 74.5916C26.7013 69.3861 27.6949 65.5223 26.6113 60.6912C25.5282 55.8601 24.2397 43.6771 24.2397 43.6771Z" fill="#EF8630"/>
<path d="M45.9346 67.6659C45.6637 71.2045 42.2726 74.2161 38.279 74.8454C34.5472 75.4334 28.2321 74.3996 25.3577 73.0296C25.6194 72.2661 25.858 71.5265 26.0669 70.8066C29.1718 72.0197 34.8277 72.8638 38.2785 72.3197C42.2716 71.6908 45.6632 68.6793 45.9341 65.1402C45.9447 65.0006 45.9539 64.8491 45.962 64.6906C45.9784 65.1961 45.9899 65.6851 45.9972 66.1547C45.9875 66.73 45.9673 67.2425 45.9346 67.6659Z" fill="#FFBA1F"/>
<path d="M43.034 51.8808C43.7447 52.3568 44.3245 52.6975 44.6931 52.8585C45.1468 54.4841 45.5014 57.3695 45.7275 60.3602C42.9147 61.1796 40.1284 62.3349 37.9069 62.8508C33.45 64.1449 28.5413 62.4652 26.3083 59.1807C25.8613 56.7537 25.4037 53.4259 25.0327 50.4751C30.6829 52.6741 37.2905 53.343 43.034 51.8808Z" fill="#E8741F"/>
<path d="M44.1952 37.674C44.1952 37.674 49.1106 45.853 43.7972 52.1046C45.9999 61.5414 45.1199 69.9162 45.526 71.6267C45.9321 73.3369 49.0245 75.2772 51.8233 75.1064C54.6223 74.9352 57.1394 72.9243 57.1394 72.9243C57.1394 72.9243 51.6578 56.8849 52.113 48.8029C52.3669 44.2877 52.4388 42.1549 52.7287 37.0031C52.7287 37.0031 48.1238 37.9196 44.1952 37.674Z" fill="#E87A28"/>
<path d="M33.9421 47.4778C30.2767 43.5123 29.5703 41.232 29.6569 39.8302C30.2228 39.5787 30.8237 39.3537 31.456 39.1714C31.3814 40.0628 31.5181 42.4239 34.3198 45.3915C37.9068 49.1897 44.1011 53.161 44.1011 53.161C44.1011 53.161 44.3662 52.2432 44.69 50.8912C46.8066 47.5368 46.4217 43.8383 45.6596 41.2082C45.6577 41.2006 45.6562 41.1922 45.6543 41.1851C45.1457 39.2258 44.7473 38.207 44.4966 37.6903C45.1611 37.7217 45.8405 37.7222 46.5107 37.7012C46.9736 38.6702 47.8262 41.0598 47.5697 45.1757C47.2228 50.7437 44.9432 55.7074 44.9432 55.7074C44.9432 55.7074 38.1045 51.9809 33.9421 47.4778Z" fill="#FFBA1F"/>
<path d="M51.5263 73.4217C48.9868 73.5767 46.2129 71.9938 45.4157 70.4214C45.3921 69.7092 45.3931 68.7687 45.3849 67.642C46.1407 69.2337 48.9541 70.8594 51.5258 70.7021C53.3007 70.5941 54.9591 69.7466 55.9376 69.14C56.204 70.0227 56.4435 70.7873 56.6376 71.3923C55.9906 71.8627 53.8588 73.2794 51.5263 73.4217Z" fill="#FFBA1F"/>
<path d="M52.2333 46.6052C52.1977 47.2841 52.1587 48.0054 52.1135 48.8034C51.9456 51.789 52.5881 55.8604 53.4647 59.8077C51.0087 59.0361 48.0184 59.65 45.0993 60.5484C44.8808 57.9568 44.493 55.0839 43.7977 52.1045C43.958 51.9159 44.1081 51.7253 44.25 51.5333C47.3063 50.5694 50.0652 48.9601 52.2333 46.6052Z" fill="#E06919"/>
<path d="M34.4111 33.3733C34.4111 33.3733 35.2984 37.4381 34.9154 38.8554C39.6855 45.0802 46.591 43.3079 43.3678 37.8605C42.2558 35.6976 42.8919 33.0443 42.8919 33.0443L34.4111 33.3733Z" fill="#FFBC8A"/>
<path d="M38.4199 39.0034C40.2757 39.2343 42.1281 38.4996 43.0615 37.1254C42.3922 35.1402 42.8921 33.0443 42.8921 33.0443L34.3199 32.7451C34.3199 32.7451 34.8459 35.3665 34.9748 37.0483C35.8895 37.9033 36.9446 38.6363 38.4199 39.0034Z" fill="#F4A56E"/>
<path d="M42.9374 42.4789C42.9374 42.4789 40.3128 43.7889 40.0419 46.3249C35.2342 44.1426 33.5685 39.4023 33.6224 38.3223C33.6767 37.2423 35.0393 36.045 35.0393 36.045C35.0393 36.045 36.3957 40.6441 42.9374 42.4789Z" fill="#BF482A"/>
<path d="M42.9532 36.9175C42.9532 36.9175 45.2891 38.0973 46.0003 39.5125C46.7114 40.9282 46.4742 43.9654 46.0003 44.7026C44.4091 42.7563 42.9373 42.4785 42.9373 42.4785C42.9373 42.4785 44.1382 39.218 42.9532 36.9175Z" fill="#BF482A"/>
<path d="M51.1334 40.6735C51.4212 40.3458 51.5954 40.1471 51.5954 40.1471C52.2151 39.2851 53.1667 37.7965 52.9507 37.0484C52.6356 35.9571 52.5723 32.7896 53.8364 31.482C54.7755 30.9121 54.8161 32.1869 54.4509 32.9262C54.0857 33.6655 54.122 35.2048 54.1503 35.5535C54.784 34.0213 54.9277 33.6852 55.2553 33.4639C55.5833 33.2426 57.8853 32.1065 58.3719 32.2163C58.8582 32.3261 58.7029 32.9497 58.1188 33.282C57.5346 33.6144 56.1456 34.435 56.1456 34.435L55.6141 35.9952C55.6141 35.9952 56.4296 34.6914 56.7152 34.5175C57.0018 34.344 59.122 33.0653 59.5715 33.5255C59.7784 33.7371 59.6241 34.1009 59.0694 34.4375C58.5152 34.774 57.5799 35.3645 57.5799 35.3645C57.5799 35.3645 56.5562 36.8409 56.6532 36.9621C56.6532 36.9621 58.5866 35.6721 59.14 35.2685C59.6938 34.8649 60.1283 34.8976 60.1441 35.3154C60.1595 35.7333 59.6707 35.9851 58.9505 36.5799C58.2308 37.1741 57.2879 37.5894 57.2609 38.6179C57.234 39.6468 57.0022 40.8676 55.4357 41.6492C55.3515 41.6932 55.2685 41.7468 55.1851 41.8072C55.0406 42.7832 54.7776 43.8909 54.4278 45.0505L51.1334 40.6735Z" fill="#FFBC8A"/>
<path d="M39.0943 51.4761C39.0586 51.4671 39.0301 51.4509 39.0232 51.447C39.0098 51.4396 38.9959 51.431 38.9828 51.4225C38.9562 51.4053 38.9232 51.3824 38.8854 51.3553C38.8092 51.3006 38.7055 51.2232 38.5787 51.1268C38.3248 50.9336 37.9731 50.6601 37.5529 50.3313C37.1847 50.0431 36.7651 49.7134 36.3119 49.3573C35.7271 48.8978 35.0864 48.3943 34.428 47.8795C33.2618 46.9676 32.0482 46.0267 31.016 45.2508C29.9792 44.4713 29.1376 43.8678 28.7092 43.6229C27.3946 42.8713 26.3997 42.6045 25.6498 42.8177C24.9122 43.0273 24.312 43.7336 23.8804 45.1827C22.7488 48.9833 25.179 53.3325 29.6799 56.2021L29.6835 56.2048C32.0498 57.7803 33.8657 58.5504 35.4665 58.9074C37.0678 59.2645 38.4695 59.212 40.0271 59.1191C42.4682 58.9734 46.961 57.2663 49.9539 52.6284C50.5801 51.6579 51.2104 50.7364 51.8068 49.8644C52.6632 48.612 53.4501 47.4617 54.0543 46.4156C54.5645 45.5327 54.9331 44.7426 55.0974 44.0492C55.2556 43.3832 55.2214 42.823 54.9626 42.3574C53.8828 41.8844 53.1041 41.2096 52.5939 40.6511C52.3337 40.3659 52.1421 40.1098 52.0152 39.9242C51.9821 39.8758 51.9533 39.8321 51.9289 39.7939C51.5995 39.9652 51.1988 40.2332 50.7412 40.5818C50.1991 40.9948 49.5875 41.513 48.9349 42.0991C47.6299 43.2711 46.1694 44.7069 44.7858 46.099C44.1153 46.7736 43.461 47.44 42.8519 48.0602C42.2079 48.7161 41.6145 49.3203 41.1063 49.8282C40.6108 50.3234 40.1908 50.7325 39.8774 51.0145C39.7214 51.1549 39.5873 51.2678 39.4812 51.3448C39.4288 51.3828 39.3767 51.4168 39.3278 51.4409C39.3034 51.453 39.2734 51.4658 39.24 51.4743C39.209 51.4821 39.1554 51.4914 39.0943 51.4761Z" fill="#BF482A"/>
<path d="M39.0943 51.4761L39.144 51.3149M39.0943 51.4761C39.0586 51.4671 39.0301 51.4509 39.0232 51.447C39.0098 51.4396 38.9959 51.431 38.9828 51.4225C38.9562 51.4053 38.9232 51.3824 38.8854 51.3553C38.8092 51.3006 38.7055 51.2232 38.5787 51.1268C38.3248 50.9336 37.9731 50.6601 37.5529 50.3313C37.1847 50.0431 36.7651 49.7134 36.3119 49.3573C35.7271 48.8978 35.0864 48.3943 34.428 47.8795C33.2618 46.9676 32.0482 46.0267 31.016 45.2508C29.9792 44.4713 29.1376 43.8678 28.7092 43.6229C27.3946 42.8713 26.3997 42.6045 25.6498 42.8177C24.9122 43.0273 24.312 43.7336 23.8804 45.1827C22.7488 48.9833 25.179 53.3325 29.6799 56.2021L29.6835 56.2048C32.0498 57.7803 33.8657 58.5504 35.4665 58.9074C37.0678 59.2645 38.4695 59.212 40.0271 59.1191C42.4682 58.9734 46.961 57.2663 49.9539 52.6284C50.5801 51.6579 51.2104 50.7364 51.8068 49.8644C52.6632 48.612 53.4501 47.4617 54.0543 46.4156C54.5645 45.5327 54.9331 44.7426 55.0974 44.0492C55.2556 43.3832 55.2214 42.823 54.9626 42.3574C53.8828 41.8844 53.1041 41.2096 52.5939 40.6511C52.3337 40.3659 52.1421 40.1098 52.0152 39.9242C51.9821 39.8758 51.9533 39.8321 51.9289 39.7939C51.5995 39.9652 51.1988 40.2332 50.7412 40.5818C50.1991 40.9948 49.5875 41.513 48.9349 42.0991C47.6299 43.2711 46.1694 44.7069 44.7858 46.099C44.1153 46.7736 43.461 47.44 42.8519 48.0602C42.2079 48.7161 41.6145 49.3203 41.1063 49.8282C40.6108 50.3234 40.1908 50.7325 39.8774 51.0145C39.7214 51.1549 39.5873 51.2678 39.4812 51.3448C39.4288 51.3828 39.3767 51.4168 39.3278 51.4409C39.3034 51.453 39.2734 51.4658 39.24 51.4743C39.209 51.4821 39.1554 51.4914 39.0943 51.4761Z" stroke="#D64B28"/>
<path d="M39.5978 50.8565C39.5978 50.8565 36.9005 53.5596 38.9483 57.1282C36.5199 55.6237 35.8603 52.3095 39.5978 50.8565Z" fill="#BF482A"/>
<path d="M44.4088 24.6964C44.4088 24.6964 44.2399 26.8987 44.7475 28.2809C42.6483 28.0705 40.8877 23.7652 40.8877 23.7652C40.8877 23.7652 43.7313 22.8558 44.4088 24.6964Z" fill="#823F1D"/>
<path d="M41.8201 22.6332C41.8201 22.6332 43.7505 24.1851 43.8987 25.6507C44.0474 27.1162 45.1853 27.9787 45.5813 29.4443C45.9773 30.9098 45.6308 33.8845 45.1357 34.9192C44.6406 35.954 37.4643 36.5575 34.9401 33.4105C33.1584 31.4274 32.02 28.4099 32.02 26.8149C32.02 25.2198 39.692 22.4178 41.8201 22.6332Z" fill="#FFBC8A"/>
<path d="M41.8203 22.6332C41.8203 22.6332 43.271 23.8012 43.753 25.0673C40.5914 23.9571 36.416 25.439 35.4878 27.8643C34.0275 30.9174 35.7048 33.9684 38.7236 35.459C37.22 35.1284 35.8064 34.4901 34.9408 33.4105C33.1591 31.4274 32.0206 28.4099 32.0206 26.8149C32.0206 25.2198 39.6921 22.4178 41.8203 22.6332Z" fill="#F9AE7A"/>
<path d="M45.7214 30.3023C45.7214 30.3023 44.695 30.0487 42.1185 30.6954C39.5419 31.342 37.8324 32.6223 37.7828 32.619C37.2627 31.86 36.0204 31.7502 35.6023 31.6873C35.1841 31.6245 33.9404 30.3245 33.7676 28.4591C33.2234 29.2482 32.814 29.7327 32.814 29.7327C32.814 29.7327 34.0096 30.7574 34.3195 31.8382C34.6293 32.9191 34.7597 33.2304 35.3294 34.142C35.8991 35.0539 37.9435 35.8954 39.1512 36.1976C40.3589 36.4998 42.9441 36.2156 44.0055 36.0446C45.067 35.8736 45.6559 34.9353 45.7204 34.142C45.7858 33.349 45.8094 30.9397 45.7214 30.3023Z" fill="#823F1D"/>
<path d="M28.8236 30.246C28.8236 30.246 29.5829 31.4618 31.1726 30.518C31.1712 28.837 30.7309 27.8639 30.7309 27.8639L28.8236 30.246Z" fill="#EF8630"/>
<path d="M35.0393 25.3557C35.0393 25.3557 34.9185 26.89 34.1121 27.6355C33.3057 28.3811 34.1121 30.596 34.1121 30.596C34.1121 30.596 32.1947 29.3592 31.5254 30.2209C32.4998 31.0553 33.2826 31.0821 33.2826 31.0821L34.6298 32.919C34.6298 32.919 34.637 34.0736 34.7564 35.2521C33.209 34.2705 30.1825 31.8612 29.992 28.5005C29.8015 25.1394 35.0393 25.3557 35.0393 25.3557Z" fill="#823F1D"/>
<path d="M33.7526 30.2208C33.7526 30.2208 32.0205 28.9275 31.5254 30.2208C31.0303 31.5141 32.5647 32.7211 33.7526 33.066C34.9406 33.4109 35.0392 32.3762 35.0392 32.1607C35.0392 31.9449 33.7526 30.2208 33.7526 30.2208Z" fill="#F9AE7A"/>
<path d="M33.4963 32.3173C33.4963 32.3173 32.2381 31.7276 32.0206 31.285C31.8036 30.8429 32.063 30.2331 32.2434 30.135C32.4238 30.037 33.53 30.3417 33.4059 30.5969C33.2817 30.8525 33.2255 31.3391 33.5978 31.3907C33.9703 31.4422 34.0718 31.5503 33.9929 31.7175C33.914 31.8848 33.5074 31.855 33.3044 31.7079C33.1013 31.5604 33.1028 31.0101 32.9776 30.7641C32.8526 30.5185 32.4465 30.5382 32.3112 30.6363C32.1756 30.7348 32.3613 31.6136 33.4963 32.3173Z" fill="#EA8E50"/>
<path d="M28.8237 30.246C28.8237 30.246 35.238 24.1177 39.54 23.5963C43.8419 23.075 44.3312 23.3633 44.3312 23.3633C44.3312 23.3633 43.3016 19.0626 38.4824 17.9839C33.6631 16.9051 28.6428 20.2755 27.6045 24.7601C27.0247 27.2667 28.8237 30.246 28.8237 30.246Z" fill="#FFBA1F"/>
<path d="M27.6048 24.7602C28.1586 22.368 29.8461 20.2935 32.031 19.0413C33.1372 20.1405 33.0178 22.0566 32.4726 23.2443C31.6865 25.1273 29.9153 26.6276 27.7093 27.4851C27.4971 26.6218 27.396 25.6612 27.6048 24.7602Z" fill="#FFCB27"/>
<path d="M31.0784 28.281C31.0784 28.281 33.3846 24.8394 38.0098 22.969C42.6351 21.099 45.8497 21.7788 46.3386 22.6215C46.8274 23.4648 44.4087 24.6965 44.4087 24.6965C44.4087 24.6965 43.3863 23.637 40.5917 23.9874C37.7967 24.3382 33.5144 26.4223 31.0784 28.281Z" fill="#F7A500"/>
<path d="M38.0053 23.5293C35.2358 24.6491 33.2986 26.3317 32.1896 27.5018C31.7907 27.7626 31.4159 28.0236 31.0791 28.281C31.0791 28.281 33.3852 24.8394 38.0106 22.969C42.6359 21.099 45.8505 21.7788 46.3393 22.6215C46.438 22.7913 46.4148 22.977 46.3205 23.1651C45.7985 22.3303 42.5993 21.6719 38.0053 23.5293Z" fill="#FFDA24"/>
<path d="M29.5071 21.1053C29.5071 21.1053 32.9998 18.7165 35.7082 19.8962C38.4166 21.076 38.7327 22.2054 38.7327 22.2054L41.227 21.1937C41.227 21.1937 40.602 18.5551 37.8753 17.6809C35.1481 16.8063 31.3865 17.6746 29.5071 21.1053Z" fill="#FFDA24"/>
<path d="M29.5071 21.1053C29.5071 21.1053 30.3587 19.5719 32.5932 19.1293C34.8277 18.6872 37.1978 18.7165 39.0262 21.6652C39.9067 21.6062 41.227 21.1933 41.227 21.1933V21.5315L38.7327 22.205C38.7327 22.205 37.525 19.9214 34.4067 19.8158C31.2898 19.7106 29.5071 21.1053 29.5071 21.1053Z" fill="#F7A500"/>
<path d="M39.3414 26.5668C39.3414 26.5668 37.4687 27.0681 36.9269 27.6582C36.8254 26.8321 38.4378 25.6033 39.3414 26.5668Z" fill="#823F1D"/>
<path d="M41.9373 26.1147C41.8926 25.37 43.5049 25.1365 44.0058 26.2127C43.9745 26.1972 43.363 25.7899 41.9373 26.1147Z" fill="#823F1D"/>
<path d="M44.0116 26.2256C44.0102 26.2208 44.0079 26.2176 44.0061 26.2128C44.007 26.2133 44.0088 26.2149 44.0088 26.2149L44.0116 26.2256Z" fill="#540F0A"/>
<path d="M41.9079 26.2228C41.9079 26.2228 41.8646 27.3342 41.9079 27.5416C41.9512 27.7495 44.0615 29.0323 44.3146 29.4661C44.5677 29.8999 41.8665 30.6408 41.5711 30.6949C41.993 30.2791 42.964 29.8274 43.2594 29.5021C43.5549 29.1769 41.8665 28.2189 41.5711 27.7311C41.2756 27.2437 41.9079 26.2228 41.9079 26.2228Z" fill="#F79E61"/>
<path d="M44.195 31.3906C44.195 31.3906 41.7681 32.4941 40.0413 32.0515C41.8359 33.3201 43.7784 32.1747 44.195 31.3906Z" fill="#FFF5F3"/>
<path d="M38.7601 28.2969C38.7601 28.6116 38.9358 28.8668 39.1523 28.8668C39.3688 28.8668 39.5444 28.6116 39.5444 28.2969C39.5444 27.9821 39.3688 27.7264 39.1523 27.7264C38.9353 27.7264 38.7601 27.9821 38.7601 28.2969Z" fill="#823F1D"/>
<path d="M42.9784 27.3237C42.9784 27.6225 43.1448 27.8643 43.3503 27.8643C43.5558 27.8643 43.7222 27.6221 43.7222 27.3237C43.7222 27.0253 43.5558 26.7831 43.3503 26.7831C43.1448 26.7831 42.9784 27.0249 42.9784 27.3237Z" fill="#823F1D"/>
<ellipse cx="43.5" cy="46" rx="42.5" ry="45" stroke="#F1FAEE" stroke-width="2"/>
<path d="M81.8807 46C81.8807 68.7293 64.8024 87.0248 43.8899 87.0248C22.9774 87.0248 5.89905 68.7293 5.89905 46C5.89905 23.2708 22.9774 4.97522 43.8899 4.97522C64.8024 4.97522 81.8807 23.2708 81.8807 46Z" stroke="#F1FAEE" stroke-width="2"/>
</svg>
