<svg width="135" height="180" viewBox="0 0 135 180" fill="none" xmlns="http://www.w3.org/2000/svg">
<path d="M51.0019 165.733C50.6862 162.579 53.2624 159.798 56.1046 158.738C58.9474 157.678 62.0479 157.853 65.0558 157.619C67.3075 157.444 69.6894 156.956 71.3153 155.309C73.2955 153.303 74.1349 149.676 76.843 149.177C78.108 148.944 79.3613 149.534 80.6268 149.763C88.9029 151.263 94.3429 137.855 102.681 138.909C103.484 139.011 104.305 139.273 104.886 139.865C105.596 140.588 105.834 141.664 106.115 142.66C108.246 150.224 114.948 156.122 122.405 156.996C125.244 157.328 129.009 157.685 129.56 160.632C129.713 161.445 129.545 162.306 129.758 163.104C130.027 164.11 130.844 164.832 131.619 165.487L133.459 167.044C136.555 169.664 134.692 174.932 130.72 174.772C129.082 174.707 127.442 174.582 125.817 174.463C102.74 172.769 79.5716 172.455 56.4612 173.522C55.0847 173.585 53.6515 173.643 52.3899 173.06C51.4638 172.632 50.6796 171.877 49.706 171.588C47.9747 171.073 45.7341 172.022 44.6065 170.42C44.0133 169.578 44.0767 168.416 44.6772 167.578C45.8814 165.899 47.8279 165.756 49.6359 165.661L51.0019 165.733Z" fill="#7F4924"/>
<path d="M14.4679 141.178C13.3646 145.375 12.5407 149.652 12.0031 153.969C10.1708 153.596 8.34575 153.183 6.53003 152.729C6.77672 146.563 6.91966 140.392 6.95774 134.221L14.4679 141.178Z" fill="#F2E8D1"/>
<path d="M12.7267 143.446C12.1897 146.196 11.6279 148.941 11.0407 151.68C10.874 152.458 10.7051 153.235 10.5346 154.012C10.4915 154.209 10.2034 154.125 10.247 153.929C10.848 151.193 11.4242 148.452 11.9755 145.705C12.1323 144.925 12.2863 144.144 12.4391 143.364C12.4778 143.165 12.7653 143.249 12.7267 143.446Z" fill="#87795B"/>
<path d="M10.9722 142.854C10.3977 145.739 9.94236 148.651 9.61068 151.578C9.5163 152.412 9.43241 153.246 9.35791 154.081C9.34025 154.28 9.04167 154.282 9.05988 154.081C9.32479 151.118 9.71222 148.167 10.2233 145.24C10.3673 144.415 10.5213 143.591 10.6846 142.77C10.7238 142.573 11.0114 142.657 10.9722 142.854Z" fill="#87795B"/>
<path d="M8.84852 143.876C8.71552 146.548 8.58252 149.22 8.45007 151.893C8.41199 152.656 8.37389 153.42 8.33636 154.184C8.32643 154.384 8.02787 154.386 8.03836 154.184C8.17136 151.511 8.30436 148.839 8.43681 146.166C8.47489 145.403 8.51297 144.639 8.5505 143.876C8.56043 143.675 8.85846 143.674 8.84852 143.876Z" fill="#87795B"/>
<path d="M7.31089 151.739C7.83629 151.169 8.37771 150.588 9.06095 150.253C9.74419 149.917 10.6112 149.875 11.2106 150.356C11.5908 150.661 11.8149 151.129 12.0174 151.584C12.8762 153.516 13.5704 155.53 14.0892 157.591C14.1676 157.903 14.241 158.24 14.1328 158.541C14.0307 158.825 13.7862 159.022 13.544 159.187C11.4655 160.603 8.64868 160.724 6.46706 159.49C6.17069 159.322 5.86936 159.112 5.73856 158.786C5.60997 158.467 5.67123 158.103 5.73415 157.763C6.03934 156.118 6.34454 154.474 6.64973 152.829L7.31089 151.739Z" fill="#EC8117"/>
<mask id="mask0_2131_4805" style="mask-type:luminance" maskUnits="userSpaceOnUse" x="5" y="149" width="10" height="12">
<path d="M7.31089 151.739C7.83629 151.169 8.37771 150.588 9.06095 150.253C9.74419 149.917 10.6112 149.875 11.2106 150.356C11.5908 150.661 11.8149 151.129 12.0174 151.584C12.8762 153.516 13.5704 155.53 14.0892 157.591C14.1676 157.903 14.241 158.24 14.1328 158.541C14.0307 158.825 13.7862 159.022 13.544 159.187C11.4655 160.603 8.64868 160.724 6.46706 159.49C6.17069 159.322 5.86936 159.112 5.73856 158.786C5.60997 158.467 5.67123 158.103 5.73415 157.763C6.03934 156.118 6.34454 154.474 6.64973 152.829L7.31089 151.739Z" fill="white"/>
</mask>
<g mask="url(#mask0_2131_4805)">
<path d="M5.43342 156.417C6.83191 158.277 9.17191 159.304 11.4126 159.042C12.0699 158.965 12.73 158.778 13.2736 158.383C14.2719 157.657 14.7791 156.313 15.847 155.706C16.3448 156.513 16.2852 157.615 15.8255 158.446C15.3658 159.277 14.5595 159.852 13.6936 160.161C12.9662 160.42 12.193 160.508 11.4247 160.52C10.5704 160.534 9.71773 160.457 8.86727 160.373C7.94396 160.283 6.99305 160.177 6.17736 159.712C5.36222 159.248 4.70878 158.329 4.81143 157.36L5.43342 156.417Z" fill="#210A0A"/>
</g>
<mask id="mask1_2131_4805" style="mask-type:luminance" maskUnits="userSpaceOnUse" x="5" y="149" width="10" height="12">
<path d="M7.31089 151.739C7.83629 151.169 8.37771 150.588 9.06095 150.253C9.74419 149.917 10.6112 149.875 11.2106 150.356C11.5908 150.661 11.8149 151.129 12.0174 151.584C12.8762 153.516 13.5704 155.53 14.0892 157.591C14.1676 157.903 14.241 158.24 14.1328 158.541C14.0307 158.825 13.7862 159.022 13.544 159.187C11.4655 160.603 8.64868 160.724 6.46706 159.49C6.17069 159.322 5.86936 159.112 5.73856 158.786C5.60997 158.467 5.67123 158.103 5.73415 157.763C6.03934 156.118 6.34454 154.474 6.64973 152.829L7.31089 151.739Z" fill="white"/>
</mask>
<g mask="url(#mask1_2131_4805)">
<path d="M6.15197 153.931C7.2403 153.057 7.94009 151.592 9.24421 151.153C10.0671 150.876 10.9821 151.084 11.7432 151.513C12.5048 151.942 13.1411 152.575 13.7675 153.201C13.4943 152.487 13.1897 151.787 12.8547 151.103C12.4645 150.306 12.0108 149.504 11.3088 148.995C9.80107 147.903 7.75852 148.503 6.03055 149.14C5.37877 149.381 4.71208 149.63 4.1806 150.094C3.64913 150.558 3.27385 151.289 3.40464 152.002L6.15197 153.931Z" fill="#4B89AF"/>
</g>
<path d="M8.48144 155.157C9.45056 154.531 10.6603 154.385 11.7503 154.707C12.0616 154.799 12.359 154.935 12.6394 155.104C12.8712 155.244 13.0511 154.851 12.8204 154.712C11.7359 154.059 10.3921 153.936 9.20553 154.333C8.86888 154.446 8.54658 154.604 8.24525 154.799C8.01842 154.945 8.25462 155.303 8.48144 155.157Z" fill="#1C1C1B"/>
<path d="M8.2822 154.359C9.24029 153.716 10.4401 153.545 11.5301 153.876C11.6377 153.908 11.753 153.812 11.7729 153.703C11.7961 153.579 11.7172 153.48 11.609 153.448C10.4142 153.086 9.09237 153.299 8.04599 154.001C7.82137 154.152 8.05703 154.51 8.2822 154.359Z" fill="#1C1C1B"/>
<path d="M8.48972 152.942C9.26678 152.375 10.3049 152.235 11.189 152.596C11.2933 152.639 11.4142 152.607 11.4661 152.495C11.5119 152.396 11.4749 152.247 11.37 152.204C10.3463 151.786 9.1586 151.923 8.2535 152.583C8.03495 152.744 8.27006 153.102 8.48972 152.942Z" fill="#1C1C1B"/>
<path d="M7.79711 158.628C8.30374 157.881 9.04879 157.345 9.89208 157.11C10.7199 156.88 11.6101 156.993 12.3778 157.384C12.8099 157.604 13.2056 157.911 13.5224 158.291C13.5964 158.379 13.7112 158.419 13.8105 158.346C13.8944 158.285 13.9369 158.132 13.8629 158.043C13.2299 157.283 12.3546 156.766 11.4037 156.608C10.4523 156.451 9.47928 156.669 8.65917 157.196C8.19999 157.49 7.7949 157.883 7.48253 158.343C7.4174 158.439 7.41465 158.569 7.50516 158.65C7.58408 158.722 7.73198 158.723 7.79711 158.628Z" fill="#1C1C1B"/>
<path d="M62.5844 144.405L84.4078 135.548L88.2048 145.889C89.4725 149.342 89.2192 153.229 87.5061 156.596L84.4807 162.544C83.5855 164.304 81.5843 165.088 79.8117 164.373L73.3446 161.765C70.0565 160.438 67.4995 157.791 66.2688 154.439L62.5844 144.405Z" fill="#C2B38C"/>
<path d="M69.084 121.916C69.2496 126.916 69.6502 131.906 70.2844 136.864C68.5763 137.743 66.8687 138.621 65.1606 139.5C63.0574 133.294 62.4933 126.647 61.9453 120.085L69.084 121.916Z" fill="#F2E8D1"/>
<path d="M68.6022 124.288C68.1127 127.622 67.9289 131.004 68.0531 134.375C68.0884 135.334 68.1491 136.292 68.2341 137.248C68.254 137.471 67.924 137.482 67.9041 137.261C67.6039 133.87 67.6149 130.453 67.9361 127.065C68.0266 126.109 68.1419 125.157 68.281 124.208C68.3136 123.987 68.6348 124.068 68.6022 124.288Z" fill="#87795B"/>
<path d="M66.2208 124.799C66.1297 128.332 66.2881 131.872 66.6971 135.381C66.8113 136.361 66.9454 137.34 67.0983 138.315C67.1325 138.535 66.8025 138.545 66.7683 138.327C66.2213 134.839 65.9206 131.31 65.872 127.775C65.8582 126.787 65.8648 125.799 65.8902 124.811C65.8968 124.589 66.2268 124.575 66.2208 124.799Z" fill="#87795B"/>
<path d="M63.548 125.398C64.1402 128.918 64.7324 132.439 65.3251 135.959C65.4907 136.943 65.6562 137.928 65.8218 138.912C65.8372 139.005 65.8063 139.098 65.7136 139.13C65.6374 139.156 65.5221 139.108 65.5066 139.016C64.9145 135.495 64.3223 131.975 63.7296 128.454C63.564 127.47 63.3984 126.486 63.2329 125.501C63.2174 125.409 63.2483 125.316 63.341 125.284C63.4172 125.258 63.5325 125.305 63.548 125.398Z" fill="#87795B"/>
<path d="M63.9641 135.576C64.9415 136.374 66.5354 136.119 67.2445 135.054C67.84 134.159 67.967 132.751 68.9615 132.439C69.8798 132.151 70.6856 133.069 71.4317 133.701C72.445 134.559 73.7221 134.983 74.9727 135.36C76.2238 135.737 77.5075 136.098 78.587 136.861C79.6665 137.626 80.5501 139.095 80.4888 140.461C77.5086 140.741 67.5602 142.834 65.5044 142.653L63.9641 135.576Z" fill="#EC8117"/>
<mask id="mask2_2131_4805" style="mask-type:luminance" maskUnits="userSpaceOnUse" x="63" y="132" width="18" height="11">
<path d="M63.9641 135.576C64.9415 136.374 66.5354 136.119 67.2445 135.054C67.84 134.159 67.967 132.751 68.9615 132.439C69.8798 132.151 70.6856 133.069 71.4317 133.701C72.445 134.559 73.7221 134.983 74.9727 135.36C76.2238 135.737 77.5075 136.098 78.587 136.861C79.6665 137.626 80.5501 139.095 80.4888 140.461C77.5086 140.741 67.5602 142.834 65.5044 142.653L63.9641 135.576Z" fill="white"/>
</mask>
<g mask="url(#mask2_2131_4805)">
<path d="M61.3564 142.129L62.3956 144.805L81.4629 142.015L80.5048 139.327C74.1222 140.261 67.7396 141.194 61.3564 142.129C67.7925 141.187 74.2292 140.245 80.6654 139.304L61.3564 142.129Z" fill="#210A0A"/>
</g>
<mask id="mask3_2131_4805" style="mask-type:luminance" maskUnits="userSpaceOnUse" x="63" y="132" width="18" height="11">
<path d="M63.9641 135.576C64.9415 136.374 66.5354 136.119 67.2445 135.054C67.84 134.159 67.967 132.751 68.9615 132.439C69.8798 132.151 70.6856 133.069 71.4317 133.701C72.445 134.559 73.7221 134.983 74.9727 135.36C76.2238 135.737 77.5075 136.098 78.587 136.861C79.6665 137.626 80.5501 139.095 80.4888 140.461C77.5086 140.741 67.5602 142.834 65.5044 142.653L63.9641 135.576Z" fill="white"/>
</mask>
<g mask="url(#mask3_2131_4805)">
<path d="M69.8991 132.065C68.9741 134.084 67.7937 136.324 65.7191 136.842C65.2737 136.952 64.798 136.972 64.3637 136.818C63.4757 136.505 62.9508 135.566 62.5049 134.7C65.3377 133.693 67.574 131.058 70.5377 130.634L69.8991 132.065Z" fill="#4B89AF"/>
</g>
<path d="M76.4032 135.484C75.6603 135.5 74.9721 136.206 74.9953 136.992C74.9986 137.109 74.9384 137.219 74.8198 137.236C74.7188 137.251 74.5908 137.169 74.5874 137.052C74.5582 136.039 75.3639 135.077 76.3469 135.055C76.4583 135.053 76.5627 135.114 76.5792 135.24C76.593 135.345 76.5152 135.482 76.4032 135.484Z" fill="#1C1C1B"/>
<path d="M74.5312 134.759C73.8055 135.16 73.306 135.952 73.2155 136.805C73.1862 137.082 72.7773 137.026 72.8065 136.749C72.9136 135.739 73.5152 134.833 74.3678 134.361C74.4661 134.307 74.5969 134.373 74.6388 134.474C74.6857 134.588 74.63 134.704 74.5312 134.759Z" fill="#1C1C1B"/>
<path d="M73.1779 134.06C72.3181 134.575 71.6983 135.51 71.5233 136.531C71.4764 136.805 71.0675 136.751 71.1144 136.475C71.3169 135.291 72.0223 134.256 73.0146 133.662C73.1111 133.604 73.2447 133.676 73.2855 133.775C73.3335 133.893 73.2751 134.002 73.1779 134.06Z" fill="#1C1C1B"/>
<path d="M77.9904 137.033C77.1907 137.737 76.7304 138.8 76.726 139.895C76.7254 140.012 76.5952 140.095 76.4947 140.082C76.3728 140.065 76.3165 139.956 76.317 139.838C76.322 138.636 76.8601 137.463 77.7354 136.693C77.939 136.513 78.1935 136.854 77.9904 137.033Z" fill="#1C1C1B"/>
<path d="M68.6927 141.577C68.2192 140.488 67.2716 139.675 66.1827 139.346C65.8759 139.253 65.5541 139.208 65.2351 139.2C65.1236 139.197 65.0442 139.064 65.0574 138.957C65.0729 138.83 65.1772 138.767 65.2887 138.77C66.5277 138.8 67.7269 139.451 68.5089 140.455C68.7341 140.744 68.9234 141.066 69.0708 141.405C69.1817 141.66 68.8031 141.831 68.6927 141.577Z" fill="#1C1C1B"/>
<path d="M69.1077 136.191C68.3108 135.703 67.1242 136.374 67.0718 137.342C67.0188 138.31 68.1242 139.118 68.9692 138.73C69.8141 138.341 69.9996 136.939 69.2876 136.323L69.1077 136.191Z" fill="#4B89AF"/>
<path d="M50.0515 26.4807C46.4647 24.5752 42.7047 23.0307 38.8393 21.8755C35.8651 20.9866 32.7597 20.324 29.6917 20.729C25.882 21.2321 24.3268 20.4053 19.9039 23.6399C15.3972 26.9356 11.0119 33.5929 9.10121 39.0034C7.19056 44.4139 7.66739 50.9975 11.3005 55.3242C11.6134 55.6967 11.9661 56.0634 12.4164 56.2136C12.9208 56.3819 13.4661 56.2543 13.981 56.126C15.9739 55.6294 17.9668 55.1333 19.9591 54.6366C21.1308 54.3448 22.3394 54.0349 23.3002 53.2725C24.2611 52.5101 24.9134 51.1658 24.5387 49.963C29.488 50.5316 34.9225 58.7544 39.9017 58.8153C41.3333 58.8327 44.526 50.9645 44.5166 50.9308C45.1893 53.2992 44.9973 55.6381 45.6706 58.0065C49.1574 57.1344 53.0527 58.1986 56.6311 58.4109C57.8591 48.8954 57.3662 37.6892 52.5929 29.5018C51.7055 27.9794 50.6889 25.8645 49.1574 26.6362L50.0515 26.4807Z" fill="#277AAE"/>
<path d="M5.87932 99.812C7.21821 84.5419 7.43676 69.0688 10.8198 54.1527C10.9838 53.4304 11.1637 52.6894 11.5837 52.0924C12.0732 51.3962 12.832 50.9749 13.576 50.6053C16.6451 49.0817 19.9398 48.0373 22.8328 46.1719C30.5626 41.1879 33.4722 29.3069 30.2878 20.4053L34.518 20.8097C35.8668 23.4856 35.432 34.7551 35.0948 36.7806C35.0909 36.8032 42.4448 38.1679 42.5944 38.1957C45.6745 34.823 47.8042 30.1795 49.5168 25.8639C49.5714 25.7264 52.3176 28.0763 52.2089 28.2898C51.2668 30.1383 50.4914 31.3765 49.4892 33.2013C46.9957 37.7414 45.0558 42.5926 43.7594 47.6544C42.8091 51.3648 41.6749 55.6566 41.3637 58.2282C40.9647 61.5214 42.2484 64.7526 43.4752 67.8115C47.3578 77.4918 67.2159 92.6405 67.3964 94.9823C67.5763 97.3199 72.2552 129.544 72.2552 131.609C67.7192 131.654 59.8222 135.391 55.2862 135.436C56.7035 125.108 51.056 102.281 51.5792 102.047C51.5792 102.047 28.6012 82.839 27.9803 80.448C26.9279 88.8877 24.3853 105.401 23.3329 113.841C21.8902 125.41 22.3384 131.521 18.9426 145.14C12.2526 144.908 6.61831 144.252 0.201477 142.252C5.67402 116.635 4.54044 115.082 5.87932 99.812Z" fill="#C2B38C"/>
<path d="M54.4506 130.091C55.1079 129.955 55.7647 129.819 56.422 129.682C61.6092 128.607 66.7964 127.532 71.9836 126.457C72.3529 128.114 72.6012 129.801 72.7259 131.497C66.7307 133.125 60.6897 134.563 54.6123 135.808C54.8314 133.979 54.7928 132.116 54.497 130.3L54.4506 130.091Z" fill="#827454"/>
<path d="M56.7559 61.7054C57.0776 59.2355 55.6995 56.8694 53.4594 56.0507C52.5731 55.7263 50.6713 52.9535 46.4405 56.5926C46.1689 56.8259 45.2865 58.4121 46.3759 66.328C46.8936 70.0912 47.8025 73.768 48.7672 77.4327C49.1221 78.7817 51.2011 78.5571 50.6713 79.8411C50.4792 80.3065 50.7888 80.755 50.8639 81.2563C50.9113 81.5748 51.232 80.2119 51.4406 80.4475C52.3992 81.5324 51.2094 85.5429 52.338 86.4294C53.4666 87.3154 54.487 88.6081 54.4247 90.0877C54.3877 90.9661 53.9677 91.8097 54.2624 92.7085C54.3722 93.0421 54.6156 93.3177 54.9357 93.4245C55.4573 93.5991 55.8348 93.2452 56.1284 92.8814C57.1869 91.5701 57.7062 89.7941 57.5313 88.0842C57.4093 86.893 56.9722 85.7668 56.651 84.6169C54.9357 78.484 55.997 67.5348 56.7559 61.7054Z" fill="#F6A472"/>
<path d="M48.9223 23.9876C48.4267 25.1237 47.244 27.2055 46.356 28.7245C45.6855 29.8721 44.4018 30.4518 43.1484 30.1733C41.602 29.8304 39.5887 29.2577 38.4855 28.4344C38.459 28.4146 38.432 28.3937 38.4044 28.3711C37.2548 27.441 36.9347 25.759 37.6052 24.4065C38.539 22.5237 39.9088 19.7271 40.6031 18.135C42.3211 18.9653 44.0055 19.8733 45.649 20.8562L48.9223 23.9876Z" fill="#F6A472"/>
<path d="M55.9148 11.9232C56.0908 14.4987 55.2889 17.1346 53.7237 19.1248C52.1586 21.1149 49.8473 22.4384 47.4079 22.7412C46.6629 22.8335 45.8957 22.8329 45.1772 22.6072C44.4889 22.3914 43.8697 21.9777 43.3162 21.4978C41.24 19.698 40.022 16.8927 39.9568 14.0642C39.8917 11.2356 40.9458 8.42159 42.7301 6.30324C43.8554 4.96701 45.2423 3.90812 46.6176 2.86084L55.9148 11.9232Z" fill="#512C13"/>
<path d="M55.3624 11.524C54.1444 13.8251 53.3767 16.363 52.1956 18.6856C51.0146 21.0082 49.2905 23.1979 46.9168 24.0398C46.0696 24.3403 45.1353 24.454 44.2815 24.1755C43.0574 23.7758 42.1733 22.631 41.638 21.4073C40.7345 19.3424 40.6363 16.9676 40.9757 14.7227C41.3151 12.4779 42.069 10.3288 42.8185 8.19649C43.3808 6.59684 43.9427 4.99778 44.505 3.39813L55.3624 11.524Z" fill="#F6A472"/>
<path d="M41.3266 14.005C41.1732 13.4056 40.9293 12.7088 40.3564 12.5585C39.8001 12.4129 39.2642 12.895 38.9855 13.4219C38.5219 14.2986 38.4695 15.4027 38.8475 16.3235C39.2256 17.2443 40.0253 17.9614 40.9497 18.2086L41.3266 14.005Z" fill="#F6A472"/>
<path d="M52.2292 18.2916C52.8711 17.9243 53.6559 17.5889 54.3049 17.9423C54.8507 18.2393 55.0974 18.9646 54.9986 19.6023C54.8998 20.2399 54.5179 20.7934 54.0726 21.2385C53.1277 22.1825 51.487 22.6762 50.5807 21.691L52.2292 18.2916Z" fill="#F6A472"/>
<path d="M41.2174 14.6141C41.8046 12.4917 42.6457 10.4435 43.7125 8.53755C43.8317 8.32519 43.9619 8.1053 44.1623 7.98287C44.4172 7.82737 44.7279 7.86218 45.0133 7.90802C48.387 8.44704 51.6244 9.81286 54.4114 11.8744C54.4876 11.9306 54.5676 11.9933 54.5969 12.0885C54.6322 12.2022 54.5842 12.3263 54.5373 12.4377C53.6277 14.5903 52.7182 16.7429 51.8087 18.8955C51.9737 18.9796 52.1387 19.0632 52.3043 19.1467C53.0085 17.1798 54.6509 15.7333 55.4584 13.8099C56.5986 11.094 55.7343 7.66318 53.5659 5.91964C51.397 4.1761 48.1557 4.1993 45.8538 5.87032C45.1623 6.3722 44.5524 7.00231 43.8355 7.45894C43.4437 7.70843 43.0149 7.91092 42.6976 8.26427C42.4282 8.56424 42.2616 8.95008 42.0998 9.32722C41.5833 10.5317 41.0214 11.4224 40.5054 12.6269C40.9696 13.0452 41.2858 14.0142 41.2693 14.6745L41.2174 14.6141Z" fill="#512C13"/>
<path d="M56.3927 15.0691C56.0897 14.9989 55.843 14.7732 55.7304 14.4773C55.4545 13.752 54.7867 13.1799 54.136 12.7204C50.4985 10.1495 46.0425 8.84167 41.7069 9.07143C41.4171 9.08651 41.1202 9.10798 40.8399 9.01979C40.2008 8.81845 39.8183 7.99107 40.0838 7.38359C40.3492 6.77611 41.1958 6.54228 41.7571 6.92116C42.6545 4.76683 43.6859 2.45933 45.7224 1.38478C47.0602 0.67866 50.376 0.695484 50.376 0.695484C51.3948 -0.40866 53.0184 -0.136538 53.6928 1.07727C53.8038 1.27744 54.0129 2.27076 54.1216 2.4721C54.3579 2.90842 54.7387 3.24378 55.0621 3.61917C57.0207 5.89303 56.673 9.26174 56.2045 12.1738C56.7939 12.3746 57.2448 12.967 57.2856 13.5924C57.3265 14.2179 56.9534 14.8347 56.3927 15.0691Z" fill="#EC8117"/>
<path d="M56.4237 15.4765C56.6808 15.3454 56.7863 15.0013 56.6417 14.7466C55.0969 12.0248 52.5858 10.0341 49.7921 8.9642C46.8346 7.83163 43.5779 7.68135 40.4161 8.15829C40.2395 8.18498 40.0524 8.21805 39.9486 8.43215C39.8305 8.67526 39.9072 8.96478 40.0971 9.13072C40.4106 9.40574 40.8377 9.34134 41.2296 9.29086C44.1325 8.91431 46.9946 9.65234 49.7463 10.6277C49.8821 10.6758 50.0471 10.7437 50.2325 10.8261C52.1493 11.6767 53.8563 12.9758 55.2437 14.6062L55.8718 15.3436C56.0009 15.5212 56.2283 15.5757 56.4237 15.4765Z" fill="#B26016"/>
<path d="M53.945 2.70013C53.4367 4.69258 52.8302 6.65718 52.1265 8.58232C51.929 9.12308 51.7237 9.66035 51.5112 10.1941C51.4439 10.3642 51.1966 10.2446 51.2639 10.0746C52.0118 8.19532 52.6679 6.27598 53.2248 4.32473C53.3832 3.77004 53.5333 3.21304 53.6757 2.65371C53.7215 2.47791 53.9903 2.52259 53.945 2.70013Z" fill="#B26016"/>
<path d="M50.3037 1.11437C50.01 3.21532 49.499 5.28146 48.7821 7.26694C48.579 7.82975 48.3588 8.38559 48.1231 8.93389C48.0508 9.10158 47.8036 8.98205 47.8759 8.81437C48.7004 6.89503 49.3268 4.88459 49.738 2.8231C49.8539 2.24114 49.9526 1.65629 50.0349 1.06795C50.0608 0.885766 50.329 0.932764 50.3037 1.11437Z" fill="#B26016"/>
<path d="M46.5205 1.46012C46.8219 2.28518 46.7065 3.19785 46.5956 4.05077C46.4681 5.03075 46.2771 6.00202 46.0255 6.95531C45.8836 7.49142 45.723 8.02232 45.5448 8.54625C45.4857 8.71973 45.239 8.59905 45.2975 8.42673C45.6038 7.52856 45.8544 6.61008 46.0465 5.67768C46.2308 4.78183 46.387 3.86161 46.4339 2.94488C46.4576 2.47607 46.4273 2.00087 46.2656 1.55933C46.2026 1.38701 46.4582 1.28779 46.5205 1.46012Z" fill="#B26016"/>
<path d="M55.8352 5.40738C54.955 6.82194 54.2121 8.3305 53.6183 9.90113C53.4494 10.3473 53.2938 10.7981 53.1492 11.2536C53.094 11.4277 52.8473 11.307 52.9019 11.1341C53.4174 9.51065 54.0869 7.94291 54.9015 6.46105C55.1321 6.04098 55.375 5.62845 55.6277 5.22288C55.7227 5.0697 55.9302 5.25479 55.8352 5.40738Z" fill="#B26016"/>
<path d="M55.9424 12.1048C55.4021 11.593 54.8617 11.0807 54.3214 10.569C54.1917 10.446 54.3662 10.2266 54.497 10.3502C55.0373 10.862 55.5775 11.3743 56.1178 11.886C56.247 12.0091 56.0726 12.229 55.9424 12.1048Z" fill="#B26016"/>
<path d="M45.0579 7.18921C44.1291 7.11726 43.1986 7.08361 42.2676 7.08941C42.0937 7.09057 42.0661 6.80569 42.2411 6.80452C43.1959 6.79872 44.1501 6.83296 45.1021 6.90664C45.2765 6.92057 45.2312 7.20255 45.0579 7.18921Z" fill="#B26016"/>
<path d="M53.9158 19.195C53.1928 19.4521 52.5499 19.9133 52.0604 20.529C51.9483 20.6699 51.7397 20.486 51.8523 20.3445C52.3705 19.6929 53.056 19.1985 53.8215 18.9264C53.9876 18.8678 54.0825 19.1359 53.9158 19.195Z" fill="#7F4924"/>
<path d="M52.9991 20.2649C52.8694 20.0949 52.7397 19.9255 52.6106 19.7555C52.5659 19.6969 52.5846 19.5959 52.6442 19.5564C52.7099 19.5123 52.7861 19.5292 52.8336 19.5918C52.9632 19.7618 53.0929 19.9313 53.2221 20.1013C53.2668 20.1599 53.248 20.2608 53.1884 20.3003C53.1227 20.3444 53.0466 20.3275 52.9991 20.2649Z" fill="#7F4924"/>
<path d="M40.3216 15.5808C40.1566 15.0586 39.9921 14.5359 39.8271 14.0137C39.7719 13.839 40.0269 13.7392 40.0821 13.9144C40.2471 14.4366 40.4116 14.9594 40.5766 15.4816C40.6318 15.6557 40.3768 15.7555 40.3216 15.5808Z" fill="#7F4924"/>
<path d="M40.0258 14.945C40.0175 14.9467 40.0092 14.9484 40.0009 14.9496C40.0324 14.9403 39.9822 14.9525 40.0009 14.9496C39.9866 14.9537 39.9717 14.9583 39.9573 14.9635C39.943 14.9688 39.9292 14.9746 39.9154 14.9804C39.9076 14.9838 39.8999 14.9873 39.8928 14.9914C39.8894 14.9931 39.8696 15.0041 39.8856 14.9949C39.9032 14.9844 39.8784 14.9995 39.8745 15.0018C39.8674 15.0065 39.8602 15.0111 39.853 15.0157C39.8403 15.0244 39.8282 15.0332 39.816 15.043C39.8039 15.0523 39.7923 15.0622 39.7807 15.0726C39.7669 15.0813 39.7675 15.0848 39.7807 15.0726C39.7741 15.0767 39.768 15.0848 39.7631 15.0906C39.7421 15.1132 39.7222 15.137 39.7046 15.1625C39.6996 15.1695 39.6946 15.177 39.6897 15.184C39.6786 15.1991 39.6897 15.1863 39.6924 15.1782C39.6869 15.1939 39.6747 15.209 39.6676 15.224C39.6538 15.2525 39.6422 15.2815 39.6317 15.3111C39.6201 15.3436 39.6367 15.2902 39.6317 15.3093C39.6295 15.318 39.6273 15.3262 39.6251 15.3349C39.6212 15.3523 39.6185 15.3691 39.6157 15.3865C39.6047 15.4602 39.5307 15.5205 39.4595 15.5043C39.3867 15.488 39.3353 15.419 39.3475 15.3401C39.3988 14.9931 39.6714 14.7164 39.9982 14.6601C40.0688 14.6479 40.1428 14.7146 40.1466 14.7883C40.1521 14.8701 40.1008 14.9322 40.0258 14.945Z" fill="#7F4924"/>
<path d="M49.0365 13.5554C48.7423 14.5493 48.4272 15.5368 48.0911 16.5162C47.9233 17.0059 47.75 17.4938 47.5718 17.9789C47.4906 18.2 47.4205 18.435 47.3206 18.6473C47.2483 18.8005 47.1093 18.945 46.9338 18.8829C46.8245 18.844 46.7533 18.7378 46.6843 18.6461C46.6126 18.551 46.5452 18.4512 46.4829 18.3491C46.3526 18.1332 46.2439 17.9035 46.1567 17.6644C46.0944 17.4921 46.3493 17.3929 46.4117 17.5652C46.4812 17.7561 46.564 17.9406 46.665 18.1158C46.7114 18.1971 46.761 18.276 46.814 18.3526C46.8587 18.4175 46.9272 18.5527 46.9961 18.5916C47.0298 18.6108 47.0028 18.6137 47.0348 18.5916C47.0557 18.5777 47.0684 18.5371 47.0789 18.5144C47.1236 18.4175 47.1567 18.3125 47.1937 18.2121C47.276 17.9917 47.3571 17.7712 47.4371 17.5501C47.7495 16.6879 48.0453 15.8188 48.3251 14.9438C48.4851 14.4431 48.6397 13.94 48.7892 13.4353C48.8417 13.2606 49.0884 13.3819 49.0365 13.5554Z" fill="#7F4924"/>
<path d="M42.7549 18.3137C43.9415 17.9284 45.2705 18.0566 46.3704 18.6618C47.4703 19.2675 48.3279 20.3427 48.7027 21.5872C49.7877 20.6305 50.8733 19.6743 51.9583 18.7175L52.056 18.5864C52.1476 18.6606 52.2392 18.7349 52.3308 18.8092C51.7552 21.0198 50.1657 22.7662 48.5277 24.2777C47.7291 25.0145 46.8875 25.7317 45.9002 26.1442C44.9128 26.5567 43.7478 26.631 42.8151 26.0966C41.6258 25.4155 41.0755 23.9446 40.7709 22.5573C40.0639 19.3389 40.1942 15.922 41.1434 12.7738C41.5314 14.6636 42.0712 16.5191 42.7549 18.3137ZM43.5861 21.249C43.9376 21.9261 44.6154 22.4152 45.3466 22.4755C46.1154 22.5388 47.839 21.8797 48.0487 21.9649C48.0487 21.9649 46.2004 20.2719 46.0751 19.3522C45.255 19.8274 44.1512 19.6818 43.4674 19.0093C43.2042 19.73 43.2345 20.5719 43.5861 21.249Z" fill="#512C13"/>
<path d="M50.6905 13.1898C50.4438 13.2299 50.2545 13.5043 50.2954 13.7631C50.3202 13.9221 50.4157 14.0578 50.5084 14.1861C51.0514 14.9398 51.594 15.6929 52.137 16.4466C52.3672 16.3056 52.4566 15.9905 52.4201 15.7138C52.3837 15.4364 52.2468 15.1869 52.1122 14.9456C51.7849 14.3578 51.4576 13.7701 51.1304 13.1823C51.0812 13.0941 51.0249 12.9995 50.9339 12.9641C50.8428 12.9287 50.7142 12.9972 50.7275 13.0987L50.6905 13.1898Z" fill="#512C13"/>
<path d="M50.887 12.577C50.5603 12.8317 50.2628 13.1264 50.0062 13.4583C49.9598 13.5181 49.8831 13.5442 49.8174 13.4984C49.7606 13.4589 49.7325 13.3603 49.7788 13.2999C50.0509 12.9477 50.3611 12.6315 50.7077 12.3606C50.7667 12.3147 50.8484 12.313 50.8997 12.3745C50.9455 12.4302 50.9466 12.5306 50.887 12.577Z" fill="#512C13"/>
<path d="M47.611 11.3284C47.7379 11.5547 47.6562 11.8819 47.4399 12.0131C47.3069 12.0937 47.1468 12.1018 46.9934 12.1082C46.0949 12.1448 45.1965 12.1813 44.2985 12.2173C44.2566 11.9411 44.4315 11.6684 44.6584 11.5222C44.8852 11.376 45.1556 11.329 45.4189 11.2855C46.0585 11.1787 46.6987 11.0726 47.3384 10.9658C47.4344 10.9495 47.5398 10.9356 47.6237 10.9873C47.7076 11.0389 47.739 11.1869 47.6557 11.2402L47.611 11.3284Z" fill="#512C13"/>
<path d="M48.2391 11.0558C48.2319 11.2989 48.2247 11.5426 48.2176 11.7857C48.2154 11.8605 48.1508 11.9302 48.0774 11.9244C48.004 11.9186 47.9433 11.8571 47.9455 11.777C47.9527 11.5339 47.9598 11.2902 47.967 11.0471C47.9692 10.9722 48.0338 10.9026 48.1072 10.9084C48.1806 10.9142 48.2413 10.9757 48.2391 11.0558Z" fill="#512C13"/>
<path d="M49.5714 17.1492C49.4042 17.5316 49.5178 17.9615 49.8258 18.1106C50.1338 18.2597 50.5184 18.07 50.6857 17.6882C50.8529 17.3059 50.7392 16.8754 50.4312 16.7268C50.1238 16.5777 49.7386 16.7669 49.5714 17.1492Z" fill="black"/>
<path d="M44.5144 14.797C44.3472 15.1793 44.4608 15.6093 44.7688 15.7584C45.0762 15.9069 45.4614 15.7178 45.6286 15.336C45.7959 14.9536 45.6822 14.5231 45.3742 14.3746C45.0668 14.2255 44.6816 14.4146 44.5144 14.797Z" fill="black"/>
<path d="M42.9923 23.3075C42.9845 23.3284 42.9762 23.3493 42.9674 23.3696C42.9746 23.3533 42.9818 23.3371 42.9889 23.3202C42.947 23.4154 42.8935 23.5042 42.83 23.5848C42.841 23.5709 42.8521 23.557 42.8631 23.5436C42.8145 23.604 42.7616 23.6585 42.7031 23.7084C42.6252 23.7745 42.6203 23.919 42.6904 23.9927C42.7671 24.0739 42.8775 24.0768 42.9608 24.006C43.1413 23.8535 43.2743 23.6498 43.3593 23.4247C43.3764 23.38 43.3664 23.315 43.346 23.2738C43.3239 23.2297 43.2787 23.1868 43.2318 23.174C43.1843 23.1613 43.1313 23.1618 43.0883 23.1879C43.0408 23.2152 43.0127 23.2547 42.9923 23.3075Z" fill="#7F4924"/>
<path d="M42.5198 21.8361C42.3901 22.0368 42.261 22.2376 42.1313 22.4383C42.075 22.5253 42.1032 22.6634 42.1909 22.7162C42.2836 22.7719 42.3946 22.747 42.4547 22.6536C42.5844 22.4528 42.7136 22.2521 42.8433 22.0513C42.8996 21.9643 42.8714 21.8262 42.7837 21.7734C42.6909 21.7177 42.58 21.7426 42.5198 21.8361Z" fill="#7F4924"/>
<path d="M41.8845 20.5388C41.8288 20.6658 41.7736 20.7923 41.7179 20.9194C41.703 20.942 41.6947 20.967 41.6925 20.9942C41.6864 21.0198 41.6864 21.0453 41.693 21.0714C41.7035 21.1195 41.7361 21.1723 41.7775 21.1973C41.8205 21.2234 41.8724 21.2373 41.9221 21.2234C41.9673 21.2106 42.0214 21.1816 42.0418 21.1346C42.097 21.0076 42.1527 20.8811 42.2085 20.754C42.2234 20.7314 42.2317 20.7064 42.2339 20.6792C42.24 20.6536 42.24 20.6281 42.2333 20.602C42.2228 20.5538 42.1903 20.501 42.1489 20.4761C42.1058 20.4506 42.054 20.4361 42.0043 20.45C41.959 20.4627 41.9049 20.4912 41.8845 20.5388Z" fill="#7F4924"/>
<path d="M41.6677 19.5744C41.5606 19.72 41.4541 19.8657 41.3476 20.0113C41.3194 20.0496 41.3128 20.1175 41.3228 20.1633C41.3333 20.2115 41.3658 20.2643 41.4072 20.2892C41.4502 20.3148 41.5021 20.3293 41.5518 20.3153C41.6031 20.3008 41.639 20.2707 41.6716 20.2266C41.7786 20.0809 41.8851 19.9353 41.9916 19.7897C42.0198 19.7514 42.0264 19.6835 42.0165 19.6376C42.006 19.5895 41.9734 19.5367 41.9321 19.5117C41.889 19.4862 41.8371 19.4717 41.7874 19.4856C41.7361 19.5007 41.7003 19.5303 41.6677 19.5744Z" fill="#7F4924"/>
<path d="M41.0115 18.6675C40.98 18.74 40.948 18.8125 40.9165 18.8851C40.9016 18.9077 40.8933 18.9326 40.8911 18.9599C40.8851 18.9854 40.8851 19.011 40.8917 19.0371C40.8967 19.0632 40.9066 19.087 40.9226 19.1067C40.9353 19.1299 40.9535 19.1491 40.9761 19.163C41.0192 19.1885 41.0711 19.203 41.1207 19.1891C41.1362 19.1833 41.1516 19.1775 41.1665 19.1717C41.1969 19.1549 41.2217 19.1311 41.2405 19.1003C41.2719 19.0278 41.304 18.9553 41.3354 18.8827C41.3503 18.8601 41.3586 18.8352 41.3608 18.8079C41.3669 18.7824 41.3669 18.7568 41.3603 18.7307C41.3553 18.7046 41.3454 18.6814 41.3293 18.6611C41.3167 18.6379 41.2984 18.6187 41.2758 18.6054C41.2328 18.5793 41.1809 18.5654 41.1312 18.5793C41.1158 18.5851 41.1003 18.5909 41.0854 18.5967C41.0545 18.6129 41.0302 18.6367 41.0115 18.6675Z" fill="#7F4924"/>
<path d="M41.9299 17.8535C41.9199 17.8871 41.9083 17.9196 41.8945 17.9516C41.9017 17.9353 41.9089 17.9191 41.9161 17.9028C41.8868 17.9695 41.8493 18.031 41.8046 18.0873C41.8156 18.0734 41.8267 18.0595 41.8377 18.0461C41.7941 18.0995 41.7455 18.1465 41.6909 18.1871C41.7047 18.1773 41.718 18.1674 41.7317 18.1575C41.7246 18.1627 41.7168 18.168 41.7091 18.1732C41.665 18.2034 41.6296 18.2388 41.6142 18.2933C41.6009 18.3397 41.6043 18.4018 41.6274 18.4442C41.6523 18.49 41.6915 18.5306 41.7417 18.5439C41.7875 18.5561 41.8443 18.5579 41.8852 18.53C41.99 18.4587 42.075 18.3768 42.1512 18.2724C42.2163 18.1831 42.2649 18.078 42.2969 17.9707C42.3267 17.8703 42.2687 17.7467 42.1688 17.7195C42.0673 17.6922 41.9619 17.7462 41.9299 17.8535Z" fill="#7F4924"/>
<path d="M41.3895 17.5134C41.3934 17.5169 41.3972 17.5209 41.4 17.5256C41.3906 17.5111 41.3812 17.4971 41.3719 17.4826C41.3752 17.4879 41.3779 17.4937 41.3801 17.4995C41.3746 17.4832 41.3691 17.467 41.3636 17.4513C41.3658 17.4571 41.3669 17.4635 41.3674 17.4699C41.3658 17.4531 41.3641 17.4356 41.363 17.4188C41.3636 17.4269 41.3636 17.4351 41.3619 17.4432C41.3647 17.4258 41.3674 17.409 41.3702 17.3915C41.3685 17.4008 41.3658 17.4101 41.3625 17.4188C41.3696 17.4026 41.3768 17.3863 41.384 17.3695C41.3801 17.3788 41.3752 17.3869 41.3691 17.395C41.3801 17.3811 41.3912 17.3672 41.4022 17.3538C41.3972 17.3602 41.3917 17.3654 41.3851 17.3701C41.3989 17.3602 41.4121 17.3504 41.4259 17.3405C41.421 17.344 41.4155 17.3469 41.4099 17.3492C41.4254 17.3434 41.4408 17.3376 41.4557 17.3318C41.4502 17.3335 41.4453 17.3353 41.4392 17.3358C41.4552 17.3341 41.4717 17.3324 41.4877 17.3312C41.4828 17.3318 41.4784 17.3318 41.4734 17.3312C41.448 17.3295 41.4243 17.3341 41.4016 17.3451C41.3774 17.3521 41.3564 17.3649 41.3382 17.384C41.3178 17.402 41.3034 17.424 41.2946 17.4501C41.2819 17.4734 41.2758 17.4989 41.2758 17.5262C41.2775 17.543 41.2791 17.5604 41.2802 17.5772C41.288 17.6114 41.3029 17.6422 41.3255 17.6683C41.3387 17.6799 41.352 17.6915 41.3647 17.7031C41.3939 17.7223 41.4259 17.7327 41.4602 17.7339C41.4635 17.7345 41.4668 17.7345 41.4706 17.7345C41.4877 17.7339 41.506 17.7316 41.5231 17.7292C41.5319 17.7281 41.5347 17.7269 41.538 17.7258C41.554 17.7205 41.5722 17.7136 41.5876 17.7066C41.5959 17.7025 41.5987 17.7008 41.6014 17.6985C41.6175 17.6875 41.6345 17.6764 41.6494 17.6625C41.6522 17.6602 41.6544 17.6579 41.6566 17.655C41.6704 17.6393 41.6837 17.6231 41.6958 17.6056C41.7002 17.5998 41.7035 17.5929 41.7068 17.5865C41.7157 17.5668 41.7295 17.5407 41.735 17.5169C41.7405 17.4937 41.7449 17.4693 41.746 17.4449C41.746 17.4414 41.746 17.438 41.746 17.4345C41.7449 17.4171 41.7433 17.3974 41.7411 17.3799C41.7378 17.3614 41.7328 17.3498 41.7289 17.3388C41.7251 17.3283 41.7217 17.315 41.7162 17.3045C41.7035 17.2836 41.6931 17.2662 41.682 17.2523C41.6793 17.2488 41.6765 17.2459 41.6732 17.2424C41.6561 17.221 41.6351 17.2059 41.6103 17.1966C41.5882 17.1833 41.5639 17.1769 41.538 17.1769C41.5126 17.1751 41.4888 17.1798 41.4662 17.1908C41.4419 17.1978 41.421 17.2105 41.4022 17.2297C41.3912 17.2436 41.3801 17.2575 41.3691 17.2709C41.3509 17.3016 41.3409 17.3353 41.3398 17.3712C41.3415 17.3881 41.3432 17.4055 41.3443 17.4223C41.352 17.4565 41.3669 17.4873 41.3895 17.5134Z" fill="#7F4924"/>
<path d="M41.3001 16.3101C41.2582 16.3554 41.2168 16.4006 41.1748 16.4459C41.1544 16.4639 41.1401 16.4859 41.1312 16.512C41.1185 16.5352 41.1125 16.5608 41.1125 16.588C41.1108 16.6147 41.1152 16.6397 41.1257 16.6635C41.1323 16.689 41.1445 16.7111 41.1627 16.7302C41.1759 16.7418 41.1892 16.7534 41.2019 16.765C41.2311 16.7842 41.2631 16.7946 41.2973 16.7958C41.3133 16.794 41.3299 16.7923 41.3459 16.7911C41.3785 16.783 41.4077 16.7673 41.4325 16.7435C41.4745 16.6983 41.5159 16.653 41.5578 16.6078C41.5783 16.5898 41.5926 16.5677 41.6014 16.5416C41.6141 16.5184 41.6202 16.4929 41.6202 16.4656C41.6219 16.4389 41.6174 16.414 41.607 16.3902C41.6003 16.3647 41.5882 16.3426 41.57 16.3229C41.5567 16.3113 41.5435 16.2997 41.5308 16.2881C41.5015 16.2689 41.4695 16.2585 41.4353 16.2573C41.4193 16.2591 41.4028 16.2608 41.3868 16.262C41.3536 16.2707 41.3249 16.2863 41.3001 16.3101Z" fill="#7F4924"/>
<path d="M41.3266 11.6348C41.3111 11.6963 41.2913 11.7555 41.2664 11.8135C41.2736 11.7973 41.2808 11.781 41.2879 11.7642C41.2504 11.8489 41.203 11.9278 41.1467 12.0003C41.1577 11.9864 41.1687 11.9725 41.1798 11.9591C41.1632 11.9794 41.1467 11.9992 41.129 12.0183C41.0931 12.0578 41.0683 12.1048 41.0666 12.1605C41.065 12.2086 41.0832 12.2678 41.1163 12.3026C41.1516 12.3398 41.1996 12.3688 41.2515 12.3682C41.2995 12.3676 41.3525 12.3537 41.3867 12.316C41.5319 12.1576 41.6406 11.9649 41.6936 11.7514C41.7063 11.7009 41.7035 11.647 41.6803 11.6006C41.6583 11.5565 41.613 11.5129 41.5661 11.5008C41.4684 11.4741 41.3542 11.5257 41.3266 11.6348Z" fill="#7F4924"/>
<path d="M41.4938 10.1476C41.3327 10.3455 41.2085 10.5654 41.1296 10.8131C41.0981 10.9129 41.1588 11.0377 41.2576 11.0644C41.3602 11.0922 41.4624 11.0371 41.4966 10.9303C41.5153 10.8706 41.5374 10.8125 41.5622 10.7551C41.5551 10.7714 41.5479 10.7876 41.5407 10.8044C41.6009 10.6675 41.6776 10.5398 41.7692 10.4232C41.7582 10.4371 41.7471 10.4511 41.7361 10.4644C41.7411 10.458 41.7466 10.4517 41.7515 10.4453C41.7863 10.4023 41.8122 10.3617 41.8139 10.3031C41.8156 10.255 41.7973 10.1958 41.7642 10.161C41.7289 10.1238 41.6809 10.0948 41.629 10.0954C41.5832 10.0954 41.5253 10.1087 41.4938 10.1476Z" fill="#7F4924"/>
<path d="M42.043 10.0102C42.0192 10.0647 41.9955 10.1187 41.9718 10.1732C41.9569 10.1958 41.9486 10.2208 41.9464 10.2481C41.9403 10.2736 41.9403 10.2991 41.9469 10.3252C41.9519 10.3513 41.9618 10.3746 41.9778 10.3949C41.9905 10.4181 42.0087 10.4372 42.0314 10.4511C42.0468 10.4587 42.0623 10.4662 42.0783 10.4738C42.1103 10.4836 42.1429 10.4854 42.176 10.4772C42.1914 10.4714 42.2069 10.4656 42.2218 10.4598C42.2527 10.443 42.277 10.4192 42.2957 10.3885C42.3195 10.3339 42.3432 10.28 42.3669 10.2254C42.3818 10.2028 42.3901 10.1779 42.3923 10.1506C42.3984 10.1251 42.3984 10.0995 42.3917 10.0734C42.3873 10.0473 42.3768 10.0241 42.3608 10.0038C42.3482 9.98059 42.3299 9.96144 42.3073 9.94751C42.2919 9.93997 42.2764 9.93243 42.2604 9.92489C42.2284 9.91503 42.1958 9.91386 42.1627 9.92141C42.1473 9.92721 42.1318 9.93301 42.1169 9.93881C42.086 9.95564 42.0612 9.97943 42.043 10.0102Z" fill="#7F4924"/>
<path d="M48.9647 22.3322C48.8897 22.3647 48.8196 22.4135 48.7583 22.4692C48.7274 22.4976 48.7009 22.5289 48.6744 22.562C48.6474 22.5956 48.6226 22.6299 48.601 22.6682C48.5757 22.7134 48.5652 22.768 48.5762 22.8202C48.5867 22.8683 48.6193 22.9211 48.6606 22.9461C48.7037 22.9722 48.7556 22.9861 48.8052 22.9722C48.8533 22.9583 48.8991 22.9299 48.925 22.8834C48.9416 22.8533 48.9609 22.8248 48.9818 22.7981C48.9708 22.8121 48.9598 22.8254 48.9487 22.8393C48.9835 22.7958 49.0232 22.7575 49.0674 22.725C49.0536 22.7349 49.0403 22.7448 49.0265 22.7546C49.0624 22.7291 49.1005 22.7071 49.1408 22.6896C49.1844 22.6711 49.2225 22.6148 49.2357 22.5695C49.249 22.5231 49.2457 22.461 49.2225 22.4187C49.1976 22.3728 49.1585 22.3322 49.1082 22.3189C49.0917 22.316 49.0757 22.3131 49.0591 22.3102C49.0265 22.3084 48.9945 22.316 48.9647 22.3322Z" fill="#7F4924"/>
<path d="M47.3141 23.1642C47.2826 23.2367 47.2506 23.3093 47.2191 23.3818C47.2042 23.4044 47.196 23.4294 47.1938 23.4566C47.1877 23.4822 47.1877 23.5077 47.1943 23.5338C47.1987 23.5599 47.2092 23.5831 47.2252 23.6034C47.2379 23.6266 47.2561 23.6458 47.2787 23.6597C47.3218 23.6858 47.3737 23.6998 47.4233 23.6858C47.4388 23.68 47.4543 23.6742 47.4692 23.6684C47.5001 23.6516 47.5243 23.6278 47.5431 23.5971C47.5746 23.5245 47.6066 23.452 47.638 23.3795C47.6529 23.3568 47.6612 23.3319 47.6634 23.3046C47.6695 23.2791 47.6695 23.2536 47.6629 23.2275C47.6579 23.2013 47.648 23.1781 47.632 23.1578C47.6193 23.1346 47.6011 23.1155 47.5784 23.1016C47.5354 23.0754 47.4835 23.0615 47.4338 23.0754C47.4184 23.0812 47.4029 23.0871 47.388 23.0929C47.3571 23.1103 47.3328 23.1335 47.3141 23.1642Z" fill="#7F4924"/>
<path d="M46.3511 23.3517C46.3362 23.4097 46.3168 23.466 46.2931 23.5205C46.3003 23.5042 46.3075 23.488 46.3146 23.4712C46.2771 23.5559 46.2297 23.6348 46.1734 23.7067C46.1844 23.6928 46.1954 23.6789 46.2065 23.6655C46.1883 23.6888 46.1689 23.7108 46.1491 23.7323C46.1132 23.7711 46.0884 23.8193 46.0867 23.8744C46.0851 23.9226 46.1033 23.9818 46.1364 24.0166C46.2065 24.0903 46.3317 24.11 46.4068 24.0299C46.5531 23.8733 46.6629 23.6812 46.7175 23.4683C46.7302 23.4184 46.7269 23.3633 46.7043 23.3174C46.6822 23.2733 46.6369 23.2298 46.59 23.2176C46.4918 23.1909 46.3792 23.2426 46.3511 23.3517Z" fill="#7F4924"/>
<path d="M45.2076 23.3968C45.1601 23.5053 45.1126 23.6143 45.0646 23.7228C45.0497 23.7455 45.0414 23.7704 45.0392 23.7977C45.0331 23.8232 45.0331 23.8487 45.0398 23.8749C45.0503 23.923 45.0828 23.9758 45.1242 24.0008C45.1673 24.0263 45.2191 24.0408 45.2688 24.0269C45.3141 24.0141 45.3682 23.9851 45.3886 23.9381C45.436 23.8296 45.4835 23.7205 45.5315 23.612C45.5464 23.5894 45.5547 23.5644 45.5569 23.5372C45.563 23.5116 45.563 23.4861 45.5563 23.46C45.5459 23.4118 45.5133 23.359 45.4719 23.3341C45.4288 23.308 45.377 23.2941 45.3273 23.308C45.282 23.3208 45.228 23.3498 45.2076 23.3968Z" fill="#7F4924"/>
<path d="M50.4598 21.0412C50.4604 21.0597 50.4587 21.0783 50.4559 21.0963C50.4587 21.0795 50.4615 21.0621 50.4642 21.0447C50.4598 21.0708 50.4526 21.0957 50.4422 21.1201C50.4493 21.1038 50.4565 21.0876 50.4637 21.0708C50.4526 21.0963 50.4383 21.1195 50.4212 21.141C50.4322 21.127 50.4433 21.1131 50.4543 21.0998C50.4383 21.1201 50.4195 21.1375 50.3991 21.1526C50.4129 21.1427 50.4261 21.1328 50.4399 21.123C50.4361 21.1253 50.4328 21.1282 50.4289 21.1305C50.4052 21.1421 50.3864 21.159 50.3715 21.181C50.3533 21.2001 50.3406 21.2239 50.3334 21.2506C50.3202 21.297 50.3235 21.3591 50.3467 21.4015C50.3715 21.4473 50.4107 21.4879 50.4609 21.5013C50.5067 21.5135 50.563 21.5146 50.6044 21.4874C50.6386 21.4647 50.6734 21.4404 50.701 21.409C50.7291 21.3771 50.7578 21.3423 50.7777 21.304C50.797 21.2663 50.8152 21.2257 50.8257 21.1839C50.8357 21.1421 50.8428 21.0975 50.8423 21.0545C50.8412 21.0023 50.8268 20.9518 50.7926 20.9124C50.7755 20.8909 50.7545 20.8758 50.7297 20.8665C50.7076 20.8532 50.6833 20.8468 50.6574 20.8468C50.6088 20.8474 50.5575 20.8619 50.5216 20.899C50.4869 20.9362 50.4587 20.9872 50.4598 21.0412Z" fill="#7F4924"/>
<path d="M49.6911 21.3342C49.6933 21.322 49.6961 21.3046 49.6983 21.2878C49.6933 21.3174 49.685 21.3464 49.6734 21.3737C49.6806 21.3574 49.6878 21.3412 49.695 21.3243C49.6823 21.3534 49.6662 21.38 49.6469 21.405C49.658 21.3911 49.669 21.3771 49.68 21.3638C49.6607 21.3882 49.6387 21.4096 49.6138 21.4282C49.6276 21.4183 49.6409 21.4085 49.6547 21.3986C49.6469 21.4044 49.6387 21.4096 49.6304 21.4149C49.5862 21.4415 49.5504 21.4833 49.5355 21.535C49.5222 21.5814 49.5255 21.6435 49.5487 21.6858C49.5735 21.7316 49.6133 21.7723 49.663 21.7856C49.7104 21.7984 49.7634 21.7978 49.8064 21.7717C49.8804 21.727 49.9411 21.6684 49.9897 21.5941C50.0128 21.5582 50.0305 21.517 50.046 21.4769C50.0614 21.4357 50.0675 21.3922 50.0741 21.3481C50.0758 21.3214 50.0713 21.2965 50.0609 21.2727C50.0542 21.2472 50.0421 21.2251 50.0239 21.2054C50.0068 21.1839 49.9858 21.1688 49.961 21.1596C49.9389 21.1462 49.9146 21.1398 49.8887 21.1398C49.8401 21.1404 49.7888 21.1549 49.7529 21.1921C49.7419 21.206 49.7308 21.2199 49.7198 21.2332C49.7021 21.2646 49.6922 21.2982 49.6911 21.3342Z" fill="#7F4924"/>
<path d="M53.987 16.1779C53.8926 16.3091 53.7977 16.4396 53.7033 16.5708C53.6752 16.6096 53.6685 16.6764 53.6785 16.7228C53.689 16.7709 53.7215 16.8237 53.7629 16.8487C53.806 16.8742 53.8584 16.8887 53.9075 16.8748C53.9588 16.8603 53.9947 16.8307 54.0273 16.786C54.1216 16.6549 54.2166 16.5243 54.3109 16.3932C54.3391 16.3543 54.3457 16.2876 54.3358 16.2412C54.3253 16.193 54.2927 16.1402 54.2513 16.1153C54.2083 16.0892 54.1564 16.0753 54.1067 16.0892C54.0554 16.1037 54.0195 16.1333 53.987 16.1779Z" fill="#7F4924"/>
<path d="M54.3104 14.7152C54.2767 14.7303 54.2464 14.7535 54.2182 14.7767C54.1884 14.8011 54.1641 14.833 54.1415 14.8643C54.1183 14.8951 54.104 14.9316 54.0896 14.9676C54.0747 15.0042 54.0703 15.0419 54.0642 15.0813C54.0626 15.108 54.067 15.133 54.0775 15.1568C54.0841 15.1823 54.0963 15.2043 54.1145 15.2241C54.1316 15.2455 54.1526 15.2606 54.1774 15.2699C54.1995 15.2833 54.2238 15.2896 54.2497 15.2896C54.2983 15.2891 54.3496 15.2746 54.3849 15.2374C54.3959 15.2235 54.407 15.2096 54.418 15.1962C54.4362 15.1655 54.4462 15.1318 54.4473 15.0958C54.445 15.1092 54.4423 15.1266 54.4395 15.1434C54.4434 15.122 54.4495 15.1011 54.4577 15.0813C54.4506 15.0976 54.4434 15.1138 54.4362 15.1307C54.4456 15.1098 54.4572 15.0906 54.4715 15.0726C54.4605 15.0866 54.4495 15.1005 54.4384 15.1138C54.4528 15.0964 54.4688 15.0808 54.4864 15.0674C54.4726 15.0773 54.4594 15.0871 54.4456 15.097C54.4588 15.0877 54.4727 15.0796 54.487 15.0732C54.5107 15.0616 54.5295 15.0448 54.5444 15.0227C54.5626 15.003 54.5753 14.9798 54.5825 14.9531C54.5908 14.9276 54.5924 14.9021 54.588 14.8759C54.5874 14.8498 54.5814 14.8249 54.5687 14.8017C54.5438 14.7558 54.5047 14.7152 54.4544 14.7019C54.4379 14.699 54.4219 14.6961 54.4053 14.6932C54.3717 14.692 54.3402 14.699 54.3104 14.7152Z" fill="#7F4924"/>
<path d="M54.556 15.2054C54.5246 15.278 54.4926 15.3505 54.4611 15.423C54.4462 15.4457 54.4379 15.4706 54.4357 15.4979C54.4296 15.5234 54.4296 15.5489 54.4363 15.575C54.4412 15.6012 54.4512 15.6249 54.4672 15.6447C54.4799 15.6679 54.4981 15.687 54.5207 15.7009C54.5637 15.7265 54.6156 15.741 54.6653 15.7271C54.6807 15.7213 54.6962 15.7154 54.7111 15.7091C54.742 15.6922 54.7663 15.6685 54.785 15.6377C54.8165 15.5652 54.8485 15.4926 54.88 15.4201C54.8949 15.3969 54.9032 15.372 54.9054 15.3453C54.9114 15.3197 54.9114 15.2942 54.9048 15.2681C54.9004 15.242 54.8899 15.2188 54.8739 15.1985C54.8612 15.1753 54.843 15.1561 54.8204 15.1422C54.7773 15.1161 54.7254 15.1022 54.6758 15.1161C54.6603 15.1219 54.6449 15.1277 54.63 15.1335C54.5991 15.1509 54.5742 15.1747 54.556 15.2054Z" fill="#7F4924"/>
<path d="M43.777 22.2462C43.7274 22.3095 43.6771 22.3727 43.6275 22.4366C43.6126 22.4592 43.6043 22.4841 43.6021 22.5114C43.596 22.5369 43.596 22.5625 43.6026 22.5886C43.6076 22.6147 43.6175 22.6385 43.6335 22.6582C43.6462 22.6814 43.6644 22.7006 43.6871 22.7145C43.7301 22.74 43.782 22.7545 43.8317 22.7406C43.8471 22.7348 43.8626 22.729 43.8775 22.7232C43.9078 22.7064 43.9327 22.6826 43.9509 22.6518C44.0005 22.5886 44.0508 22.5253 44.1004 22.4615C44.1153 22.4389 44.1236 22.4139 44.1258 22.3867C44.1319 22.3611 44.1319 22.3356 44.1253 22.3095C44.1203 22.2834 44.1104 22.2596 44.0944 22.2399C44.0817 22.2167 44.0635 22.1975 44.0408 22.1836C43.9978 22.1575 43.9459 22.1435 43.8962 22.1575C43.8808 22.1633 43.8653 22.1691 43.8504 22.1749C43.8195 22.1917 43.7952 22.2155 43.777 22.2462Z" fill="#7F4924"/>
<path d="M45.1021 20.2707C45.3229 20.7372 45.8759 20.9977 46.3527 20.8474C46.4488 20.8173 46.5255 20.7169 46.4973 20.6066C46.4719 20.5074 46.3709 20.4227 46.2683 20.4546C46.2214 20.4691 46.1745 20.4784 46.1259 20.486C46.0983 20.49 46.17 20.4842 46.1215 20.486C46.1115 20.486 46.1011 20.4865 46.0911 20.4871C46.068 20.4877 46.0453 20.4865 46.0221 20.4854C46.0095 20.4842 45.9968 20.4836 45.9841 20.4819C45.9791 20.4813 45.9361 20.4755 45.9631 20.4796C45.9874 20.4831 45.9543 20.4778 45.9499 20.4767C45.9372 20.4738 45.925 20.4709 45.9123 20.468C45.8649 20.4558 45.8202 20.4372 45.7738 20.4192C45.7473 20.4088 45.8036 20.4355 45.7782 20.4216C45.7666 20.4152 45.755 20.4094 45.744 20.403C45.7236 20.3914 45.7037 20.3792 45.6844 20.3664C45.6651 20.3537 45.6458 20.3397 45.6275 20.3252C45.6275 20.3252 45.5878 20.2933 45.611 20.3125C45.6336 20.331 45.6005 20.3026 45.5961 20.298C45.5624 20.2655 45.531 20.2301 45.5028 20.1918C45.5028 20.1918 45.4741 20.1506 45.4901 20.1744C45.5061 20.1982 45.4791 20.1552 45.4791 20.1552C45.4658 20.132 45.4537 20.1088 45.4421 20.0845C45.3974 19.9899 45.2727 19.9452 45.1838 19.9986C45.0922 20.0543 45.0541 20.1697 45.1021 20.2707Z" fill="#7F4924"/>
<path d="M74.8606 146.17L76.5012 145.478L49.8275 75.5901L48.1869 76.2822L74.8606 146.17Z" fill="#32627A"/>
<path d="M40.3316 65.1576L48.0752 61.8905C48.9135 61.5365 49.8661 61.9647 50.2022 62.8461L51.5427 66.3581C52.1939 68.0639 52.0918 69.9955 51.2629 71.6792L50.8766 72.4637C50.5609 73.1048 50.1221 73.6409 49.6067 74.0552L51.7944 79.7865L49.4113 80.792L47.2082 75.0201C46.5746 75.0723 45.9217 74.9859 45.2909 74.7416L44.2644 74.3436C42.6236 73.7076 41.3377 72.4115 40.7058 70.7555L39.4232 67.3949C39.0865 66.5124 39.4933 65.511 40.3316 65.1576ZM42.8526 70.1318C43.2439 71.1565 44.0398 71.9589 45.0552 72.3529L45.6905 72.5989C47.0161 73.1123 48.4979 72.5084 49.148 71.1895L49.387 70.7039C49.9003 69.6618 49.9632 68.466 49.5603 67.4106L48.7308 65.2371C48.5228 64.6917 47.9333 64.4266 47.414 64.6459L42.6208 66.6679C42.1021 66.8867 41.8504 67.5063 42.0585 68.0523L42.8526 70.1318Z" fill="black"/>
<path d="M51.4942 74.9435C50.1983 75.396 49.3076 76.7601 48.9582 78.1846C48.6094 79.6084 48.7104 81.1042 48.8147 82.5663C48.8429 82.9626 48.8738 83.3693 49.0338 83.7244C49.1939 84.0801 49.5156 84.3772 49.8826 84.3702C50.3628 84.3615 50.7072 83.8764 50.9743 83.4401C51.4241 82.7056 51.8739 81.9704 52.3237 81.2359C52.6062 80.7746 52.8965 80.2896 52.9545 79.7424C53.1051 78.3186 51.6548 76.9934 52.1432 75.6566L51.4942 74.9435Z" fill="#F6A472"/>
<path d="M8.46155 45.1287C8.64753 49.7014 10.1807 54.2038 12.7977 57.8615C12.9832 58.1208 13.2061 58.3964 13.5124 58.4376C13.7768 58.473 14.0285 58.3222 14.2558 58.1754C17.5148 56.0767 20.639 53.7484 23.6021 51.2105C22.8339 44.8862 23.6374 38.3582 25.9118 32.4482L8.46155 45.1287Z" fill="#277AAE"/>
<path d="M22.0072 49.4426C22.771 49.9759 30.7133 55.684 34.2713 57.3875C36.6991 58.5502 39.2339 58.176 41.6622 59.3387C43.6976 60.3135 45.744 62.9291 46.8307 65.0242C46.9775 65.3074 47.0266 65.6404 46.9515 65.9532C46.6596 67.167 44.8924 66.7306 43.8963 66.0216C44.8213 66.2404 45.4178 67.5221 44.8704 68.3361C44.3229 69.1495 42.7953 68.7655 42.7919 67.7692L43.0309 68.6239C43.2417 69.3776 42.5033 70.0599 41.8322 69.7141C41.5485 69.5679 41.2974 69.3538 41.1131 69.0828L41.4072 70.4463C40.947 71.0022 40.0331 70.7596 39.5579 70.2177C39.0821 69.6758 34.4402 67.4513 34.0627 66.8299C32.8596 64.849 16.5142 61.8192 14.4424 59.8192C12.4887 57.9329 9.69838 53.2999 10.3728 50.5642C11.1316 47.4839 19.5844 47.7525 22.0072 49.4426Z" fill="#F6A472"/>
<path d="M44.7197 58.086C46.148 55.8336 48.5703 54.3111 51.1338 54.0547C53.6968 53.7982 56.3492 54.8136 58.1555 56.7428C58.3023 56.8994 58.4458 57.0654 58.5308 57.2661C58.687 57.6357 58.623 58.0628 58.544 58.4585C58.2973 59.6914 57.3012 59.8835 56.8249 61.0398C56.2029 59.6224 55.6516 59.5307 54.2901 58.9081C52.9286 58.2856 51.3993 58.126 49.9246 58.3047C48.7209 58.4504 47.4726 58.8617 46.6889 59.8324C46.3892 60.2038 46.0757 60.6952 45.6132 60.661C45.0801 60.6215 44.9306 59.6676 45.4234 59.4506C45.1259 59.2702 44.8152 59.0764 44.6397 58.766C44.4636 58.4556 44.4819 57.9926 44.7694 57.7953L44.7197 58.086Z" fill="#3DA7E9"/>
<path d="M23.7501 50.5276C24.1767 49.6486 23.5398 48.3617 22.8593 47.6816C22.1789 47.0016 21.2379 46.6924 20.314 46.5183C16.9337 45.8807 13.3094 46.8432 10.6228 49.0927C9.76242 49.8128 8.95447 50.7457 8.82588 51.894C8.7166 52.867 9.11727 53.8226 9.59355 54.6651C10.1962 55.7298 11.002 56.7579 12.1196 57.1501C11.8646 56.2218 11.4429 53.3584 17.4044 50.1238C20.1435 48.6367 23.9896 51.0608 23.7501 50.5276Z" fill="#3DA7E9"/>
<path d="M44.7395 51.3253C47.6767 47.8023 50.0106 43.7437 51.615 39.3735C52.0675 38.1394 52.4605 36.8821 52.7938 35.6074C52.8661 35.3312 52.4583 35.2134 52.3865 35.4896C51.2209 39.9509 49.3053 44.1818 46.75 47.9491C46.0304 49.0103 45.2583 50.0315 44.4409 51.012C44.2621 51.225 44.5596 51.5406 44.7395 51.3253Z" fill="#3DA7E9"/>
<path d="M46.7743 54.1684C48.5133 53.2111 50.4433 52.6814 52.4053 52.621C52.6768 52.6129 52.6779 52.1684 52.4053 52.1766C50.3671 52.2392 48.3671 52.7904 46.5608 53.7843C46.3201 53.9172 46.5337 54.3007 46.7743 54.1684Z" fill="#3DA7E9"/>
<path d="M49.3572 50.1036C50.2932 49.8587 51.2292 49.6133 52.1647 49.3684C52.4285 49.2994 52.3165 48.8712 52.0527 48.9402C51.1167 49.1851 50.1807 49.4305 49.2447 49.6754C48.9814 49.7444 49.0929 50.1726 49.3572 50.1036Z" fill="#3DA7E9"/>
<path d="M36.5064 28.715C38.3685 30.5375 40.8829 31.561 43.4249 31.5697C44.1402 31.572 44.8549 31.4902 45.5541 31.3312C45.8196 31.2709 45.7075 30.8427 45.4421 30.903C42.3951 31.594 39.0865 30.6338 36.8055 28.4011C36.6063 28.2062 36.3072 28.5195 36.5064 28.715Z" fill="#3DA7E9"/>
<path d="M27.7805 35.6672C27.429 36.118 27.2204 36.66 27.1779 37.2419C27.1696 37.358 27.2811 37.4688 27.3892 37.4641C27.5107 37.4583 27.5912 37.3667 27.6006 37.2419C27.6161 37.0319 27.6729 36.7864 27.7546 36.559C27.7645 36.5341 27.7662 36.5294 27.759 36.5457C27.7651 36.5311 27.7711 36.5166 27.7772 36.5021C27.7899 36.4731 27.8026 36.4441 27.8159 36.4157C27.8396 36.3658 27.8644 36.3165 27.8915 36.2683C27.9218 36.2132 27.9544 36.1592 27.9886 36.107C28.025 36.0513 28.0482 36.02 28.0785 35.9805C28.1486 35.8906 28.1685 35.7531 28.0785 35.6666C28.0018 35.5929 27.8556 35.5715 27.7805 35.6672Z" fill="#3DA7E9"/>
<path d="M28.3627 36.3542C28.2645 36.5607 28.1662 36.7673 28.068 36.9733C28.0426 37.0267 28.031 37.0853 28.0465 37.1444C28.0603 37.1961 28.0978 37.2518 28.1436 37.2773C28.2391 37.3307 28.3798 37.3086 28.4328 37.1978C28.531 36.9913 28.6292 36.7847 28.7275 36.5781C28.7529 36.5248 28.7645 36.4662 28.749 36.407C28.7352 36.3553 28.6977 36.2996 28.6519 36.2741C28.5558 36.2213 28.4151 36.2434 28.3627 36.3542Z" fill="#3DA7E9"/>
<path d="M37.9402 34.2439C37.8806 34.6037 37.821 34.9628 37.7614 35.322C37.7427 35.4363 37.7901 35.5668 37.9088 35.5953C38.0114 35.6196 38.1483 35.5628 38.1687 35.4403C38.2283 35.0812 38.2879 34.7215 38.3475 34.3623C38.3663 34.248 38.3188 34.1175 38.2002 34.089C38.0975 34.0647 37.9607 34.1215 37.9402 34.2439Z" fill="#3DA7E9"/>
<path d="M39.7338 34.2938C39.5412 34.519 39.4634 34.8364 39.5418 35.1299C39.5716 35.2419 39.6924 35.322 39.8017 35.2849C39.9104 35.2477 39.9811 35.1317 39.9491 35.0116C39.9408 34.9808 39.9347 34.9501 39.9309 34.9187C39.9336 34.9385 39.9358 34.9582 39.9386 34.9779C39.932 34.9211 39.9325 34.8642 39.9391 34.8073C39.9369 34.8271 39.9342 34.8468 39.9314 34.8665C39.9391 34.8068 39.954 34.7487 39.9761 34.693C39.9689 34.711 39.9618 34.7284 39.9546 34.7458C39.9761 34.6936 40.0032 34.6443 40.0363 34.599C40.0252 34.6141 40.0142 34.6292 40.0032 34.6437C40.0125 34.6315 40.0219 34.6193 40.0324 34.6077C40.0699 34.5636 40.0942 34.5108 40.0942 34.4505C40.0942 34.396 40.071 34.331 40.0324 34.2933C39.9518 34.2161 39.8128 34.2016 39.7338 34.2938Z" fill="#3DA7E9"/>
<path d="M41.1478 34.2985C41.1478 34.5567 41.1478 34.8149 41.1478 35.0725C41.1478 35.1886 41.245 35.3 41.3592 35.2947C41.4734 35.2895 41.5706 35.1973 41.5706 35.0725C41.5706 34.8143 41.5706 34.5561 41.5706 34.2985C41.5706 34.1825 41.4734 34.0711 41.3592 34.0763C41.2444 34.0821 41.1478 34.1738 41.1478 34.2985Z" fill="#3DA7E9"/>
<path d="M47.7767 40.6744C47.5736 41.0835 47.3705 41.4931 47.1674 41.9022C47.1166 42.0049 47.1392 42.1482 47.243 42.2062C47.3401 42.2602 47.4775 42.2364 47.5322 42.1267C47.7353 41.7177 47.9384 41.308 48.1415 40.899C48.1922 40.7963 48.1696 40.653 48.0659 40.595C47.9687 40.541 47.8313 40.5648 47.7767 40.6744Z" fill="#3DA7E9"/>
<path d="M48.4924 40.8903C48.4416 41.0963 48.3914 41.3023 48.3406 41.5083C48.313 41.6208 48.376 41.7543 48.488 41.7815C48.5984 41.8076 48.7181 41.7467 48.7479 41.6266C48.7987 41.4206 48.8489 41.2147 48.8997 41.0087C48.9273 40.8961 48.8644 40.7627 48.7523 40.7354C48.6419 40.7087 48.5216 40.7702 48.4924 40.8903Z" fill="#3DA7E9"/>
<path d="M52.9787 41.2204C52.8634 41.6278 52.7486 42.0356 52.6332 42.4435C52.6018 42.5549 52.6708 42.6901 52.7806 42.7168C52.8943 42.7441 53.0069 42.6808 53.0405 42.5619C53.1559 42.154 53.2707 41.7467 53.386 41.3388C53.4175 41.2274 53.348 41.0916 53.2387 41.0655C53.1255 41.0383 53.0124 41.1009 52.9787 41.2204Z" fill="#3DA7E9"/>
<path d="M54.0709 43.0574C53.9914 43.5256 53.912 43.9933 53.8319 44.4615C53.8126 44.5752 53.8612 44.7063 53.9793 44.7348C54.0825 44.7597 54.2183 44.7017 54.2392 44.5798C54.3187 44.1116 54.3982 43.644 54.4782 43.1757C54.4975 43.062 54.4489 42.9309 54.3308 42.9025C54.2276 42.8775 54.0919 42.9349 54.0709 43.0574Z" fill="#3DA7E9"/>
<path d="M51.8893 45.2267C51.7999 45.4884 51.711 45.7495 51.6216 46.0112C51.5841 46.1208 51.6636 46.2589 51.769 46.2845C51.8876 46.3129 51.9886 46.2467 52.0289 46.1295C52.1183 45.8679 52.2072 45.6068 52.2966 45.3451C52.3341 45.2354 52.2547 45.0973 52.1492 45.0718C52.03 45.0434 51.929 45.1095 51.8893 45.2267Z" fill="#3DA7E9"/>
<path d="M54.38 46.7725C54.2923 47.0852 54.2045 47.3986 54.1168 47.7113C54.0853 47.8227 54.1543 47.9585 54.2641 47.9846C54.3773 48.0118 54.4904 47.9486 54.5241 47.8297C54.6118 47.5169 54.6996 47.2036 54.7873 46.8909C54.8188 46.7795 54.7498 46.6437 54.64 46.6176C54.5268 46.5903 54.4137 46.653 54.38 46.7725Z" fill="#3DA7E9"/>
<path d="M15.667 42.0408C15.667 42.3506 15.667 42.6605 15.667 42.9697C15.667 43.0858 15.7641 43.1972 15.8784 43.192C15.9926 43.1867 16.0897 43.0945 16.0897 42.9697C16.0897 42.6599 16.0897 42.3501 16.0897 42.0408C16.0897 41.9248 15.9926 41.8134 15.8784 41.8186C15.7636 41.8244 15.667 41.9161 15.667 42.0408Z" fill="#3DA7E9"/>
<path d="M17.7289 42.0408C17.7289 42.3506 17.7289 42.6605 17.7289 42.9697C17.7289 43.0858 17.826 43.1972 17.9403 43.192C18.0545 43.1867 18.1516 43.0945 18.1516 42.9697C18.1516 42.6599 18.1516 42.3501 18.1516 42.0408C18.1516 41.9248 18.0545 41.8134 17.9403 41.8186C17.8255 41.8244 17.7289 41.9161 17.7289 42.0408Z" fill="#3DA7E9"/>
<path d="M19.8238 41.3719C19.772 41.5257 19.7201 41.6795 19.6682 41.8332C19.6506 41.8854 19.6638 41.958 19.6897 42.0044C19.7151 42.0502 19.7653 42.0943 19.8161 42.1065C19.8702 42.1193 19.9309 42.1169 19.9789 42.0839C20.0269 42.0514 20.0567 42.0079 20.0761 41.951C20.1279 41.7972 20.1798 41.6435 20.2322 41.4897C20.2499 41.4375 20.2367 41.365 20.2107 41.3186C20.1853 41.2727 20.1351 41.2286 20.0843 41.2164C20.0303 41.2037 19.9695 41.206 19.9215 41.2385C19.8724 41.2721 19.8426 41.3151 19.8238 41.3719Z" fill="#3DA7E9"/>
<path d="M16.401 36.0949C16.3486 36.3003 16.2967 36.5062 16.2443 36.7116C16.2156 36.8236 16.2802 36.9582 16.3916 36.9849C16.5026 37.0116 16.6212 36.9501 16.6516 36.83C16.704 36.6246 16.7559 36.4186 16.8083 36.2132C16.837 36.1012 16.7725 35.9666 16.661 35.9399C16.5495 35.9133 16.4314 35.9748 16.401 36.0949Z" fill="#3DA7E9"/>
<path d="M23.6728 48.809C23.383 45.6219 23.3604 42.4064 23.6695 39.2198C23.9763 36.0559 24.6176 32.9245 25.6215 29.9231C26.1921 28.2167 26.8826 26.5585 27.6861 24.9588C27.813 24.7064 27.4483 24.4813 27.3213 24.7348C25.8908 27.5837 24.819 30.6234 24.1148 33.7583C23.4117 36.8857 23.0657 40.0994 23.0271 43.3115C23.005 45.1467 23.0845 46.9825 23.2506 48.809C23.276 49.091 23.6987 49.0939 23.6728 48.809Z" fill="#3DA7E9"/>
<path d="M10.5103 41.2054C10.4578 41.4624 10.4049 41.72 10.3524 41.9771C10.3293 42.0902 10.3844 42.2225 10.4998 42.2503C10.6063 42.2759 10.7349 42.2167 10.7597 42.0954C10.8122 41.8384 10.8651 41.5808 10.9181 41.3237C10.9413 41.2106 10.8861 41.0783 10.7708 41.0505C10.6637 41.0249 10.5351 41.0841 10.5103 41.2054Z" fill="#3DA7E9"/>
<path d="M11.8673 41.9294C11.72 42.252 11.6521 42.6124 11.6929 42.9692C11.7001 43.0301 11.7117 43.0812 11.7547 43.1264C11.7912 43.1647 11.8513 43.1937 11.9043 43.1914C12.0075 43.1868 12.13 43.0928 12.1157 42.9692C12.1068 42.8932 12.1024 42.8166 12.1035 42.7394C12.1041 42.7011 12.1057 42.6628 12.109 42.6245C12.1107 42.6054 12.1129 42.5862 12.1146 42.5671C12.1168 42.5503 12.1157 42.5561 12.1124 42.5857C12.114 42.5746 12.1157 42.5642 12.1173 42.5532C12.1295 42.4777 12.146 42.4023 12.1676 42.3292C12.1786 42.2927 12.1907 42.2561 12.2034 42.2207C12.2084 42.2079 12.2205 42.1598 12.2062 42.2132C12.2117 42.1929 12.2238 42.1726 12.2321 42.1534C12.2796 42.049 12.263 41.9086 12.1565 41.8494C12.0621 41.7977 11.9186 41.8175 11.8673 41.9294Z" fill="#3DA7E9"/>
<path d="M15.4628 32.0682C15.0738 32.3084 14.8265 32.7441 14.7951 33.2152C14.7873 33.3313 14.8977 33.4427 15.0064 33.4375C15.1273 33.4316 15.2095 33.34 15.2178 33.2152C15.2189 33.1972 15.2311 33.1207 15.2184 33.188C15.2222 33.1665 15.225 33.145 15.2289 33.1241C15.2371 33.0795 15.2482 33.0348 15.262 32.9918C15.2691 32.9692 15.2774 32.9466 15.2851 32.924C15.2984 32.8857 15.2713 32.9553 15.2824 32.9303C15.2873 32.9193 15.2918 32.9083 15.2967 32.8973C15.3155 32.8561 15.3365 32.816 15.3591 32.7772C15.3701 32.7586 15.3812 32.7406 15.3928 32.7226C15.3994 32.7128 15.4066 32.7035 15.4126 32.6936C15.4281 32.6698 15.3795 32.736 15.4088 32.6983C15.4364 32.6629 15.4651 32.6286 15.496 32.5967C15.5103 32.5816 15.5258 32.5666 15.5412 32.552C15.5523 32.5422 15.5804 32.5074 15.5937 32.5056C15.5804 32.5074 15.5589 32.5329 15.5892 32.5103C15.5986 32.5033 15.608 32.4963 15.6174 32.49C15.6362 32.4766 15.656 32.4639 15.6759 32.4517C15.7714 32.3931 15.8133 32.2486 15.7515 32.1476C15.6902 32.0473 15.5649 32.0055 15.4628 32.0682Z" fill="#3DA7E9"/>
<path d="M22.1502 26.6159C22.1518 26.6258 22.1629 26.707 22.1563 26.6519C22.1585 26.671 22.1607 26.6902 22.1623 26.7093C22.1662 26.754 22.1684 26.7987 22.1695 26.8434C22.1701 26.888 22.1695 26.9327 22.1667 26.9774C22.1656 26.9965 22.1645 27.0157 22.1629 27.0348C22.1623 27.0412 22.1557 27.1108 22.1585 27.0818C22.1618 27.0528 22.1524 27.1219 22.1513 27.1282C22.148 27.1474 22.1447 27.166 22.1414 27.1845C22.1325 27.2286 22.1226 27.2721 22.111 27.3151C22.0994 27.358 22.0862 27.4009 22.0713 27.4427C22.0652 27.4607 22.058 27.4787 22.0514 27.4967C22.0691 27.4491 22.0398 27.5234 22.0365 27.5315C21.9901 27.6371 22.005 27.7758 22.1121 27.8355C22.2054 27.8872 22.3516 27.8686 22.4013 27.756C22.5757 27.3586 22.6292 26.9298 22.5575 26.4987C22.5382 26.3838 22.3991 26.309 22.2975 26.3438C22.18 26.3827 22.1298 26.4935 22.1502 26.6159Z" fill="#3DA7E9"/>
<path d="M22.9432 30.4226C22.7506 30.6478 22.6728 30.9651 22.7511 31.2587C22.7809 31.3707 22.9018 31.4508 23.0111 31.4136C23.1198 31.3765 23.1904 31.2605 23.1584 31.1404C23.1501 31.1096 23.1441 31.0788 23.1402 31.0475C23.143 31.0672 23.1452 31.087 23.1479 31.1067C23.1413 31.0498 23.1419 30.993 23.1485 30.9367C23.1457 30.9564 23.1435 30.9762 23.1408 30.9959C23.1485 30.9361 23.1634 30.8781 23.1855 30.8224C23.1783 30.8404 23.1711 30.8578 23.1639 30.8752C23.1855 30.823 23.2125 30.7737 23.2456 30.7284C23.2346 30.7435 23.2235 30.7586 23.2125 30.7731C23.2219 30.7609 23.2318 30.7487 23.2417 30.7365C23.2793 30.693 23.3036 30.6396 23.3036 30.5793C23.3036 30.5248 23.2804 30.4598 23.2417 30.4221C23.1612 30.3449 23.0221 30.3304 22.9432 30.4226Z" fill="#3DA7E9"/>
<path d="M45.468 59.3717C46.8373 57.5592 49.1342 56.614 51.3098 57.0167C51.5758 57.066 51.69 56.6378 51.4218 56.5885C49.1055 56.1597 46.6364 57.1159 45.1689 59.0578C45.0022 59.2795 45.2992 59.5957 45.468 59.3717Z" fill="#277AAE"/>
<path d="M51.9638 55.7333C52.6901 55.6648 53.4186 55.8151 54.0605 56.1806C54.2994 56.3169 54.513 55.9334 54.2735 55.7971C53.5698 55.3962 52.7618 55.2134 51.9638 55.2888C51.8501 55.2998 51.7524 55.3834 51.7524 55.511C51.7524 55.623 51.8496 55.7443 51.9638 55.7333Z" fill="#277AAE"/>
<path d="M55.2023 58.3019C55.4479 58.5084 55.6935 58.715 55.9385 58.9215C55.9838 58.9598 56.0274 58.9865 56.0881 58.9865C56.14 58.9865 56.2018 58.9621 56.2377 58.9215C56.3083 58.8409 56.3298 58.6848 56.2377 58.6076C55.9921 58.4011 55.7465 58.1945 55.5014 57.988C55.4562 57.9497 55.4126 57.923 55.3519 57.923C55.3 57.923 55.2382 57.9473 55.2023 57.988C55.1317 58.0686 55.1101 58.2247 55.2023 58.3019Z" fill="#277AAE"/>
<path d="M56.3806 57.8378C56.4788 57.9411 56.5771 58.0443 56.6753 58.1476C56.7134 58.1876 56.7702 58.2126 56.8249 58.2126C56.8541 58.2138 56.8812 58.2074 56.906 58.1935C56.9325 58.1847 56.9551 58.1691 56.9739 58.1476C57.0109 58.1053 57.0385 58.0496 57.0357 57.9904C57.0335 57.9312 57.0142 57.8761 56.9739 57.8331C56.8756 57.7299 56.7774 57.6266 56.6792 57.5233C56.6411 57.4833 56.5837 57.4583 56.5296 57.4583C56.5004 57.4572 56.4733 57.4635 56.4479 57.4775C56.422 57.4862 56.3988 57.5018 56.3801 57.5233C56.3431 57.5657 56.3155 57.6214 56.3182 57.6805C56.321 57.7397 56.3403 57.7948 56.3806 57.8378Z" fill="#277AAE"/>
<path d="M10.7767 52.1597C11.8678 50.9749 13.2095 50.0559 14.6819 49.4849C15.4038 49.2053 16.1549 49.0034 16.9176 48.8943C17.7063 48.7811 18.6533 48.6645 19.4072 48.9819C19.6594 49.0881 19.7693 48.6587 19.5198 48.5537C18.8912 48.2886 18.1643 48.3321 17.5015 48.3854C16.8663 48.4365 16.2349 48.5456 15.6179 48.7127C14.3795 49.0475 13.1913 49.6126 12.1366 50.3732C11.5389 50.8043 10.9826 51.2981 10.4787 51.8458C10.2883 52.0512 10.5869 52.3657 10.7767 52.1597Z" fill="#277AAE"/>
<path d="M14.629 48.2038C15.2267 47.9172 15.9132 47.8551 16.5501 48.0182C16.8139 48.086 16.9271 47.6573 16.6622 47.59C15.9077 47.3968 15.1207 47.482 14.4154 47.8203C14.3117 47.8702 14.2863 48.028 14.3398 48.1243C14.4027 48.2363 14.5252 48.2537 14.629 48.2038Z" fill="#277AAE"/>
<path d="M20.2969 49.6955C20.5425 49.6955 20.7881 49.6955 21.0332 49.6955C21.1435 49.6955 21.2495 49.5934 21.2445 49.4733C21.2396 49.3532 21.1518 49.251 21.0332 49.251C20.7876 49.251 20.542 49.251 20.2969 49.251C20.1865 49.251 20.0806 49.3532 20.0856 49.4733C20.0905 49.5939 20.1783 49.6955 20.2969 49.6955Z" fill="#277AAE"/>
<path d="M20.9492 48.777C20.99 48.7596 21.032 48.748 21.0756 48.7416C21.0568 48.7445 21.0381 48.7469 21.0193 48.7498C21.069 48.7428 21.1181 48.7434 21.1677 48.7498C21.149 48.7469 21.1302 48.7445 21.1115 48.7416C21.1611 48.7492 21.2086 48.7625 21.255 48.7823C21.2384 48.7747 21.2213 48.7672 21.2047 48.7596C21.2478 48.7788 21.2881 48.8031 21.3256 48.8327C21.3112 48.8211 21.2969 48.8095 21.2825 48.7979C21.3013 48.813 21.3184 48.8293 21.335 48.8467C21.4133 48.9291 21.5563 48.9354 21.6335 48.8467C21.7108 48.7585 21.7174 48.6204 21.6335 48.5328C21.5336 48.4283 21.4012 48.35 21.2627 48.3204C21.1225 48.2902 20.9713 48.2926 20.8366 48.3494C20.7836 48.3721 20.7406 48.3976 20.7102 48.4515C20.6837 48.4991 20.6727 48.5693 20.6887 48.6227C20.7053 48.6767 20.7367 48.7283 20.7858 48.7556C20.8333 48.7811 20.8979 48.7991 20.9492 48.777Z" fill="#277AAE"/>
<path d="M10.5118 53.6543C10.5118 53.7576 10.5118 53.8609 10.5118 53.9641C10.5118 54.021 10.5356 54.0808 10.5737 54.1214C10.593 54.1428 10.6156 54.1585 10.6415 54.1672C10.6669 54.1811 10.694 54.1875 10.7232 54.1864C10.7778 54.1835 10.8347 54.1649 10.8728 54.1214C10.9109 54.0779 10.9346 54.0245 10.9346 53.9641C10.9346 53.8609 10.9346 53.7576 10.9346 53.6543C10.9346 53.5974 10.9109 53.5377 10.8728 53.4971C10.8535 53.4756 10.8308 53.4599 10.8049 53.4512C10.7795 53.4373 10.7525 53.4309 10.7238 53.4321C10.6691 53.4344 10.6123 53.4535 10.5742 53.4971C10.5356 53.5406 10.5118 53.594 10.5118 53.6543Z" fill="#277AAE"/>
<path d="M53.0218 79.2869C52.7166 80.4705 52.2254 81.5868 51.5643 82.5976C51.2271 83.1134 50.8446 83.5955 50.4252 84.0394C50.2469 84.2285 50.0394 84.4896 49.7612 84.467C49.5184 84.4473 49.3076 84.2558 49.1895 84.0435C48.8793 83.4859 48.9676 82.6788 48.9825 82.0597C48.9985 81.3901 49.0493 80.72 49.1531 80.0591C49.3523 78.7954 49.7309 77.5596 50.3672 76.4624C51.0146 75.3467 51.9103 74.4032 53.0196 73.8021C53.3419 73.6275 53.0571 73.1163 52.7354 73.291C50.3678 74.5744 49.0311 77.2219 48.61 79.9019C48.493 80.6452 48.4317 81.3977 48.4174 82.1508C48.4036 82.8563 48.3561 83.6628 48.6845 84.3051C48.9604 84.8447 49.5951 85.2253 50.1685 84.9846C50.4743 84.8563 50.7088 84.5865 50.9323 84.3423C51.1559 84.098 51.3689 83.8427 51.5698 83.5775C52.4953 82.3568 53.1769 80.9515 53.5654 79.4447C53.6598 79.0763 53.1167 78.919 53.0218 79.2869Z" fill="#7F4924"/>
<path d="M44.9647 66.2757C44.1529 65.4901 43.4569 64.5885 42.8945 63.5905C42.7102 63.2627 42.2229 63.5603 42.4083 63.8893C42.9933 64.9279 43.7213 65.8765 44.5662 66.6946C44.8328 66.9523 45.2318 66.5345 44.9647 66.2757Z" fill="#7F4924"/>
<path d="M41.319 66.8583C41.9939 67.5644 42.6286 68.3146 43.2097 69.1078C43.3024 69.2343 43.452 69.3021 43.595 69.2139C43.7136 69.1408 43.7892 68.936 43.696 68.809C43.085 67.9746 42.4272 67.182 41.7169 66.4394C41.4602 66.1707 41.0618 66.5891 41.319 66.8583Z" fill="#7F4924"/>
<path d="M39.9188 67.5957C40.3095 68.3702 40.8333 69.0729 41.4552 69.6571C41.5684 69.7639 41.7417 69.7749 41.8537 69.6571C41.9569 69.5486 41.9674 69.3456 41.8537 69.2382C41.2555 68.6766 40.7808 68.0407 40.4055 67.2968C40.3344 67.1558 40.1478 67.1123 40.0203 67.1907C39.884 67.2742 39.8476 67.4541 39.9188 67.5957Z" fill="#7F4924"/>
<path d="M39.2102 68.2728C40.6887 66.5664 42.0094 64.7115 43.1479 62.7376C43.3367 62.4109 42.8494 62.1127 42.6617 62.4388C41.5469 64.3709 40.2593 66.1835 38.8123 67.8539C38.5678 68.1353 38.9652 68.5554 39.2102 68.2728Z" fill="#7F4924"/>
<path d="M33.0295 63.3381C32.912 64.1092 32.7939 64.8797 32.6763 65.6509C32.652 65.8087 32.715 65.9694 32.8728 66.0152C33.0069 66.0541 33.1951 65.9671 33.2194 65.8081C33.3369 65.037 33.455 64.2665 33.5726 63.4954C33.5969 63.3375 33.534 63.1768 33.3756 63.131C33.242 63.0927 33.0538 63.1797 33.0295 63.3381Z" fill="#7F4924"/>
<path d="M32.3309 36.5196C31.6868 36.6977 31.444 37.68 31.9975 38.1157C32.2508 38.3153 32.6051 38.3339 32.8927 38.2126C33.2227 38.0739 33.4098 37.7328 33.3822 37.3649C33.3497 36.9373 33.0312 36.5532 32.6223 36.4993C32.5439 36.4888 32.4716 36.5648 32.4672 36.6437C32.4622 36.7313 32.5257 36.7963 32.6046 36.8068C32.8403 36.8381 33.0329 37.0708 33.082 37.3249C33.1052 37.4462 33.0963 37.5738 33.0483 37.6759C32.9981 37.7827 32.9225 37.8535 32.8336 37.9028C32.7376 37.9556 32.6328 37.9811 32.5351 37.9817C32.5042 37.9817 32.4733 37.98 32.4423 37.9765C32.4297 37.9747 32.417 37.973 32.4043 37.9712C32.3756 37.9666 32.4374 37.98 32.3899 37.9684C32.3601 37.9614 32.3303 37.9521 32.3016 37.9411C32.2702 37.9289 32.2503 37.9196 32.2398 37.9132C32.0395 37.7978 31.9578 37.593 31.9859 37.3551C31.9997 37.2384 32.0461 37.1195 32.1217 37.0151C32.1857 36.9269 32.2878 36.8503 32.3894 36.8219C32.4661 36.801 32.5202 36.725 32.5042 36.6402C32.4887 36.5619 32.4076 36.4981 32.3309 36.5196Z" fill="#827454"/>
<path d="M43.6479 40.2792C43.5099 40.625 43.5993 41.0503 43.8389 41.3236C44.0784 41.5969 44.4448 41.6839 44.766 41.5215C45.0392 41.3834 45.26 41.0817 45.2633 40.755C45.2666 40.4278 45.0607 40.1626 44.7732 40.0553C44.4719 39.9433 44.1049 40.0141 43.9189 40.3042C43.8135 40.469 44.0557 40.6419 44.1612 40.4777C44.2528 40.3349 44.4465 40.2833 44.6038 40.3239C44.6518 40.3361 44.6992 40.3529 44.7445 40.3756C44.7224 40.3645 44.7793 40.397 44.7892 40.404C44.7991 40.4109 44.8085 40.4173 44.8179 40.4249C44.8223 40.4283 44.8637 40.4649 44.8433 40.4452C44.8604 40.4614 44.8759 40.4794 44.8908 40.498C44.8996 40.509 44.9079 40.5206 44.9161 40.5328C44.9123 40.527 44.904 40.5107 44.9178 40.5369C44.9531 40.6007 44.9581 40.6181 44.968 40.6871C44.9807 40.7747 44.9553 40.8896 44.9167 40.9633C44.8632 41.0654 44.7903 41.1472 44.7136 41.2006C44.5193 41.3352 44.2991 41.3364 44.1126 41.1751C43.8963 40.9877 43.819 40.6465 43.9255 40.379C43.9559 40.3024 43.9056 40.209 43.8339 40.1835C43.7544 40.1545 43.6788 40.2021 43.6479 40.2792Z" fill="#827454"/>
<path d="M33.38 40.7428C36.4148 41.605 39.4491 42.4672 42.484 43.3288C42.7467 43.4036 42.8587 42.9749 42.596 42.9006C39.5612 42.0384 36.5269 41.1762 33.492 40.3146C33.2293 40.2397 33.1173 40.6679 33.38 40.7428Z" fill="#827454"/>
<path d="M35.1117 39.3427C37.8309 39.8609 40.4921 40.683 43.0457 41.7947C42.9966 41.7036 42.9475 41.6125 42.8984 41.5214C42.3741 43.0996 41.8498 44.6778 41.3255 46.256C41.1969 46.643 41.0683 47.0294 40.9397 47.4164C40.8779 47.6021 40.8166 47.7877 40.7548 47.9734C40.7223 48.072 40.7029 48.2066 40.6461 48.2919C40.5815 48.3894 40.5274 48.3964 40.416 48.3877C39.6764 48.3291 38.9341 48.1968 38.2051 48.0558C36.7674 47.7779 35.3496 47.3862 33.9677 46.8832C33.2811 46.6337 32.5614 46.3842 31.9124 46.0378C31.7535 45.9531 31.6569 45.8527 31.6845 45.6537C31.7121 45.4582 31.8092 45.265 31.8777 45.0822C32.0195 44.7033 32.1613 44.3244 32.3032 43.9461C32.9555 42.2038 33.6078 40.4614 34.2602 38.719C34.1735 38.7706 34.0869 38.8223 34.0002 38.8739C34.3706 39.03 34.7409 39.1867 35.1117 39.3427C35.364 39.4495 35.4738 39.0201 35.2243 38.9145C34.854 38.7579 34.4837 38.6018 34.1134 38.4451C33.9997 38.397 33.8915 38.4991 33.8534 38.6001C33.2237 40.2821 32.594 41.9636 31.9643 43.6456C31.8054 44.0697 31.6464 44.4939 31.488 44.9186C31.365 45.247 31.1718 45.6276 31.2954 45.9862C31.4097 46.3198 31.7369 46.4422 32.0223 46.5693C32.3721 46.7248 32.7248 46.8745 33.0808 47.0155C34.5968 47.6189 36.1614 48.0871 37.7525 48.4149C38.5241 48.5739 39.3017 48.6992 40.0826 48.7932C40.3922 48.8304 40.7515 48.9139 40.9607 48.6024C41.0528 48.4654 41.0953 48.2943 41.1478 48.137C41.225 47.9049 41.3023 47.6728 41.379 47.4408C42.0214 45.5069 42.6644 43.5725 43.3068 41.6386C43.3476 41.5156 43.2588 41.4089 43.1594 41.3654C40.6058 40.2543 37.9451 39.4321 35.2254 38.914C34.9578 38.8641 34.8441 39.2923 35.1117 39.3427Z" fill="#827454"/>
<path d="M10.1299 60.5763C11.2624 60.6958 12.3949 60.8154 13.5274 60.9355C13.7978 60.9639 13.7956 60.5194 13.5274 60.491C12.3949 60.3715 11.2624 60.2514 10.1299 60.1319C9.85951 60.1034 9.86116 60.5479 10.1299 60.5763Z" fill="#827454"/>
<path d="M23.3896 80.5222C25.8875 80.4996 28.3782 80.173 30.8048 79.5515C31.0687 79.4837 30.9572 79.0555 30.6928 79.1234C28.3009 79.7361 25.8516 80.0558 23.3896 80.0784C23.1181 80.0801 23.1176 80.5246 23.3896 80.5222Z" fill="#827454"/>
<path d="M6.31029 100.352C8.32965 100.545 10.349 100.737 12.3684 100.931C12.3005 100.837 12.2326 100.743 12.1647 100.65C11.2028 105.673 10.3187 110.712 9.51401 115.766C9.28884 117.181 9.07029 118.596 8.85726 120.012C8.92514 119.957 8.99303 119.904 9.06091 119.849C7.70161 119.727 6.3605 119.466 5.0012 119.344C4.73022 119.319 4.73187 119.764 5.0012 119.788C6.3605 119.91 7.70161 120.171 9.06091 120.293C9.14425 120.301 9.25131 120.22 9.26456 120.13C10.0245 115.073 10.8628 110.028 11.7806 104.998C12.0384 103.587 12.3022 102.177 12.572 100.768C12.6007 100.617 12.5108 100.5 12.3684 100.487C10.349 100.294 8.32965 100.1 6.31029 99.9077C6.03931 99.8816 6.04096 100.326 6.31029 100.352Z" fill="#827454"/>
<path d="M5.56638 104.084C7.48144 104.241 9.39704 104.397 11.3121 104.555C11.5831 104.577 11.582 104.132 11.3121 104.11C9.39704 103.953 7.48144 103.797 5.56638 103.64C5.2954 103.618 5.29706 104.062 5.56638 104.084Z" fill="#827454"/>
<path d="M51.8418 102.073C52.6249 100.626 53.6884 99.356 54.9627 98.3656C55.1791 98.1973 54.9682 97.8121 54.7497 97.9821C53.4158 99.0183 52.2976 100.333 51.477 101.849C51.3423 102.098 51.7071 102.322 51.8418 102.073Z" fill="#827454"/>
<path d="M51.7888 102.647C52.5725 102.179 53.3562 101.712 54.1404 101.244C54.3766 101.103 54.1642 100.719 53.9274 100.86C53.1437 101.328 52.36 101.796 51.5758 102.263C51.339 102.404 51.5515 102.788 51.7888 102.647Z" fill="#827454"/>
<path d="M1.50279 136.752C8.94173 137.953 13.6107 138.168 21.128 137.796C20.7704 140.117 20.4128 142.438 20.0557 144.76C12.401 145.968 7.52999 144.272 0 142.387L1.50279 136.752Z" fill="#827454"/>
<path d="M63.251 103.052C63.1782 103.901 63.2246 104.754 63.3796 105.591C63.4315 105.871 63.8388 105.753 63.7869 105.472C63.6396 104.675 63.6042 103.861 63.6738 103.051C63.6843 102.932 63.5695 102.829 63.4624 102.829C63.3393 102.83 63.261 102.932 63.251 103.052Z" fill="#827454"/>
<path d="M64.5993 106.816C64.6357 106.913 64.6666 107.011 64.6904 107.112C64.702 107.163 64.7119 107.214 64.7207 107.265C64.7246 107.287 64.7279 107.309 64.7307 107.331C64.7257 107.29 64.7334 107.363 64.734 107.372C64.7428 107.471 64.7455 107.572 64.7411 107.672C64.7389 107.724 64.7351 107.776 64.7295 107.828C64.7224 107.9 64.7367 107.786 64.7257 107.857C64.7213 107.887 64.7163 107.916 64.7108 107.945C64.6898 108.059 64.7411 108.19 64.8581 108.218C64.9624 108.243 65.0955 108.185 65.1181 108.063C65.202 107.607 65.1705 107.131 65.0066 106.698C64.9658 106.591 64.8637 106.503 64.7467 106.543C64.6479 106.576 64.5557 106.7 64.5993 106.816Z" fill="#827454"/>
<path d="M59.7355 113.636C59.8139 114.104 59.8928 114.572 59.9717 115.04C59.991 115.155 60.1301 115.23 60.2316 115.195C60.3492 115.155 60.4 115.045 60.379 114.922C60.3001 114.454 60.2217 113.985 60.1428 113.517C60.1235 113.402 59.9844 113.327 59.8829 113.362C59.7659 113.402 59.7151 113.513 59.7355 113.636Z" fill="#827454"/>
<path d="M65.8924 101.812C65.8924 102.173 65.8924 102.535 65.8924 102.896C65.8924 103.012 65.9895 103.123 66.1038 103.118C66.218 103.113 66.3152 103.021 66.3152 102.896C66.3152 102.534 66.3152 102.173 66.3152 101.812C66.3152 101.696 66.218 101.584 66.1038 101.59C65.989 101.596 65.8924 101.688 65.8924 101.812Z" fill="#827454"/>
<path d="M18.431 93.8462C18.2996 94.4693 18.1682 95.0925 18.0369 95.7156C18.0121 95.8328 18.0706 95.9558 18.1843 95.9889C18.2902 96.0197 18.4194 95.9512 18.4442 95.834C18.5755 95.2109 18.7069 94.5877 18.8383 93.9646C18.8631 93.8474 18.8046 93.7244 18.6909 93.6913C18.5849 93.6605 18.4558 93.7284 18.431 93.8462Z" fill="#827454"/>
<path d="M19.9508 101.04C19.8879 101.554 19.8255 102.068 19.7626 102.582C19.7483 102.701 19.8702 102.805 19.974 102.805C20.1004 102.805 20.1705 102.702 20.1854 102.582C20.2483 102.068 20.3112 101.554 20.3736 101.04C20.3879 100.921 20.266 100.817 20.1622 100.817C20.0358 100.817 19.9657 100.92 19.9508 101.04Z" fill="#827454"/>
<path d="M16.4292 103.053C16.3801 103.673 16.3315 104.292 16.2824 104.911C16.273 105.031 16.3862 105.134 16.4938 105.134C16.6157 105.134 16.6958 105.032 16.7051 104.911C16.7543 104.292 16.8028 103.673 16.852 103.053C16.8613 102.934 16.7482 102.831 16.6406 102.831C16.5186 102.831 16.4391 102.933 16.4292 103.053Z" fill="#827454"/>
<path d="M16.4143 114.452C16.1737 115.054 16.07 115.716 16.1091 116.368C16.1163 116.487 16.2013 116.59 16.3205 116.59C16.4292 116.59 16.5391 116.488 16.5319 116.368C16.4949 115.75 16.5943 115.141 16.8222 114.57C16.8663 114.459 16.7747 114.326 16.6748 114.297C16.5523 114.262 16.4585 114.341 16.4143 114.452Z" fill="#827454"/>
<path d="M16.9806 122.343C16.9309 122.549 16.8807 122.755 16.831 122.961C16.804 123.074 16.8658 123.207 16.9784 123.235C17.0882 123.261 17.2091 123.2 17.2383 123.08C17.288 122.874 17.3382 122.667 17.3879 122.461C17.4149 122.349 17.3531 122.215 17.2405 122.188C17.1307 122.161 17.0098 122.222 16.9806 122.343Z" fill="#827454"/>
<path d="M8.31919 138.971C8.29105 137.785 8.42074 136.605 8.70718 135.457C8.77616 135.18 8.36888 135.062 8.29989 135.339C8.00408 136.523 7.86776 137.747 7.89701 138.971C7.90363 139.257 8.32637 139.258 8.31919 138.971Z" fill="#827454"/>
<path d="M10.5096 137.851C10.7961 137.176 11.0825 136.501 11.3689 135.826C11.4153 135.717 11.3993 135.588 11.2933 135.522C11.2033 135.467 11.051 135.492 11.0041 135.602C10.7177 136.277 10.4313 136.951 10.1448 137.626C10.0985 137.736 10.1145 137.865 10.2204 137.93C10.3104 137.986 10.4627 137.961 10.5096 137.851Z" fill="#827454"/>
<path d="M59.9287 127.875C59.9999 128.396 60.0711 128.915 60.1423 129.436C60.1583 129.555 60.3018 129.62 60.4022 129.591C60.5236 129.555 60.5661 129.437 60.5496 129.318C60.4784 128.797 60.4072 128.277 60.336 127.757C60.3195 127.638 60.176 127.573 60.0761 127.602C59.9552 127.637 59.9127 127.756 59.9287 127.875Z" fill="#827454"/>
<path d="M13.4352 78.054C13.2509 78.8826 13.0665 79.7117 12.8822 80.5402C12.8204 80.8182 13.2277 80.9371 13.2895 80.658C13.4738 79.8295 13.6582 79.0004 13.8425 78.1718C13.9049 77.8939 13.4976 77.7755 13.4352 78.054Z" fill="#827454"/>
<path d="M15.2377 78.0006C15.0119 78.5245 14.9005 79.0931 14.9286 79.6687C14.9347 79.7882 15.0213 79.8909 15.14 79.8909C15.2498 79.8909 15.3569 79.7894 15.3513 79.6687C15.3271 79.172 15.4076 78.6777 15.603 78.2245C15.6499 78.1155 15.6328 77.9855 15.5274 77.9205C15.4363 77.8654 15.2851 77.8909 15.2377 78.0006Z" fill="#827454"/>
<path d="M18.0866 72.4375C18.1716 72.8564 18.1401 73.2945 17.9966 73.7128C17.9591 73.8225 18.0386 73.9606 18.144 73.9861C18.2626 74.0146 18.3636 73.9484 18.4039 73.8312C18.5695 73.3473 18.5954 72.8216 18.4939 72.3198C18.4707 72.206 18.3383 72.1294 18.234 72.1648C18.1203 72.2026 18.0618 72.3151 18.0866 72.4375Z" fill="#827454"/>
<path d="M16.7505 62.2752C16.4436 63.6573 15.7907 64.903 15.0225 66.0582C14.1947 67.3033 13.2559 68.4666 12.3514 69.6503C11.7846 70.3918 11.2178 71.1339 10.651 71.8754C10.4821 72.0959 10.7796 72.4121 10.9495 72.1893C11.9573 70.871 12.9661 69.5539 13.9722 68.234C14.8382 67.0985 15.7013 65.9421 16.3448 64.6477C16.7002 63.9329 16.9834 63.1792 17.1578 62.393C17.2196 62.1156 16.8123 61.9967 16.7505 62.2752Z" fill="#827454"/>
<path d="M33.6648 50.6002C33.5175 50.91 33.3701 51.2198 33.2228 51.5291C33.1731 51.6329 33.193 51.7745 33.2984 51.8331C33.3938 51.8865 33.5346 51.8645 33.5875 51.7536C33.7349 51.4438 33.8823 51.134 34.0296 50.8247C34.0787 50.7209 34.0589 50.5793 33.954 50.5207C33.858 50.4673 33.7178 50.4894 33.6648 50.6002Z" fill="#827454"/>
<path d="M35.7057 51.8922C35.6566 52.0471 35.6075 52.202 35.5583 52.357C35.5418 52.4098 35.5534 52.4811 35.5799 52.5281C35.6053 52.574 35.656 52.618 35.7063 52.6302C35.8227 52.6581 35.9287 52.5931 35.9662 52.4753C36.0153 52.3204 36.0644 52.1655 36.1135 52.0106C36.1301 51.9578 36.1185 51.8864 36.092 51.8394C36.0666 51.7936 36.0164 51.7495 35.9656 51.7373C35.8492 51.7089 35.7432 51.7738 35.7057 51.8922Z" fill="#827454"/>
<path d="M25.4206 46.654C26.6563 45.3242 27.764 43.8667 28.7265 42.3071C28.8749 42.0663 28.5096 41.8435 28.3616 42.0831C27.4179 43.612 26.3329 45.0364 25.1215 46.3401C24.9316 46.5444 25.2302 46.8588 25.4206 46.654Z" fill="#827454"/>
<path d="M41.0105 87.9838C41.6507 88.8216 42.2914 89.6595 42.9316 90.4979C43.0033 90.5913 43.1557 90.5762 43.2302 90.4979C43.3179 90.4056 43.3019 90.2774 43.2302 90.184C42.59 89.3461 41.9498 88.5083 41.309 87.6705C41.2373 87.5771 41.085 87.5922 41.0105 87.6705C40.9227 87.7622 40.9387 87.8898 41.0105 87.9838Z" fill="#827454"/>
<path d="M41.3493 84.6517C41.7423 85.2017 42.1358 85.7523 42.5287 86.3024C42.5972 86.3981 42.7114 86.4474 42.8179 86.3819C42.9079 86.3268 42.9625 86.1747 42.8935 86.0778C42.5006 85.5272 42.1071 84.9772 41.7141 84.4271C41.6457 84.3314 41.5315 84.2821 41.4249 84.3477C41.3355 84.4028 41.2804 84.5554 41.3493 84.6517Z" fill="#827454"/>
<path d="M37.8757 84.6133C38.007 84.8883 38.1384 85.1634 38.2697 85.4384C38.3194 85.5423 38.4673 85.58 38.5589 85.5179C38.6599 85.4494 38.6881 85.3253 38.6345 85.2138C38.5032 84.9388 38.3718 84.6638 38.2405 84.3888C38.1908 84.2849 38.0429 84.2472 37.9513 84.3093C37.8503 84.3778 37.8222 84.5019 37.8757 84.6133Z" fill="#827454"/>
<path d="M47.6574 91.2393C48.0503 91.79 48.4427 92.3406 48.8357 92.8912C48.9041 92.9869 49.0183 93.0362 49.1249 92.9707C49.2148 92.9156 49.2695 92.7635 49.2005 92.6666C48.8075 92.116 48.4151 91.5654 48.0222 91.0148C47.9537 90.919 47.8395 90.8697 47.733 90.9353C47.6436 90.991 47.5884 91.143 47.6574 91.2393Z" fill="#827454"/>
<path d="M11.0946 89.3456C10.8364 89.8979 10.5775 90.4503 10.3192 91.0027C10.269 91.11 10.2916 91.2429 10.3948 91.3067C10.4881 91.3641 10.6333 91.3351 10.684 91.2272C10.9423 90.6748 11.2011 90.1225 11.4594 89.5701C11.5097 89.4628 11.487 89.3299 11.3838 89.2661C11.2906 89.2086 11.1449 89.2377 11.0946 89.3456Z" fill="#827454"/>
<path d="M12.7304 90.257C12.5919 90.8053 12.4528 91.3536 12.3143 91.9019C12.285 92.018 12.3513 92.1433 12.4616 92.1752C12.5715 92.2071 12.6923 92.1364 12.7216 92.0203C12.8607 91.472 12.9992 90.9237 13.1377 90.3754C13.167 90.2594 13.1007 90.134 12.9904 90.1021C12.8805 90.0702 12.7597 90.1404 12.7304 90.257Z" fill="#827454"/>
<path d="M75.227 148.518C76.2392 149.086 77.6443 148.508 78.0251 147.367L78.0328 147.343C78.1565 146.973 78.1526 146.585 78.0213 146.241L72.9858 133.048L69.4979 134.52L74.5399 147.729C74.6674 148.064 74.908 148.34 75.227 148.518Z" fill="#827454"/>
<path d="M65.4674 146.462C66.4801 149.286 67.4702 152.12 68.5061 154.934C68.7291 155.54 68.9691 156.146 69.308 156.692C69.643 157.23 70.068 157.675 70.5586 158.057C71.0492 158.439 71.589 158.744 72.1276 159.044C72.7551 159.393 73.3826 159.741 74.0101 160.09C75.4379 160.883 76.8662 161.677 78.2939 162.47C78.614 162.648 78.8993 162.137 78.5781 161.959C77.3424 161.273 76.1068 160.586 74.8711 159.899C73.7033 159.251 72.493 158.649 71.3688 157.918C70.8489 157.581 70.3555 157.183 69.9797 156.67C69.6154 156.174 69.3588 155.595 69.138 155.016C68.6303 153.683 68.1695 152.327 67.6871 150.983C67.128 149.424 66.569 147.864 66.0099 146.304C65.8841 145.952 65.3394 146.105 65.4674 146.462Z" fill="#827454"/>
<path d="M83.1693 138.774C84.0998 140.782 84.9966 142.816 85.6606 144.941C86.3013 146.991 86.7323 149.145 86.617 151.313C86.5535 152.507 86.3068 153.678 85.8835 154.789C85.7489 155.143 86.293 155.296 86.4266 154.946C88.0464 150.699 86.8295 146.06 85.2119 142.032C84.729 140.829 84.1992 139.649 83.6556 138.476C83.4966 138.133 83.0109 138.433 83.1693 138.774Z" fill="#827454"/>
<path d="M81.4017 162.453C82.2311 161.781 82.8283 160.829 83.0507 159.748C83.0827 159.592 83.0065 159.428 82.8537 159.384C82.7129 159.343 82.5396 159.433 82.5071 159.59C82.3178 160.51 81.8299 161.364 81.1174 161.942C80.9971 162.039 80.9325 162.196 81.0164 162.347C81.0854 162.472 81.2802 162.552 81.4017 162.453Z" fill="#827454"/>
<path d="M69.5062 145.048C73.0466 144.108 76.5875 143.168 80.1279 142.228C80.4794 142.135 80.3304 141.564 79.9783 141.657C76.438 142.597 72.897 143.537 69.3566 144.477C69.0051 144.569 69.1541 145.141 69.5062 145.048Z" fill="#827454"/>
<path d="M76.6692 155.8C77.3144 156.363 77.9595 156.925 78.6047 157.488C78.7217 157.59 78.8884 157.609 79.0032 157.488C79.1031 157.383 79.1207 157.172 79.0032 157.069C78.358 156.506 77.7128 155.944 77.0677 155.381C76.9507 155.279 76.784 155.26 76.6692 155.381C76.5693 155.486 76.5511 155.697 76.6692 155.8Z" fill="#827454"/>
<path d="M79.1411 155.342C79.4022 155.482 79.6626 155.621 79.9237 155.761C79.991 155.797 80.0661 155.813 80.1406 155.791C80.2057 155.772 80.2769 155.719 80.3089 155.655C80.3768 155.52 80.3481 155.325 80.2079 155.25C79.9469 155.11 79.6864 154.97 79.4253 154.831C79.358 154.795 79.2829 154.78 79.2084 154.801C79.1433 154.82 79.0721 154.873 79.0401 154.937C78.9722 155.071 79.0009 155.266 79.1411 155.342Z" fill="#827454"/>
<path d="M73.3722 164.404C76.6857 165.713 80.4584 165.396 83.6318 163.802C85.2019 163.014 86.6363 161.895 87.7732 160.507C89.101 158.886 89.9201 156.882 91.2645 155.277C92.8285 153.41 95.0819 152.488 96.9335 151.004C97.2183 150.776 96.9379 150.261 96.6493 150.493C95.0262 151.794 93.1133 152.657 91.5857 154.095C90.0475 155.543 89.1728 157.537 87.9835 159.274C85.9569 162.234 82.671 164.119 79.2443 164.537C77.3116 164.773 75.3463 164.553 73.5223 163.833C73.1823 163.698 73.0355 164.271 73.3722 164.404Z" fill="#512C13"/>
<path d="M93.0465 161.025C93.6254 158.086 95.5449 155.544 98.1327 154.278C98.4611 154.117 98.1752 153.607 97.8485 153.767C95.142 155.09 93.1089 157.796 92.5034 160.868C92.43 161.24 92.9731 161.399 93.0465 161.025Z" fill="#512C13"/>
<path d="M98.7906 160.262C99.7564 158.668 102.385 158.882 103.156 160.56C103.314 160.903 103.8 160.603 103.642 160.261C102.678 158.163 99.4805 158.02 98.3038 159.963C98.109 160.286 98.5964 160.583 98.7906 160.262Z" fill="#512C13"/>
<path d="M109.112 156.342C111.324 156.355 113.19 158.344 113.56 160.568C113.664 161.197 113.628 161.843 113.46 162.456C113.36 162.824 113.904 162.98 114.004 162.614C114.685 160.12 113.274 157.334 111.094 156.239C110.473 155.927 109.802 155.754 109.112 155.75C108.75 155.748 108.75 156.34 109.112 156.342Z" fill="#512C13"/>
<path d="M117.725 161.386C120.696 162.08 123.457 163.613 125.669 165.811C125.933 166.072 126.332 165.654 126.068 165.392C123.788 163.126 120.938 161.53 117.875 160.815C117.521 160.733 117.371 161.304 117.725 161.386Z" fill="#512C13"/>
<path d="M104.229 163.899C105.54 165.871 107.622 167.16 109.896 167.418C110.256 167.459 110.253 166.866 109.896 166.826C107.835 166.592 105.902 165.384 104.715 163.599C104.509 163.29 104.02 163.585 104.229 163.899Z" fill="#512C13"/>
<path d="M102.715 143.686C104.33 145.37 105.12 147.798 104.851 150.169C104.808 150.547 105.372 150.543 105.414 150.169C105.701 147.652 104.824 145.051 103.114 143.268C102.855 142.999 102.457 143.417 102.715 143.686Z" fill="#512C13"/>
<path d="M101.901 148.096C102.135 150.356 103.069 152.485 104.57 154.125C104.822 154.4 105.22 153.981 104.969 153.706C103.579 152.187 102.681 150.194 102.465 148.096C102.425 147.721 101.862 147.717 101.901 148.096Z" fill="#512C13"/>
<path d="M116.646 168.135C117.605 169.652 119.121 170.74 120.823 171.097C121.177 171.172 121.328 170.601 120.972 170.527C119.414 170.199 118.014 169.23 117.133 167.837C116.933 167.52 116.445 167.817 116.646 168.135Z" fill="#512C13"/>
<path d="M121.039 169.443C121.995 170.272 123.292 170.582 124.493 170.239C124.843 170.139 124.694 169.567 124.344 169.668C123.349 169.952 122.236 169.716 121.438 169.024C121.321 168.922 121.154 168.903 121.039 169.024C120.94 169.129 120.922 169.34 121.039 169.443Z" fill="#512C13"/>
<path d="M85.0011 167.381C86.6298 168.305 88.5956 168.481 90.344 167.833C90.6839 167.707 90.5377 167.135 90.1944 167.262C88.5862 167.858 86.7887 167.723 85.2859 166.87C84.9664 166.688 84.6816 167.2 85.0011 167.381Z" fill="#512C13"/>
<path d="M62.9248 167.248C64.1451 169.005 66.3046 169.879 68.3306 169.417C68.6849 169.336 68.5348 168.765 68.181 168.846C66.4211 169.248 64.4757 168.481 63.4116 166.949C63.1997 166.644 62.7107 166.94 62.9248 167.248Z" fill="#512C13"/>
<path d="M62.3725 163.686C63.6816 163.686 64.9912 163.686 66.3003 163.686C66.6629 163.686 66.6634 163.093 66.3003 163.093C64.9912 163.093 63.6816 163.093 62.3725 163.093C62.0099 163.094 62.0093 163.686 62.3725 163.686Z" fill="#512C13"/>
<path d="M56.3767 166.242C57.5699 166.672 58.8447 166.764 60.0854 166.535C60.2355 166.507 60.3194 166.315 60.2819 166.171C60.2383 166.004 60.0859 165.936 59.9353 165.964C58.794 166.174 57.6201 166.065 56.5257 165.67C56.1824 165.546 56.0351 166.119 56.3767 166.242Z" fill="#512C13"/>
<path d="M35.0616 177.31C35.1516 176.756 35.4744 176.276 35.9369 175.994C37.4535 175.071 39.0231 174.243 40.6335 173.517C41.2113 173.256 41.8333 173.003 42.4536 173.113C43.9443 173.376 44.4636 175.425 45.7694 176.225C46.4068 176.616 47.1745 176.672 47.8754 176.913C48.6679 177.186 49.4753 177.871 49.2667 178.808C49.1663 179.26 48.8401 179.618 48.4356 179.804C47.6111 180.184 46.7446 179.938 45.9272 179.682C43.0806 178.79 39.5513 179.925 36.5556 179.483C35.5661 179.337 34.8939 178.347 35.0616 177.31Z" fill="#7F4924"/>
<path d="M5.67125 127.203C6.00072 127.588 6.11606 128.145 5.98416 128.64C5.95325 128.755 6.02224 128.881 6.13151 128.913C6.24244 128.945 6.36055 128.874 6.39146 128.758C6.56586 128.106 6.39973 127.391 5.96981 126.889C5.89365 126.8 5.74906 126.807 5.67125 126.889C5.58681 126.977 5.59453 127.113 5.67125 127.203Z" fill="#827454"/>
<path d="M8.66296 128.201C8.53161 128.614 8.40027 129.026 8.26892 129.439C8.2336 129.549 8.30921 129.686 8.41627 129.712C8.53272 129.74 8.63867 129.675 8.6762 129.557C8.80755 129.145 8.93891 128.731 9.07026 128.319C9.10503 128.209 9.02997 128.071 8.92291 128.046C8.80646 128.018 8.70104 128.083 8.66296 128.201Z" fill="#827454"/>
<path d="M12.6719 129.942C12.6719 130.356 12.6719 130.768 12.6719 131.181C12.6719 131.297 12.769 131.409 12.8832 131.403C12.9975 131.398 13.0946 131.306 13.0946 131.181C13.0946 130.768 13.0946 130.356 13.0946 129.942C13.0946 129.826 12.9975 129.715 12.8832 129.72C12.7685 129.726 12.6719 129.818 12.6719 129.942Z" fill="#827454"/>
<path d="M15.4214 128.704C15.4214 128.979 15.4214 129.254 15.4214 129.529C15.4214 129.645 15.5186 129.757 15.6328 129.751C15.7471 129.746 15.8442 129.654 15.8442 129.529C15.8442 129.254 15.8442 128.979 15.8442 128.704C15.8442 128.588 15.7471 128.476 15.6328 128.481C15.518 128.487 15.4214 128.579 15.4214 128.704Z" fill="#827454"/>
<path d="M20.1258 112.055C19.9944 112.33 19.8631 112.605 19.7317 112.88C19.6821 112.984 19.7025 113.126 19.8073 113.184C19.9034 113.237 20.0436 113.215 20.0965 113.105C20.2279 112.83 20.3592 112.555 20.4906 112.28C20.5402 112.176 20.5198 112.034 20.415 111.976C20.3189 111.922 20.1788 111.944 20.1258 112.055Z" fill="#827454"/>
<path d="M9.93738 108.667C12.4126 105.398 15.0209 102.242 17.7555 99.2103C18.5309 98.351 19.3168 97.5015 20.1115 96.662C20.3035 96.4589 20.005 96.145 19.8129 96.3481C17.0093 99.3089 14.326 102.395 11.7763 105.6C11.0533 106.508 10.3408 107.426 9.63882 108.353C9.47104 108.574 9.76795 108.891 9.93738 108.667Z" fill="#827454"/>
<path d="M11.9722 109.883C13.683 107.286 15.7145 104.927 18.0021 102.878C18.6589 102.29 19.3371 101.728 20.0342 101.193C20.2516 101.026 20.0413 100.641 19.8211 100.809C17.342 102.711 15.0997 104.945 13.1731 107.457C12.6256 108.171 12.104 108.905 11.6073 109.659C11.4523 109.894 11.8182 110.117 11.9722 109.883Z" fill="#827454"/>
<path d="M31.9164 71.7198C31.8187 72.6766 32.1438 73.6519 32.7696 74.3499C32.9567 74.5582 33.2548 74.2438 33.0682 74.036C32.513 73.417 32.2525 72.5629 32.3386 71.7198C32.3507 71.6003 32.2326 71.4976 32.1272 71.4976C32.0031 71.4976 31.9286 71.5997 31.9164 71.7198Z" fill="#827454"/>
<path d="M34.231 73.8579C34.3695 74.4062 34.5086 74.9545 34.6471 75.5028C34.6764 75.6188 34.7978 75.6896 34.9071 75.6577C35.018 75.6258 35.0842 75.501 35.0544 75.3844C34.9159 74.8361 34.7768 74.2878 34.6383 73.7395C34.6091 73.6234 34.4876 73.5527 34.3784 73.5846C34.2674 73.6165 34.2018 73.7418 34.231 73.8579Z" fill="#827454"/>
</svg>
