<svg width="135" height="180" viewBox="0 0 135 180" fill="none" xmlns="http://www.w3.org/2000/svg">
<path d="M132.931 27.1047C132.167 26.0156 131.197 25.0679 130.644 23.8458C128.595 19.3085 133.186 13.8707 131.597 9.13402C130.635 6.26314 127.54 4.63368 124.643 4.71436C121.746 4.79504 119.045 6.25746 116.653 7.97556C115.095 9.09425 113.571 10.3607 111.753 10.8925C109.936 11.4242 107.694 10.9964 106.696 9.3147C105.719 7.67046 106.229 5.46659 105.507 3.68316C104.568 1.36395 101.724 0.438998 99.3906 1.02704C97.0571 1.61451 95.1498 3.33829 93.4324 5.09899C92.6222 5.9302 91.8314 6.783 91.0611 7.65512C90.3585 7.15742 89.7732 6.49268 89.3978 5.6751C88.8731 4.53311 88.719 3.21557 88.0742 2.14346C87.0589 0.455477 84.9407 -0.274602 83.0724 0.0929938C81.2041 0.460589 79.5955 1.76734 78.4455 3.35704C76.7459 5.70579 76.0622 9.34651 78.0252 11.4566C78.7305 12.2146 79.6771 12.6657 80.4723 13.3179C81.2674 13.9701 81.9462 14.982 81.7477 16.0212C81.6336 16.6183 81.2485 17.1154 80.8455 17.5535C79.3034 19.233 77.21 20.6579 76.1028 22.5612C75.7042 23.0078 75.4326 23.385 75.3342 23.6685C74.645 25.6554 74.8933 28.1632 76.4593 29.4915C77.3923 30.283 78.6413 30.5449 79.8405 30.5619C84.3527 30.6278 89.5368 27.8382 92.957 30.9295C95.0265 32.8005 95.3062 36.0816 94.8404 38.9081C94.3747 41.7347 93.3232 44.4726 93.2989 47.3406C93.2902 48.3355 93.4227 49.3752 93.9604 50.1945C95.3121 52.2523 98.2893 51.8802 100.531 51.0393C104.911 49.3974 108.975 46.8361 112.417 43.5516C113.886 42.15 115.804 40.4944 117.607 41.3631C120.066 42.5477 119.029 46.5941 120.43 49.0247C121.569 51.0018 124.256 51.4865 126.303 50.6399C128.35 49.7934 129.86 47.9418 131.107 46.0379C134.763 40.4546 136.758 32.5584 132.931 27.1047Z" fill="#94B9D0"/>
<path d="M62.7331 46.4919C66.2571 49.1697 68.8567 52.9479 71.3936 56.6591C73.753 60.1112 76.113 63.5633 78.473 67.0154C79.9729 69.2101 81.4983 71.4566 82.2448 74.0417C82.9918 76.6268 82.8333 79.6591 81.1965 81.743C80.7708 82.2851 80.2342 82.7623 79.5894 82.9498C78.6234 83.2305 77.6054 82.8208 76.7069 82.3549C72.7745 80.3158 69.4468 77.0126 67.2875 73.0037C66.3274 74.5593 65.3673 76.1155 64.4072 77.6711C55.8181 76.7325 47.1446 76.6467 38.5398 77.4148C36.9614 74.761 36.7883 73.0486 35.5594 70.1982C34.3742 73.8741 31.9531 76.4984 30.768 80.1749C30.536 80.8954 30.2947 81.6328 29.8387 82.2237C29.3135 82.9043 28.5524 83.3276 27.813 83.7333C26.5635 84.4179 25.3145 85.1025 24.065 85.7872C23.6615 86.0087 23.2315 86.236 22.7771 86.2053C22.2773 86.1718 21.8446 85.8309 21.4979 85.452C19.721 83.5128 19.5192 80.5414 19.6447 77.8535C20.0309 69.576 23.8189 60.6702 29.267 54.6751C42.7573 39.8303 59.4189 43.9745 62.7331 46.4919Z" fill="#277AAE"/>
<path d="M79.6565 66.1966C80.6264 67.0914 81.864 67.613 82.8517 68.4857C84.489 69.9328 85.2798 72.2446 85.3069 74.4916C85.3339 76.7427 84.6713 78.9454 83.808 81.0055C83.5397 81.6464 83.1497 82.2191 82.6835 82.7191C82.1772 83.2617 81.2468 84.7491 80.714 84.8911C78.9441 85.3627 77.4377 84.24 75.8106 83.3696C74.7445 82.7992 74.0002 81.7447 73.3149 80.7141C72.8135 79.9596 72.3185 79.1914 71.9713 78.3466C71.1502 76.3501 71.2162 74.0383 71.8247 71.9594C71.8306 71.9384 71.8371 71.9179 71.8431 71.8969C72.847 68.5311 75.8274 66.2472 79.1854 66.2023L79.6565 66.1966Z" fill="#3DA7E9"/>
<path d="M22.8583 77.1306C20.6082 78.1442 19.0968 80.677 19.1758 83.4792C19.1942 84.1263 19.2981 84.6928 19.5306 85.0825C19.8801 85.6683 20.4161 86.0609 20.937 86.4376C21.7381 87.0159 22.5549 87.6028 23.469 87.8733C24.8624 88.2852 26.3596 87.9125 27.6508 87.1773C28.9419 86.4421 30.0627 85.366 31.1656 84.2939C32.4205 83.0746 33.7728 81.6122 33.8193 79.7129C33.8664 77.7846 32.4422 76.1278 30.8459 75.5943C29.2497 75.0608 27.5383 75.4142 25.9339 75.9148C24.9917 76.2091 23.8704 76.675 22.8583 77.1306Z" fill="#3DA7E9"/>
<path d="M28.7001 154.345C25.8544 158.226 23.192 162.255 20.7255 166.412C18.914 165.954 17.1019 165.497 15.2899 165.039C17.3886 158.976 19.7859 156.087 23.2715 150.775L28.7001 154.345Z" fill="#94B9D0"/>
<path d="M26.927 155.819C24.5762 158.014 22.4283 160.445 20.5194 163.07C19.9758 163.817 19.4527 164.58 18.9486 165.357C18.8312 165.538 18.5754 165.33 18.6922 165.15C20.4799 162.394 22.5191 159.823 24.7747 157.477C25.4108 156.815 26.0637 156.172 26.7328 155.547C26.8875 155.402 27.0817 155.674 26.927 155.819Z" fill="#87795B"/>
<path d="M24.8251 154.642C22.6571 157.248 20.6731 160.023 18.8973 162.939C18.4007 163.754 17.9209 164.58 17.4574 165.416C17.353 165.605 17.0976 165.396 17.201 165.209C18.8599 162.218 20.7299 159.357 22.7935 156.658C23.3701 155.904 23.9623 155.163 24.5687 154.434C24.705 154.27 24.9619 154.476 24.8251 154.642Z" fill="#87795B"/>
<path d="M22.4504 153.339C20.8061 156.385 19.1617 159.43 17.5173 162.475C17.0576 163.326 16.5978 164.178 16.138 165.029C16.0947 165.109 16.0158 165.159 15.9271 165.122C15.854 165.091 15.7956 164.98 15.8383 164.9C17.4827 161.855 19.1271 158.81 20.7714 155.765C21.2312 154.914 21.691 154.062 22.1507 153.211C22.194 153.13 22.273 153.081 22.3617 153.118C22.4347 153.149 22.4937 153.26 22.4504 153.339Z" fill="#87795B"/>
<path d="M16.7168 161.293C16.9813 162.535 18.3363 163.39 19.5047 163.051C20.4859 162.767 21.4184 161.787 22.3553 162.205C23.2202 162.59 23.2829 163.812 23.4712 164.778C23.7265 166.09 24.4394 167.248 25.1599 168.353C25.8804 169.458 26.636 170.573 26.9973 171.858C27.3587 173.142 27.1531 174.831 26.2947 175.822C23.8768 174.078 15.1206 169.129 13.6753 167.644L16.7168 161.293Z" fill="#EC8117"/>
<mask id="mask0_2130_2417" style="mask-type:luminance" maskUnits="userSpaceOnUse" x="13" y="161" width="15" height="15">
<path d="M16.7168 161.293C16.9813 162.535 18.3363 163.39 19.5047 163.051C20.4859 162.767 21.4184 161.787 22.3553 162.205C23.2202 162.59 23.2829 163.812 23.4712 164.778C23.7265 166.09 24.4394 167.248 25.1599 168.353C25.8804 169.458 26.636 170.573 26.9973 171.858C27.3587 173.142 27.1531 174.831 26.2947 175.822C23.8768 174.078 15.1206 169.129 13.6753 167.644L16.7168 161.293Z" fill="white"/>
</mask>
<g mask="url(#mask0_2130_2417)">
<path d="M10.8544 164.526L10.049 167.228L26.1075 177.634L26.9811 174.976C21.6056 171.493 16.23 168.01 10.8544 164.526C16.2749 168.039 21.6953 171.551 27.1158 175.064L10.8544 164.526Z" fill="#210A0A"/>
</g>
<mask id="mask1_2130_2417" style="mask-type:luminance" maskUnits="userSpaceOnUse" x="13" y="161" width="15" height="15">
<path d="M16.7168 161.293C16.9813 162.535 18.3363 163.39 19.5047 163.051C20.4859 162.767 21.4184 161.787 22.3553 162.205C23.2202 162.59 23.2829 163.812 23.4712 164.778C23.7265 166.09 24.4394 167.248 25.1599 168.353C25.8804 169.458 26.636 170.573 26.9973 171.858C27.3587 173.142 27.1531 174.831 26.2947 175.822C23.8768 174.078 15.1206 169.129 13.6753 167.644L16.7168 161.293Z" fill="white"/>
</mask>
<g mask="url(#mask1_2130_2417)">
<path d="M23.2862 162.538C21.3876 163.455 19.165 164.37 17.2913 163.4C16.8888 163.191 16.5178 162.894 16.2814 162.493C15.7968 161.673 15.9585 160.622 16.1359 159.675C18.874 160.774 22.1286 160.253 24.6184 161.877L23.2862 162.538Z" fill="#4B89AF"/>
</g>
<path d="M26.1664 169.385C25.5958 168.909 24.6568 168.991 24.2073 169.598C24.1402 169.688 24.0293 169.732 23.9292 169.667C23.8443 169.612 23.7962 169.466 23.8632 169.376C24.4431 168.593 25.6234 168.395 26.3785 169.024C26.464 169.094 26.5067 169.21 26.4445 169.315C26.3926 169.404 26.2524 169.456 26.1664 169.385Z" fill="#1C1C1B"/>
<path d="M25.1836 167.609C24.3972 167.437 23.5495 167.705 22.974 168.29C22.7874 168.479 22.5115 168.169 22.6992 167.979C23.3802 167.287 24.3728 166.999 25.2967 167.202C25.4032 167.226 25.4627 167.361 25.4341 167.465C25.4016 167.582 25.2907 167.633 25.1836 167.609Z" fill="#1C1C1B"/>
<path d="M24.5767 166.194C23.6215 166.019 22.5976 166.317 21.8581 166.973C21.6607 167.149 21.3837 166.84 21.5828 166.663C22.4391 165.903 23.5869 165.585 24.6893 165.787C24.7969 165.807 24.8548 165.949 24.8266 166.05C24.7936 166.17 24.6844 166.214 24.5767 166.194Z" fill="#1C1C1B"/>
<path d="M26.445 171.595C25.4227 171.602 24.4426 172.102 23.7897 172.925C23.7199 173.013 23.5717 172.99 23.5041 172.914C23.4219 172.821 23.4441 172.703 23.5144 172.614C24.2327 171.71 25.3362 171.178 26.4548 171.171C26.7155 171.169 26.7047 171.594 26.445 171.595Z" fill="#1C1C1B"/>
<path d="M16.7228 168.924C17.0122 167.792 16.7796 166.556 16.1532 165.593C15.9769 165.321 15.761 165.076 15.5246 164.861C15.4419 164.786 15.4614 164.633 15.5349 164.561C15.622 164.476 15.7378 164.497 15.8205 164.572C16.7385 165.408 17.2572 166.686 17.2507 167.957C17.2491 168.323 17.2009 168.689 17.1106 169.042C17.043 169.307 16.6552 169.187 16.7228 168.924Z" fill="#1C1C1B"/>
<path d="M20.2365 165.133C19.9244 164.241 18.6305 163.969 18.015 164.665C17.4 165.36 17.7543 166.696 18.623 166.957C19.4922 167.218 20.4653 166.282 20.2938 165.35L20.2365 165.133Z" fill="#4B89AF"/>
<path d="M67.3373 155.921C66.8754 160.795 66.6434 165.694 66.6423 170.593C64.874 171.21 63.1058 171.828 61.3376 172.445C60.0675 166.134 60.3466 159.606 60.6322 153.162L67.3373 155.921Z" fill="#94B9D0"/>
<path d="M66.5741 158.156C65.6837 161.325 65.0839 164.581 64.7848 167.869C64.6998 168.805 64.6393 169.744 64.6025 170.683C64.5938 170.902 64.272 170.867 64.2806 170.649C64.411 167.318 64.8475 164.003 65.581 160.759C65.7876 159.844 66.0186 158.936 66.2717 158.034C66.3312 157.824 66.633 157.948 66.5741 158.156Z" fill="#87795B"/>
<path d="M64.1974 158.325C63.6689 161.741 63.3817 165.198 63.3422 168.66C63.3314 169.627 63.3395 170.595 63.3671 171.562C63.373 171.781 63.0512 171.745 63.0452 171.529C62.9484 168.069 63.0955 164.602 63.4888 161.166C63.5986 160.205 63.7278 159.247 63.8755 158.291C63.9085 158.076 64.2309 158.108 64.1974 158.325Z" fill="#87795B"/>
<path d="M61.5268 158.538C61.6637 162.036 61.8011 165.534 61.9379 169.032C61.9763 170.01 62.0147 170.987 62.0526 171.966C62.0564 172.058 62.0142 172.144 61.9206 172.162C61.8433 172.177 61.7372 172.115 61.734 172.023C61.5971 168.525 61.4603 165.028 61.3229 161.529C61.2845 160.552 61.2461 159.573 61.2082 158.595C61.2045 158.503 61.2467 158.417 61.3402 158.399C61.417 158.385 61.523 158.447 61.5268 158.538Z" fill="#87795B"/>
<path d="M60.6636 168.473C61.5133 169.381 63.0933 169.354 63.915 168.418C64.6046 167.631 64.9032 166.282 65.9083 166.116C66.8359 165.963 67.5045 166.964 68.1509 167.68C69.0282 168.652 70.2155 169.239 71.3839 169.777C72.5517 170.315 73.7541 170.841 74.7077 171.731C75.6614 172.621 76.3364 174.168 76.1065 175.486C73.1764 175.349 63.2534 176.011 61.2791 175.553L60.6636 168.473Z" fill="#EC8117"/>
<mask id="mask2_2130_2417" style="mask-type:luminance" maskUnits="userSpaceOnUse" x="60" y="166" width="17" height="10">
<path d="M60.6636 168.473C61.5133 169.381 63.0933 169.354 63.915 168.418C64.6046 167.631 64.9032 166.282 65.9083 166.116C66.8359 165.963 67.5045 166.964 68.1509 167.68C69.0282 168.652 70.2155 169.239 71.3839 169.777C72.5517 170.315 73.7541 170.841 74.7077 171.731C75.6614 172.621 76.3364 174.168 76.1065 175.486C73.1764 175.349 63.2534 176.011 61.2791 175.553L60.6636 168.473Z" fill="white"/>
</mask>
<g mask="url(#mask2_2130_2417)">
<path d="M57.3148 174.474L57.991 177.214L76.859 177.129L76.2629 174.388C69.9472 174.416 63.631 174.445 57.3148 174.474C63.684 174.445 70.0527 174.416 76.4219 174.387L57.3148 174.474Z" fill="#210A0A"/>
</g>
<mask id="mask3_2130_2417" style="mask-type:luminance" maskUnits="userSpaceOnUse" x="60" y="166" width="17" height="10">
<path d="M60.6636 168.473C61.5133 169.381 63.0933 169.354 63.915 168.418C64.6046 167.631 64.9032 166.282 65.9083 166.116C66.8359 165.963 67.5045 166.964 68.1509 167.68C69.0282 168.652 70.2155 169.239 71.3839 169.777C72.5517 170.315 73.7541 170.841 74.7077 171.731C75.6614 172.621 76.3364 174.168 76.1065 175.486C73.1764 175.349 63.2534 176.011 61.2791 175.553L60.6636 168.473Z" fill="white"/>
</mask>
<g mask="url(#mask3_2130_2417)">
<path d="M66.8657 165.881C65.7157 167.714 64.2904 169.726 62.2112 169.942C61.7649 169.989 61.3003 169.942 60.8979 169.734C60.074 169.307 59.6813 168.325 59.3557 167.422C62.2328 166.835 64.7334 164.584 67.6641 164.58L66.8657 165.881Z" fill="#4B89AF"/>
</g>
<path d="M72.7578 170.094C72.0341 170.008 71.2779 170.598 71.2022 171.364C71.1908 171.478 71.1183 171.577 71.0009 171.577C70.9009 171.578 70.7867 171.481 70.7981 171.366C70.8955 170.379 71.7982 169.556 72.7556 169.67C72.8638 169.683 72.9579 169.757 72.9585 169.881C72.959 169.986 72.8665 170.107 72.7578 170.094Z" fill="#1C1C1B"/>
<path d="M71.0296 169.133C70.275 169.423 69.6914 170.122 69.4967 170.938C69.4334 171.203 69.0434 171.093 69.1067 170.827C69.3365 169.862 70.0338 169.065 70.9203 168.725C71.0226 168.685 71.1415 168.767 71.1691 168.872C71.201 168.989 71.1324 169.093 71.0296 169.133Z" fill="#1C1C1B"/>
<path d="M69.8017 168.269C68.9021 168.65 68.1838 169.472 67.8868 170.44C67.8073 170.699 67.4168 170.59 67.4968 170.329C67.8409 169.208 68.6549 168.301 69.6929 167.861C69.7941 167.818 69.9147 167.906 69.9418 168.008C69.9737 168.128 69.9034 168.226 69.8017 168.269Z" fill="#1C1C1B"/>
<path d="M74.1062 171.815C73.2419 172.389 72.662 173.358 72.5214 174.419C72.5062 174.532 72.3694 174.595 72.2736 174.568C72.1573 174.535 72.1162 174.421 72.1314 174.308C72.2861 173.141 72.9547 172.077 73.9007 171.45C74.1214 171.304 74.3258 171.67 74.1062 171.815Z" fill="#1C1C1B"/>
<path d="M64.5095 174.947C64.1849 173.825 63.366 172.907 62.3491 172.437C62.0624 172.304 61.7557 172.216 61.4468 172.165C61.3392 172.148 61.2786 172.007 61.3046 171.905C61.3354 171.784 61.4441 171.738 61.5523 171.755C62.752 171.955 63.836 172.753 64.47 173.834C64.6528 174.146 64.7967 174.484 64.8978 174.833C64.9741 175.095 64.5847 175.208 64.5095 174.947Z" fill="#1C1C1B"/>
<path d="M65.5832 169.778C64.8697 169.195 63.6343 169.682 63.4623 170.614C63.2903 171.547 64.2628 172.483 65.132 172.222C66.0013 171.961 66.3561 170.626 65.7411 169.93L65.5832 169.778Z" fill="#4B89AF"/>
<path d="M31.2603 125.479L35.1835 94.7445L38.125 81.6088C37.9037 79.739 37.4418 77.8579 37.1199 76.0034C37.0696 75.7148 37.0242 75.4108 37.114 75.133C37.2103 74.8347 37.4461 74.6143 37.6625 74.3967C40.1734 71.878 41.1351 68.076 41.3255 64.4347C41.6355 58.502 42.1558 51.1098 38.5631 46.5196C39.11 46.1447 40.7105 45.7418 41.2574 45.3669C44.267 49.7683 43.6141 55.859 45.4618 60.9184C49.6009 60.6547 53.7405 60.3905 57.8795 60.1269C58.3339 60.0979 58.6925 59.2707 58.7336 58.9418C59.406 53.5119 58.3923 50.4285 58.7336 44.5839C59.8106 44.5709 60.7961 44.5538 61.4566 44.7851C62.3269 55.7607 60.8989 64.4119 64.4267 74.6012C64.5214 74.8751 64.6312 75.1625 64.8551 75.3347C65.079 75.5068 65.4517 75.4949 65.5832 75.2387L65.7925 75.4807C65.9629 78.23 66.0256 80.9861 65.9823 83.7405L69.6384 98.6313L73.322 131.361L70.262 159.083L67.492 159.589C65.3376 159.983 59.8106 161.28 57.7189 160.61L56.5208 160.227L57.8914 130.162L53.913 106.339L48.062 130.881L27.6686 163.179L17.5276 156.357L31.2603 125.479Z" fill="#C2B38C"/>
<path d="M92.6859 39.8109C93.5762 38.7683 94.466 37.7263 95.3564 36.6837C95.7956 36.169 96.2354 35.6548 96.6746 35.1401C97.0451 34.7066 97.4059 34.2538 97.8181 33.8771C98.1653 33.5595 98.5607 33.268 98.9962 33.1828C99.4673 33.0913 99.9081 33.2493 100.304 33.5311C100.785 33.8742 101.21 34.3083 101.647 34.7094C102.14 35.1611 102.633 35.6133 103.125 36.065C103.601 36.5014 104.073 36.944 104.555 37.3729C104.958 37.7314 105.391 38.0769 105.884 38.2876C106.376 38.4979 106.912 38.5518 107.431 38.4286C107.971 38.3001 108.46 38.0325 108.927 37.7252C109.408 37.4087 109.887 37.0695 110.325 36.6906C110.778 36.2985 111.185 35.8355 111.422 35.2651C111.633 34.7577 111.703 34.189 111.562 33.6515C111.394 33.0163 110.68 32.73 110.455 32.1402C107.732 24.9798 106.481 28.4489 104.493 26.6036C104.247 26.3752 104.001 26.1468 103.755 25.9184C103.632 25.8042 103.425 25.8434 103.328 25.9735C103.222 26.1161 103.257 26.3076 103.381 26.4218C105.343 28.2438 107.305 30.0659 109.267 31.888C109.513 32.1164 109.759 32.3448 110.005 32.5732C110.221 32.7737 110.445 32.9697 110.633 33.201C110.971 33.6174 111.094 34.0668 110.994 34.5918C110.78 35.7048 109.731 36.3974 108.881 36.9957C108.107 37.5405 107.181 38.099 106.23 37.7428C105.758 37.5655 105.356 37.2451 104.975 36.9093C104.502 36.4923 104.041 36.0576 103.576 35.6304C103.089 35.1844 102.602 34.7384 102.116 34.2924C101.681 33.8941 101.258 33.4686 100.791 33.1112C100.347 32.7714 99.8486 32.5226 99.2904 32.5163C98.7798 32.5107 98.2979 32.7237 97.8803 33.018C97.4567 33.3169 97.0922 33.7049 96.7492 34.0981C96.3235 34.5867 95.9065 35.0838 95.4851 35.577C94.6062 36.6059 93.7277 37.6354 92.8487 38.6643C92.6345 38.9149 92.4203 39.166 92.2067 39.4166C92.0969 39.545 92.1363 39.7637 92.2591 39.8648C92.396 39.9785 92.5761 39.9398 92.6859 39.8109Z" fill="#277AAE"/>
<path d="M106.976 33.9634L92.0974 16.3609L97.368 11.4458L112.246 29.0483C113.243 30.2273 112.871 32.2834 111.415 33.6407C109.96 34.998 107.973 35.1424 106.976 33.9634Z" fill="#F2E3C0"/>
<path d="M95.7756 15.1371C94.2557 16.5547 92.5383 17.1302 91.9406 16.4229C91.3423 15.7155 92.0899 13.9929 93.6104 12.5753C95.1303 11.1578 96.8477 10.5822 97.4454 11.2896C98.0436 11.9964 97.2961 13.719 95.7756 15.1371Z" fill="#B7A88A"/>
<path d="M54.6638 40.0172C54.818 41.2302 54.8737 43.6045 54.8937 45.3493C54.9088 46.668 54.1332 47.8532 52.9562 48.3117C51.5038 48.8776 49.5506 49.5093 48.2259 49.4338C48.194 49.4321 48.161 49.4292 48.1275 49.4258C46.7119 49.2872 45.6095 48.0702 45.4927 46.5822C45.3299 44.5102 45.0735 41.4416 44.8571 39.7416C46.694 39.4848 48.5418 39.3116 50.3933 39.2224L54.6638 40.0172Z" fill="#F6A472"/>
<path d="M54.4566 26.1854C55.8841 28.2217 56.531 30.8449 56.2238 33.3527C55.9165 35.8611 54.6595 38.2269 52.7879 39.8177C52.2167 40.3035 51.58 40.7239 50.8725 40.9324C50.1948 41.1319 49.4759 41.1296 48.7776 41.0364C46.1612 40.6864 43.7558 39.0331 42.2948 36.727C40.8338 34.4208 40.3075 31.5107 40.7316 28.7768C40.9993 27.0519 41.6225 25.4127 42.2407 23.7901L54.4566 26.1854Z" fill="#512C13"/>
<path d="M53.8005 26.1583C53.9357 28.7331 54.5626 31.2563 54.739 33.8283C54.9153 36.4004 54.5761 39.161 53.0275 41.1626C52.4747 41.8768 51.7575 42.4847 50.911 42.7228C49.6977 43.0642 48.3952 42.6023 47.3426 41.883C45.5662 40.6689 44.3032 38.7571 43.468 36.7111C42.6323 34.6658 42.1877 32.4716 41.748 30.2944C41.418 28.661 41.088 27.0275 40.7586 25.3947L53.8005 26.1583Z" fill="#F6A472"/>
<path d="M43.4015 35.9236C42.9764 35.5117 42.4273 35.0686 41.8778 35.2589C41.3439 35.4441 41.14 36.1373 41.1708 36.727C41.2227 37.7076 41.7285 38.6508 42.4998 39.2059C43.2712 39.761 44.2913 39.9155 45.1806 39.6115L43.4015 35.9236Z" fill="#F6A472"/>
<path d="M54.5707 33.484C54.9201 32.8272 55.4037 32.1181 56.1171 32.0545C56.7176 32.0005 57.2828 32.4658 57.5181 33.0482C57.7534 33.6306 57.7123 34.2987 57.5646 34.9123C57.2514 36.2128 56.1372 37.5236 54.8958 37.2054L54.5707 33.484Z" fill="#F6A472"/>
<path d="M43.6141 36.4883C43.0445 34.4077 42.7226 32.2499 42.6588 30.0852C42.6518 29.8437 42.6502 29.5898 42.7556 29.3784C42.8892 29.1097 43.1646 28.9682 43.4237 28.8489C46.4879 27.4416 49.8513 26.7939 53.1865 26.9694C53.2774 26.974 53.3753 26.9825 53.4467 27.0444C53.5327 27.1194 53.5549 27.2484 53.5711 27.3666C53.8881 29.6489 54.2056 31.9311 54.5226 34.2128C54.7011 34.1918 54.8796 34.1702 55.0581 34.1486C54.6632 32.1328 55.3048 30.0324 55.017 27.9961C54.6108 25.1207 52.1875 22.7543 49.5224 22.5021C46.8574 22.2498 44.182 24.0503 43.1056 26.6984C42.7822 27.4939 42.5901 28.3506 42.2229 29.1227C42.0222 29.5449 41.7674 29.9483 41.6803 30.4147C41.6062 30.8113 41.6598 31.2221 41.7139 31.6238C41.8853 32.9049 41.8626 33.9509 42.0341 35.2327C42.6269 35.3241 43.3712 35.9525 43.6855 36.5087L43.6141 36.4883Z" fill="#512C13"/>
<path d="M56.418 28.5281C56.1318 28.6366 55.8154 28.5854 55.5741 28.4019C54.9845 27.9531 54.1467 27.8463 53.378 27.823C49.0838 27.6929 44.7397 29.0576 41.2606 31.6302C41.028 31.8018 40.7927 31.9824 40.5163 32.0637C39.8867 32.2483 39.1575 31.7728 39.0753 31.1239C38.9931 30.4751 39.5789 29.8161 40.2323 29.8217C39.904 27.5451 39.6113 25.0674 40.764 23.0579C41.5213 21.738 44.2783 19.9302 44.2783 19.9302C44.5731 18.4558 46.0541 17.7894 47.2171 18.424C47.4086 18.5286 48.076 19.2365 48.2664 19.3433C48.6792 19.5751 49.1617 19.6433 49.6166 19.7762C52.3714 20.583 53.7594 23.5635 54.8201 26.2327C55.4081 26.0753 56.0772 26.3179 56.4217 26.8139C56.7685 27.3099 56.7663 28.0252 56.418 28.5281Z" fill="#EC8117"/>
<path d="M56.6462 28.8473C56.7944 28.5973 56.71 28.2547 56.4639 28.1229C53.8297 26.7173 50.7579 26.4491 47.91 27.0979C44.8955 27.7854 42.1206 29.4501 39.7374 31.5818C39.6043 31.7011 39.4653 31.8307 39.4859 32.0653C39.5091 32.3312 39.7168 32.5289 39.9564 32.5624C40.3535 32.6181 40.6753 32.3301 40.9744 32.0727C43.1933 30.166 45.933 29.2047 48.6986 28.5002C48.8349 28.4655 49.0059 28.4308 49.2 28.3973C51.2122 28.0485 53.2736 28.1865 55.2344 28.774L56.1221 29.0399C56.3184 29.1166 56.5342 29.0371 56.6462 28.8473Z" fill="#B26016"/>
<path d="M48.2351 19.6296C48.8046 21.5585 49.2801 23.5186 49.6549 25.4997C49.7604 26.056 49.8572 26.6133 49.947 27.1724C49.9757 27.3502 49.7112 27.3866 49.6825 27.2093C49.3672 25.2424 48.9561 23.2919 48.4471 21.3704C48.3021 20.8244 48.1496 20.2801 47.9895 19.7387C47.9392 19.5682 48.1842 19.4574 48.2351 19.6296Z" fill="#B26016"/>
<path d="M44.4281 20.317C45.2297 22.218 45.8345 24.21 46.2282 26.2474C46.3397 26.8252 46.4338 27.4064 46.5117 27.9899C46.5355 28.1683 46.271 28.2052 46.2472 28.0268C45.9756 25.9843 45.4942 23.9753 44.8094 22.0425C44.6163 21.4971 44.4065 20.9584 44.1825 20.4261C44.1133 20.2613 44.3589 20.1528 44.4281 20.317Z" fill="#B26016"/>
<path d="M41.4645 22.6823C42.1244 23.1999 42.4836 24.0192 42.8157 24.7862C43.1976 25.668 43.5226 26.577 43.7882 27.5048C43.9375 28.027 44.0684 28.5542 44.1809 29.0866C44.2183 29.2627 43.9537 29.2985 43.9164 29.1235C43.7233 28.2116 43.474 27.3134 43.1694 26.4356C42.8768 25.5924 42.5479 24.7447 42.1309 23.9601C41.9178 23.559 41.6554 23.1823 41.3022 22.9051C41.1648 22.7965 41.3271 22.5744 41.4645 22.6823Z" fill="#B26016"/>
<path d="M51.149 20.8329C51.1236 22.4879 51.2577 24.1452 51.5477 25.7724C51.6299 26.2343 51.7251 26.694 51.8316 27.1502C51.8727 27.3252 51.6077 27.3604 51.5671 27.1871C51.1863 25.56 50.9613 23.8936 50.8991 22.2192C50.8812 21.7448 50.8775 21.2693 50.8845 20.7948C50.8877 20.6153 51.1517 20.6545 51.149 20.8329Z" fill="#B26016"/>
<path d="M54.5702 26.3197C53.8676 26.1925 53.1649 26.0659 52.4628 25.9387C52.2946 25.9081 52.3298 25.631 52.4991 25.6617C53.2017 25.7888 53.9044 25.9155 54.6065 26.0426C54.7752 26.0733 54.7395 26.3509 54.5702 26.3197Z" fill="#B26016"/>
<path d="M43.1029 28.2297C42.2975 28.6802 41.5094 29.1643 40.7402 29.6802C40.5963 29.7768 40.4319 29.5563 40.5768 29.4592C41.3649 28.9302 42.1731 28.4337 42.999 27.9718C43.1505 27.8871 43.2533 28.1456 43.1029 28.2297Z" fill="#B26016"/>
<path d="M56.4185 33.3044C55.9468 33.9146 55.6439 34.6498 55.5444 35.4287C55.5217 35.6071 55.2572 35.5696 55.2804 35.3906C55.3859 34.5663 55.7077 33.7805 56.207 33.1345C56.3146 32.9947 56.5267 33.1641 56.4185 33.3044Z" fill="#7F4924"/>
<path d="M56.1908 34.6944C55.9987 34.6251 55.8072 34.5559 55.6152 34.4866C55.5492 34.4628 55.5146 34.3685 55.5438 34.3032C55.5763 34.2311 55.6477 34.2027 55.7186 34.2283C55.9106 34.2975 56.102 34.3668 56.2941 34.4361C56.3601 34.4599 56.3947 34.5542 56.3655 34.6195C56.3325 34.6916 56.2611 34.7199 56.1908 34.6944Z" fill="#7F4924"/>
<path d="M43.3523 37.7801C42.9558 37.4383 42.5593 37.0965 42.1628 36.7547C42.0303 36.6406 42.1921 36.418 42.3251 36.5327C42.7216 36.8745 43.1181 37.2163 43.5146 37.5581C43.6471 37.6722 43.4854 37.8948 43.3523 37.7801Z" fill="#7F4924"/>
<path d="M42.7908 37.4171C42.7848 37.4228 42.7789 37.429 42.7724 37.4347C42.794 37.4103 42.7583 37.4472 42.7724 37.4347C42.7626 37.4461 42.7524 37.4574 42.7432 37.4699C42.734 37.4818 42.7253 37.4943 42.7167 37.5068C42.7124 37.5136 42.7075 37.521 42.7032 37.5284C42.7015 37.5312 42.6907 37.5517 42.6994 37.5352C42.7091 37.517 42.6956 37.5432 42.6939 37.5466C42.6902 37.554 42.6864 37.5619 42.6831 37.5699C42.6772 37.584 42.6712 37.5982 42.6658 37.6124C42.6604 37.6266 42.6555 37.6414 42.6512 37.6561C42.6458 37.6737 42.6442 37.6703 42.6512 37.6561C42.648 37.663 42.6469 37.6737 42.6458 37.6811C42.6399 37.7112 42.6355 37.7419 42.6328 37.7731C42.6323 37.7816 42.6318 37.7901 42.6312 37.7987C42.6301 37.8174 42.6323 37.8009 42.6307 37.7918C42.6339 37.8077 42.6317 37.827 42.6328 37.8435C42.6355 37.8742 42.6404 37.9048 42.6464 37.9349C42.6529 37.9678 42.6399 37.915 42.6458 37.9332C42.6485 37.9412 42.6507 37.9497 42.6534 37.9576C42.6588 37.9741 42.6647 37.99 42.6712 38.0059C42.6988 38.0729 42.6674 38.1631 42.6004 38.1893C42.5322 38.2159 42.4554 38.187 42.4257 38.1149C42.2958 37.7998 42.3835 37.4211 42.6269 37.1951C42.6794 37.1463 42.774 37.1611 42.814 37.2195C42.8584 37.2854 42.8465 37.3649 42.7908 37.4171Z" fill="#7F4924"/>
<path d="M49.5684 31.3154C49.8188 32.3006 50.0493 33.2909 50.258 34.2863C50.3624 34.784 50.4614 35.2828 50.5555 35.7834C50.5983 36.0112 50.6573 36.2441 50.68 36.4748C50.6962 36.6413 50.6534 36.8373 50.4766 36.8822C50.3668 36.91 50.2548 36.8611 50.152 36.8231C50.0449 36.7839 49.94 36.7384 49.8372 36.6873C49.622 36.5805 49.4175 36.4498 49.2265 36.2998C49.0892 36.1919 49.2509 35.9691 49.3888 36.0777C49.5413 36.1975 49.702 36.3049 49.8724 36.3947C49.9513 36.4362 50.032 36.4742 50.1136 36.5089C50.1834 36.5384 50.3073 36.6123 50.3835 36.6072C50.4209 36.6043 50.3998 36.6214 50.416 36.5856C50.4263 36.5623 50.4171 36.522 50.4144 36.4975C50.403 36.3924 50.3781 36.2873 50.3592 36.1839C50.3176 35.9561 50.2754 35.7288 50.2315 35.5021C50.0612 34.6164 49.874 33.734 49.6706 32.8562C49.5538 32.3534 49.4321 31.8523 49.305 31.3523C49.2595 31.179 49.5246 31.1438 49.5684 31.3154Z" fill="#7F4924"/>
<path d="M46.7286 38.7076C47.5205 37.7366 48.6856 37.1122 49.8989 37.0094C51.1121 36.9066 52.3579 37.3258 53.2877 38.1508C53.7112 36.7622 54.1347 35.3737 54.5583 33.9857L54.574 33.8232C54.687 33.8345 54.7995 33.8453 54.9126 33.8567C55.5352 36.0032 55.0868 38.323 54.4815 40.4746C54.1861 41.5234 53.8454 42.5796 53.2325 43.4642C52.6197 44.3488 51.6909 45.0493 50.6518 45.1198C49.3271 45.2096 48.1393 44.2937 47.1965 43.3119C45.0096 41.0353 43.4171 38.1343 42.6377 35.0055C43.8991 36.3571 45.2692 37.5969 46.7286 38.7076ZM48.8782 40.6814C49.5067 41.049 50.3116 41.0819 50.9477 40.7302C51.6168 40.3604 52.7165 38.8673 52.9334 38.8229C52.9334 38.8229 50.5593 38.436 49.9979 37.7434C49.5543 38.5872 48.5672 39.0735 47.666 38.8923C47.8061 39.6337 48.2502 40.3138 48.8782 40.6814Z" fill="#512C13"/>
<path d="M50.1336 29.0991C50.0314 29.3324 50.1417 29.6424 50.3651 29.748C50.5025 29.8127 50.6594 29.8042 50.8092 29.794C51.6888 29.7361 52.5683 29.6776 53.4478 29.6197C53.4629 29.3466 53.2666 29.0991 53.0313 28.9804C52.796 28.8617 52.5282 28.8441 52.2675 28.8294C51.6336 28.7925 50.9996 28.755 50.3657 28.7181C50.2705 28.7124 50.1666 28.7096 50.0898 28.7686C50.013 28.8277 49.9962 28.9747 50.0828 29.0179L50.1336 29.0991Z" fill="#512C13"/>
<path d="M49.7637 28.5994C49.7848 29.0173 49.853 29.4318 49.972 29.8315C49.9936 29.9036 49.972 29.9836 49.9011 30.0149C49.84 30.0421 49.748 30.0132 49.7264 29.9405C49.5998 29.5164 49.5219 29.0798 49.4997 28.6364C49.496 28.5608 49.5387 28.4899 49.6144 28.4791C49.6815 28.4694 49.7599 28.5234 49.7637 28.5994Z" fill="#512C13"/>
<path d="M47.3307 31.7782C47.4875 31.9754 47.4578 32.3055 47.269 32.4685C47.1527 32.5685 46.9991 32.6032 46.8519 32.635C45.9887 32.8202 45.1254 33.0054 44.2621 33.1907C44.1799 32.931 44.3075 32.6384 44.5049 32.4589C44.7024 32.2799 44.9566 32.1896 45.2044 32.1032C45.8069 31.8936 46.41 31.6839 47.0126 31.4737C47.1029 31.4419 47.2024 31.4106 47.2917 31.447C47.3809 31.4828 47.4329 31.6209 47.361 31.6862L47.3307 31.7782Z" fill="#512C13"/>
<path d="M47.8964 31.4096C47.9262 31.6458 47.9564 31.882 47.9862 32.1176C47.9954 32.1903 47.9435 32.2681 47.8715 32.2749C47.7996 32.2817 47.732 32.2323 47.7217 32.1545C47.692 31.9183 47.6617 31.6821 47.6319 31.4465C47.6227 31.3739 47.6746 31.2961 47.7466 31.2893C47.8191 31.2824 47.8867 31.3318 47.8964 31.4096Z" fill="#512C13"/>
<path d="M51.8932 32.9988C51.9446 33.407 52.2534 33.7005 52.5823 33.6545C52.9112 33.6085 53.1362 33.2406 53.0848 32.833C53.0334 32.4248 52.7246 32.1312 52.3957 32.1772C52.0663 32.2226 51.8413 32.5906 51.8932 32.9988Z" fill="black"/>
<path d="M46.5209 34.0942C46.5723 34.5024 46.8812 34.7959 47.21 34.7505C47.5389 34.7045 47.7639 34.3366 47.7126 33.9284C47.6612 33.5202 47.3523 33.2266 47.0234 33.2726C46.694 33.3186 46.4695 33.6865 46.5209 34.0942Z" fill="black"/>
<path d="M49.4105 42.7117C49.4143 42.7332 49.4175 42.7548 49.4207 42.7764C49.4186 42.7588 49.4164 42.7418 49.4142 42.7242C49.4267 42.8264 49.4267 42.9286 49.4142 43.0308C49.4164 43.0132 49.4186 42.9961 49.4207 42.9785C49.4105 43.0546 49.3937 43.1295 49.3699 43.2022C49.338 43.2999 49.4061 43.4219 49.5008 43.4446C49.6052 43.4696 49.6977 43.4117 49.7318 43.3072C49.8053 43.0818 49.814 42.8406 49.7729 42.6072C49.7648 42.5612 49.7242 42.5124 49.6869 42.4897C49.6468 42.4647 49.5873 42.4545 49.5424 42.4698C49.497 42.4851 49.4532 42.5147 49.4305 42.5601C49.4051 42.6089 49.4007 42.6572 49.4105 42.7117Z" fill="#7F4924"/>
<path d="M48.2864 41.7533C48.2789 41.9906 48.2718 42.228 48.2642 42.4653C48.261 42.5686 48.3529 42.6668 48.4519 42.6623C48.5563 42.6572 48.6364 42.576 48.6396 42.4653C48.6472 42.228 48.6542 41.9906 48.6618 41.7533C48.665 41.65 48.5731 41.5518 48.4741 41.5563C48.3697 41.5608 48.2897 41.6426 48.2864 41.7533Z" fill="#7F4924"/>
<path d="M47.1143 41.0278C47.1316 41.1635 47.1484 41.2986 47.1657 41.4343C47.1646 41.4615 47.17 41.4865 47.1819 41.5104C47.1895 41.5348 47.2025 41.5558 47.2208 41.574C47.2533 41.608 47.3069 41.6336 47.3534 41.6319C47.4021 41.6296 47.4524 41.6131 47.4859 41.574C47.5167 41.5382 47.547 41.4848 47.5411 41.4349C47.5237 41.2992 47.507 41.164 47.4897 41.0283C47.4908 41.0011 47.4853 40.9761 47.4734 40.9523C47.4659 40.9278 47.4529 40.9068 47.4345 40.8887C47.4021 40.8546 47.3485 40.8291 47.302 40.8308C47.2533 40.833 47.203 40.8495 47.1695 40.8887C47.1386 40.9239 47.1083 40.9778 47.1143 41.0278Z" fill="#7F4924"/>
<path d="M46.4555 40.3489C46.4393 40.5283 46.4236 40.7071 46.4074 40.8866C46.403 40.9342 46.4312 40.9933 46.4625 41.0257C46.495 41.0597 46.5485 41.0853 46.5951 41.0836C46.6437 41.0813 46.694 41.0648 46.7276 41.0257C46.7633 40.9853 46.7779 40.9411 46.7827 40.8866C46.799 40.7071 46.8146 40.5283 46.8309 40.3489C46.8352 40.3018 46.8071 40.2422 46.7757 40.2098C46.7433 40.1757 46.6897 40.1502 46.6432 40.1519C46.5945 40.1541 46.5442 40.1712 46.5107 40.2098C46.475 40.2501 46.4604 40.2938 46.4555 40.3489Z" fill="#7F4924"/>
<path d="M45.4601 39.958C45.4699 40.0352 45.4796 40.113 45.4894 40.1902C45.4883 40.2175 45.4937 40.2425 45.5056 40.2663C45.5131 40.2907 45.5261 40.3117 45.5445 40.3299C45.5613 40.3492 45.5819 40.3628 45.6051 40.3708C45.6273 40.3833 45.6516 40.3889 45.6776 40.3878C45.7263 40.3855 45.7766 40.3691 45.8101 40.3299C45.8199 40.3168 45.8296 40.3032 45.8393 40.2902C45.8561 40.2595 45.8647 40.2266 45.8647 40.1908C45.855 40.1136 45.8453 40.0358 45.8356 39.9586C45.8366 39.9313 45.8312 39.9064 45.8193 39.8825C45.8117 39.8581 45.7988 39.8371 45.7804 39.8189C45.7636 39.7996 45.7431 39.786 45.7198 39.778C45.6976 39.7656 45.6733 39.7599 45.6473 39.761C45.5986 39.7633 45.5483 39.7797 45.5148 39.8189C45.505 39.832 45.4953 39.8456 45.4856 39.8587C45.4688 39.8893 45.4601 39.9222 45.4601 39.958Z" fill="#7F4924"/>
<path d="M45.8161 38.7795C45.8248 38.8124 45.8307 38.8459 45.8356 38.88C45.8334 38.8624 45.8313 38.8448 45.8291 38.8278C45.8378 38.8987 45.8372 38.9703 45.8286 39.0418C45.8307 39.0242 45.8329 39.0072 45.835 38.9896C45.8259 39.0577 45.8085 39.1236 45.7831 39.1866C45.7896 39.1707 45.7956 39.1554 45.8021 39.1395C45.7983 39.148 45.795 39.1565 45.7912 39.165C45.7696 39.2144 45.7583 39.2627 45.7723 39.3166C45.7842 39.3626 45.8178 39.412 45.8583 39.4341C45.9021 39.458 45.9546 39.4705 46.0027 39.454C46.0465 39.4392 46.0947 39.4091 46.1147 39.3637C46.1661 39.2468 46.1958 39.1326 46.2067 39.0043C46.2164 38.8948 46.2045 38.7812 46.1774 38.675C46.152 38.5757 46.0422 38.5047 45.9465 38.5376C45.8502 38.5706 45.7896 38.6728 45.8161 38.7795Z" fill="#7F4924"/>
<path d="M45.1989 38.7948C45.2038 38.7954 45.2092 38.7971 45.2141 38.7988C45.1989 38.792 45.1843 38.7857 45.1692 38.7789C45.1746 38.7812 45.18 38.7846 45.1843 38.7886C45.1719 38.7783 45.1589 38.7681 45.1464 38.7579C45.1513 38.7619 45.1551 38.7664 45.1589 38.771C45.1491 38.7579 45.1394 38.7443 45.1297 38.7312C45.1346 38.7375 45.1384 38.7443 45.1411 38.7517C45.1346 38.7358 45.1286 38.7204 45.1221 38.7045C45.1254 38.7131 45.1281 38.7221 45.1291 38.7312C45.127 38.7136 45.1248 38.696 45.1227 38.679C45.1237 38.6886 45.1237 38.6983 45.1227 38.7085C45.1248 38.6909 45.127 38.6739 45.1291 38.6563C45.1281 38.6642 45.1254 38.6716 45.1227 38.679C45.1292 38.6631 45.1356 38.6478 45.1421 38.6319C45.1399 38.6375 45.1367 38.6432 45.1335 38.6478C45.1432 38.6347 45.1529 38.6211 45.1627 38.608C45.1594 38.6126 45.1557 38.6165 45.1513 38.6205C45.1638 38.6103 45.1767 38.6001 45.1892 38.5899C45.1854 38.5927 45.1816 38.5955 45.1773 38.5972C45.1556 38.6097 45.1378 38.6267 45.1248 38.6478C45.108 38.6665 45.0972 38.6892 45.0913 38.7148C45.0837 38.7409 45.0826 38.767 45.088 38.7931C45.0891 38.8192 45.0967 38.8436 45.1102 38.8663C45.12 38.8794 45.1297 38.893 45.1394 38.9061C45.1627 38.9305 45.1903 38.9475 45.2222 38.9566C45.2389 38.9589 45.2557 38.9612 45.272 38.9634C45.306 38.9634 45.3374 38.9543 45.3666 38.9367C45.3699 38.935 45.3726 38.9333 45.3753 38.9316C45.3893 38.9214 45.4034 38.9101 45.4164 38.8987C45.4229 38.893 45.425 38.8902 45.4272 38.8879C45.438 38.8749 45.4494 38.859 45.4586 38.8448C45.4634 38.8368 45.465 38.8334 45.4661 38.8306C45.4737 38.8124 45.4824 38.7937 45.4883 38.7744C45.4894 38.771 45.4899 38.7676 45.4905 38.7641C45.4943 38.7437 45.4969 38.7227 45.4986 38.7023C45.4991 38.6949 45.4991 38.6875 45.498 38.6801C45.4959 38.6585 45.4943 38.6296 45.4867 38.6069C45.4797 38.5842 45.471 38.562 45.4602 38.5416C45.4586 38.5387 45.4569 38.5359 45.4548 38.5331C45.4456 38.5194 45.4342 38.5036 45.4234 38.4905C45.4115 38.4769 45.4012 38.4701 45.3926 38.4632C45.3839 38.4564 45.3747 38.4473 45.365 38.4417C45.3444 38.4314 45.3266 38.4229 45.3104 38.4173C45.3066 38.4156 45.3022 38.415 45.2984 38.4144C45.2736 38.4059 45.2487 38.4048 45.2238 38.411C45.1989 38.4121 45.1757 38.4201 45.154 38.4343C45.1319 38.4468 45.1146 38.4638 45.1016 38.4848C45.0848 38.5036 45.074 38.5263 45.068 38.5518C45.0659 38.5694 45.0637 38.587 45.0615 38.604C45.0615 38.6398 45.0702 38.6727 45.0869 38.7034C45.0967 38.7165 45.1064 38.7301 45.1162 38.7431C45.14 38.7687 45.1676 38.7852 45.1989 38.7948Z" fill="#7F4924"/>
<path d="M44.5261 37.8472C44.5142 37.9074 44.5017 37.9681 44.4898 38.0283C44.4817 38.0544 44.4812 38.0806 44.4866 38.1067C44.4877 38.1328 44.4952 38.1572 44.5088 38.1799C44.5207 38.2026 44.5369 38.2214 44.5569 38.235C44.5753 38.2526 44.5964 38.2639 44.6207 38.2702C44.6375 38.2725 44.6537 38.2747 44.6705 38.277C44.7046 38.277 44.736 38.2679 44.7652 38.2503C44.7776 38.2401 44.7906 38.2299 44.803 38.2197C44.8263 38.1952 44.8425 38.1663 44.8512 38.1328C44.8631 38.0726 44.8755 38.0119 44.8874 37.9517C44.895 37.9256 44.8966 37.8994 44.8906 37.8733C44.8896 37.8472 44.882 37.8228 44.8685 37.8001C44.8566 37.7774 44.8403 37.7586 44.8203 37.745C44.8019 37.7274 44.7809 37.7161 44.7565 37.7098C44.7397 37.7075 44.723 37.7053 44.7067 37.703C44.6726 37.703 44.6413 37.7121 44.6121 37.7297C44.5996 37.7399 44.5866 37.7501 44.5742 37.7603C44.5515 37.7848 44.5353 37.8137 44.5261 37.8472Z" fill="#7F4924"/>
<path d="M42.2223 33.9611C42.2401 34.0201 42.2531 34.0809 42.2612 34.1422C42.2591 34.1246 42.2569 34.107 42.2548 34.0899C42.2661 34.1808 42.2661 34.2722 42.2553 34.363C42.2574 34.3454 42.2596 34.3284 42.2618 34.3108C42.2585 34.3369 42.2542 34.3625 42.2493 34.388C42.2391 34.4402 42.2418 34.4925 42.2683 34.5396C42.291 34.5805 42.3359 34.6197 42.3802 34.6299C42.4284 34.6412 42.4819 34.639 42.5246 34.61C42.5641 34.5833 42.6009 34.5424 42.6106 34.4925C42.6518 34.2818 42.6463 34.0627 42.5841 33.8566C42.5695 33.8083 42.5403 33.7652 42.4981 33.7391C42.4581 33.7141 42.3986 33.7039 42.3537 33.7192C42.2596 33.7504 42.1904 33.8555 42.2223 33.9611Z" fill="#7F4924"/>
<path d="M41.6208 32.6379C41.5857 32.8899 41.5922 33.1403 41.6506 33.3884C41.6739 33.4883 41.7869 33.5582 41.8816 33.5258C41.9805 33.4923 42.0379 33.3907 42.0125 33.2834C41.9984 33.2238 41.9876 33.1636 41.9795 33.1023C41.9816 33.1199 41.9838 33.1375 41.986 33.1545C41.9676 33.008 41.9676 32.8604 41.986 32.7139C41.9838 32.7315 41.9816 32.7491 41.9795 32.7662C41.9805 32.7582 41.9816 32.7497 41.9827 32.7417C41.9903 32.6872 41.9914 32.6396 41.9638 32.5902C41.9411 32.5493 41.8962 32.5101 41.8518 32.4999C41.8037 32.4885 41.7501 32.4908 41.7074 32.5198C41.669 32.5459 41.6273 32.5885 41.6208 32.6379Z" fill="#7F4924"/>
<path d="M42.007 32.2225C42.0146 32.2804 42.0216 32.3383 42.0292 32.3968C42.0281 32.4241 42.0335 32.4491 42.0454 32.4729C42.053 32.4973 42.066 32.5183 42.0844 32.5365C42.1011 32.5558 42.1217 32.5694 42.145 32.5774C42.1671 32.5899 42.1915 32.5955 42.2174 32.5944C42.2342 32.5921 42.2504 32.5899 42.2672 32.5876C42.2991 32.5779 42.3267 32.5615 42.3499 32.5371C42.3597 32.524 42.3694 32.5104 42.3792 32.4973C42.3959 32.4667 42.4046 32.4337 42.4046 32.398C42.3975 32.34 42.39 32.2821 42.3824 32.2237C42.3835 32.1964 42.3781 32.1714 42.3662 32.1476C42.3586 32.1232 42.3456 32.1022 42.3272 32.084C42.3105 32.0647 42.2899 32.0511 42.2666 32.0431C42.2445 32.0306 42.2201 32.0249 42.1942 32.0261C42.1774 32.0284 42.1606 32.0306 42.1444 32.0329C42.1125 32.042 42.0849 32.059 42.0617 32.0834C42.0519 32.0965 42.0422 32.1101 42.0324 32.1232C42.0157 32.1538 42.0076 32.1868 42.007 32.2225Z" fill="#7F4924"/>
<path d="M53.8756 38.6228C53.8296 38.691 53.7955 38.7699 53.7728 38.8494C53.7615 38.8897 53.755 38.9306 53.7496 38.972C53.7442 39.0146 53.7404 39.0566 53.7415 39.0998C53.7431 39.1514 53.7615 39.2019 53.7966 39.2389C53.8291 39.2729 53.8826 39.2985 53.9291 39.2968C53.9778 39.2945 54.0282 39.278 54.0617 39.2389C54.0947 39.2014 54.1185 39.1526 54.1169 39.0998C54.1158 39.0657 54.1174 39.0316 54.1212 38.9981C54.119 39.0157 54.1168 39.0333 54.1147 39.0504C54.1217 38.9953 54.1358 38.9419 54.1563 38.8908C54.1499 38.9067 54.1439 38.922 54.1374 38.9379C54.1542 38.8971 54.1753 38.8579 54.1996 38.8216C54.2261 38.7818 54.2304 38.7148 54.2185 38.67C54.2066 38.624 54.1731 38.5746 54.1325 38.5524C54.0887 38.528 54.0362 38.5161 53.9881 38.5326C53.973 38.5394 53.9584 38.5456 53.9432 38.5524C53.9145 38.5695 53.8924 38.5933 53.8756 38.6228Z" fill="#7F4924"/>
<path d="M52.9215 40.2186C52.9312 40.2959 52.941 40.3736 52.9507 40.4509C52.9496 40.4781 52.955 40.5031 52.9669 40.5269C52.9745 40.5513 52.9875 40.5724 53.0059 40.5905C53.0227 40.6098 53.0432 40.6234 53.0665 40.6314C53.0887 40.6439 53.113 40.6496 53.1389 40.6484C53.1876 40.6462 53.238 40.6297 53.2715 40.5905C53.2812 40.5775 53.2909 40.5638 53.3007 40.5508C53.3174 40.5201 53.3261 40.4872 53.3261 40.4514C53.3164 40.3742 53.3067 40.2964 53.2969 40.2192C53.298 40.192 53.2926 40.167 53.2807 40.1431C53.2731 40.1187 53.2601 40.0977 53.2417 40.0795C53.2249 40.0602 53.2044 40.0466 53.1811 40.0387C53.159 40.0262 53.1346 40.0205 53.1087 40.0216C53.06 40.0239 53.0097 40.0404 52.9761 40.0795C52.9664 40.0926 52.9567 40.1062 52.9469 40.1193C52.9302 40.1499 52.9215 40.1834 52.9215 40.2186Z" fill="#7F4924"/>
<path d="M52.2162 40.9033C52.2324 40.9595 52.2448 41.0169 52.2524 41.0748C52.2502 41.0572 52.2481 41.0402 52.2459 41.0226C52.2573 41.1134 52.2573 41.2043 52.2459 41.2951C52.2481 41.2775 52.2502 41.2605 52.2524 41.2429C52.2486 41.2718 52.2438 41.3008 52.2378 41.3292C52.227 41.3808 52.2308 41.4342 52.2567 41.4807C52.2795 41.5216 52.3244 41.5608 52.3687 41.571C52.4634 41.5937 52.5775 41.5409 52.5997 41.4336C52.643 41.2236 52.6386 41.0044 52.578 40.7983C52.564 40.75 52.5337 40.7063 52.4915 40.6808C52.4515 40.6558 52.392 40.6456 52.3471 40.6609C52.2529 40.6927 52.1853 40.7977 52.2162 40.9033Z" fill="#7F4924"/>
<path d="M51.2912 41.5693C51.3058 41.6851 51.3204 41.8015 51.335 41.9173C51.3339 41.9446 51.3393 41.9695 51.3512 41.9934C51.3588 42.0178 51.3718 42.0388 51.3901 42.057C51.4226 42.091 51.4761 42.1166 51.5227 42.1149C51.5713 42.1126 51.6217 42.0956 51.6552 42.057C51.686 42.0212 51.7163 41.9678 51.7104 41.9179C51.6957 41.8021 51.6811 41.6857 51.6665 41.5698C51.6676 41.5426 51.6622 41.5176 51.6503 41.4938C51.6428 41.4693 51.6298 41.4483 51.6114 41.4302C51.5789 41.3961 51.5254 41.37 51.4789 41.3723C51.4302 41.3745 51.3799 41.391 51.3463 41.4302C51.315 41.4654 51.2847 41.5187 51.2912 41.5693Z" fill="#7F4924"/>
<path d="M54.4722 36.7325C54.482 36.7478 54.4901 36.7637 54.4966 36.7808C54.4901 36.7649 54.4841 36.7495 54.4777 36.7336C54.4869 36.7575 54.4933 36.7825 54.4966 36.808C54.4944 36.7904 54.4923 36.7734 54.4901 36.7558C54.4934 36.783 54.4934 36.8103 54.4901 36.8375C54.4923 36.8199 54.4944 36.8029 54.4966 36.7853C54.4933 36.8109 54.4868 36.8358 54.4771 36.8597C54.4836 36.8438 54.4896 36.8285 54.496 36.8126C54.4944 36.8165 54.4923 36.8211 54.4906 36.8251C54.4771 36.8478 54.4695 36.8722 54.4684 36.8983C54.463 36.9244 54.4641 36.9505 54.4717 36.9766C54.4836 37.0221 54.5172 37.072 54.5577 37.0942C54.6015 37.118 54.654 37.1305 54.7021 37.114C54.7465 37.0987 54.7936 37.0692 54.8141 37.0238C54.8309 36.9863 54.8482 36.9471 54.8552 36.9057C54.8628 36.8637 54.8693 36.8194 54.8666 36.7762C54.8639 36.7342 54.859 36.6905 54.8466 36.6507C54.8341 36.611 54.8179 36.5701 54.7957 36.5344C54.7692 36.4918 54.7313 36.4577 54.6837 36.4441C54.6589 36.4361 54.634 36.435 54.6091 36.4407C54.5842 36.4418 54.561 36.4498 54.5393 36.464C54.4993 36.4912 54.4641 36.5315 54.4533 36.5815C54.4425 36.6309 54.4447 36.6882 54.4722 36.7325Z" fill="#7F4924"/>
<path d="M53.9806 37.3978C53.9763 37.3864 53.9698 37.3711 53.9633 37.3552C53.9741 37.3824 53.9817 37.4108 53.9855 37.4398C53.9833 37.4222 53.9812 37.4046 53.979 37.3876C53.9828 37.4188 53.9833 37.4494 53.9795 37.4807C53.9817 37.4631 53.9839 37.4455 53.986 37.4284C53.9817 37.4591 53.9741 37.4892 53.9628 37.5181C53.9692 37.5022 53.9752 37.4869 53.9817 37.471C53.9779 37.4801 53.9741 37.4886 53.9698 37.4977C53.9465 37.5443 53.9373 37.5982 53.9509 37.6493C53.9628 37.6947 53.9963 37.7447 54.0369 37.7668C54.0807 37.7907 54.1331 37.8031 54.1813 37.7867C54.2267 37.7714 54.2705 37.7418 54.2933 37.6964C54.3322 37.6186 54.3533 37.5374 54.3566 37.4494C54.3582 37.4069 54.3522 37.3631 54.3446 37.3217C54.3371 37.2785 54.3203 37.2394 54.3035 37.2002C54.2916 37.1775 54.2754 37.1588 54.2554 37.1451C54.2375 37.1275 54.2159 37.1162 54.1916 37.1099C54.1667 37.102 54.1418 37.1003 54.1169 37.1065C54.0921 37.1076 54.0688 37.1156 54.0471 37.1298C54.0071 37.157 53.972 37.1974 53.9611 37.2473C53.959 37.2649 53.9568 37.2825 53.9547 37.2995C53.9552 37.3336 53.9638 37.3671 53.9806 37.3978Z" fill="#7F4924"/>
<path d="M54.9759 30.7669C54.9624 30.927 54.9494 31.0877 54.9358 31.2478C54.932 31.2955 54.9596 31.3545 54.991 31.3869C55.0235 31.421 55.077 31.4465 55.1235 31.4448C55.1722 31.4425 55.2225 31.4261 55.256 31.3869C55.2912 31.3466 55.3064 31.3023 55.3112 31.2478C55.3248 31.0877 55.3377 30.927 55.3513 30.7669C55.355 30.7192 55.3275 30.6602 55.2961 30.6278C55.2636 30.5937 55.2101 30.5682 55.1636 30.5699C55.1149 30.5722 55.0646 30.5892 55.031 30.6278C54.9959 30.6681 54.9807 30.7124 54.9759 30.7669Z" fill="#7F4924"/>
<path d="M54.5161 29.3784C54.4961 29.4091 54.482 29.4454 54.4701 29.48C54.4577 29.5164 54.4534 29.5561 54.4501 29.5942C54.4463 29.6322 54.4528 29.6702 54.4582 29.7083C54.4636 29.7469 54.4793 29.7804 54.4939 29.8162C54.5058 29.8389 54.5221 29.8576 54.5421 29.8712C54.5605 29.8888 54.5816 29.9002 54.6059 29.9064C54.6308 29.9144 54.6557 29.9155 54.6805 29.9098C54.7054 29.9087 54.7287 29.9008 54.7503 29.8866C54.7903 29.8593 54.8255 29.819 54.8363 29.769C54.8385 29.7514 54.8406 29.7344 54.8428 29.7168C54.8428 29.681 54.8342 29.6481 54.8174 29.6174C54.8223 29.6299 54.8287 29.6453 54.8347 29.6612C54.8271 29.6413 54.8217 29.6208 54.819 29.5998C54.8212 29.6174 54.8233 29.635 54.8255 29.6521C54.8228 29.6294 54.8228 29.6072 54.8255 29.5845C54.8233 29.6021 54.8212 29.6197 54.819 29.6367C54.8223 29.614 54.8277 29.5925 54.8358 29.572C54.8293 29.5879 54.8234 29.6032 54.8169 29.6191C54.8234 29.6044 54.8304 29.5902 54.839 29.5766C54.8525 29.5538 54.8601 29.5294 54.8612 29.5033C54.8666 29.4772 54.8655 29.4511 54.858 29.425C54.852 29.3994 54.8412 29.3773 54.8244 29.358C54.8109 29.3364 54.7936 29.3194 54.772 29.3074C54.7281 29.283 54.6757 29.2711 54.6275 29.2876C54.6124 29.2944 54.5978 29.3006 54.5826 29.3074C54.5556 29.325 54.5329 29.3489 54.5161 29.3784Z" fill="#7F4924"/>
<path d="M54.9634 29.6494C54.9732 29.7266 54.9829 29.8044 54.9926 29.8816C54.9915 29.9088 54.997 29.9338 55.0089 29.9577C55.0164 29.9821 55.0294 30.0031 55.0478 30.0212C55.0646 30.0405 55.0851 30.0542 55.1084 30.0621C55.1306 30.0746 55.1549 30.0803 55.1809 30.0792C55.2296 30.0769 55.2799 30.0604 55.3134 30.0212C55.3231 30.0082 55.3329 29.9946 55.3426 29.9815C55.3594 29.9508 55.368 29.9179 55.368 29.8821C55.3583 29.8049 55.3486 29.7271 55.3388 29.6499C55.3399 29.6227 55.3345 29.5977 55.3226 29.5738C55.315 29.5494 55.302 29.5284 55.2836 29.5103C55.2669 29.491 55.2463 29.4773 55.2231 29.4694C55.2009 29.4569 55.1766 29.4512 55.1506 29.4524C55.1019 29.4546 55.0516 29.4711 55.018 29.5103C55.0083 29.5233 54.9986 29.5369 54.9889 29.55C54.9721 29.5807 54.964 29.6136 54.9634 29.6494Z" fill="#7F4924"/>
<path d="M49.5327 41.4022C49.5229 41.4823 49.5132 41.5618 49.5035 41.6418C49.5024 41.6691 49.5078 41.6941 49.5197 41.7179C49.5273 41.7423 49.5403 41.7633 49.5587 41.7815C49.5754 41.8008 49.596 41.8144 49.6192 41.8224C49.6414 41.8349 49.6657 41.8405 49.6917 41.8394C49.7404 41.8371 49.7907 41.8201 49.8242 41.7815C49.834 41.7684 49.8437 41.7548 49.8534 41.7417C49.8702 41.7111 49.8789 41.6782 49.8789 41.6424C49.8886 41.5623 49.8983 41.4828 49.9081 41.4028C49.9092 41.3755 49.9037 41.3506 49.8918 41.3267C49.8843 41.3023 49.8713 41.2813 49.8529 41.2631C49.8361 41.2438 49.8156 41.2302 49.7923 41.2223C49.7702 41.2098 49.7458 41.2041 49.7198 41.2052C49.6712 41.2075 49.6209 41.2245 49.5873 41.2631C49.5776 41.2762 49.5678 41.2898 49.5581 41.3029C49.5413 41.3335 49.5327 41.367 49.5327 41.4022Z" fill="#7F4924"/>
<path d="M49.6478 39.0378C50.0627 39.3024 50.6507 39.2144 50.9714 38.8283C51.0358 38.7505 51.0499 38.6251 50.9714 38.5496C50.9006 38.4814 50.7751 38.4667 50.7064 38.5496C50.675 38.5876 50.6404 38.6211 50.6042 38.654C50.5836 38.6728 50.6399 38.6285 50.6004 38.6563C50.5923 38.662 50.5842 38.6682 50.5755 38.6739C50.5566 38.687 50.5371 38.6989 50.5176 38.7102C50.5068 38.7165 50.4954 38.7227 50.4841 38.7284C50.4792 38.7307 50.4408 38.7494 50.4657 38.7381C50.4873 38.7278 50.457 38.7415 50.4533 38.7426C50.4414 38.7471 50.4295 38.7517 50.4176 38.7557C50.3716 38.7716 50.3256 38.7806 50.2785 38.7914C50.2515 38.7977 50.311 38.7886 50.2834 38.7909C50.271 38.792 50.2585 38.7937 50.2461 38.7948C50.2234 38.7965 50.2012 38.7971 50.1785 38.7971C50.1558 38.7971 50.1336 38.796 50.1109 38.7943C50.1098 38.7943 50.0622 38.7897 50.0909 38.7926C50.119 38.7954 50.0768 38.7903 50.0714 38.7892C50.027 38.7806 49.9837 38.7687 49.941 38.7528C49.941 38.7528 49.8966 38.7347 49.9215 38.7454C49.9464 38.7562 49.9031 38.7358 49.9031 38.7358C49.8804 38.7239 49.8588 38.7114 49.8372 38.6972C49.7533 38.6438 49.6273 38.675 49.5802 38.7676C49.5321 38.8641 49.558 38.9805 49.6478 39.0378Z" fill="#7F4924"/>
<path d="M38.2867 85.3564C39.3734 85.3627 40.4617 85.4553 41.5462 85.5206C43.3448 85.6291 45.1433 85.7325 46.9434 85.8087C49.0741 85.8984 51.2063 85.9535 53.3386 85.9422C55.4395 85.9308 57.5442 85.8609 59.6359 85.6462C61.3598 85.4695 63.1134 85.2195 64.7632 84.6422C64.9265 84.5849 65.0888 84.5235 65.25 84.4582C65.4728 84.3673 65.376 83.986 65.1505 84.0781C63.6002 84.7087 61.9201 84.986 60.2763 85.1814C58.2192 85.4257 56.1465 85.5144 54.0775 85.5411C51.9371 85.5689 49.7956 85.5246 47.6563 85.4428C45.8026 85.3718 43.95 85.2701 42.0985 85.1593C40.9112 85.0882 39.7223 84.9962 38.5328 84.9661C38.4511 84.9638 38.3689 84.9627 38.2873 84.9621C38.0455 84.961 38.0449 85.3553 38.2867 85.3564Z" fill="#827454"/>
<path d="M111.313 50.4052C109.205 52.1637 107.067 53.955 105.516 56.2657C103.965 58.5764 103.054 61.5194 103.699 64.2648C104.345 67.0095 106.851 69.3389 109.529 69.0617C110.83 68.927 112.009 68.2384 113.248 67.8021C114.601 67.3254 116.061 67.1391 117.313 66.4181C118.565 65.6971 119.586 64.1835 119.167 62.7501C118.71 61.1882 116.869 60.5536 116.105 59.1309C115.439 57.8941 115.725 56.351 116.101 54.9868C116.476 53.6221 117.394 51.9097 116.533 50.8143C113.752 47.277 111.313 50.4052 111.313 50.4052Z" fill="#94B9D0"/>
<path d="M35.8878 55.9148C36.2686 59.635 36.6499 63.4053 36.2242 67.1409C36.1052 68.1869 35.9159 69.2238 35.6519 70.2396C35.5881 70.4845 35.95 70.589 36.0138 70.3442C36.9636 66.6864 36.8825 62.8547 36.5688 59.11C36.4795 58.0436 36.3719 56.9789 36.2626 55.9148C36.2377 55.6653 35.8624 55.6625 35.8878 55.9148Z" fill="#3DA7E9"/>
<path d="M38.1807 56.3083C37.6852 58.519 37.1903 60.7297 36.6948 62.9404C36.6396 63.187 37.0015 63.2927 37.0567 63.0449C37.5521 60.8343 38.0471 58.6236 38.5425 56.4129C38.5977 56.1663 38.2358 56.0612 38.1807 56.3083Z" fill="#3DA7E9"/>
<path d="M65.1926 53.6801C65.7362 56.3248 66.1278 58.9849 66.2089 61.6927C66.2333 62.5114 66.2354 63.3301 66.2246 64.1489C66.2214 64.4028 66.5968 64.4028 66.6 64.1489C66.6357 61.416 66.4686 58.7065 66.0153 56.0135C65.8779 55.1976 65.721 54.3851 65.5544 53.5755C65.5036 53.3278 65.1417 53.4323 65.1926 53.6801Z" fill="#3DA7E9"/>
<path d="M66.7953 54.5511C66.5773 55.976 66.3593 57.401 66.1413 58.8265C66.1035 59.0747 66.4648 59.1816 66.5032 58.931C66.7212 57.5061 66.9392 56.0811 67.1571 54.6556C67.1956 54.4079 66.8337 54.3011 66.7953 54.5511Z" fill="#3DA7E9"/>
<path d="M45.0318 49.6161C46.6399 50.3916 48.3838 50.8319 50.1531 50.8956C51.6363 50.949 53.1854 50.7575 54.5177 50.028C55.2138 49.6468 55.8207 49.1082 56.2616 48.423C56.3968 48.2122 56.0723 48.0145 55.9376 48.2241C55.1771 49.407 53.8886 50.032 52.5931 50.3138C51.0721 50.645 49.4494 50.5541 47.937 50.2178C47.0023 50.0098 46.0898 49.6951 45.2211 49.2763C45.0031 49.1706 44.8122 49.5104 45.0318 49.6161Z" fill="#3DA7E9"/>
<path d="M50.567 54.9823C50.514 55.5249 50.5816 56.0811 50.7617 56.593C50.7969 56.693 50.8888 56.7606 50.9927 56.7305C51.0841 56.7038 51.1587 56.5885 51.1236 56.4879C50.9537 56.0044 50.8926 55.4953 50.9424 54.9823C50.9527 54.8761 50.8488 54.7852 50.7547 54.7852C50.6449 54.7852 50.5773 54.8761 50.567 54.9823Z" fill="#3DA7E9"/>
<path d="M52.7922 55.1771C52.7922 55.3071 52.7922 55.4371 52.7922 55.5671C52.7922 55.6176 52.8133 55.6705 52.8474 55.7062C52.8799 55.7403 52.9334 55.7658 52.98 55.7641C53.0286 55.7619 53.0789 55.7448 53.1125 55.7062C53.146 55.6676 53.1676 55.6205 53.1676 55.5671C53.1676 55.4371 53.1676 55.3071 53.1676 55.1771C53.1676 55.1265 53.1466 55.0737 53.1125 55.038C53.08 55.0039 53.0265 54.9784 52.98 54.9801C52.9313 54.9823 52.8809 54.9988 52.8474 55.038C52.8139 55.0766 52.7922 55.1237 52.7922 55.1771Z" fill="#3DA7E9"/>
<path d="M54.8353 53.6169C54.8353 53.7469 54.8353 53.8769 54.8353 54.0069C54.8353 54.0575 54.8564 54.1103 54.8904 54.146C54.9229 54.1801 54.9764 54.2057 55.023 54.204C55.0716 54.2017 55.1219 54.1852 55.1555 54.146C55.189 54.1074 55.2106 54.0603 55.2106 54.0069C55.2106 53.8769 55.2106 53.7469 55.2106 53.6169C55.2106 53.5664 55.1896 53.5136 55.1555 53.4778C55.123 53.4437 55.0695 53.4182 55.023 53.4199C54.9743 53.4222 54.924 53.4392 54.8904 53.4778C54.8564 53.5158 54.8353 53.563 54.8353 53.6169Z" fill="#3DA7E9"/>
<path d="M56.0999 52.7692C56.0377 52.964 55.9755 53.1587 55.9138 53.354C55.8824 53.4517 55.9495 53.5737 56.0447 53.5964C56.1486 53.6214 56.2422 53.5635 56.2757 53.459C56.3379 53.2643 56.4001 53.0696 56.4618 52.8742C56.4931 52.7766 56.4261 52.6545 56.3309 52.6318C56.2275 52.6068 56.1334 52.6647 56.0999 52.7692Z" fill="#3DA7E9"/>
<path d="M68.0258 60.1643C68.0886 60.2937 68.1513 60.4232 68.2146 60.5526C68.2352 60.5952 68.2838 60.631 68.3266 60.6429C68.3715 60.656 68.4315 60.6497 68.471 60.623C68.511 60.5958 68.5462 60.5555 68.557 60.5055C68.5684 60.4521 68.5619 60.4027 68.5381 60.3539C68.4754 60.2245 68.4126 60.095 68.3493 59.9656C68.3288 59.923 68.2801 59.8872 68.2373 59.8753C68.1924 59.8622 68.1324 59.8685 68.0929 59.8952C68.0529 59.9224 68.0177 59.9627 68.0069 60.0127C67.9955 60.0661 68.002 60.1149 68.0258 60.1643Z" fill="#3DA7E9"/>
<path d="M68.9546 57.8234C69.0174 57.9529 69.0801 58.0823 69.1434 58.2118C69.164 58.2543 69.2127 58.2901 69.2554 58.302C69.3003 58.3151 69.3603 58.3088 69.3998 58.2822C69.4398 58.2549 69.475 58.2146 69.4858 58.1646C69.4972 58.1113 69.4907 58.0619 69.4669 58.013C69.4041 57.8836 69.3414 57.7541 69.2786 57.6247C69.2581 57.5821 69.2094 57.5463 69.1667 57.5344C69.1218 57.5214 69.0617 57.527 69.0222 57.5543C68.9822 57.5815 68.9471 57.6219 68.9362 57.6718C68.9243 57.7246 68.9308 57.774 68.9546 57.8234Z" fill="#3DA7E9"/>
<path d="M67.0923 69.8071C67.0923 70.7173 67.0923 71.6275 67.0923 72.5383C67.0923 72.7917 67.4677 72.7922 67.4677 72.5383C67.4677 71.6281 67.4677 70.7179 67.4677 69.8071C67.4677 69.5537 67.0923 69.5532 67.0923 69.8071Z" fill="#3DA7E9"/>
<path d="M72.5155 65.8136C71.3623 67.938 70.6429 70.2981 70.3967 72.7292C70.3713 72.9809 70.7467 72.9792 70.7721 72.7292C71.0107 70.3702 71.7214 68.0732 72.8395 66.0125C72.9596 65.792 72.635 65.5932 72.5155 65.8136Z" fill="#3DA7E9"/>
<path d="M23.0352 75.6034C23.6221 74.9898 24.4443 74.7688 25.2394 74.6404C26.2163 74.483 27.2061 74.3967 28.1879 74.2808C28.7829 74.2103 29.3779 74.1399 29.9729 74.0694C30.2103 74.0416 30.2131 73.6467 29.9729 73.6751C28.8754 73.8052 27.7779 73.9348 26.6804 74.0649C25.783 74.1711 24.8462 74.2257 23.9883 74.5467C23.5339 74.7165 23.1136 74.9654 22.7696 75.3245C22.5987 75.504 22.8637 75.783 23.0352 75.6034Z" fill="#3DA7E9"/>
<path d="M27.1537 66.0414C26.847 66.8226 26.5403 67.6044 26.2331 68.3856C26.1947 68.4839 26.2747 68.6021 26.3639 68.6282C26.4716 68.6594 26.556 68.5896 26.5949 68.4907C26.9016 67.7095 27.2083 66.9277 27.5156 66.1465C27.554 66.0482 27.4739 65.93 27.3847 65.9039C27.2765 65.8726 27.1921 65.9425 27.1537 66.0414Z" fill="#3DA7E9"/>
<path d="M28.9809 66.4255C28.8137 67.0812 28.6471 67.7368 28.4805 68.3919C28.4183 68.6373 28.7802 68.7419 28.8424 68.4964C29.0096 67.8408 29.1762 67.1852 29.3428 66.5301C29.405 66.2852 29.0431 66.1801 28.9809 66.4255Z" fill="#3DA7E9"/>
<path d="M30.51 67.355C30.2871 67.8294 30.2255 68.3651 30.338 68.8816C30.3607 68.9856 30.4743 69.0464 30.5689 69.0191C30.6706 68.9901 30.7226 68.881 30.6998 68.7765C30.6117 68.372 30.6582 67.9294 30.8345 67.5538C30.8794 67.4584 30.8589 67.3408 30.7675 67.2839C30.6842 67.2334 30.5549 67.2595 30.51 67.355Z" fill="#3DA7E9"/>
<path d="M32.5498 59.8588C32.5498 60.3787 32.5498 60.8991 32.5498 61.4196C32.5498 61.673 32.9252 61.6735 32.9252 61.4196C32.9252 60.8997 32.9252 60.3793 32.9252 59.8588C32.9252 59.6054 32.5498 59.6049 32.5498 59.8588Z" fill="#3DA7E9"/>
<path d="M34.0351 67.9333C33.9085 68.1264 33.782 68.3194 33.6554 68.5124C33.6289 68.5528 33.6246 68.6186 33.6365 68.664C33.6484 68.7095 33.6819 68.7594 33.7225 68.7816C33.8182 68.8344 33.9199 68.802 33.9794 68.7112C34.106 68.5181 34.2325 68.3251 34.3591 68.1321C34.3856 68.0917 34.39 68.0259 34.3781 67.9805C34.3662 67.935 34.3326 67.8851 34.2921 67.8629C34.1963 67.8101 34.0946 67.8425 34.0351 67.9333Z" fill="#3DA7E9"/>
<path d="M29.5878 60.92C29.3654 61.3191 29.3021 61.8006 29.4092 62.2486C29.433 62.3485 29.545 62.4183 29.6402 62.386C29.7387 62.3525 29.7971 62.2508 29.7711 62.1435C29.7587 62.0924 29.7484 62.0413 29.7414 61.9897C29.7468 62.0271 29.7392 61.9652 29.7387 61.9641C29.736 61.938 29.7343 61.9119 29.7332 61.8858C29.7311 61.8398 29.7311 61.7938 29.7332 61.7484C29.7343 61.7222 29.736 61.6961 29.7381 61.67C29.7392 61.657 29.7403 61.6439 29.7419 61.6308C29.7398 61.6473 29.7392 61.6484 29.7414 61.6342C29.7544 61.54 29.776 61.4475 29.8052 61.3572C29.836 61.2629 29.8566 61.2169 29.9112 61.1187C29.961 61.0296 29.9334 60.899 29.8441 60.849C29.7549 60.7991 29.6408 60.8246 29.5878 60.92Z" fill="#3DA7E9"/>
<path d="M36.8214 51.6659C36.8214 52.0559 36.8214 52.4454 36.8214 52.8354C36.8214 52.9388 36.9074 53.037 37.0091 53.0324C37.1108 53.0279 37.1968 52.9461 37.1968 52.8354C37.1968 52.4454 37.1968 52.0559 37.1968 51.6659C37.1968 51.5631 37.1108 51.4643 37.0091 51.4688C36.9068 51.4739 36.8214 51.5557 36.8214 51.6659Z" fill="#3DA7E9"/>
<path d="M38.3651 51.6067C38.3749 51.6181 38.384 51.6328 38.3949 51.643C38.3889 51.6374 38.3716 51.6101 38.3862 51.6317C38.3905 51.6379 38.3949 51.6447 38.3992 51.651C38.4176 51.6788 38.4338 51.7078 38.449 51.7379C38.456 51.752 38.462 51.7668 38.4685 51.781C38.4793 51.8037 38.4549 51.743 38.463 51.7668C38.4657 51.7742 38.4685 51.7816 38.4712 51.7889C38.482 51.8207 38.4912 51.8531 38.4987 51.886C38.502 51.9014 38.5052 51.9173 38.5079 51.9332C38.509 51.9411 38.5101 51.9491 38.5117 51.957C38.5101 51.9496 38.5068 51.9127 38.509 51.94C38.5117 51.9718 38.5133 52.0036 38.5133 52.0354C38.5133 52.0513 38.5122 52.0672 38.5117 52.083C38.5112 52.0933 38.5095 52.1029 38.509 52.1126C38.5074 52.1381 38.5155 52.0706 38.5112 52.0955C38.5052 52.129 38.4993 52.162 38.4906 52.1949C38.4641 52.2942 38.5231 52.4135 38.6215 52.4373C38.721 52.4612 38.8238 52.4061 38.8525 52.2999C38.9433 51.9593 38.8547 51.5897 38.6307 51.3279C38.5647 51.2513 38.4316 51.2524 38.3651 51.3279C38.2932 51.4103 38.2948 51.5249 38.3651 51.6067Z" fill="#3DA7E9"/>
<path d="M38.3067 64.1499C38.3067 64.4747 38.3067 64.8 38.3067 65.1248C38.3067 65.2275 38.3932 65.3263 38.4944 65.3218C38.5961 65.3172 38.6821 65.2355 38.6821 65.1248C38.6821 64.8 38.6821 64.4747 38.6821 64.1499C38.6821 64.0472 38.5955 63.9484 38.4944 63.9529C38.3927 63.958 38.3067 64.0398 38.3067 64.1499Z" fill="#3DA7E9"/>
<path d="M39.2517 66.7748C39.0321 67.0968 38.9672 67.5254 39.0672 67.9052C39.0932 68.0046 39.2014 68.0756 39.2982 68.0426C39.395 68.0097 39.4572 67.9069 39.4291 67.8002C39.4183 67.7593 39.4107 67.7184 39.4031 67.677C39.3999 67.6543 39.3999 67.656 39.4037 67.6821C39.4026 67.6719 39.4015 67.6611 39.4004 67.6509C39.3988 67.6299 39.3972 67.6089 39.3967 67.5879C39.3956 67.551 39.3961 67.5141 39.3983 67.4772C39.3994 67.4573 39.3983 67.4334 39.4037 67.4141C39.3902 67.4647 39.4064 67.3988 39.408 67.388C39.4215 67.3102 39.4432 67.2342 39.4713 67.1609C39.454 67.2075 39.4794 67.1439 39.4832 67.1359C39.4918 67.1172 39.5016 67.0985 39.5113 67.0803C39.5308 67.0434 39.553 67.0082 39.5762 66.9736C39.6336 66.8895 39.593 66.7504 39.5086 66.7039C39.4112 66.6499 39.3128 66.6846 39.2517 66.7748Z" fill="#3DA7E9"/>
<path d="M58.9467 70.2889C57.4111 70.4219 55.8733 70.5275 54.3338 70.6054C52.7874 70.6832 51.2393 70.7327 49.6907 70.7542C48.8214 70.7662 47.9522 70.769 47.0829 70.7633C47.011 70.7628 46.9509 70.702 46.9509 70.6281C46.9423 68.8043 46.9331 66.98 46.9245 65.1562C46.9218 64.633 46.9196 64.1097 46.9169 63.5864C46.9163 63.5131 46.9775 63.4512 47.0489 63.4512C48.6137 63.4501 50.1786 63.3949 51.7396 63.2847C53.3034 63.1739 54.8634 63.0092 56.4158 62.7887C57.2872 62.6649 58.1559 62.5234 59.0224 62.3655C59.1047 62.3507 59.1912 62.4012 59.1896 62.4956C59.1771 63.3626 59.1647 64.2296 59.1517 65.0971C59.1317 66.4687 59.1122 67.8407 59.0922 69.2123C59.0879 69.5265 59.083 69.8406 59.0787 70.1548C59.076 70.3287 58.812 70.3293 58.8147 70.1548C58.8272 69.2878 58.8396 68.4208 58.8526 67.5533C58.8726 66.1817 58.8921 64.8096 58.9121 63.4381C58.9164 63.1239 58.9213 62.8097 58.9256 62.4956C58.9813 62.5387 59.037 62.5825 59.0928 62.6257C57.5479 62.9075 55.9933 63.1359 54.4334 63.3097C52.8636 63.4847 51.2874 63.604 49.7096 63.6677C48.8236 63.7034 47.9365 63.7211 47.0494 63.7216C47.0932 63.6767 47.1376 63.6319 47.1814 63.5864C47.19 65.4102 47.1992 67.2345 47.2079 69.0583C47.2106 69.5816 47.2128 70.1048 47.2155 70.6281C47.1716 70.5832 47.1273 70.5383 47.0835 70.4929C48.6245 70.5031 50.1661 70.4855 51.7067 70.44C53.2547 70.394 54.8017 70.3202 56.3466 70.2179C57.2142 70.1605 58.0807 70.094 58.9467 70.019C59.116 70.0043 59.1149 70.2742 58.9467 70.2889Z" fill="#827454"/>
<path d="M58.8704 64.7913C57.3986 65.0979 55.9062 65.2909 54.4095 65.4101C52.8993 65.5305 51.3848 65.5771 49.8702 65.5969C49.0199 65.6083 48.1691 65.6111 47.3187 65.614C47.1489 65.6145 47.1484 65.3449 47.3187 65.3443C48.8198 65.3397 50.3213 65.3346 51.8213 65.2835C53.3185 65.2324 54.8152 65.1359 56.3027 64.9474C57.14 64.8413 57.973 64.7044 58.7995 64.5318C58.9661 64.4966 59.037 64.7567 58.8704 64.7913Z" fill="#827454"/>
<path d="M43.2674 61.6524C42.5572 62.1478 42.6491 63.4427 43.4913 63.7296C43.877 63.8608 44.3136 63.7296 44.6143 63.458C44.9599 63.1467 45.0524 62.6524 44.8739 62.2189C44.6662 61.7149 44.1296 61.3888 43.6125 61.5007C43.513 61.5223 43.4562 61.6456 43.4816 61.7433C43.5098 61.8518 43.613 61.9024 43.7126 61.8808C44.0106 61.8161 44.3352 62.0143 44.4948 62.3013C44.571 62.4376 44.61 62.5967 44.5921 62.7404C44.5732 62.8916 44.5099 63.0097 44.4212 63.108C44.3255 63.2137 44.2086 63.2904 44.0902 63.333C44.0528 63.3467 44.0144 63.358 43.9755 63.3671C43.9592 63.3711 43.943 63.3739 43.9268 63.3773C43.8906 63.3841 43.9706 63.3734 43.9084 63.3802C43.8694 63.3842 43.83 63.3864 43.7905 63.3853C43.7478 63.3842 43.7202 63.3813 43.7045 63.3785C43.4162 63.3251 43.2366 63.1131 43.1771 62.8132C43.1479 62.666 43.1576 62.5018 43.2079 62.3427C43.2506 62.2081 43.3448 62.0706 43.4567 61.9927C43.5411 61.9337 43.5773 61.8189 43.5238 61.7229C43.4751 61.6348 43.3523 61.5933 43.2674 61.6524Z" fill="#827454"/>
<path d="M59.4725 61.2007C59.4417 61.6797 59.717 62.1558 60.1146 62.3825C60.5127 62.6097 60.9908 62.5558 61.3165 62.2194C61.5929 61.9336 61.7422 61.4723 61.6178 61.0757C61.4933 60.678 61.1396 60.4462 60.7485 60.4417C60.3396 60.4366 59.922 60.682 59.8106 61.1138C59.7473 61.3587 60.1092 61.4638 60.1724 61.2183C60.2271 61.0058 60.4413 60.8587 60.6484 60.8399C60.7117 60.8343 60.7756 60.8337 60.8388 60.8411C60.8075 60.8371 60.8891 60.8524 60.9043 60.8564C60.9189 60.8604 60.933 60.8644 60.9476 60.8695C60.9541 60.8718 61.019 60.8985 60.986 60.8831C61.013 60.8956 61.039 60.9104 61.0644 60.9263C61.0795 60.936 61.0941 60.9462 61.1087 60.957C61.1022 60.9519 61.0849 60.9354 61.1125 60.961C61.1801 61.0235 61.1937 61.0416 61.2326 61.1212C61.2824 61.2217 61.297 61.3717 61.2791 61.478C61.2548 61.6246 61.1986 61.7558 61.1261 61.8535C60.9438 62.1007 60.6765 62.1978 60.3877 62.0836C60.0518 61.9513 59.8241 61.5712 59.8479 61.2013C59.8549 61.095 59.757 61.0041 59.6602 61.0041C59.5526 61.0036 59.479 61.0939 59.4725 61.2007Z" fill="#827454"/>
<path d="M0.597737 139.784C0.0162594 139.149 -0.172544 138.342 0.172015 137.97L91.4348 38.1678C92.0417 37.5116 93.0451 37.5144 93.6488 38.1741C94.2243 38.8024 94.2216 39.7967 93.6434 40.4217L2.33295 140.275C1.97811 140.659 1.19598 140.437 0.597737 139.784Z" fill="#32627A"/>
<path d="M73.3312 74.4472C73.091 78.7896 77.9224 83.4593 79.1448 83.6814C79.815 83.803 80.5258 83.8843 81.1576 83.6195C81.7986 83.3508 85.474 75.6091 85.3118 74.5523C84.4566 68.9765 83.2114 57.5396 85.4513 52.7409C86.2605 51.0069 87.4197 49.3076 87.4024 47.3759C86.7008 48.1565 85.8678 48.8059 84.9537 49.2854C84.3944 48.5809 84.185 47.6497 83.8059 46.8236C83.4267 45.9975 82.73 45.193 81.857 45.2237C80.984 45.2544 80.3651 46.6458 81.1084 47.1276C80.5664 46.2986 79.3677 45.9481 78.5942 46.5407C77.8202 47.1327 77.9029 48.6485 78.8025 48.9934C78.2767 48.1451 76.906 48.115 76.3462 48.9388C75.7869 49.7632 76.2607 51.1143 77.196 51.3603C76.6112 50.5672 75.3461 51.6535 75.4883 52.6449C75.6311 53.6363 77.3842 57.6003 77.8369 58.4833C78.8214 60.4013 73.5205 71.0258 73.3312 74.4472Z" fill="#F6A472"/>
<path d="M30.239 77.5295C33.3049 77.8522 46.0098 80.0362 48.4423 78.059C49.1049 77.5204 52.3471 75.7313 53.0536 75.2569C54.329 74.4007 56.0518 74.341 57.3781 75.1075C56.8881 75.8194 56.398 76.5318 55.9079 77.2437C56.9221 77.4221 57.9152 77.7306 58.8591 78.1596C59.2697 78.3459 59.3757 78.9152 59.0538 79.2414C58.6828 79.618 58.2203 79.8964 57.721 80.0334C58.3101 80.3731 58.7374 81.006 58.8483 81.702C58.5032 82.3974 57.7081 82.8128 56.9714 82.6815C57.4176 83.7366 56.1475 85.0416 55.1528 84.5507C55.3843 85.3433 54.6335 86.1348 53.8552 86.2688C53.0763 86.4029 52.2984 86.1046 51.5303 85.916C47.3329 84.8837 31.4837 87.7398 27.5529 88.0443C26.6523 88.1142 23.5702 87.625 21.2876 85.1774C19.899 83.6883 20.3994 81.1975 22.2406 80.4203C25.4439 79.0675 27.7281 77.2653 30.239 77.5295Z" fill="#F6A472"/>
<path d="M64.0204 75.9415C63.0901 76.9153 62.1597 77.8886 61.2299 78.8618C61.0584 79.0414 61.324 79.3198 61.4949 79.1408C62.4253 78.1676 63.3557 77.1937 64.286 76.2205C64.4569 76.041 64.1913 75.7626 64.0204 75.9415Z" fill="#827454"/>
<path d="M63.902 77.6585C63.4752 78.2488 63.0484 78.8391 62.6217 79.4294C62.5605 79.5141 62.6092 79.6499 62.6887 79.6993C62.785 79.7584 62.884 79.7135 62.9457 79.6289C63.3724 79.0385 63.7992 78.4482 64.2266 77.8579C64.2877 77.7733 64.239 77.6375 64.1589 77.5881C64.0627 77.529 63.9637 77.5738 63.902 77.6585Z" fill="#827454"/>
<path d="M63.0381 77.0222C63.2956 80.4408 63.9474 83.8247 64.9849 87.0768C65.2753 87.987 65.5961 88.8864 65.945 89.7738C66.0359 90.0051 66.3994 89.9039 66.3069 89.6693C65.0736 86.5348 64.2038 83.2457 63.7246 79.8919C63.5882 78.9397 63.486 77.9824 63.4136 77.0228C63.3941 76.7711 63.0187 76.7688 63.0381 77.0222Z" fill="#827454"/>
<path d="M60.9714 86.6393C61.3598 88.0909 61.9781 89.4743 62.8013 90.7101C63.683 92.0339 64.8065 93.1293 65.9343 94.2162C66.6158 94.8735 67.2974 95.5303 67.9784 96.1871C68.1558 96.3581 68.4219 96.0803 68.244 95.9087C67.0805 94.7872 65.8872 93.6912 64.7675 92.5214C63.7312 91.439 62.8451 90.2345 62.1879 88.8596C61.832 88.1153 61.548 87.3364 61.3338 86.5347C61.2684 86.2904 60.906 86.3944 60.9714 86.6393Z" fill="#827454"/>
<path d="M41.6944 87.079C40.7067 89.101 39.4264 90.9578 37.9005 92.5696C37.4634 93.031 37.0064 93.4718 36.5331 93.8911C36.3481 94.0548 36.6147 94.3326 36.7986 94.1701C38.476 92.6844 39.9316 90.9254 41.1 88.9749C41.4299 88.4238 41.7361 87.8574 42.0189 87.2784C42.1282 87.0523 41.8048 86.8529 41.6944 87.079Z" fill="#827454"/>
<path d="M49.252 106.758C51.5995 106.438 53.9622 106.24 56.3282 106.166C57.007 106.145 57.6864 106.134 58.3658 106.133C58.607 106.132 58.6075 105.739 58.3658 105.739C55.9982 105.743 53.6317 105.868 51.2761 106.118C50.5999 106.19 49.9254 106.272 49.2514 106.364C49.1503 106.378 49.0648 106.445 49.0637 106.561C49.0632 106.657 49.1514 106.772 49.252 106.758Z" fill="#827454"/>
<path d="M61.9374 115.933C62.1938 116.514 62.3015 117.155 62.2647 117.793C62.2501 118.047 62.6255 118.046 62.6401 117.793C62.6812 117.084 62.546 116.378 62.262 115.734C62.2192 115.637 62.0867 115.613 62.0051 115.663C61.9104 115.721 61.8947 115.836 61.9374 115.933Z" fill="#827454"/>
<path d="M64.6895 114.816C64.6154 115.379 64.6701 115.95 64.8735 116.479C64.9113 116.578 64.9984 116.647 65.1044 116.617C65.1937 116.591 65.2737 116.474 65.2353 116.374C65.059 115.916 64.9865 115.412 65.0514 114.92C65.0655 114.815 65.0271 114.709 64.9205 114.678C64.8329 114.653 64.7036 114.71 64.6895 114.816Z" fill="#827454"/>
<path d="M67.0582 113.443C66.9981 113.833 66.9376 114.223 66.8775 114.613C66.8618 114.714 66.9024 114.83 67.0084 114.856C67.0988 114.877 67.2226 114.827 67.2394 114.718C67.2994 114.328 67.36 113.938 67.4201 113.548C67.4357 113.447 67.3952 113.331 67.2891 113.306C67.1988 113.284 67.0749 113.334 67.0582 113.443Z" fill="#827454"/>
<path d="M41.9908 116.367C41.8686 116.953 41.7463 117.538 41.6241 118.124C41.6025 118.228 41.6538 118.337 41.755 118.367C41.8491 118.394 41.9638 118.334 41.986 118.229C42.1082 117.643 42.2304 117.058 42.3527 116.472C42.3743 116.368 42.3229 116.259 42.2218 116.23C42.1277 116.203 42.0124 116.263 41.9908 116.367Z" fill="#827454"/>
<path d="M45.7875 115.701C45.3829 116.17 45.2266 116.839 45.3894 117.45C45.4543 117.694 45.8167 117.591 45.7513 117.346C45.6263 116.876 45.7361 116.347 46.0531 115.98C46.1212 115.901 46.1272 115.779 46.0531 115.701C45.9838 115.628 45.8557 115.622 45.7875 115.701Z" fill="#827454"/>
<path d="M41.8767 107.801C41.8118 108.125 41.7469 108.449 41.682 108.773C41.662 108.874 41.7101 108.991 41.8129 109.016C41.907 109.038 42.0222 108.986 42.0439 108.878C42.1088 108.554 42.1737 108.23 42.2386 107.906C42.2586 107.805 42.2105 107.688 42.1077 107.663C42.013 107.641 41.8978 107.693 41.8767 107.801Z" fill="#827454"/>
<path d="M38.1125 121.442C37.9822 121.829 37.8513 122.216 37.7204 122.604C37.6874 122.701 37.7577 122.823 37.8512 122.846C37.9562 122.871 38.047 122.812 38.0822 122.709C38.2131 122.321 38.3435 121.934 38.4744 121.546C38.5074 121.449 38.4371 121.327 38.3435 121.304C38.238 121.279 38.1477 121.337 38.1125 121.442Z" fill="#827454"/>
<path d="M32.1376 126.132C34.0211 126.467 35.8824 126.931 37.7085 127.52C37.94 127.595 38.039 127.215 37.808 127.14C35.9819 126.551 34.1206 126.087 32.2372 125.752C32.0008 125.71 31.8996 126.09 32.1376 126.132Z" fill="#827454"/>
<path d="M31.5637 127.573C32.6807 127.954 33.7977 128.334 34.9152 128.715C35.1456 128.793 35.2441 128.414 35.0147 128.335C33.8977 127.954 32.7807 127.574 31.6632 127.193C31.4328 127.115 31.3344 127.495 31.5637 127.573Z" fill="#827454"/>
<path d="M58.7688 130.57C60.1362 130.274 61.5042 129.978 62.8716 129.682C63.108 129.631 63.0079 129.251 62.7721 129.303C61.4046 129.598 60.0367 129.894 58.6692 130.19C58.4329 130.241 58.5329 130.621 58.7688 130.57Z" fill="#827454"/>
<path d="M57.86 132.421C59.4454 131.804 61.1352 131.54 62.8229 131.646C63.0641 131.662 63.063 131.268 62.8229 131.252C61.1055 131.143 59.3729 131.413 57.7599 132.041C57.5355 132.129 57.6328 132.51 57.86 132.421Z" fill="#827454"/>
<path d="M72.2845 134.304C71.4937 134.408 70.7023 134.513 69.9115 134.617C69.5318 134.667 69.1391 134.693 68.7637 134.773C68.4467 134.84 68.252 135.064 68.2131 135.399C68.1703 135.77 68.2017 136.16 68.2017 136.532C68.2017 136.914 68.2022 137.296 68.2022 137.677C68.2028 138.383 68.2033 139.089 68.2039 139.795C68.2055 142.258 68.2077 144.72 68.2093 147.183C68.2104 148.816 68.2114 150.45 68.2125 152.083C68.2125 152.181 68.2985 152.291 68.4002 152.28C69.0163 152.213 69.6324 152.145 70.2485 152.078C70.4865 152.052 70.4887 151.658 70.2485 151.684C69.6324 151.751 69.0163 151.818 68.4002 151.885C68.463 151.951 68.5252 152.017 68.5879 152.083C68.5863 149.442 68.5847 146.803 68.5825 144.163C68.5803 141.619 68.5787 139.075 68.5771 136.532C68.5771 136.299 68.5771 136.066 68.5766 135.833C68.5766 135.674 68.5484 135.466 68.6117 135.315C68.6826 135.148 68.8989 135.145 69.0482 135.125C69.2641 135.097 69.4799 135.068 69.6952 135.04C70.5579 134.926 71.4212 134.812 72.284 134.699C72.5214 134.668 72.5241 134.273 72.2845 134.304Z" fill="#827454"/>
<path d="M68.649 138.907C69.6908 138.489 70.8289 138.405 71.9139 138.682C72.1487 138.742 72.2488 138.362 72.0135 138.303C70.8667 138.01 69.6518 138.085 68.5489 138.527C68.3261 138.617 68.4229 138.998 68.649 138.907Z" fill="#827454"/>
<path d="M18.213 153.525C22.1503 156.062 27.1651 156.981 30.7443 159.95C29.7912 161.57 28.8387 163.189 27.8856 164.809C23.6989 162.718 19.6329 160.415 15.7113 157.911C15.5696 157.82 15.4149 157.709 15.3976 157.549C15.384 157.419 15.4673 157.299 15.5469 157.192C16.4556 155.973 17.3638 154.754 18.2725 153.534L18.213 153.525Z" fill="#827454"/>
<path d="M56.0951 158.073C60.9719 158.039 66.2106 157.651 70.9582 158.192C70.8381 160.13 70.5936 160.416 70.4735 162.355C65.5756 162.915 60.6895 163.223 55.843 163.276C55.6677 163.278 55.4703 163.27 55.3789 163.141C55.3043 163.037 55.3253 162.886 55.3491 162.749C55.618 161.181 55.8863 159.614 56.1551 158.046L56.0951 158.073Z" fill="#827454"/>
<path d="M90.0172 150.6H114.552V152.419H113.903V177.215C113.903 177.628 113.584 177.963 113.191 177.963H91.3786C90.9854 177.963 90.6673 177.628 90.6673 177.215V152.419H90.0177L90.0172 150.6Z" fill="#C2B38C"/>
<path d="M112.928 152.56C110.33 152.56 107.733 152.56 105.135 152.56C102.537 152.56 99.9391 152.56 97.3411 152.56C95.8731 152.56 94.4056 152.56 92.9375 152.56C92.6671 152.56 92.6665 153.001 92.9375 153.001C95.5355 153.001 98.133 153.001 100.731 153.001C103.329 153.001 105.926 153.001 108.524 153.001C109.992 153.001 111.46 153.001 112.928 153.001C113.198 153.001 113.199 152.56 112.928 152.56Z" fill="#827454"/>
<path d="M92.1721 163.862C92.1721 166.001 92.1721 168.139 92.1721 170.278C92.1721 170.562 92.5924 170.562 92.5924 170.278C92.5924 168.139 92.5924 166.001 92.5924 163.862C92.5924 163.579 92.1721 163.578 92.1721 163.862Z" fill="#827454"/>
<path d="M98.8009 169.181C99.0882 170.497 99.1909 171.846 99.1136 173.195C99.0974 173.478 99.5176 173.477 99.5339 173.195C99.6139 171.808 99.5014 170.417 99.2066 169.064C99.146 168.786 98.7409 168.903 98.8009 169.181Z" fill="#827454"/>
<path d="M97.1696 172.028C97.1696 172.611 97.1696 173.194 97.1696 173.778C97.1696 174.062 97.5899 174.062 97.5899 173.778C97.5899 173.194 97.5899 172.611 97.5899 172.028C97.5899 171.744 97.1696 171.744 97.1696 172.028Z" fill="#827454"/>
<path d="M95.5041 173.486C95.5041 173.777 95.5041 174.069 95.5041 174.36C95.5041 174.476 95.6009 174.586 95.714 174.581C95.8276 174.575 95.9239 174.483 95.9239 174.36C95.9239 174.069 95.9239 173.777 95.9239 173.486C95.9239 173.371 95.827 173.26 95.714 173.266C95.5999 173.271 95.5041 173.362 95.5041 173.486Z" fill="#827454"/>
<path d="M112.896 150.442C112.08 150.878 111.751 152.482 111.643 153.437C111.535 154.392 111.559 155.4 111.139 156.254C110.719 157.109 109.625 157.703 108.871 157.157C108.084 156.587 108.251 155.354 108.091 154.364C108.034 154.02 107.914 153.662 107.647 153.453C107.165 153.074 106.422 153.381 106.1 153.916C105.778 154.451 105.759 155.12 105.749 155.753C104.7 155.44 103.245 155.319 102.839 156.383C102.625 156.943 102.821 157.661 102.447 158.119C101.94 158.739 100.887 158.199 100.645 157.421C100.403 156.643 100.641 155.804 100.696 154.988C100.751 154.172 100.497 153.187 99.7524 152.947C98.3828 153.01 98.8399 155.903 97.5039 156.225C96.7206 156.413 96.1148 155.471 95.9747 154.64C95.8346 153.809 95.8644 152.862 95.3056 152.255C94.5948 151.485 93.1149 151.49 92.898 150.441H112.896V150.442Z" fill="#94B9D0"/>
<path d="M91.9871 151.434C91.5652 151.513 91.1276 151.443 90.7067 151.39C90.2421 151.331 89.7926 151.305 89.329 151.392C89.1549 151.424 89.0299 151.629 89.0299 151.805C89.0294 152.095 88.9834 152.387 88.9515 152.675C88.8936 153.199 88.8384 153.724 88.7952 154.25C88.7373 154.947 88.6978 155.646 88.6821 156.346C88.6637 157.168 88.6778 157.992 88.733 158.812C88.7946 159.728 88.905 160.642 89.0775 161.542C89.2512 162.449 89.4903 163.343 89.8116 164.204C90.1523 165.118 90.5731 165.997 91.1011 166.807C91.6485 167.647 92.2954 168.416 93.0375 169.072C93.8581 169.797 94.7728 170.393 95.7534 170.848C96.898 171.379 98.1021 171.737 99.3359 171.951C100.814 172.207 102.326 172.296 103.822 172.22C105.185 172.15 106.55 171.927 107.85 171.486C108.964 171.109 110.035 170.577 111.002 169.883C111.895 169.241 112.704 168.474 113.4 167.603C114.069 166.765 114.643 165.848 115.116 164.876C115.58 163.923 115.957 162.921 116.256 161.898C116.537 160.932 116.75 159.944 116.904 158.947C117.05 158.004 117.147 157.053 117.196 156.099C117.236 155.306 117.242 154.512 117.21 153.719C117.184 153.085 117.132 152.451 117.043 151.823C117.014 151.624 116.981 151.425 116.938 151.228C116.9 151.054 116.717 150.903 116.545 150.914C115.762 150.961 114.973 150.938 114.189 150.914C113.665 150.897 113.665 151.754 114.189 151.771C114.973 151.795 115.762 151.817 116.545 151.771C116.414 151.666 116.283 151.561 116.152 151.456C116.196 151.657 116.23 151.86 116.259 152.065C116.263 152.094 116.267 152.123 116.271 152.152C116.273 152.167 116.274 152.181 116.277 152.196C116.286 152.266 116.261 152.072 116.27 152.143C116.278 152.211 116.286 152.279 116.294 152.347C116.31 152.489 116.324 152.631 116.336 152.774C116.395 153.471 116.418 154.172 116.415 154.872C116.41 155.731 116.365 156.591 116.279 157.445C116.256 157.677 116.23 157.908 116.201 158.139C116.218 158.001 116.194 158.189 116.19 158.222C116.182 158.279 116.174 158.335 116.166 158.392C116.149 158.515 116.131 158.639 116.111 158.762C116.035 159.246 115.946 159.729 115.841 160.207C115.624 161.2 115.342 162.178 114.983 163.124C114.962 163.182 114.939 163.239 114.917 163.297C114.905 163.326 114.894 163.354 114.883 163.383C114.844 163.483 114.918 163.297 114.878 163.396C114.827 163.52 114.776 163.644 114.723 163.767C114.62 164.004 114.512 164.239 114.399 164.471C114.17 164.938 113.919 165.393 113.645 165.832C113.507 166.053 113.363 166.27 113.212 166.482C113.176 166.534 113.139 166.584 113.103 166.635C113.04 166.722 113.157 166.564 113.092 166.65C113.073 166.675 113.054 166.7 113.036 166.725C112.953 166.834 112.87 166.941 112.785 167.047C112.452 167.459 112.095 167.848 111.714 168.211C111.52 168.395 111.319 168.572 111.114 168.744C111.101 168.755 111.016 168.823 111.096 168.759C111.07 168.779 111.045 168.799 111.02 168.819C110.969 168.86 110.918 168.9 110.866 168.939C110.754 169.026 110.64 169.11 110.524 169.191C110.066 169.516 109.585 169.804 109.087 170.056C108.963 170.118 108.839 170.178 108.713 170.236C108.681 170.251 108.649 170.265 108.617 170.28C108.511 170.328 108.694 170.248 108.587 170.294C108.511 170.326 108.435 170.359 108.359 170.39C108.08 170.504 107.798 170.608 107.513 170.702C106.906 170.901 106.287 171.053 105.66 171.163C105.502 171.191 105.342 171.217 105.183 171.239C105.266 171.227 105.133 171.245 105.129 171.246C105.088 171.252 105.047 171.257 105.006 171.262C104.91 171.274 104.814 171.285 104.717 171.295C104.362 171.332 104.005 171.358 103.648 171.373C102.889 171.404 102.128 171.39 101.37 171.338C101.026 171.315 100.682 171.283 100.339 171.242C100.155 171.22 100.043 171.204 99.9136 171.185C99.7405 171.158 99.5685 171.129 99.3965 171.098C98.776 170.985 98.161 170.835 97.5579 170.643C97.2777 170.554 96.9997 170.456 96.7255 170.347C96.5978 170.297 96.4718 170.244 96.3458 170.19C96.3322 170.184 96.2284 170.137 96.3192 170.178C96.2884 170.165 96.2581 170.15 96.2273 170.137C96.1564 170.104 96.0861 170.072 96.0158 170.038C95.5354 169.807 95.0697 169.543 94.6246 169.243C94.4131 169.101 94.2065 168.951 94.0047 168.793C93.9809 168.774 93.8354 168.656 93.9225 168.728C93.8759 168.69 93.83 168.652 93.784 168.613C93.6855 168.53 93.5887 168.445 93.4935 168.358C93.1365 168.032 92.8012 167.681 92.4907 167.306C92.4177 167.218 92.3462 167.129 92.2759 167.039C92.2408 166.994 92.2062 166.948 92.1721 166.903C92.1548 166.88 92.138 166.857 92.1213 166.835C92.1943 166.932 92.1153 166.826 92.1012 166.807C91.9638 166.617 91.8324 166.421 91.7069 166.222C91.4591 165.829 91.2347 165.419 91.0329 164.997C90.9329 164.789 90.8387 164.577 90.7495 164.364C90.7371 164.334 90.6689 164.163 90.7176 164.287C90.697 164.235 90.677 164.184 90.657 164.132C90.6137 164.02 90.5721 163.908 90.532 163.795C90.3779 163.364 90.2437 162.926 90.1274 162.482C90.0128 162.045 89.9159 161.601 89.8348 161.156C89.7948 160.936 89.7585 160.716 89.7256 160.495C89.7099 160.39 89.6952 160.284 89.6812 160.179C89.6779 160.153 89.6742 160.127 89.6709 160.1C89.6882 160.232 89.6758 160.136 89.6725 160.109C89.665 160.048 89.6574 159.987 89.6503 159.925C89.4675 158.339 89.454 156.734 89.5481 155.14C89.6076 154.13 89.7331 153.129 89.8261 152.122C89.8359 152.017 89.8462 151.912 89.8462 151.806C89.7461 151.943 89.6466 152.082 89.547 152.219C89.969 152.14 90.4066 152.21 90.8274 152.263C91.2915 152.322 91.7415 152.349 92.2051 152.262C92.422 152.221 92.5442 151.943 92.4901 151.735C92.4258 151.493 92.2045 151.394 91.9871 151.434Z" fill="#EC8117"/>
<path d="M119.188 163.615H133.879V164.704H133.491V179.552C133.491 179.799 133.3 180 133.064 180H120.002C119.767 180 119.576 179.799 119.576 179.552V164.704H119.187V163.615H119.188Z" fill="#C2B38C"/>
<path d="M132.907 164.788C131.351 164.788 129.796 164.788 128.24 164.788C126.684 164.788 125.129 164.788 123.573 164.788C122.694 164.788 121.815 164.788 120.936 164.788C120.774 164.788 120.774 165.052 120.936 165.052C122.492 165.052 124.047 165.052 125.603 165.052C127.159 165.052 128.714 165.052 130.27 165.052C131.149 165.052 132.028 165.052 132.907 165.052C133.069 165.053 133.069 164.788 132.907 164.788Z" fill="#827454"/>
<path d="M120.478 171.557C120.478 172.837 120.478 174.118 120.478 175.398C120.478 175.568 120.73 175.569 120.73 175.398C120.73 174.118 120.73 172.837 120.73 171.557C120.73 171.386 120.478 171.386 120.478 171.557Z" fill="#827454"/>
<path d="M124.448 174.741C124.62 175.53 124.681 176.338 124.635 177.144C124.625 177.314 124.877 177.314 124.886 177.144C124.934 176.314 124.867 175.481 124.69 174.671C124.654 174.505 124.411 174.575 124.448 174.741Z" fill="#827454"/>
<path d="M123.471 176.446C123.471 176.795 123.471 177.144 123.471 177.493C123.471 177.663 123.722 177.663 123.722 177.493C123.722 177.144 123.722 176.795 123.722 176.446C123.722 176.276 123.471 176.276 123.471 176.446Z" fill="#827454"/>
<path d="M122.473 177.319C122.473 177.494 122.473 177.669 122.473 177.843C122.473 177.912 122.531 177.978 122.599 177.975C122.667 177.972 122.725 177.917 122.725 177.843C122.725 177.669 122.725 177.494 122.725 177.319C122.725 177.25 122.667 177.184 122.599 177.187C122.531 177.191 122.473 177.245 122.473 177.319Z" fill="#827454"/>
<path d="M134.595 161.737H118.472V163.775H134.595V161.737Z" fill="#827454"/>
<path d="M29.564 129.771C30.1492 130.132 30.7339 130.493 31.3192 130.855C31.8726 131.196 32.4378 131.523 32.9809 131.883C33.2097 132.034 33.4039 132.225 33.3471 132.534C33.2887 132.852 33.0815 133.142 32.9279 133.415C32.5839 134.028 32.2399 134.642 31.8964 135.255C30.5208 137.708 29.1453 140.161 27.7692 142.613C26.9914 144 26.2136 145.386 25.4358 146.773C25.5212 146.75 25.6067 146.726 25.6927 146.703C24.6898 145.995 23.687 145.287 22.6841 144.579C22.4829 144.436 22.2952 144.778 22.4948 144.919C23.4977 145.627 24.5005 146.335 25.5034 147.043C25.5878 147.103 25.7111 147.06 25.7603 146.973C27.1888 144.426 28.6174 141.879 30.0459 139.332C30.7599 138.058 31.4745 136.785 32.1885 135.511C32.5427 134.88 32.8976 134.247 33.2519 133.615C33.5364 133.108 33.9778 132.45 33.557 131.885C33.3612 131.623 33.0539 131.469 32.7856 131.304C32.4486 131.096 32.1122 130.888 31.7752 130.68C31.1012 130.264 30.4278 129.848 29.7538 129.432C29.5445 129.301 29.3557 129.642 29.564 129.771Z" fill="#827454"/>
<path d="M28.236 133.257C29.5364 134.16 30.8368 135.063 32.1371 135.966C32.3389 136.106 32.5271 135.765 32.3264 135.626C31.0261 134.723 29.7257 133.82 28.4254 132.917C28.2231 132.776 28.0348 133.118 28.236 133.257Z" fill="#827454"/>
<path d="M56.3763 79.8018C57.0784 79.816 57.7811 79.8302 58.4832 79.8444C58.725 79.8495 58.725 79.4555 58.4832 79.4504C57.7811 79.4362 57.0784 79.422 56.3763 79.4078C56.1346 79.4033 56.1346 79.7973 56.3763 79.8018Z" fill="#7F4924"/>
<path d="M55.8008 82.2529C56.3119 82.2529 56.8225 82.2529 57.3337 82.2529C57.5749 82.2529 57.5755 81.8589 57.3337 81.8589C56.8225 81.8589 56.3119 81.8589 55.8008 81.8589C55.5595 81.8595 55.559 82.2529 55.8008 82.2529Z" fill="#7F4924"/>
<path d="M54.0245 84.6744C54.4707 84.7477 54.917 84.8215 55.3627 84.8947C55.4628 84.9112 55.5644 84.868 55.5937 84.7573C55.618 84.6636 55.5634 84.5319 55.4628 84.5149C55.0165 84.4416 54.5703 84.3678 54.1245 84.2946C54.0245 84.2781 53.9228 84.3213 53.8936 84.432C53.8692 84.5257 53.9239 84.6574 54.0245 84.6744Z" fill="#7F4924"/>
<path d="M56.5802 78.5828C56.008 80.5799 55.0057 82.4349 53.6653 83.974C53.2877 84.4075 52.8842 84.8149 52.458 85.1956C52.2735 85.3603 52.5402 85.6381 52.7236 85.4745C54.2711 84.0911 55.5184 82.3377 56.3422 80.3861C56.5754 79.8333 56.7766 79.2663 56.9421 78.6874C57.0119 78.4442 56.6495 78.3402 56.5802 78.5828Z" fill="#7F4924"/>
<path d="M80.7081 46.6882C80.8054 47.1685 81.0321 47.6142 81.3512 47.9725C81.4183 48.048 81.5497 48.0491 81.6168 47.9725C81.6871 47.8918 81.6887 47.7743 81.6168 47.6937C81.58 47.6528 81.5449 47.6108 81.5108 47.5671C81.5027 47.5569 81.4951 47.5466 81.487 47.5364C81.4675 47.5103 81.5005 47.5557 81.4816 47.529C81.4664 47.508 81.4518 47.4865 81.4372 47.4649C81.3756 47.3735 81.3198 47.277 81.2701 47.1776C81.2468 47.1305 81.2252 47.0834 81.2046 47.0345C81.2036 47.0317 81.1895 46.9982 81.1954 47.0124C81.2014 47.0272 81.1884 46.9931 81.1868 46.9902C81.1765 46.9624 81.1662 46.9346 81.157 46.9068C81.1213 46.8006 81.0926 46.6927 81.0705 46.5826C81.0499 46.4815 80.932 46.4134 80.8395 46.4452C80.7378 46.4804 80.6864 46.5798 80.7081 46.6882Z" fill="#7F4924"/>
<path d="M77.7201 48.9698C78.0355 49.3094 78.3503 49.6489 78.6651 49.9884C78.7338 50.0622 78.8625 50.0662 78.9306 49.9884C78.9999 49.9089 79.0037 49.7885 78.9306 49.7102C78.6153 49.3707 78.3005 49.0312 77.9857 48.6911C77.917 48.6173 77.7883 48.6133 77.7201 48.6911C77.6509 48.7706 77.6471 48.8909 77.7201 48.9698Z" fill="#7F4924"/>
<path d="M76.4008 51.6334C76.6561 51.8344 76.9119 52.0354 77.1672 52.2369C77.2035 52.2653 77.27 52.2687 77.3117 52.2568C77.3555 52.2443 77.4025 52.2091 77.4236 52.1665C77.4469 52.1205 77.4582 52.0654 77.4426 52.0149C77.4263 51.9633 77.3977 51.9298 77.3566 51.8974C77.1012 51.6964 76.8454 51.4949 76.5901 51.2939C76.5538 51.2649 76.4873 51.2621 76.4457 51.274C76.4018 51.2865 76.3548 51.3217 76.3337 51.3643C76.311 51.4103 76.2991 51.4653 76.3147 51.5159C76.3304 51.5675 76.3596 51.601 76.4008 51.6334Z" fill="#7F4924"/>
<path d="M77.2138 53.3602C78.5049 51.5268 80.0406 49.8797 81.7585 48.4843C82.2464 48.0878 82.7505 47.7134 83.2665 47.3583C83.4678 47.2196 83.2801 46.8782 83.0772 47.0179C81.2192 48.2969 79.5289 49.8422 78.0738 51.6064C77.66 52.108 77.2662 52.6279 76.8903 53.1614C76.7464 53.3654 77.0715 53.5619 77.2138 53.3602Z" fill="#7F4924"/>
<path d="M80.2564 58.5366C80.7011 58.3288 81.1451 58.1216 81.5892 57.9138C81.6817 57.8707 81.7039 57.7287 81.6563 57.6441C81.6006 57.5442 81.4924 57.53 81.3994 57.5737C80.9547 57.7815 80.5106 57.9887 80.066 58.1965C79.9735 58.2397 79.9513 58.3816 79.9989 58.4662C80.0557 58.5662 80.1639 58.5803 80.2564 58.5366Z" fill="#7F4924"/>
<path d="M47.2236 81.4054C47.1571 81.8747 47.09 82.344 47.0235 82.8127C47.0083 82.9178 47.0484 83.0246 47.1544 83.0553C47.2431 83.0809 47.3702 83.0235 47.3853 82.9178C47.4519 82.4485 47.5189 81.9798 47.586 81.5105C47.6012 81.4054 47.5611 81.2986 47.4551 81.2679C47.3659 81.2423 47.2388 81.2997 47.2236 81.4054Z" fill="#7F4924"/>
<path d="M22.7366 78.5022C23.6388 77.763 24.646 77.1619 25.7116 76.7244C25.9339 76.633 25.837 76.2517 25.6115 76.3443C24.481 76.8085 23.4284 77.4392 22.471 78.2232C22.3904 78.2891 22.4061 78.4323 22.471 78.5022C22.5494 78.5857 22.657 78.567 22.7366 78.5022Z" fill="#277AAE"/>
<path d="M24.3063 78.6971C24.9894 78.2834 25.6721 77.8693 26.3552 77.4556C26.5646 77.3289 26.3758 76.9881 26.1659 77.1153C25.4828 77.5289 24.8001 77.9431 24.1175 78.3567C23.9076 78.4834 24.0964 78.8243 24.3063 78.6971Z" fill="#277AAE"/>
<path d="M72.9222 70.5616C72.3829 71.9166 72.087 73.3677 72.0416 74.8358C72.0335 75.0898 72.4088 75.0892 72.4169 74.8358C72.4608 73.4018 72.7572 71.9899 73.284 70.6667C73.3235 70.5679 73.2413 70.4508 73.1531 70.4241C73.045 70.3917 72.9611 70.4639 72.9222 70.5616Z" fill="#277AAE"/>
<path d="M73.0158 77.4017C73.1088 77.8051 73.2024 78.2079 73.2954 78.6113C73.3187 78.7113 73.4318 78.7812 73.5264 78.7488C73.6254 78.7153 73.6822 78.6136 73.6573 78.5062C73.5643 78.1028 73.4707 77.7 73.3777 77.2966C73.3544 77.1966 73.2413 77.1267 73.1467 77.1591C73.0477 77.1932 72.9909 77.2943 73.0158 77.4017Z" fill="#277AAE"/>
</svg>
