<svg width="115" height="180" viewBox="0 0 115 180" fill="none" xmlns="http://www.w3.org/2000/svg">
<path d="M14.4529 40.3778L14.3084 34.2379H16.9083L16.7639 40.3778H14.4529Z" fill="#277AAE"/>
<path d="M15.584 42.4846V40.9635H10.0378V42.4846H15.584Z" fill="#EBE1C8"/>
<path d="M16.6143 43.4393H14.6023C14.3501 42.9702 14.1943 42.3258 14.1943 41.6146C14.1943 40.9361 14.336 40.3185 14.5682 39.8558H16.6486C16.8806 40.3185 17.0224 40.9362 17.0224 41.6146C17.0224 42.3258 16.8667 42.9702 16.6143 43.4393Z" fill="#FF5122"/>
<path d="M14.1159 40.3778C13.85 40.3778 13.6345 40.1814 13.6345 39.9393V39.3184C13.6345 39.0762 13.85 38.8799 14.1159 38.8799H17.1973C17.4631 38.8799 17.6786 39.0763 17.6786 39.3184V39.9393C17.6786 40.1815 17.4632 40.3778 17.1973 40.3778H14.1159Z" fill="#277AAE"/>
<path d="M16.8601 43.3094L17.0046 49.4493H14.4047L14.5493 43.3094H16.8601Z" fill="#277AAE"/>
<path d="M17.1973 43.3094C17.4631 43.3094 17.6786 43.5057 17.6786 43.748V44.3688C17.6786 44.611 17.4632 44.8074 17.1973 44.8074H14.1159C13.85 44.8074 13.6345 44.611 13.6345 44.3688V43.748C13.6345 43.5058 13.85 43.3094 14.1159 43.3094H17.1973Z" fill="#277AAE"/>
<path d="M50.6767 26.3661V30.3158H48.28V26.3661C47.3423 27.0699 46.6944 28.5738 46.6944 30.3158C46.6944 32.9708 48.1248 33.7842 47.4133 38.0436L46.0408 46.5962L47.7486 47.1667L49.3467 36.1625C50.399 34.0624 52.2624 33.4716 52.2624 30.3158C52.2624 28.5738 51.6145 27.0699 50.6767 26.3661Z" fill="#313C3B"/>
<path d="M47.4979 55.8974L48.7779 43.7489L46.0986 42.8536L43.8786 54.6887C43.6356 56.1565 44.2212 57.647 45.1659 57.9626L45.4747 58.0658C46.4192 58.3814 47.34 57.3938 47.4979 55.8974ZM45.5987 55.9553C45.2232 55.8298 44.9836 55.2498 45.0634 54.6598C45.1432 54.0699 45.5123 53.6933 45.8878 53.8187C46.2634 53.9442 46.5029 54.524 46.4231 55.1141C46.3433 55.7041 45.9743 56.0807 45.5987 55.9553Z" fill="#E06567"/>
<path d="M93.7325 160.903C95.764 165.085 97.2814 169.349 98.2718 173.651C101.646 173.28 105.006 172.867 108.35 172.415C107.895 166.27 107.632 160.119 107.562 153.969L93.7325 160.903Z" fill="#F2E8D1"/>
<path d="M96.9396 163.163C97.929 165.904 98.9633 168.64 100.044 171.37C100.351 172.145 100.662 172.919 100.976 173.694C101.055 173.889 101.586 173.807 101.506 173.611C100.399 170.885 99.3379 168.152 98.3226 165.415C98.0347 164.637 97.7498 163.859 97.4698 163.081C97.3981 162.883 96.8679 162.966 96.9396 163.163Z" fill="#87795B"/>
<path d="M100.171 162.573C101.228 165.449 102.068 168.351 102.678 171.269C102.851 172.1 103.006 172.931 103.144 173.764C103.177 173.962 103.726 173.964 103.693 173.764C103.205 170.81 102.491 167.869 101.551 164.951C101.286 164.129 101.002 163.308 100.701 162.49C100.628 162.293 100.098 162.376 100.171 162.573Z" fill="#87795B"/>
<path d="M104.08 163.591C104.325 166.255 104.57 168.918 104.815 171.582C104.884 172.343 104.954 173.104 105.025 173.865C105.043 174.065 105.593 174.066 105.574 173.865C105.329 171.201 105.085 168.538 104.84 165.874C104.77 165.113 104.7 164.352 104.629 163.591C104.611 163.391 104.061 163.39 104.08 163.591Z" fill="#87795B"/>
<path d="M106.911 171.428C105.943 170.861 104.947 170.281 103.689 169.947C102.43 169.612 100.834 169.57 99.7303 170.05C99.0299 170.354 98.6175 170.821 98.2438 171.275C96.6627 173.201 95.3834 175.207 94.4289 177.262C94.2845 177.572 94.1489 177.908 94.3491 178.209C94.5374 178.491 94.9878 178.688 95.4331 178.852C99.261 180.264 104.447 180.384 108.464 179.154C109.01 178.987 109.564 178.778 109.806 178.453C110.042 178.135 109.93 177.771 109.814 177.432C109.252 175.793 108.69 174.154 108.127 172.515L106.911 171.428Z" fill="#EC8117"/>
<mask id="mask0_2130_3081" style="mask-type:luminance" maskUnits="userSpaceOnUse" x="94" y="169" width="16" height="11">
<path d="M106.911 171.428C105.943 170.861 104.947 170.281 103.689 169.947C102.43 169.612 100.834 169.57 99.7303 170.05C99.0299 170.354 98.6175 170.821 98.2438 171.275C96.6627 173.201 95.3834 175.207 94.4289 177.262C94.2845 177.572 94.1489 177.908 94.3491 178.209C94.5374 178.491 94.9878 178.688 95.4331 178.852C99.261 180.264 104.447 180.384 108.464 179.154C109.01 178.987 109.564 178.778 109.806 178.453C110.042 178.135 109.93 177.771 109.814 177.432C109.252 175.793 108.69 174.154 108.127 172.515L106.911 171.428Z" fill="white"/>
</mask>
<g mask="url(#mask0_2130_3081)">
<path d="M110.368 176.092C107.792 177.945 103.484 178.968 99.3576 178.708C98.147 178.631 96.9326 178.445 95.9302 178.05C94.092 177.327 93.1575 175.987 91.1917 175.382C90.2751 176.186 90.3846 177.285 91.2315 178.113C92.0774 178.942 93.562 179.516 95.1571 179.823C96.4962 180.081 97.9209 180.169 99.3347 180.181C100.908 180.195 102.478 180.118 104.044 180.035C105.745 179.945 107.496 179.839 108.997 179.376C110.499 178.913 111.701 177.998 111.513 177.032L110.368 176.092Z" fill="#210A0A"/>
</g>
<mask id="mask1_2130_3081" style="mask-type:luminance" maskUnits="userSpaceOnUse" x="94" y="169" width="16" height="11">
<path d="M106.911 171.428C105.943 170.861 104.947 170.281 103.689 169.947C102.43 169.612 100.834 169.57 99.7303 170.05C99.0299 170.354 98.6175 170.821 98.2438 171.275C96.6627 173.201 95.3834 175.207 94.4289 177.262C94.2845 177.572 94.1489 177.908 94.3491 178.209C94.5374 178.491 94.9878 178.688 95.4331 178.852C99.261 180.264 104.447 180.384 108.464 179.154C109.01 178.987 109.564 178.778 109.806 178.453C110.042 178.135 109.93 177.771 109.814 177.432C109.252 175.793 108.69 174.154 108.127 172.515L106.911 171.428Z" fill="white"/>
</mask>
<g mask="url(#mask1_2130_3081)">
<path d="M109.046 173.613C107.041 172.742 105.753 171.282 103.352 170.844C101.837 170.568 100.152 170.775 98.7499 171.203C97.3481 171.631 96.1765 172.262 95.0227 172.885C95.5258 172.174 96.0868 171.476 96.7035 170.794C97.4219 170 98.2578 169.201 99.551 168.694C102.327 167.606 106.089 168.204 109.27 168.839C110.471 169.078 111.698 169.327 112.677 169.789C113.655 170.252 114.346 170.98 114.105 171.691L109.046 173.613Z" fill="#4B89AF"/>
</g>
<path d="M104.756 174.835C102.972 174.212 100.744 174.066 98.7371 174.386C98.1642 174.477 97.6152 174.614 97.0991 174.782C96.6717 174.921 96.3419 174.53 96.7654 174.391C98.763 173.74 101.237 173.618 103.422 174.014C104.042 174.126 104.635 174.284 105.189 174.477C105.609 174.624 105.174 174.981 104.756 174.835Z" fill="#1C1C1B"/>
<path d="M105.123 174.04C103.359 173.399 101.15 173.229 99.1435 173.558C98.9453 173.59 98.7331 173.494 98.6962 173.386C98.6544 173.263 98.7988 173.164 98.9981 173.132C101.198 172.771 103.632 172.983 105.559 173.683C105.971 173.833 105.537 174.191 105.123 174.04Z" fill="#1C1C1B"/>
<path d="M104.741 172.627C103.31 172.063 101.398 171.923 99.7702 172.283C99.5779 172.326 99.3558 172.294 99.2601 172.183C99.1755 172.084 99.2442 171.935 99.4365 171.893C101.323 171.476 103.508 171.613 105.175 172.271C105.579 172.43 105.145 172.787 104.741 172.627Z" fill="#1C1C1B"/>
<path d="M106.016 178.294C105.082 177.549 103.712 177.016 102.158 176.782C100.634 176.552 98.994 176.665 97.5812 177.054C96.7861 177.274 96.0568 177.58 95.474 177.959C95.3385 178.046 95.1263 178.086 94.943 178.014C94.7886 177.953 94.7098 177.8 94.8463 177.711C96.012 176.955 97.6231 176.439 99.3746 176.282C101.126 176.125 102.917 176.343 104.428 176.867C105.273 177.161 106.02 177.553 106.595 178.011C106.715 178.107 106.72 178.236 106.553 178.317C106.408 178.388 106.137 178.39 106.016 178.294Z" fill="#1C1C1B"/>
<path d="M53.3484 157.795C54.2143 162.575 54.6636 167.381 54.6944 172.187C57.9006 172.787 61.1068 173.386 64.313 173.986C66.5757 167.789 66.0307 161.385 65.4757 155.063L53.3484 157.795Z" fill="#F2E8D1"/>
<path d="M54.7442 159.985C56.3762 163.091 57.4811 166.283 58.0431 169.509C58.2025 170.426 58.3181 171.347 58.3898 172.268C58.4067 172.483 58.9896 172.448 58.9726 172.234C58.7166 168.966 57.9066 165.715 56.5585 162.535C56.178 161.638 55.7554 160.747 55.2911 159.863C55.1825 159.658 54.6366 159.78 54.7442 159.985Z" fill="#87795B"/>
<path d="M59.0494 160.141C60.0268 163.492 60.5677 166.883 60.6594 170.278C60.6853 171.227 60.6754 172.177 60.6325 173.126C60.6226 173.34 61.2054 173.303 61.2153 173.092C61.3698 169.697 61.0828 166.296 60.3505 162.926C60.1452 161.983 59.9052 161.044 59.6322 160.107C59.5714 159.897 58.9876 159.929 59.0494 160.141Z" fill="#87795B"/>
<path d="M63.8875 160.341C63.6603 163.774 63.4332 167.206 63.206 170.639C63.1423 171.599 63.0795 172.558 63.0157 173.518C63.0097 173.609 63.0864 173.693 63.2558 173.71C63.3963 173.725 63.5876 173.663 63.5935 173.574C63.8207 170.141 64.0479 166.709 64.2751 163.276C64.3389 162.316 64.4025 161.357 64.4653 160.397C64.4713 160.306 64.3946 160.222 64.2252 160.205C64.0848 160.19 63.8935 160.251 63.8875 160.341Z" fill="#87795B"/>
<path d="M65.5106 170.086C63.9763 170.98 61.1148 170.959 59.6223 170.043C58.3689 169.275 57.82 167.951 55.9978 167.792C54.316 167.644 53.1124 168.63 51.9457 169.335C50.3625 170.292 48.2154 170.871 46.1032 171.403C43.991 171.935 41.817 172.456 40.0953 173.332C38.3737 174.209 37.1601 175.729 37.5846 177.021C42.89 176.876 60.8657 177.491 64.4385 177.034L65.5106 170.086Z" fill="#EC8117"/>
<mask id="mask2_2130_3081" style="mask-type:luminance" maskUnits="userSpaceOnUse" x="37" y="167" width="29" height="11">
<path d="M65.5106 170.086C63.9763 170.98 61.1148 170.959 59.6223 170.043C58.3689 169.275 57.82 167.951 55.9978 167.792C54.316 167.644 53.1124 168.63 51.9457 169.335C50.3625 170.292 48.2154 170.871 46.1032 171.403C43.991 171.935 41.817 172.456 40.0953 173.332C38.3737 174.209 37.1601 175.729 37.5846 177.021C42.89 176.876 60.8657 177.491 64.4385 177.034L65.5106 170.086Z" fill="white"/>
</mask>
<g mask="url(#mask2_2130_3081)">
<path d="M71.6111 175.961L70.4026 178.653L36.2316 178.636L37.2947 175.945C48.7335 175.95 60.1723 175.956 71.6111 175.961C60.0766 175.956 48.5422 175.95 37.0068 175.945L71.6111 175.961Z" fill="#210A0A"/>
</g>
<mask id="mask3_2130_3081" style="mask-type:luminance" maskUnits="userSpaceOnUse" x="37" y="167" width="29" height="11">
<path d="M65.5106 170.086C63.9763 170.98 61.1148 170.959 59.6223 170.043C58.3689 169.275 57.82 167.951 55.9978 167.792C54.316 167.644 53.1124 168.63 51.9457 169.335C50.3625 170.292 48.2154 170.871 46.1032 171.403C43.991 171.935 41.817 172.456 40.0953 173.332C38.3737 174.209 37.1601 175.729 37.5846 177.021C42.89 176.876 60.8657 177.491 64.4385 177.034L65.5106 170.086Z" fill="white"/>
</mask>
<g mask="url(#mask3_2130_3081)">
<path d="M54.2632 167.566C56.3565 169.36 58.9499 171.328 62.717 171.533C63.526 171.577 64.3669 171.53 65.0942 171.324C66.5837 170.903 67.2892 169.937 67.873 169.051C62.6593 168.484 58.117 166.285 52.8086 166.292L54.2632 167.566Z" fill="#4B89AF"/>
</g>
<path d="M43.6174 171.72C44.9275 171.633 46.3004 172.209 46.4419 172.96C46.4628 173.071 46.5944 173.168 46.8076 173.168C46.989 173.168 47.1951 173.073 47.1732 172.96C46.9899 171.992 45.351 171.187 43.6174 171.303C43.4211 171.316 43.2516 171.389 43.2516 171.511C43.2516 171.614 43.4201 171.733 43.6174 171.72Z" fill="#1C1C1B"/>
<path d="M46.741 170.77C48.1099 171.052 49.171 171.736 49.5277 172.536C49.6433 172.795 50.3497 172.685 50.2331 172.425C49.8107 171.479 48.5443 170.7 46.9362 170.369C46.7499 170.331 46.5356 170.411 46.4858 170.514C46.43 170.63 46.5547 170.732 46.741 170.77Z" fill="#1C1C1B"/>
<path d="M48.9596 169.918C50.5906 170.289 51.8968 171.093 52.4407 172.041C52.5862 172.295 53.2926 172.187 53.1462 171.931C52.5155 170.832 51.036 169.945 49.1549 169.516C48.9716 169.474 48.7533 169.561 48.7045 169.661C48.6467 169.78 48.7752 169.876 48.9596 169.918Z" fill="#1C1C1B"/>
<path d="M41.1854 173.413C42.7546 173.973 43.8097 174.922 44.0707 175.962C44.0986 176.074 44.3468 176.135 44.5201 176.108C44.7304 176.075 44.804 175.964 44.7761 175.852C44.4892 174.708 43.2717 173.667 41.555 173.054C41.1545 172.912 40.7868 173.271 41.1854 173.413Z" fill="#1C1C1B"/>
<path d="M58.5842 176.452C59.1651 175.35 60.6426 174.446 62.4818 173.981C62.9999 173.85 63.5549 173.763 64.1139 173.711C64.3092 173.693 64.4177 173.555 64.3699 173.455C64.3131 173.337 64.1158 173.291 63.9205 173.31C61.7485 173.51 59.7907 174.296 58.6479 175.36C58.3192 175.666 58.0611 175.998 57.8798 176.342C57.7433 176.598 58.4497 176.708 58.5842 176.452Z" fill="#1C1C1B"/>
<path d="M56.6084 171.384C57.8977 170.809 60.1374 171.283 60.4542 172.197C60.771 173.111 59.0145 174.033 57.4393 173.78C55.8631 173.527 55.2136 172.219 56.3225 171.533L56.6084 171.384Z" fill="#4B89AF"/>
<path d="M107.517 70.7082C107.455 70.8476 107.398 70.9871 107.346 71.126C106.288 73.9228 106.945 76.6675 105.709 79.4699C104.996 81.0846 102.157 82.8133 100.372 84.1326C97.1979 86.4804 91.5179 87.1964 86.3131 87.2401C82.2441 87.2747 78.1681 86.998 74.2277 86.4208C68.8097 85.6271 63.6994 84.2766 58.6212 82.9426C58.402 82.8847 57.8959 82.6262 57.6866 82.5576C57.2911 82.4272 53.0726 84.0833 52.9769 83.8463C50.7442 78.2918 50.2062 74.6491 50.8169 68.9619C43.6743 72.1086 36.7628 74.5998 32.1548 74.9927C35.0392 70.8788 34.7133 70.5829 33.8166 66.1833C33.6961 65.5919 33.5437 64.9825 33.8356 64.411C34.0757 63.9427 26.115 62.536 26.6251 62.1443C31.0638 58.7351 46.5845 52.7991 52.3383 50.1004C58.0931 47.4022 67.1537 45.5607 74.6042 45.7405C86.8481 45.4593 98.3079 46.6561 108.431 50.5857C108.912 50.7728 109.391 51.0393 109.857 51.3562C112.365 53.0616 113.279 55.3504 112.463 57.5253L107.517 70.7082Z" fill="#277AAE"/>
<path d="M72.7808 42.1086C72.7778 44.2891 72.7738 46.4697 72.7708 48.6502C72.7708 48.9008 72.7758 49.1633 72.9871 49.3833C73.2262 49.6316 73.6855 49.7807 74.1288 49.9077C78.2008 51.0756 82.9533 51.4578 87.4348 50.9775C89.1395 50.795 90.8432 50.4792 92.2032 49.8669C92.4144 49.7716 92.6236 49.6639 92.7183 49.5199C92.8189 49.3668 92.775 49.1967 92.7302 49.0357C91.9441 46.1805 91.5515 43.2907 91.5575 40.4009C87.9657 40.4004 84.373 40.4877 80.7942 40.6634L72.7808 42.1086Z" fill="#F6A472"/>
<path d="M110.492 118.707L110.508 98.8469L105.304 85.4468C105.73 83.4976 106.618 81.5377 107.238 79.6043C107.334 79.3033 107.422 78.9869 107.25 78.6972C107.064 78.3865 106.611 78.1569 106.194 77.9301C101.363 75.3051 99.5122 71.3421 99.1465 67.5474C98.5507 61.3636 97.5494 53.6586 104.461 48.8752C103.409 48.4846 101.278 47.8201 100.226 47.4295C94.4349 52.0173 94.7427 58.6093 91.1878 63.8832C83.2242 63.6082 75.2605 63.3332 67.2979 63.0582C66.4241 63.0282 65.4477 62.9698 64.8858 62.5877C64.4962 62.3229 64.4006 61.96 64.3219 61.6176C63.0277 55.9582 65.5195 52.4368 64.8629 46.3449C62.7915 46.3313 61.6866 46.8268 60.4163 47.0677C58.7415 58.5073 61.4893 67.5247 54.7024 78.1444C54.52 78.4296 54.3088 78.7295 53.8784 78.9087C53.448 79.0878 52.7306 79.0759 52.4775 78.8089L52.0751 79.0612C51.7483 81.9266 51.6267 84.7994 51.7094 87.6705L48.7204 103.956L48.7064 127.372L50.6971 152.983L52.896 165.945L64.5292 167.097L72.954 165.635L75.3951 108.037L89.8029 165.847L102.038 167.104L110.664 165.224L110.492 118.707Z" fill="#C2B38C"/>
<path d="M69.8227 27.68C67.574 30.0068 66.9672 32.8308 68.1658 35.3969C69.3643 37.9629 72.3534 40.2438 76.3357 41.6283C77.5512 42.0513 78.8763 42.3965 80.2861 42.5111C81.6361 42.6205 83.0181 42.5139 84.3362 42.3155C89.278 41.5722 93.4994 39.5016 95.7472 36.8891C97.9949 34.2766 98.3007 31.1713 96.8222 28.387C95.8886 26.63 94.2945 25.0147 92.7123 23.4153L69.8227 27.68Z" fill="#512C13"/>
<path d="M71.0771 27.5564C71.4418 30.2563 70.85 32.9737 71.1339 35.6764C71.4189 38.3797 72.741 41.2043 76.2013 43.0628C77.4367 43.7261 78.9621 44.2545 80.6469 44.3798C83.061 44.5595 85.4522 43.8894 87.3004 42.9879C90.4189 41.4668 92.3816 39.2931 93.4905 37.0428C94.5995 34.7925 94.9223 32.4442 95.2391 30.114C95.4772 28.3661 95.7143 26.6181 95.9514 24.8696L71.0771 27.5564Z" fill="#F6A472"/>
<path d="M93.4276 36.2144C94.145 35.724 95.0925 35.1831 96.1934 35.3016C97.2635 35.4167 97.8244 36.109 97.9071 36.7275C98.0446 37.756 97.3022 38.8105 95.9542 39.5005C94.6062 40.1899 92.6843 40.4989 90.9019 40.3118L93.4276 36.2144Z" fill="#F6A472"/>
<path d="M71.374 35.2938C70.5441 34.6605 69.4421 33.9932 68.0552 34.0301C66.8885 34.0613 65.9151 34.6271 65.6043 35.2672C65.2934 35.9073 65.5346 36.5967 65.967 37.2141C66.8846 38.5227 69.3435 39.7252 71.651 39.2143L71.374 35.2938Z" fill="#F6A472"/>
<path d="M93.1556 36.8331C93.7454 34.5851 93.84 32.2918 93.4375 30.0296C93.3927 29.7773 93.334 29.5131 93.08 29.3079C92.7572 29.0476 92.1952 28.9399 91.6682 28.8537C85.4382 27.8332 78.8196 27.6467 72.453 28.3128C72.2797 28.331 72.0933 28.3537 71.9708 28.4285C71.8243 28.5187 71.8124 28.6564 71.8104 28.7817C71.7546 31.2032 71.6987 33.6247 71.6429 36.0467C71.2942 36.0507 70.9465 36.0541 70.5978 36.0581C70.8678 33.9025 69.1263 31.8093 69.1851 29.648C69.2687 26.5961 73.3507 23.7812 78.4101 23.1326C83.4694 22.484 89.0468 23.9699 91.7578 26.5706C92.5718 27.3513 93.1497 28.2159 94.0414 28.9666C94.5296 29.377 95.1164 29.7597 95.3973 30.2326C95.6355 30.6345 95.6325 31.07 95.6265 31.4958C95.6076 32.8542 95.9054 33.9399 95.8865 35.2989C94.7696 35.4803 93.4924 36.2418 93.0232 36.8665L93.1556 36.8331Z" fill="#512C13"/>
<path d="M66.6223 30.4026C67.1982 30.474 67.7949 30.3748 68.2124 30.1491C69.2356 29.5964 70.8208 29.3639 72.2914 29.2284C80.51 28.4704 89.1881 29.2613 96.4971 31.4344C96.9853 31.5796 97.4815 31.7332 98.0325 31.7774C99.2869 31.8784 100.573 31.2779 100.573 30.5902C100.573 29.9031 99.2888 29.3021 98.0335 29.4025C98.1122 26.9849 98.0733 24.3633 95.3703 22.4391C93.5949 21.1753 87.8589 19.6933 87.8589 19.6933C86.9344 18.2016 83.9275 17.722 81.8472 18.5514C81.5044 18.6881 80.3935 19.5215 80.0537 19.6604C79.3165 19.9615 78.4069 20.1026 77.565 20.3073C72.4678 21.5467 70.523 24.8503 69.1331 27.7826C67.9644 27.7044 66.7389 28.0537 66.1959 28.62C65.6539 29.1859 65.8312 29.9303 66.6223 30.4026Z" fill="#EC8117"/>
<path d="M66.2619 30.7689C65.9171 30.5302 65.9958 30.1611 66.4371 29.9887C71.1577 28.1439 76.9953 27.4187 82.6245 27.6818C88.5835 27.9602 94.3183 29.2908 99.4145 31.1646C99.6995 31.2695 99.9974 31.3846 100.014 31.6318C100.034 31.9119 99.6836 32.1477 99.2303 32.2175C98.481 32.3326 97.7926 32.0797 97.1549 31.8552C92.4293 30.1917 86.9326 29.5885 81.4468 29.2562C81.1768 29.2398 80.84 29.2285 80.4584 29.2217C76.508 29.1502 72.5806 29.593 68.9559 30.4888L67.3149 30.8942C66.9572 31.0013 66.5239 30.9503 66.2619 30.7689Z" fill="#B26016"/>
<path d="M80.1874 19.9542C79.5607 22.0451 79.1234 24.1542 78.8832 26.2707C78.8155 26.8648 78.7647 27.4596 78.7278 28.0543C78.7158 28.2437 79.2329 28.2431 79.2448 28.0543C79.3733 25.9611 79.6902 23.8713 80.2023 21.7974C80.3478 21.2077 80.5092 20.6198 80.6856 20.033C80.7403 19.847 80.2432 19.7676 80.1874 19.9542Z" fill="#B26016"/>
<path d="M87.6689 20.118C86.5898 22.2129 85.9103 24.3742 85.6482 26.5524C85.5735 27.1698 85.5337 27.7884 85.5267 28.4075C85.5247 28.5969 86.0409 28.5969 86.0439 28.4075C86.0698 26.2417 86.5071 24.0811 87.354 21.9697C87.5931 21.3738 87.8651 20.7825 88.167 20.1963C88.2607 20.0143 87.7615 19.9366 87.6689 20.118Z" fill="#B26016"/>
<path d="M93.9367 22.15C92.794 22.7844 92.3028 23.6893 91.8514 24.5357C91.3313 25.5092 90.9278 26.5025 90.6419 27.5066C90.4815 28.0713 90.3579 28.6399 90.2702 29.2097C90.2413 29.3985 90.7585 29.3974 90.7873 29.2097C90.9368 28.2323 91.1978 27.2617 91.5705 26.3035C91.9281 25.3833 92.3545 24.453 92.9652 23.5759C93.2781 23.1274 93.6896 22.6971 94.3014 22.3575C94.5405 22.2254 94.1749 22.0173 93.9367 22.15Z" fill="#B26016"/>
<path d="M74.8798 21.6288C75.3302 23.3479 75.4737 25.093 75.3123 26.8284C75.2665 27.3211 75.1957 27.8132 75.1011 28.3036C75.0652 28.4913 75.5823 28.4902 75.6182 28.3036C75.9549 26.5546 75.9828 24.7874 75.6959 23.0355C75.6152 22.5388 75.5075 22.0439 75.378 21.5506C75.3292 21.3646 74.832 21.444 74.8798 21.6288Z" fill="#B26016"/>
<path d="M69.6383 27.8371C70.9574 27.6029 72.2766 27.3688 73.5958 27.1346C73.9126 27.0785 73.777 26.7944 73.4582 26.8511C72.1391 27.0853 70.82 27.3194 69.5009 27.5536C69.185 27.6097 69.3195 27.8938 69.6383 27.8371Z" fill="#B26016"/>
<path d="M92.1343 28.1625C93.7912 28.5146 95.4232 28.9041 97.0263 29.3299C97.3262 29.4093 97.5882 29.1558 97.2873 29.0759C95.6443 28.6393 93.9715 28.2402 92.2728 27.879C91.9599 27.8127 91.8254 28.0968 92.1343 28.1625Z" fill="#B26016"/>
<path d="M67.7812 35.3754C68.8353 35.9424 69.5955 36.6636 69.9761 37.4601C70.0637 37.6427 70.5619 37.565 70.4742 37.3819C70.0717 36.5388 69.2628 35.7678 68.1469 35.1673C67.9048 35.0375 67.539 35.245 67.7812 35.3754Z" fill="#7F4924"/>
<path d="M68.5564 36.7894C68.9081 36.6896 69.2597 36.5892 69.6114 36.4894C69.733 36.4548 69.7769 36.3522 69.7041 36.2882C69.6244 36.2179 69.48 36.1986 69.3504 36.2354C68.9987 36.3352 68.647 36.4356 68.2953 36.5354C68.1737 36.5699 68.13 36.6726 68.2027 36.7366C68.2824 36.8075 68.4259 36.8262 68.5564 36.7894Z" fill="#7F4924"/>
<path d="M93.9716 38.1404C94.6501 37.727 95.3297 37.3132 96.0082 36.8999C96.2354 36.7615 95.8706 36.5534 95.6425 36.6918C94.964 37.1051 94.2845 37.519 93.606 37.9323C93.3799 38.0706 93.7445 38.2793 93.9716 38.1404Z" fill="#7F4924"/>
<path d="M94.9619 37.6807C94.9749 37.6858 94.9879 37.6915 95.0009 37.696C95.0307 37.7074 94.954 37.6733 95.0009 37.696C95.0228 37.7068 95.0447 37.717 95.0646 37.7283C95.0855 37.7397 95.1055 37.751 95.1244 37.7635C95.1354 37.7703 95.1454 37.7771 95.1553 37.7839C95.1593 37.7867 95.1851 37.806 95.1642 37.7901C95.1413 37.7726 95.1732 37.7981 95.1782 37.8015C95.1871 37.8088 95.1961 37.8162 95.2041 37.8242C95.22 37.8378 95.2339 37.8519 95.2479 37.8661C95.2618 37.8803 95.2748 37.895 95.2868 37.9098C95.3037 37.9234 95.3007 37.9273 95.2868 37.9098C95.2948 37.9166 95.2987 37.9273 95.3037 37.9353C95.3226 37.9659 95.3386 37.9971 95.3505 38.0294C95.3535 38.0385 95.3565 38.047 95.3595 38.056C95.3665 38.0753 95.3575 38.0583 95.3585 38.0492C95.3566 38.0662 95.3655 38.0861 95.3664 38.1031C95.3694 38.1354 95.3664 38.1677 95.3624 38.2006C95.3575 38.2363 95.3705 38.1791 95.3635 38.1989C95.3605 38.208 95.3585 38.2165 95.3555 38.2256C95.3495 38.2431 95.3416 38.2607 95.3326 38.2783C95.2958 38.352 95.3774 38.4416 95.5129 38.4592C95.6504 38.4767 95.7909 38.4359 95.8308 38.3565C96.0042 38.009 95.7431 37.6274 95.221 37.4273C95.1084 37.3842 94.9301 37.4131 94.8673 37.48C94.8006 37.5537 94.8424 37.6342 94.9619 37.6807Z" fill="#7F4924"/>
<path d="M80.4604 32.3114C80.2173 33.3728 80.016 34.4375 79.8556 35.504C79.7759 36.0375 79.7062 36.571 79.6474 37.1051C79.6205 37.3483 79.5636 37.5995 79.5766 37.8427C79.5856 38.0185 79.7162 38.2163 80.0659 38.2373C80.2841 38.2503 80.4873 38.1834 80.6756 38.129C80.8718 38.0723 81.0631 38.0099 81.2474 37.9419C81.636 37.7996 81.9968 37.6335 82.3276 37.4498C82.5657 37.3171 82.2 37.1096 81.9618 37.2417C81.6978 37.3886 81.4149 37.5235 81.109 37.642C80.9676 37.6964 80.8221 37.748 80.6736 37.7962C80.5471 37.837 80.3269 37.9323 80.1795 37.9374C80.1067 37.9402 80.1516 37.955 80.1127 37.9198C80.0868 37.8971 80.0957 37.854 80.0947 37.828C80.0907 37.7168 80.1137 37.604 80.1246 37.4934C80.1495 37.2508 80.1754 37.0076 80.2043 36.7649C80.3169 35.8181 80.4623 34.873 80.6407 33.9295C80.7423 33.3892 80.856 32.8495 80.9785 32.3109C81.0204 32.1244 80.5033 32.1261 80.4604 32.3114Z" fill="#7F4924"/>
<path d="M78.9202 30.7076C79.1743 30.9356 79.0368 31.2752 78.6333 31.4169C78.3852 31.5042 78.0812 31.5178 77.7913 31.5292C76.0876 31.5961 74.3839 31.663 72.6802 31.7299C72.5855 31.447 72.9024 31.1612 73.3249 31.0036C73.7473 30.846 74.2583 30.7887 74.7555 30.7354C75.965 30.605 77.1736 30.4746 78.3831 30.3437C78.5645 30.3238 78.7638 30.3057 78.9262 30.3561C79.0886 30.4066 79.1553 30.5574 79.0008 30.6147L78.9202 30.7076Z" fill="#512C13"/>
<path d="M87.7087 39.5946C85.9521 38.6988 83.561 38.218 81.2057 38.2866C78.8504 38.3552 76.5578 38.9726 74.9717 39.966C73.8209 38.582 72.6702 37.1981 71.5204 35.8141L71.4506 35.6474C71.2364 35.6752 71.0223 35.7036 70.8081 35.7313C70.1326 38.0559 71.5563 40.4059 73.2421 42.5581C74.0641 43.607 74.9757 44.657 76.3666 45.4893C77.7575 46.3216 79.7132 46.9157 81.7268 46.8386C84.2934 46.74 86.3548 45.614 87.9279 44.4557C91.5775 41.7689 93.9328 38.5179 94.6731 35.1479C92.5768 36.7371 90.2443 38.2265 87.7087 39.5946ZM84.0582 41.9611C82.9403 42.4345 81.401 42.5859 80.0928 42.3115C78.7179 42.0235 76.242 40.6287 75.8145 40.614C75.8145 40.614 80.2821 39.8667 81.1937 39.0651C82.2509 39.8792 84.2654 40.2421 85.9532 39.9229C85.8645 40.7143 85.1761 41.4871 84.0582 41.9611Z" fill="#512C13"/>
<path d="M79.5089 30.1332C79.5697 30.5715 79.5398 31.0131 79.4083 31.4463C79.3844 31.5245 79.4452 31.6045 79.5887 31.6272C79.7132 31.6464 79.8826 31.6034 79.9065 31.5245C80.046 31.0647 80.0898 30.5987 80.026 30.1332C80.0151 30.0539 79.9154 29.9864 79.768 29.9864C79.6355 29.9864 79.4979 30.0539 79.5089 30.1332Z" fill="#512C13"/>
<path d="M83.7315 32.8359C83.4774 33.0639 83.6149 33.4035 84.0174 33.5458C84.2655 33.6331 84.5683 33.6467 84.8593 33.6586C86.563 33.7261 88.2667 33.7935 89.9704 33.8616C90.0661 33.5792 89.7492 33.2929 89.3268 33.1353C88.9044 32.9771 88.3933 32.9204 87.8962 32.8666C86.6866 32.7356 85.4781 32.6046 84.2695 32.4737C84.0882 32.4538 83.8889 32.4357 83.7265 32.4861C83.5641 32.5366 83.4974 32.6874 83.6518 32.7447L83.7315 32.8359Z" fill="#512C13"/>
<path d="M82.5545 32.5344C82.5545 32.7845 82.5545 33.0351 82.5545 33.2851C82.5545 33.3622 82.6731 33.4359 82.8126 33.4319C82.9531 33.4285 83.0707 33.3673 83.0707 33.2851C83.0707 33.0351 83.0707 32.7845 83.0707 32.5344C83.0707 32.4573 82.9521 32.3836 82.8126 32.3876C82.6731 32.391 82.5545 32.4522 82.5545 32.5344Z" fill="#512C13"/>
<path d="M70.1863 50.0001C72.8714 51.2281 76.0816 52.0519 79.4561 52.4329C82.8107 52.8116 86.3158 52.7669 89.6276 52.2747C91.4967 51.9969 93.3011 51.574 94.964 51.0133C95.2499 50.9169 94.9898 50.6629 94.7029 50.7593C91.8175 51.7316 88.5167 52.2702 85.1731 52.3723C81.8374 52.4743 78.4608 52.1551 75.3772 51.4198C73.6485 51.0076 72.0116 50.4599 70.55 49.7915C70.2949 49.6747 69.9273 49.881 70.1863 50.0001Z" fill="#3DA7E9"/>
<path d="M55.901 52.9528C55.2475 56.1136 54.8629 59.2925 54.7552 62.4749C54.7244 63.3797 54.7164 64.284 54.7293 65.1889C54.7323 65.3783 55.2485 65.3783 55.2465 65.1889C55.1997 62.006 55.4258 58.8225 55.926 55.6521C56.0685 54.7512 56.2328 53.8509 56.4192 52.9522C56.456 52.7651 55.9389 52.7668 55.901 52.9528Z" fill="#3DA7E9"/>
<path d="M53.3904 54.7172C53.7331 56.0904 54.2392 57.4482 54.9058 58.7823C54.9964 58.9637 55.4956 58.8866 55.4039 58.7041C54.7374 57.3706 54.2313 56.0121 53.8885 54.639C53.8427 54.4524 53.3445 54.5318 53.3904 54.7172Z" fill="#3DA7E9"/>
<path d="M46.9629 60.0393C47.1721 60.4413 47.3814 60.8438 47.5906 61.2458C47.6852 61.4266 48.1834 61.3495 48.0887 61.1675C47.8795 60.7656 47.6703 60.363 47.4611 59.961C47.3664 59.7802 46.8682 59.8573 46.9629 60.0393Z" fill="#3DA7E9"/>
<path d="M48.9328 59.6656C49.0683 59.915 49.2028 60.165 49.3383 60.4145C49.3782 60.4882 49.5206 60.5421 49.6561 60.5171C49.7856 60.4933 49.8793 60.4151 49.8365 60.3363C49.701 60.0868 49.5665 59.8368 49.431 59.5873C49.3911 59.5136 49.2487 59.4597 49.1132 59.4847C48.9837 59.5085 48.89 59.5867 48.9328 59.6656Z" fill="#3DA7E9"/>
<path d="M50.6066 60.2331C50.6066 60.308 50.6066 60.3834 50.6066 60.4582C50.6066 60.4956 50.6354 60.5353 50.6822 60.562C50.7271 60.5875 50.8008 60.6067 50.8645 60.605C50.9313 60.6033 51.001 60.5909 51.0468 60.562C51.0937 60.533 51.1226 60.4979 51.1226 60.4582C51.1226 60.3834 51.1226 60.308 51.1226 60.2331C51.1226 60.1957 51.0937 60.156 51.0468 60.1294C51.002 60.1039 50.9283 60.0846 50.8645 60.0863C50.7978 60.088 50.728 60.1005 50.6822 60.1294C50.6354 60.1577 50.6066 60.1934 50.6066 60.2331Z" fill="#3DA7E9"/>
<path d="M49.5434 63.0514C49.5913 63.2011 49.639 63.3508 49.6859 63.5005C49.6968 63.535 49.7536 63.5713 49.8044 63.5883C49.8602 63.6071 49.9409 63.6144 50.0037 63.6031C50.0664 63.5917 50.1262 63.5696 50.1581 63.5356C50.192 63.4988 50.197 63.463 50.184 63.4222C50.1362 63.2725 50.0894 63.1229 50.0416 62.9726C50.0306 62.938 49.9738 62.9017 49.923 62.8847C49.8672 62.866 49.7855 62.8587 49.7237 62.87C49.6609 62.8813 49.6012 62.9034 49.5693 62.9375C49.5355 62.9749 49.5305 63.0106 49.5434 63.0514Z" fill="#3DA7E9"/>
<path d="M68.7009 58.8816C68.5276 59.0823 68.4776 59.3056 68.5653 59.5239C68.5952 59.5988 68.7547 59.6504 68.8832 59.6265C69.0217 59.601 69.0964 59.5262 69.0635 59.4457C69.0535 59.4219 69.0466 59.3975 69.0396 59.3731C69.0426 59.3862 69.0457 59.3992 69.0486 59.4122C69.0327 59.3419 69.0327 59.2716 69.0486 59.2013C69.0457 59.2144 69.0426 59.2274 69.0396 59.2404C69.0496 59.1991 69.0646 59.1588 69.0855 59.1191C69.0955 59.0998 69.1064 59.0811 69.1193 59.0624C69.1233 59.0568 69.1272 59.0511 69.1312 59.0454C69.1262 59.0517 69.1223 59.0573 69.1183 59.0636C69.1283 59.0607 69.1402 59.0363 69.1462 59.0301C69.206 58.9609 69.183 58.868 69.0535 58.8288C68.9379 58.7937 68.7647 58.8079 68.7009 58.8816Z" fill="#3DA7E9"/>
<path d="M71.0621 58.5107C71.0033 58.7998 71.0501 59.0963 71.1926 59.3758C71.2305 59.4495 71.3769 59.5034 71.5104 59.4785C71.6419 59.4541 71.7306 59.377 71.6908 59.2976C71.622 59.1627 71.5822 59.0408 71.5653 58.9194C71.5463 58.7834 71.5512 58.6462 71.5791 58.5107C71.5951 58.4341 71.4496 58.3604 71.321 58.3638C71.1666 58.3672 71.0781 58.4285 71.0621 58.5107Z" fill="#3DA7E9"/>
<path d="M73.2012 55.016C73.2341 55.063 73.261 55.1107 73.2829 55.16C73.2929 55.1844 73.3028 55.2093 73.3098 55.2343C73.3128 55.2433 73.3247 55.2768 73.3117 55.2377C73.3157 55.2501 73.3167 55.2626 73.3187 55.2751C73.3266 55.3233 73.3287 55.372 73.3257 55.4208C73.3237 55.4457 73.3197 55.4713 73.3158 55.4962C73.3098 55.5331 73.3257 55.4633 73.3148 55.5002C73.3108 55.5143 73.3058 55.5285 73.3018 55.5427C73.2759 55.6181 73.3387 55.7048 73.4821 55.7236C73.6097 55.74 73.773 55.7014 73.7999 55.6209C73.8776 55.393 73.8518 55.1549 73.7003 54.9383C73.6744 54.9015 73.6445 54.8714 73.5817 54.8504C73.5259 54.8317 73.4443 54.8244 73.3825 54.8357C73.26 54.8578 73.1484 54.9395 73.2012 55.016Z" fill="#3DA7E9"/>
<path d="M76.5977 58.4364C76.5977 58.7619 76.5977 59.0873 76.5967 59.4122C76.5967 59.4893 76.7153 59.563 76.8548 59.559C76.9952 59.5556 77.1128 59.4944 77.1128 59.4122C77.1128 59.0867 77.1128 58.7613 77.1138 58.4364C77.1138 58.3593 76.9952 58.2856 76.8557 58.2896C76.7162 58.293 76.5977 58.3536 76.5977 58.4364Z" fill="#3DA7E9"/>
<path d="M84.6471 55.7348C84.6471 56.0103 84.6471 56.2853 84.6471 56.5608C84.6471 56.6379 84.7657 56.7116 84.9052 56.7077C85.0457 56.7043 85.1633 56.643 85.1633 56.5608C85.1633 56.2853 85.1633 56.0103 85.1633 55.7348C85.1633 55.6577 85.0447 55.584 84.9052 55.5879C84.7657 55.5913 84.6471 55.6526 84.6471 55.7348Z" fill="#3DA7E9"/>
<path d="M88.9043 55.3578C88.976 55.6844 89.0467 56.0109 89.1185 56.3375C89.1354 56.4135 89.2251 56.4883 89.3766 56.4844C89.5021 56.481 89.6526 56.4192 89.6346 56.3375C89.5629 56.0109 89.4921 55.6844 89.4203 55.3578C89.4034 55.2818 89.3138 55.207 89.1624 55.211C89.0368 55.2144 88.8864 55.2762 88.9043 55.3578Z" fill="#3DA7E9"/>
<path d="M60.3606 64.0958C60.2271 64.462 60.3925 64.8464 60.81 65.135C61.2224 65.4213 61.9049 65.5653 62.5336 65.4417C63.1403 65.3227 63.6654 65.0018 63.6694 64.6219C63.6734 64.2046 63.0576 63.9189 62.4369 63.7726C62.0364 63.6779 61.5652 63.6014 61.1308 63.6473C60.7123 63.6915 60.3527 63.886 60.3467 64.1366C60.3417 64.326 60.8587 64.326 60.8637 64.1366C60.8677 63.9971 61.1417 63.9314 61.3519 63.928C61.6458 63.9229 61.9538 63.9778 62.2248 64.0391C62.6383 64.1321 63.1194 64.3129 63.1513 64.5919C63.1792 64.8385 62.8276 65.0573 62.448 65.1475C62.0116 65.2512 61.5582 65.1651 61.2463 64.9734C60.9066 64.7648 60.7581 64.4518 60.8597 64.174C60.9255 63.9892 60.4273 63.9098 60.3606 64.0958Z" fill="#827454"/>
<path d="M93.1197 64.4042C92.5857 64.6684 92.3984 65.1203 92.6006 65.5007C92.8178 65.91 93.4614 66.1686 94.1997 66.1946C94.9539 66.2219 95.7291 65.9781 95.9722 65.5568C96.1018 65.3317 96.0141 65.0783 95.7969 64.8799C95.5647 64.6678 95.2101 64.5261 94.8086 64.4331C94.411 64.3413 93.9307 64.2789 93.5033 64.331C93.1147 64.3781 92.7641 64.5431 92.8618 64.7892C92.9355 64.9734 93.4337 64.8957 93.3599 64.7109C93.344 64.6707 93.3529 64.7245 93.3579 64.6865C93.3549 64.7052 93.3858 64.6831 93.3609 64.6922C93.3748 64.6871 93.3948 64.6707 93.4117 64.6644C93.4954 64.6315 93.606 64.6151 93.7027 64.6089C93.9916 64.589 94.3193 64.6434 94.5883 64.6996C95.1203 64.8101 95.6713 65.1157 95.481 65.4672C95.3206 65.7626 94.7617 65.9117 94.2515 65.9021C93.7683 65.893 93.3121 65.7394 93.1318 65.478C92.9265 65.1803 93.058 64.8226 93.4854 64.6117C93.7365 64.4875 93.3698 64.2806 93.1197 64.4042Z" fill="#827454"/>
<path d="M66.0207 73.7976C69.0257 73.9427 72.0346 74.0572 75.0454 74.1417C78.0713 74.2267 81.1002 74.2806 84.129 74.3038C85.8297 74.3169 87.5305 74.3203 89.2302 74.3141C89.3707 74.3135 89.4882 74.2472 89.4882 74.1672C89.5051 72.1812 89.522 70.1951 89.54 68.209C89.545 67.6393 89.5499 67.0695 89.5549 66.4997C89.5559 66.4203 89.4365 66.3528 89.297 66.3528C86.2353 66.3517 83.1745 66.2916 80.1198 66.1714C77.061 66.0512 74.0083 65.8715 70.9715 65.6311C69.2668 65.4962 67.567 65.3419 65.8722 65.1702C65.7118 65.1537 65.5425 65.2093 65.5454 65.3119C65.5704 66.2559 65.5944 67.2004 65.6193 68.1444C65.6581 69.6378 65.6969 71.1317 65.7358 72.6251C65.7448 72.967 65.7537 73.3094 65.7627 73.6513C65.7676 73.8401 66.2848 73.8406 66.2798 73.6513C66.2549 72.7073 66.231 71.7627 66.2061 70.8188C66.1672 69.3248 66.1283 67.8315 66.0895 66.3381C66.0805 65.9962 66.0716 65.6538 66.0626 65.3119C65.954 65.3589 65.8444 65.4066 65.7358 65.4536C68.7586 65.7609 71.7995 66.0092 74.8522 66.1986C77.9239 66.3891 81.0065 66.5189 84.0941 66.5881C85.8277 66.6267 87.5633 66.6459 89.2989 66.6471C89.2122 66.5977 89.1265 66.549 89.0408 66.5002C89.0239 68.4863 89.006 70.4723 88.989 72.459C88.984 73.0288 88.979 73.5986 88.9741 74.1683C89.0597 74.1196 89.1465 74.0703 89.2321 74.0215C86.2173 74.0323 83.2014 74.0136 80.1875 73.9637C77.1587 73.9138 74.1329 73.8333 71.109 73.7216C69.4123 73.6592 67.7165 73.5866 66.0217 73.505C65.6899 73.4874 65.692 73.7817 66.0207 73.7976Z" fill="#827454"/>
<path d="M66.1693 67.8116C69.0486 68.1455 71.9678 68.3559 74.896 68.4857C77.8501 68.6167 80.8142 68.6671 83.7773 68.6892C85.4412 68.7017 87.105 68.7045 88.7689 68.7074C89.1017 68.7079 89.1017 68.4137 88.7689 68.4131C85.8317 68.408 82.8945 68.4023 79.9593 68.3468C77.0301 68.2912 74.101 68.1858 71.1917 67.9805C69.5538 67.8649 67.9237 67.7158 66.3067 67.5281C65.9819 67.4901 65.8435 67.7736 66.1693 67.8116Z" fill="#827454"/>
<path d="M102.282 77.3105C103.329 78.1649 104.827 78.8096 106.557 79.1498C106.497 79.0897 106.437 79.029 106.377 78.9689C105.111 81.0593 104.504 83.2619 104.384 85.4685C104.264 87.7006 104.631 89.9339 105.262 92.1359C105.62 93.3815 106.065 94.6186 106.565 95.8484C106.64 96.0326 107.139 95.9544 107.063 95.7701C106.183 93.6083 105.47 91.4199 105.117 89.2087C104.769 87.022 104.763 84.8052 105.341 82.6309C105.664 81.4131 106.17 80.2122 106.875 79.0477C106.923 78.9689 106.82 78.8912 106.695 78.8668C105.099 78.5533 103.694 77.9506 102.728 77.1626C102.539 77.0084 102.091 77.1552 102.282 77.3105Z" fill="#827454"/>
<path d="M100.61 92.3677C102.908 93.924 105.261 95.4531 107.67 96.9538C108.348 97.3756 109.03 97.7958 109.716 98.213C109.943 98.3514 110.308 98.1433 110.081 98.005C107.642 96.5201 105.256 95.0069 102.928 93.4659C102.273 93.0322 101.622 92.5967 100.976 92.1591C100.762 92.0145 100.398 92.2231 100.61 92.3677Z" fill="#827454"/>
<path d="M56.6273 92.2782C55.068 93.1932 53.5087 94.1083 51.9494 95.0228C51.7183 95.1589 52.083 95.3669 52.3152 95.2309C53.8744 94.3158 55.4336 93.4013 56.9928 92.4862C57.224 92.3502 56.8594 92.1421 56.6273 92.2782Z" fill="#827454"/>
<path d="M52.7377 90.5092C54.2691 90.3 55.8702 90.3437 57.4334 90.3437C59.0604 90.3437 60.6884 90.3454 62.3154 90.3488C65.5704 90.3556 68.8245 90.3686 72.0795 90.3885C78.5885 90.4282 85.0974 90.4939 91.6054 90.5863C95.2579 90.6379 98.9095 90.698 102.561 90.7661C102.894 90.7723 102.893 90.4781 102.561 90.4718C96.0222 90.3499 89.4812 90.2541 82.9393 90.1849C76.4313 90.1163 69.9213 90.0732 63.4123 90.0568C61.5861 90.0523 59.7588 90.0494 57.9325 90.0489C56.1621 90.0483 54.3368 89.9876 52.6012 90.2246C52.2774 90.2694 52.4139 90.5535 52.7377 90.5092Z" fill="#827454"/>
<path d="M69.6204 106.697C72.8325 107.038 76.0696 107.305 79.3196 107.495C80.2462 107.549 81.1727 107.597 82.1013 107.639C82.4331 107.653 82.4311 107.36 82.1013 107.344C78.8752 107.199 75.661 106.98 72.4668 106.683C71.5621 106.599 70.6585 106.509 69.7568 106.413C69.433 106.378 69.2936 106.662 69.6204 106.697Z" fill="#827454"/>
<path d="M109.396 115.975C107.636 116.057 105.878 116.139 104.118 116.22C103.232 116.262 102.345 116.302 101.458 116.344C101.015 116.364 100.571 116.385 100.128 116.406C99.7614 116.423 99.3658 116.419 99.0091 116.474C98.1742 116.602 98.3087 117.159 98.2838 117.545C98.2519 118.04 98.2261 118.536 98.2072 119.031C98.1693 120.014 98.1563 120.997 98.1682 121.98C98.1931 123.946 98.3187 125.911 98.5449 127.873C98.7711 129.835 99.0979 131.793 99.5253 133.744C99.9537 135.7 100.481 137.65 101.108 139.588C101.185 139.824 101.263 140.06 101.342 140.295C101.364 140.361 101.483 140.399 101.591 140.403C104.047 140.483 106.516 140.356 108.908 140.029C109.23 139.984 109.094 139.701 108.77 139.745C106.421 140.066 104.003 140.188 101.591 140.108C101.673 140.144 101.757 140.18 101.84 140.216C101.202 138.322 100.658 136.417 100.214 134.505C99.7693 132.595 99.4216 130.678 99.1705 128.758C98.9204 126.845 98.7651 124.928 98.7073 123.011C98.6485 121.085 98.6863 119.158 98.8218 117.233C98.8288 117.128 98.8159 117.012 98.8627 116.91C98.9095 116.808 99.0351 116.77 99.2054 116.749C99.585 116.703 99.9985 116.706 100.385 116.688C101.243 116.648 102.102 116.609 102.96 116.568C104.676 116.489 106.392 116.409 108.109 116.33C108.538 116.31 108.966 116.29 109.396 116.27C109.725 116.254 109.728 115.96 109.396 115.975Z" fill="#827454"/>
<path d="M98.9831 120.357C102.571 120.091 106.202 120.039 109.807 120.203C110.139 120.218 110.137 119.924 109.807 119.909C106.201 119.745 102.57 119.797 98.9831 120.063C98.8437 120.073 98.7261 120.123 98.7251 120.209C98.7231 120.281 98.8447 120.368 98.9831 120.357Z" fill="#827454"/>
<path d="M49.5086 116.936C52.4637 116.911 55.4207 116.96 58.3688 117.083C58.2822 117.034 58.1966 116.984 58.1109 116.936C58.068 119.611 58.069 122.287 58.1159 124.962C58.1627 127.637 58.2533 130.312 58.3888 132.986C58.4645 134.486 58.5553 135.987 58.6599 137.486C58.7226 137.439 58.7863 137.392 58.8491 137.344C56.1879 137.788 53.446 138.061 50.6772 138.153C50.3464 138.164 50.3445 138.458 50.6772 138.447C53.4908 138.354 56.2816 138.08 58.9867 137.629C59.0923 137.611 59.1809 137.551 59.1759 137.487C58.9906 134.814 58.8491 132.139 58.7524 129.464C58.6558 126.789 58.604 124.114 58.597 121.438C58.593 119.938 58.603 118.437 58.6269 116.936C58.6279 116.852 58.5073 116.795 58.3688 116.789C55.4207 116.667 52.4647 116.618 49.5086 116.643C49.1758 116.645 49.1748 116.939 49.5086 116.936Z" fill="#827454"/>
<path d="M49.2376 120.593C52.0512 120.517 54.8718 120.537 57.6814 120.654C58.0132 120.668 58.0112 120.374 57.6814 120.36C54.8718 120.243 52.0512 120.222 49.2376 120.299C48.9068 120.309 48.9048 120.602 49.2376 120.593Z" fill="#827454"/>
<path d="M102.167 101.087C102.016 101.672 101.969 102.262 102.039 102.853C102.061 103.041 102.578 103.042 102.556 102.853C102.489 102.29 102.521 101.724 102.666 101.165C102.686 101.087 102.632 101.007 102.485 100.984C102.364 100.965 102.187 101.008 102.167 101.087Z" fill="#827454"/>
<path d="M104.414 103.114C104.286 103.317 104.236 103.539 104.273 103.754C104.28 103.794 104.297 103.829 104.348 103.858C104.393 103.883 104.467 103.903 104.531 103.901C104.659 103.897 104.804 103.836 104.789 103.754C104.772 103.654 104.774 103.554 104.794 103.455C104.801 103.417 104.784 103.488 104.795 103.45C104.799 103.437 104.802 103.425 104.806 103.412C104.814 103.388 104.822 103.364 104.832 103.341C104.852 103.291 104.879 103.241 104.91 103.193C104.956 103.12 104.859 103.028 104.73 103.012C104.587 102.993 104.463 103.037 104.414 103.114Z" fill="#827454"/>
<path d="M105.595 98.2743C105.595 98.5998 105.595 98.9252 105.595 99.25C105.595 99.3272 105.713 99.4009 105.853 99.3969C105.993 99.3935 106.111 99.3323 106.111 99.25C106.111 98.9246 106.111 98.5992 106.111 98.2743C106.111 98.1972 105.992 98.1235 105.853 98.1275C105.713 98.1303 105.595 98.1915 105.595 98.2743Z" fill="#827454"/>
<path d="M106.263 106.57C106.007 107.019 105.867 107.487 105.841 107.959C105.831 108.148 106.347 108.147 106.358 107.959C106.383 107.512 106.519 107.072 106.762 106.647C106.865 106.467 106.366 106.39 106.263 106.57Z" fill="#827454"/>
<path d="M53.3852 103.217C53.4529 103.618 53.5206 104.02 53.5884 104.422C53.6013 104.501 53.698 104.569 53.8465 104.569C53.976 104.569 54.1185 104.501 54.1046 104.422C54.0368 104.02 53.9691 103.619 53.9013 103.217C53.8884 103.138 53.7927 103.07 53.6432 103.07C53.5137 103.07 53.3722 103.138 53.3852 103.217Z" fill="#827454"/>
<path d="M55.3501 98.8277C55.4876 99.2274 55.625 99.6271 55.7625 100.027C55.7894 100.104 55.9528 100.149 56.0803 100.129C56.2238 100.107 56.2876 100.027 56.2607 99.9485C56.1232 99.5488 55.9857 99.1491 55.8483 98.7489C55.8213 98.6712 55.6579 98.6264 55.5303 98.6462C55.3879 98.6689 55.3232 98.7494 55.3501 98.8277Z" fill="#827454"/>
<path d="M55.0671 101.526C55.0671 101.726 55.0671 101.926 55.0671 102.126C55.0671 102.203 55.1857 102.277 55.3252 102.273C55.4656 102.27 55.5832 102.208 55.5832 102.126C55.5832 101.926 55.5832 101.726 55.5832 101.526C55.5832 101.449 55.4646 101.375 55.3252 101.379C55.1857 101.382 55.0671 101.444 55.0671 101.526Z" fill="#827454"/>
<path d="M52.4289 98.264C52.3791 98.5033 52.4279 98.751 52.5664 98.9784C52.6112 99.051 52.7458 99.1065 52.8843 99.081C53.0108 99.0578 53.1124 98.9778 53.0645 98.9001C53.0307 98.8452 53.0028 98.7896 52.9799 98.7323C52.9699 98.708 52.962 98.6836 52.954 98.6592C52.952 98.6524 52.9371 98.5991 52.947 98.6365C52.9441 98.624 52.942 98.6116 52.939 98.5997C52.9181 98.488 52.9211 98.3751 52.944 98.264C52.9599 98.1875 52.8135 98.1138 52.6859 98.1172C52.5335 98.1206 52.4459 98.1818 52.4289 98.264Z" fill="#827454"/>
<path d="M87.4098 161.142C91.3144 161.936 95.3355 162.595 99.4653 162.803C103.595 163.011 107.859 162.749 111.628 161.766C111.918 162.912 112.208 164.059 112.499 165.204C112.541 165.371 112.578 165.554 112.419 165.696C112.31 165.794 112.125 165.856 111.946 165.912C104.691 168.205 95.7181 168.662 87.864 167.136C87.8461 165.173 87.603 163.211 87.1367 161.266L87.4098 161.142Z" fill="#827454"/>
<path d="M50.732 161.169C52.6858 161.88 55.3799 162.053 57.9125 162.152C61.1646 162.279 64.4265 162.336 67.6815 162.321C69.9491 162.311 72.2874 162.259 74.299 161.843C74.2552 163.249 74.2124 164.656 74.1685 166.063C71.6528 166.521 69.0594 166.943 66.3175 167.079C61.567 167.314 56.7747 166.68 52.1587 166.054C51.9176 166.021 51.6596 165.983 51.5111 165.895C51.3557 165.804 51.3656 165.683 51.3785 165.572C51.5489 164.16 51.3088 162.733 50.6652 161.335L50.732 161.169Z" fill="#827454"/>
<path d="M89.1912 128.829C89.8787 131.902 90.7516 134.963 91.8146 138.002C92.1175 138.869 92.4363 139.734 92.7701 140.597C92.8418 140.781 93.34 140.703 93.2683 140.518C92.1045 137.505 91.1241 134.469 90.3321 131.416C90.1089 130.555 89.9007 129.692 89.7074 128.829C89.6666 128.643 89.1494 128.641 89.1912 128.829Z" fill="#827454"/>
<path d="M93.7901 132.188C94.2086 133.583 94.6261 134.978 95.0445 136.373C95.1003 136.559 95.5985 136.48 95.5427 136.295C95.1242 134.899 94.7067 133.505 94.2883 132.11C94.2325 131.924 93.7343 132.003 93.7901 132.188Z" fill="#827454"/>
<path d="M62.7917 130.023C62.7857 131.753 63.1982 133.481 64.0152 135.147C64.1049 135.329 64.603 135.252 64.5134 135.069C63.7083 133.426 63.3027 131.728 63.3087 130.023C63.3097 129.833 62.7927 129.833 62.7917 130.023Z" fill="#827454"/>
<path d="M67.0966 129.427C66.8126 130.647 66.9431 131.89 67.4702 133.083C67.5509 133.267 68.0501 133.189 67.9684 133.005C67.4523 131.836 67.3357 130.622 67.6137 129.427C67.6326 129.348 67.4822 129.281 67.3556 129.28C67.2002 129.279 67.1155 129.348 67.0966 129.427Z" fill="#827454"/>
<path d="M58.5362 156.198C58.878 156.901 59.2197 157.602 59.5614 158.305C59.6501 158.487 60.1482 158.41 60.0596 158.227C59.7178 157.524 59.3761 156.822 59.0344 156.12C58.9457 155.938 58.4466 156.015 58.5362 156.198Z" fill="#827454"/>
<path d="M61.6358 156.149C61.6358 156.55 61.6358 156.951 61.6348 157.351C61.6348 157.54 62.152 157.54 62.152 157.351C62.152 156.951 62.1519 156.55 62.1529 156.149C62.1529 155.96 61.6358 155.96 61.6358 156.149Z" fill="#827454"/>
<path d="M63.8726 150.745C63.8726 151.145 63.8716 151.545 63.8716 151.946C63.8716 152.135 64.3877 152.135 64.3887 151.946C64.3887 151.546 64.3887 151.145 64.3897 150.745C64.3897 150.555 63.8726 150.555 63.8726 150.745Z" fill="#827454"/>
<path d="M95.0068 154.955C95.0068 155.555 95.0059 156.156 95.0059 156.757C95.0059 156.946 95.5229 156.946 95.5229 156.757C95.5229 156.156 95.524 155.555 95.524 154.955C95.523 154.765 95.0068 154.765 95.0068 154.955Z" fill="#827454"/>
<path d="M97.6829 151.617C97.4517 152.087 97.6699 152.6 98.2378 152.964C98.3305 153.023 98.5088 153.018 98.6034 152.964C98.707 152.905 98.6961 152.815 98.6034 152.756C98.1541 152.468 98.0027 152.058 98.181 151.695C98.2707 151.513 97.7725 151.435 97.6829 151.617Z" fill="#827454"/>
<path d="M100.957 150.338C100.091 150.652 100.09 151.452 100.955 151.767C101.072 151.809 101.24 151.78 101.309 151.714C101.381 151.643 101.333 151.556 101.216 151.513C101.195 151.505 101.175 151.498 101.155 151.49C101.195 151.506 101.135 151.48 101.133 151.478C101.097 151.46 101.066 151.44 101.034 151.42C100.998 151.398 101.049 151.435 101.016 151.408C101.005 151.399 100.993 151.389 100.983 151.38C100.959 151.359 100.938 151.338 100.919 151.316C100.914 151.309 100.89 151.278 100.906 151.301C100.897 151.289 100.889 151.276 100.881 151.263C100.866 151.237 100.853 151.211 100.843 151.184C100.838 151.17 100.834 151.157 100.829 151.144C100.82 151.116 100.829 151.152 100.827 151.135C100.823 151.107 100.82 151.08 100.82 151.052C100.82 151.027 100.824 151.002 100.826 150.977C100.831 150.934 100.815 151.004 100.829 150.962C100.833 150.948 100.837 150.935 100.843 150.921C100.853 150.895 100.866 150.868 100.881 150.843C100.887 150.832 100.894 150.821 100.902 150.811C100.909 150.801 100.908 150.802 100.899 150.815C100.904 150.809 100.909 150.802 100.914 150.796C100.934 150.774 100.954 150.752 100.977 150.731C100.99 150.72 101.003 150.708 101.017 150.698C101.057 150.664 100.986 150.715 101.034 150.685C101.067 150.665 101.098 150.645 101.134 150.627C101.138 150.625 101.187 150.603 101.164 150.613C101.147 150.62 101.209 150.596 101.218 150.593C101.335 150.551 101.383 150.462 101.311 150.392C101.242 150.324 101.075 150.295 100.957 150.338Z" fill="#827454"/>
<path d="M102.921 158.86C102.921 159.361 102.92 159.861 102.92 160.361C102.92 160.551 103.437 160.551 103.437 160.361C103.437 159.861 103.438 159.36 103.438 158.86C103.437 158.671 102.921 158.671 102.921 158.86Z" fill="#827454"/>
<path d="M76.224 34.7727C76.224 35.2053 75.703 35.5557 75.0594 35.5557C74.4157 35.5557 73.8946 35.2053 73.8946 34.7727C73.8946 34.3401 74.4157 33.9892 75.0594 33.9892C75.703 33.9898 76.224 34.3401 76.224 34.7727Z" fill="black"/>
<path d="M86.8121 35.1344C86.8121 35.567 86.2909 35.9173 85.6473 35.9173C85.0037 35.9173 84.4827 35.567 84.4827 35.1344C84.4827 34.7018 85.0037 34.3508 85.6473 34.3508C86.2899 34.3508 86.8121 34.7018 86.8121 35.1344Z" fill="black"/>
<path d="M81.0045 44.2568C80.9029 44.6282 81.0144 45.0063 81.3601 45.3301C81.4538 45.4179 81.6739 45.4588 81.8334 45.4004C81.9888 45.3437 82.0575 45.2252 81.9579 45.1311C81.922 45.0976 81.8882 45.063 81.8573 45.0279C81.8434 45.0114 81.8294 44.995 81.8155 44.978C81.7995 44.9576 81.8005 44.9587 81.8174 44.9814C81.8105 44.9718 81.8035 44.9621 81.7975 44.9519C81.7516 44.8833 81.7159 44.8124 81.69 44.7404C81.683 44.7223 81.6779 44.7041 81.672 44.686C81.67 44.6781 81.668 44.6707 81.666 44.6628C81.672 44.6888 81.6729 44.6911 81.668 44.6684C81.662 44.6316 81.6561 44.5953 81.6551 44.5584C81.6531 44.5216 81.654 44.4847 81.657 44.4485C81.659 44.4275 81.662 44.4065 81.666 44.3855C81.668 44.3753 81.67 44.3645 81.672 44.3543C81.666 44.3804 81.665 44.3827 81.671 44.36C81.6989 44.2591 81.6262 44.1434 81.4299 44.1179C81.2636 44.0981 81.0344 44.148 81.0045 44.2568Z" fill="#7F4924"/>
<path d="M82.8218 44.1235C82.7988 44.3707 82.8995 44.6162 83.0918 44.8367C83.1725 44.9291 83.4145 44.962 83.565 44.907C83.7314 44.8463 83.7752 44.7369 83.6886 44.6377C83.6686 44.615 83.6497 44.5918 83.6318 44.5685C83.6437 44.5844 83.6547 44.5997 83.6667 44.6156C83.5919 44.5147 83.541 44.4087 83.5151 44.2998C83.5191 44.3174 83.5232 44.3344 83.5272 44.352C83.5102 44.276 83.5052 44.1995 83.5122 44.1229C83.5222 44.0197 83.3458 43.9216 83.1664 43.9262C82.9721 43.9318 82.8317 44.0135 82.8218 44.1235Z" fill="#7F4924"/>
<path d="M84.7615 43.0707C84.8332 43.3168 84.9049 43.5628 84.9776 43.8089C84.9905 43.8548 85.0693 43.9041 85.1361 43.9263C85.2098 43.9512 85.3194 43.9614 85.402 43.9461C85.5953 43.9104 85.675 43.8134 85.6431 43.704C85.5714 43.4579 85.4997 43.2119 85.428 42.9658C85.415 42.9199 85.3362 42.8706 85.2695 42.8485C85.1958 42.8235 85.0862 42.8133 85.0035 42.8286C84.8092 42.8643 84.7296 42.9613 84.7615 43.0707Z" fill="#7F4924"/>
<path d="M86.8248 42.0933C86.8248 42.2367 86.8248 42.3808 86.8248 42.5242C86.8248 42.5747 86.8637 42.6274 86.9265 42.6631C86.9863 42.6971 87.0849 42.7226 87.1706 42.7209C87.2603 42.7187 87.3529 42.7022 87.4147 42.6631C87.4765 42.6245 87.5162 42.5775 87.5162 42.5242C87.5162 42.3808 87.5162 42.2373 87.5162 42.0933C87.5162 42.0428 87.4775 41.9901 87.4147 41.9544C87.3549 41.9204 87.2563 41.8949 87.1706 41.8966C87.0809 41.8988 86.9883 41.9153 86.9265 41.9544C86.8637 41.9924 86.8248 42.04 86.8248 42.0933Z" fill="#7F4924"/>
<path d="M87.9389 41.3427C88.0136 41.527 88.0874 41.7112 88.1621 41.8955C88.2029 41.9958 88.4152 42.0644 88.5875 42.0327C88.7718 41.9987 88.8724 41.8983 88.8286 41.7906C88.7539 41.6063 88.6801 41.4221 88.6054 41.2378C88.5646 41.1375 88.3523 41.0689 88.18 41.1006C87.9956 41.1352 87.8951 41.2355 87.9389 41.3427Z" fill="#7F4924"/>
<path d="M89.7442 40.7395C89.7442 40.8217 89.7442 40.9033 89.7442 40.9855C89.7442 41.036 89.783 41.0887 89.8458 41.1244C89.8766 41.1437 89.9146 41.1573 89.9574 41.1653C89.9983 41.1777 90.0431 41.1834 90.0909 41.1823C90.1806 41.18 90.2733 41.1636 90.335 41.1244C90.3968 41.0859 90.4366 41.0388 90.4366 40.9855C90.4366 40.9033 90.4366 40.8217 90.4366 40.7395C90.4366 40.689 90.3978 40.6363 90.335 40.6006C90.3042 40.5813 90.2662 40.5677 90.2234 40.5598C90.1825 40.5473 90.1377 40.5416 90.0899 40.5427C90.0002 40.545 89.9075 40.5615 89.8458 40.6006C89.783 40.6391 89.7442 40.6862 89.7442 40.7395Z" fill="#7F4924"/>
<path d="M88.7738 39.509C88.723 39.7323 88.8255 39.9716 89.0357 40.161C89.1324 40.2477 89.3476 40.2902 89.509 40.2313C89.6614 40.1751 89.7362 40.0555 89.6325 39.962C89.5887 39.9223 89.5508 39.8815 89.5189 39.8384C89.5309 39.8542 89.5419 39.8695 89.5538 39.8854C89.504 39.8163 89.4701 39.7442 89.4522 39.67C89.4562 39.6876 89.4602 39.7051 89.4642 39.7221C89.4483 39.6507 89.4483 39.5798 89.4642 39.5084C89.4742 39.4619 89.4183 39.4007 89.3625 39.3695C89.3028 39.3355 89.2041 39.31 89.1184 39.3117C89.0288 39.3139 88.9361 39.3304 88.8743 39.3695C88.8564 39.3825 88.8385 39.3961 88.8206 39.4092C88.7897 39.4404 88.7738 39.4732 88.7738 39.509Z" fill="#7F4924"/>
<path d="M90.4357 39.0832C90.4018 39.0889 90.3689 39.0979 90.337 39.1065C90.3311 39.1082 90.3241 39.1099 90.3192 39.1121C90.2863 39.1257 90.2594 39.1365 90.2364 39.1484C90.2315 39.1512 90.2264 39.1535 90.2225 39.1569C90.1976 39.1733 90.1667 39.1932 90.1488 39.2142C90.1328 39.2323 90.1199 39.251 90.1069 39.2697C90.1049 39.2737 90.1018 39.2771 90.1008 39.2811C90.0988 39.285 90.0979 39.2884 90.0969 39.2924C90.092 39.3128 90.085 39.3344 90.083 39.3553C90.081 39.3803 90.091 39.4058 90.0969 39.4296C90.0989 39.4376 90.1019 39.4449 90.1069 39.4523C90.1189 39.471 90.1328 39.4897 90.1488 39.5079C90.1517 39.5113 90.1557 39.5147 90.1597 39.5181C90.1776 39.5328 90.1985 39.5481 90.2184 39.5617C90.2404 39.5753 90.2603 39.5827 90.2762 39.5901C90.2922 39.5974 90.3101 39.6059 90.329 39.6116C90.3449 39.6161 90.3639 39.6201 90.3789 39.6235C90.3958 39.6275 90.4137 39.6326 90.4317 39.636C90.4775 39.6439 90.5234 39.6456 90.5692 39.6394C90.615 39.6383 90.6578 39.6303 90.6976 39.6161C90.7375 39.6037 90.7704 39.5867 90.7943 39.5657C90.8252 39.547 90.8452 39.5243 90.8561 39.4988C90.8601 39.4812 90.864 39.4636 90.868 39.4466C90.868 39.4109 90.8521 39.378 90.8212 39.3474C90.8033 39.3344 90.7854 39.3208 90.7674 39.3077C90.7246 39.2833 90.6738 39.2663 90.6151 39.2573C90.631 39.2612 90.6588 39.268 90.6857 39.2748C90.6768 39.2726 90.6678 39.2697 90.6598 39.2663C90.6827 39.2765 90.7067 39.2867 90.7296 39.2969C90.7207 39.293 90.7127 39.2879 90.7047 39.2828C90.7226 39.2958 90.7405 39.3094 90.7584 39.3225C90.7505 39.3168 90.7446 39.3106 90.7396 39.3037C90.7516 39.3196 90.7624 39.3349 90.7744 39.3508C90.7684 39.3423 90.7645 39.3332 90.7615 39.3242C90.7655 39.3417 90.7694 39.3593 90.7734 39.3763C90.7714 39.3667 90.7714 39.3565 90.7734 39.3468C90.7694 39.3644 90.7655 39.3814 90.7615 39.399C90.7635 39.3894 90.7684 39.3797 90.7754 39.3706C90.7634 39.3865 90.7525 39.4018 90.7406 39.4177C90.7456 39.4109 90.7524 39.4047 90.7594 39.399C90.7415 39.412 90.7236 39.4256 90.7057 39.4387C90.7126 39.4336 90.7196 39.4296 90.7285 39.4256C90.7056 39.4358 90.6818 39.4461 90.6588 39.4563C90.6678 39.4523 90.6767 39.4495 90.6867 39.4466C90.6588 39.4534 90.6319 39.4597 90.604 39.4665C90.6638 39.4574 90.7027 39.4455 90.7366 39.4285C90.7744 39.4149 90.8043 39.3962 90.8252 39.3735C90.8501 39.3508 90.8641 39.3264 90.8661 39.3003C90.876 39.2743 90.8741 39.2482 90.8601 39.2221C90.8482 39.2062 90.8372 39.1909 90.8252 39.175C90.7943 39.1456 90.7535 39.1218 90.7017 39.1047C90.6738 39.0979 90.6468 39.0917 90.6189 39.0849C90.5582 39.0741 90.4974 39.0741 90.4357 39.0832Z" fill="#7F4924"/>
<path d="M91.0643 38.5129C91.1021 38.5741 91.14 38.6353 91.1779 38.6966C91.1888 38.7221 91.2088 38.7442 91.2397 38.7635C91.2636 38.785 91.2965 38.8015 91.3364 38.8139C91.3762 38.8281 91.419 38.836 91.4648 38.8372C91.5106 38.8428 91.5565 38.8417 91.6023 38.8338C91.6302 38.827 91.6572 38.8207 91.685 38.8139C91.7369 38.7964 91.7787 38.7731 91.8096 38.7436C91.8215 38.7278 91.8324 38.7124 91.8444 38.6966C91.8613 38.662 91.8613 38.6268 91.8444 38.5922C91.8065 38.531 91.7688 38.4698 91.7309 38.4086C91.7199 38.383 91.7 38.3604 91.6691 38.3417C91.6442 38.3201 91.6123 38.3031 91.5724 38.2912C91.5326 38.277 91.4897 38.2691 91.4439 38.2679C91.398 38.2623 91.3523 38.2634 91.3064 38.2713C91.2785 38.2782 91.2516 38.2844 91.2237 38.2912C91.1719 38.3088 91.1301 38.332 91.1002 38.3615C91.0882 38.3774 91.0772 38.3927 91.0653 38.4086C91.0473 38.4431 91.0474 38.4783 91.0643 38.5129Z" fill="#7F4924"/>
<path d="M94.5235 33.9201C94.4548 34.1412 94.4717 34.3686 94.6013 34.5818C94.6311 34.6305 94.6799 34.6725 94.7596 34.6991C94.8333 34.7235 94.943 34.7343 95.0257 34.719C95.1941 34.6878 95.3305 34.5812 95.2668 34.4769C95.2229 34.4054 95.193 34.3323 95.1751 34.2575C95.1791 34.275 95.1831 34.292 95.1871 34.3096C95.1662 34.2144 95.1662 34.118 95.1871 34.0227C95.1831 34.0403 95.1791 34.0579 95.1751 34.0749C95.1791 34.0579 95.1841 34.0409 95.1891 34.0239C95.206 33.9706 95.204 33.9207 95.1541 33.8725C95.1123 33.8317 95.0297 33.7926 94.948 33.7823C94.8593 33.771 94.7606 33.7733 94.6819 33.8022C94.6102 33.8288 94.5385 33.8702 94.5235 33.9201Z" fill="#7F4924"/>
<path d="M95.3832 32.6692C95.4241 32.7503 95.454 32.8331 95.4749 32.917C95.4709 32.8994 95.467 32.8819 95.463 32.8648C95.4959 33.0077 95.4988 33.1512 95.4709 33.2946C95.4619 33.3417 95.5158 33.4018 95.5726 33.4335C95.6323 33.4675 95.731 33.493 95.8167 33.4913C95.9063 33.4891 95.999 33.4721 96.0608 33.4335C96.1265 33.3927 96.1515 33.349 96.1624 33.2946C96.2093 33.0514 96.1674 32.8008 96.0498 32.5649C96.001 32.4663 95.8037 32.3948 95.6244 32.4277C95.448 32.4595 95.3304 32.5632 95.3832 32.6692Z" fill="#7F4924"/>
<path d="M94.5017 32.1868C94.5017 32.2486 94.5017 32.3098 94.5017 32.3716C94.4997 32.3988 94.5096 32.4238 94.5315 32.4476C94.5455 32.472 94.5694 32.4929 94.6033 32.5111C94.6342 32.5304 94.6721 32.544 94.7149 32.5519C94.7558 32.5644 94.8005 32.57 94.8483 32.5689C94.8792 32.5666 94.9102 32.5644 94.94 32.5621C94.9988 32.5525 95.0496 32.536 95.0924 32.5117C95.1104 32.4986 95.1284 32.485 95.1463 32.472C95.1772 32.4414 95.1931 32.4079 95.1931 32.3727C95.1931 32.3115 95.1931 32.2497 95.1931 32.1879C95.1951 32.1607 95.1851 32.1358 95.1632 32.1119C95.1493 32.0876 95.1253 32.0666 95.0915 32.0484C95.0606 32.0292 95.0228 32.0156 94.9799 32.0076C94.9391 31.9952 94.8942 31.9895 94.8464 31.9906C94.8155 31.9929 94.7846 31.9952 94.7547 31.9974C94.6959 32.0071 94.6451 32.0235 94.6023 32.0479C94.5844 32.0609 94.5665 32.0745 94.5485 32.0876C94.5177 32.1182 94.5017 32.1511 94.5017 32.1868Z" fill="#7F4924"/>
<path d="M73.4253 40.8086C73.4502 40.8239 73.4742 40.8398 73.4961 40.8556C73.4781 40.8426 73.4601 40.829 73.4422 40.8159C73.502 40.8607 73.5509 40.9089 73.5897 40.9605C73.5778 40.9446 73.5668 40.9293 73.5548 40.9135C73.5927 40.9651 73.6186 41.0195 73.6316 41.075C73.6276 41.0575 73.6235 41.0399 73.6195 41.0229C73.6215 41.0314 73.6235 41.0393 73.6245 41.0478C73.6225 41.075 73.6325 41.1 73.6544 41.1238C73.6684 41.1482 73.6923 41.1692 73.7262 41.1873C73.786 41.2213 73.8846 41.2468 73.9703 41.2451C74.0599 41.2429 74.1526 41.2259 74.2144 41.1873C74.2732 41.151 74.324 41.0994 74.316 41.0484C74.3071 40.9974 74.2951 40.9452 74.2721 40.8953C74.2492 40.8449 74.2134 40.7967 74.1756 40.749C74.1128 40.6691 74.0191 40.5954 73.9145 40.5319C73.8547 40.4956 73.756 40.4741 73.6704 40.4741C73.5857 40.4741 73.4841 40.4956 73.4263 40.5319C73.3655 40.5693 73.3207 40.6186 73.3247 40.6708C73.3277 40.723 73.3605 40.7695 73.4253 40.8086Z" fill="#7F4924"/>
<path d="M75.4708 42.0932C75.4708 42.1754 75.4708 42.2571 75.4708 42.3393C75.4708 42.3898 75.5097 42.4425 75.5724 42.4782C75.6033 42.4975 75.6411 42.5111 75.684 42.519C75.7248 42.5315 75.7697 42.5372 75.8175 42.536C75.9072 42.5338 75.9998 42.5168 76.0616 42.4782C76.1234 42.4397 76.1633 42.3926 76.1633 42.3393C76.1633 42.2571 76.1633 42.1754 76.1633 42.0932C76.1633 42.0428 76.1244 41.9901 76.0616 41.9543C76.0307 41.9351 75.9929 41.9214 75.9501 41.9135C75.9092 41.901 75.8644 41.8954 75.8165 41.8965C75.7269 41.8988 75.6342 41.9152 75.5724 41.9543C75.5107 41.9923 75.4708 42.0399 75.4708 42.0932Z" fill="#7F4924"/>
<path d="M77.0042 42.5956C76.9384 42.8167 76.9573 43.0435 77.0908 43.2561C77.1217 43.3048 77.1686 43.3468 77.2493 43.3735C77.323 43.3984 77.4326 43.4086 77.5153 43.3933C77.6826 43.3627 77.8222 43.255 77.7564 43.1512C77.7106 43.0781 77.6777 43.0032 77.6588 42.9267C77.6628 42.9443 77.6667 42.9613 77.6707 42.9788C77.6488 42.8819 77.6478 42.7844 77.6707 42.6874C77.6667 42.705 77.6628 42.722 77.6588 42.7396C77.6618 42.7265 77.6657 42.7129 77.6697 42.6999C77.6857 42.6466 77.6846 42.5967 77.6348 42.5485C77.593 42.5077 77.5102 42.4686 77.4285 42.4584C77.3399 42.447 77.2413 42.4493 77.1625 42.4782C77.0918 42.5037 77.0191 42.5457 77.0042 42.5956Z" fill="#7F4924"/>
<path d="M76.4443 44.3696C76.4443 44.5544 76.4443 44.7387 76.4443 44.9235C76.4443 45.0262 76.6026 45.1248 76.7899 45.1203C76.9772 45.1157 77.1357 45.0341 77.1357 44.9235C77.1357 44.7387 77.1357 44.5544 77.1357 44.3696C77.1357 44.2664 76.9772 44.1683 76.7899 44.1729C76.6026 44.178 76.4443 44.2596 76.4443 44.3696Z" fill="#7F4924"/>
<path d="M78.9311 43.2624C78.9311 43.3854 78.9311 43.5084 78.9311 43.6314C78.9311 43.6819 78.97 43.7346 79.0328 43.7704C79.0925 43.8044 79.1912 43.8299 79.2769 43.8282C79.3665 43.8259 79.4592 43.8089 79.521 43.7704C79.5827 43.7318 79.6225 43.6847 79.6225 43.6314C79.6225 43.5084 79.6225 43.3854 79.6225 43.2624C79.6225 43.2119 79.5837 43.1592 79.521 43.1235C79.4612 43.0894 79.3625 43.0639 79.2769 43.0656C79.1872 43.0679 79.0945 43.0843 79.0328 43.1235C78.971 43.162 78.9311 43.2091 78.9311 43.2624Z" fill="#7F4924"/>
<path d="M71.7176 38.4823C71.6848 38.5209 71.6539 38.5611 71.639 38.6037C71.624 38.6468 71.6131 38.6927 71.618 38.7369C71.623 38.78 71.6329 38.8248 71.6559 38.8662C71.6798 38.9076 71.7107 38.9495 71.7526 38.9858C71.8014 39.0283 71.871 39.0623 71.9587 39.0759C72.0414 39.089 72.1521 39.0833 72.2248 39.0561C72.2985 39.0289 72.3632 38.9886 72.3832 38.9387C72.4031 38.8888 72.3991 38.8316 72.3483 38.7874C72.3303 38.7715 72.3144 38.7545 72.3014 38.7369C72.3134 38.7528 72.3244 38.7681 72.3363 38.784C72.3184 38.759 72.3065 38.7329 72.2995 38.7057C72.3035 38.7233 72.3074 38.7409 72.3114 38.7579C72.3054 38.7295 72.3054 38.7006 72.3114 38.6723C72.3074 38.6898 72.3035 38.7069 72.2995 38.7244C72.3065 38.6989 72.3175 38.6745 72.3344 38.6507C72.3224 38.6666 72.3114 38.6819 72.2995 38.6978C72.3045 38.6921 72.3085 38.6859 72.3135 38.6802C72.3384 38.6575 72.3523 38.6331 72.3543 38.6071C72.3643 38.581 72.3622 38.5549 72.3483 38.5288C72.3263 38.4835 72.2646 38.4336 72.1899 38.4115C72.1102 38.3871 72.0126 38.3752 71.9239 38.3916C71.8432 38.4069 71.7565 38.4364 71.7176 38.4823Z" fill="#7F4924"/>
<path d="M72.7886 39.1502C72.7677 39.1921 72.7567 39.2375 72.7527 39.2812C72.7487 39.3254 72.7597 39.3696 72.7727 39.4133C72.7806 39.4405 72.7937 39.4671 72.8116 39.4926C72.8415 39.5346 72.8704 39.5748 72.9162 39.6117C72.9381 39.6344 72.968 39.6531 73.0048 39.6667C73.0377 39.6843 73.0776 39.6956 73.1225 39.7018C73.2051 39.7149 73.3157 39.7092 73.3884 39.682C73.4622 39.6548 73.5269 39.6145 73.5468 39.5646C73.5667 39.5159 73.5658 39.4558 73.512 39.4133C73.4851 39.3917 73.4622 39.3685 73.4443 39.3435C73.4562 39.3594 73.4671 39.3747 73.479 39.3906C73.4581 39.3611 73.4432 39.3305 73.4353 39.2993C73.4392 39.3169 73.4432 39.3339 73.4472 39.3515C73.4402 39.3203 73.4392 39.2885 73.4462 39.2568C73.4422 39.2744 73.4383 39.2914 73.4343 39.3089C73.4383 39.2908 73.4453 39.2726 73.4542 39.2551C73.4791 39.2063 73.4642 39.1474 73.4193 39.1037C73.3775 39.0629 73.2948 39.0238 73.2131 39.0136C73.1244 39.0022 73.0258 39.0045 72.9471 39.0334C72.8714 39.0606 72.8135 39.0997 72.7886 39.1502Z" fill="#7F4924"/>
<path d="M69.2429 32.6042C69.3076 32.7692 69.3714 32.9342 69.4361 33.0992C69.475 33.1995 69.6902 33.2681 69.8616 33.2364C70.0469 33.2024 70.1456 33.102 70.1027 32.9943C70.038 32.8293 69.9741 32.6643 69.9094 32.4993C69.8705 32.399 69.6553 32.3304 69.4839 32.3621C69.2986 32.3967 69.201 32.4965 69.2429 32.6042Z" fill="#7F4924"/>
<path d="M69.9522 31.2785C69.9592 31.2831 69.9661 31.2882 69.9731 31.2927C69.9552 31.2797 69.9372 31.2661 69.9192 31.253C69.9432 31.2712 69.9631 31.2905 69.9791 31.3114C69.9671 31.2956 69.9561 31.2802 69.9442 31.2644C69.9601 31.2865 69.971 31.3097 69.977 31.3335C69.973 31.316 69.9691 31.2984 69.9651 31.2814C69.9701 31.3041 69.9701 31.3267 69.9651 31.3489C69.9691 31.3313 69.973 31.3137 69.977 31.2967C69.974 31.3092 69.9701 31.3216 69.9641 31.3335C69.9502 31.3596 69.9472 31.3857 69.9582 31.4118C69.9602 31.4379 69.9741 31.4622 69.999 31.4849C70.0209 31.5076 70.0508 31.5263 70.0877 31.5399C70.1206 31.5575 70.1603 31.5688 70.2052 31.5751C70.2938 31.5864 70.3936 31.5841 70.4713 31.5552C70.547 31.5274 70.6047 31.4883 70.6296 31.4379C70.6346 31.4271 70.6397 31.4158 70.6426 31.405C70.6496 31.3772 70.6586 31.3489 70.6596 31.3205C70.6596 31.3092 70.6585 31.2978 70.6565 31.2865C70.6515 31.2587 70.6456 31.2304 70.6346 31.2026C70.6296 31.1918 70.6247 31.1805 70.6177 31.1703C70.6008 31.1453 70.5828 31.1198 70.5619 31.0954C70.5529 31.0847 70.542 31.0744 70.53 31.0648C70.5021 31.0427 70.4732 31.0206 70.4414 31.0002C70.4105 30.9809 70.3726 30.9673 70.3297 30.9594C70.2879 30.9469 70.2441 30.9412 70.1963 30.9423C70.1485 30.9412 70.1046 30.9469 70.0628 30.9594C70.0199 30.9673 69.983 30.9809 69.9511 31.0002C69.8903 31.0376 69.8456 31.0869 69.8496 31.1391C69.8535 31.1567 69.8575 31.1737 69.8615 31.1912C69.8794 31.2253 69.9084 31.2542 69.9522 31.2785Z" fill="#7F4924"/>
<path d="M68.9838 31.3869C68.9838 31.4691 68.9838 31.5508 68.9838 31.633C68.9838 31.6835 69.0227 31.7362 69.0854 31.7719C69.1163 31.7912 69.1541 31.8048 69.197 31.8127C69.2378 31.8252 69.2827 31.8309 69.3305 31.8297C69.4202 31.8275 69.5128 31.8105 69.5746 31.7719C69.6364 31.7334 69.6762 31.6863 69.6762 31.633C69.6762 31.5508 69.6762 31.4691 69.6762 31.3869C69.6762 31.3365 69.6374 31.2838 69.5746 31.248C69.5437 31.2288 69.5058 31.2152 69.463 31.2072C69.4221 31.1947 69.3774 31.1891 69.3295 31.1902C69.2399 31.1925 69.1472 31.2095 69.0854 31.248C69.0227 31.2866 68.9838 31.3336 68.9838 31.3869Z" fill="#7F4924"/>
<path d="M79.6765 45.3969C79.6048 45.4412 79.5639 45.4831 79.529 45.5393C79.522 45.5506 79.517 45.5625 79.5141 45.575C79.5071 45.6028 79.4971 45.6311 79.4991 45.6589C79.5011 45.6867 79.5081 45.7156 79.5181 45.7428C79.528 45.77 79.55 45.7949 79.5699 45.8199C79.5779 45.8307 79.5869 45.8409 79.5988 45.8505C79.6267 45.8738 79.6566 45.8976 79.6935 45.9168C79.7602 45.952 79.8459 45.9747 79.9375 45.9747C79.9854 45.9758 80.0292 45.9701 80.0711 45.9577C80.1139 45.9497 80.1507 45.9361 80.1826 45.9168C80.2434 45.8794 80.2883 45.8301 80.2843 45.7779C80.2803 45.7269 80.2504 45.6742 80.1826 45.639C80.1717 45.6334 80.1617 45.6271 80.1517 45.6203C80.1697 45.6334 80.1877 45.647 80.2056 45.66C80.1897 45.6481 80.1766 45.6356 80.1667 45.622C80.1786 45.6379 80.1896 45.6532 80.2016 45.6691C80.1916 45.6543 80.1847 45.639 80.1807 45.6232C80.1847 45.6407 80.1886 45.6577 80.1926 45.6753C80.1896 45.6594 80.1896 45.6436 80.1926 45.6277C80.1886 45.6453 80.1847 45.6623 80.1807 45.6799C80.1847 45.664 80.1916 45.6487 80.2026 45.6339C80.1906 45.6498 80.1796 45.6651 80.1677 45.681C80.1766 45.6691 80.1877 45.6583 80.2006 45.6481C80.1827 45.6611 80.1647 45.6748 80.1467 45.6878C80.1527 45.6838 80.1588 45.6799 80.1647 45.6759C80.2265 45.6379 80.2663 45.5891 80.2663 45.537C80.2683 45.5098 80.2583 45.4848 80.2364 45.461C80.2224 45.4366 80.1986 45.4157 80.1647 45.3975C80.099 45.3629 80.0123 45.3374 79.9206 45.3397C79.831 45.3419 79.7393 45.3584 79.6765 45.3969Z" fill="#7F4924"/>
<path d="M83.6278 45.392C83.6995 45.4742 83.7723 45.5558 83.844 45.638C83.8659 45.6607 83.8958 45.6794 83.9327 45.693C83.9655 45.7106 84.0053 45.7219 84.0501 45.7282C84.096 45.7361 84.1419 45.7372 84.1877 45.7316C84.2335 45.7304 84.2764 45.7225 84.3163 45.7083C84.39 45.6811 84.4547 45.6409 84.4746 45.591C84.4786 45.5734 84.4827 45.5564 84.4867 45.5388C84.4867 45.5031 84.4707 45.4702 84.4398 45.4396C84.3681 45.3574 84.2953 45.2757 84.2236 45.1935C84.2017 45.1708 84.1718 45.1521 84.1349 45.1385C84.102 45.121 84.0621 45.1096 84.0173 45.1034C83.9715 45.0954 83.9257 45.0937 83.8799 45.1C83.834 45.1011 83.7912 45.109 83.7513 45.1232C83.6776 45.1504 83.6128 45.1907 83.5929 45.2406C83.5889 45.2582 83.5849 45.2752 83.5809 45.2927C83.5809 45.3285 83.5969 45.3613 83.6278 45.392Z" fill="#7F4924"/>
<path d="M82.2819 42.886C82.3197 42.9676 82.3586 43.0493 82.3965 43.1309C82.4184 43.1785 82.4811 43.2239 82.5548 43.2483C82.5947 43.2624 82.6375 43.2704 82.6834 43.2715C82.7292 43.2772 82.7751 43.2761 82.8209 43.2681C82.9046 43.2528 82.9852 43.2233 83.0271 43.178C83.0709 43.1309 83.0869 43.0788 83.062 43.0266C83.0241 42.945 82.9853 42.8633 82.9474 42.7817C82.9255 42.734 82.8627 42.6887 82.7889 42.6643C82.7491 42.6501 82.7063 42.6422 82.6605 42.6411C82.6147 42.6354 82.5688 42.6365 82.5229 42.6445C82.4393 42.6598 82.3585 42.6893 82.3167 42.7346C82.2728 42.7817 82.257 42.8338 82.2819 42.886Z" fill="#7F4924"/>
<path d="M73.9645 69.8214C76.5967 71.592 80.5612 72.443 84.4608 72.8784C85.5996 73.0054 86.7483 73.1001 87.9 73.1766C88.3414 73.2061 88.3374 72.8127 87.9 72.7832C84.0701 72.5281 80.0719 72.0569 76.8518 70.7847C75.96 70.4326 75.155 70.0147 74.4536 69.5436C74.1657 69.3497 73.6785 69.6292 73.9645 69.8214Z" fill="#C2B38C"/>
<path d="M80.2034 40.491C80.4704 40.563 80.7683 40.5812 81.0543 40.5318C81.3322 40.4842 81.5764 40.3822 81.7268 40.2398C81.8195 40.1514 81.7667 40.0199 81.6023 39.9705C81.4349 39.9201 81.2287 39.9467 81.1291 40.0408C81.1121 40.0567 81.0941 40.072 81.0742 40.0868C81.0921 40.0737 81.11 40.0601 81.128 40.0471C81.0871 40.076 81.0414 40.1015 80.9896 40.1242C81.0125 40.114 81.0363 40.1038 81.0592 40.0936C81.0035 40.1174 80.9426 40.1372 80.8789 40.1531C80.9068 40.1463 80.9337 40.1401 80.9616 40.1333C80.8879 40.1508 80.8121 40.1627 80.7334 40.169C80.7643 40.1667 80.7952 40.1644 80.8251 40.1622C80.7514 40.1673 80.6776 40.1678 80.6029 40.1622C80.6338 40.1644 80.6647 40.1667 80.6946 40.169C80.6299 40.1639 80.5681 40.1542 80.5073 40.1406C80.5352 40.1474 80.5621 40.1537 80.59 40.1605C80.5771 40.1571 80.564 40.1542 80.5521 40.1508C80.4664 40.1276 80.3798 40.1163 80.2861 40.131C80.2064 40.1435 80.1187 40.1786 80.0798 40.2217C79.9981 40.3096 80.029 40.444 80.2034 40.491Z" fill="#7F4924"/>
<path d="M102.528 50.5551C95.7689 52.3042 92.2459 56.4067 86.9893 59.3918C80.4604 63.0991 70.8667 71.0308 70.8618 71.5848C70.8538 72.4465 81.8463 81.7055 82.4281 81.7515C94.8234 82.7289 105.455 71.1068 113.024 64.1117C114.596 62.6591 114.314 60.6753 114.867 58.9983C115.521 57.0179 113.675 53.2675 111.191 51.8314C108.707 50.3947 104.58 49.8708 101.437 50.7995L102.528 50.5551Z" fill="#277AAE"/>
<path d="M32.1554 60.7026C36.1318 62.8831 39.6129 64.4139 40.4498 67.5203C41.2867 70.6266 40.1011 72.4687 35.8418 74.4689C31.5825 76.4697 26.2382 77.6711 22.1014 75.5898C20.5771 74.8227 19.4801 73.8124 18.6861 72.7459C18.1162 71.9799 17.6868 71.1454 17.899 70.3222C18.0963 69.5556 18.8275 68.873 19.5429 68.2142C22.0845 65.8732 24.6262 63.5328 27.1678 61.1919L32.1554 60.7026Z" fill="#3DA7E9"/>
<path d="M18.7917 70.5359C18.6981 71.426 23.83 75.9146 25.9821 76.1465C26.8758 76.2429 27.7985 76.299 28.6932 76.2049C30.371 76.0291 36.0101 72.3751 36.9935 71.5847C40.4448 68.8095 31.6193 56.5224 30.3211 52.4425C30.064 51.6329 29.8051 50.8103 29.9595 49.9927C30.2116 48.6536 33.3918 42.1165 32.3855 40.3816C31.447 38.763 30.3252 38.0843 27.5155 37.4771C24.7069 36.8699 21.5913 36.8427 18.6223 37.1092C18.4161 37.451 18.2099 37.7929 18.0026 38.1353C17.5045 37.895 16.6725 38.0514 16.3138 38.3616C15.9551 38.6717 15.9511 39.0697 16.0129 39.4388C16.2201 40.6821 17.0272 41.8869 17.0301 43.1359C17.0321 44.6043 18.2158 49.4927 18.7687 50.554C19.2669 51.5088 19.1164 52.5287 18.962 53.5209C18.133 58.8395 19.1325 67.2832 18.7917 70.5359Z" fill="#F6A472"/>
<path d="M26.2203 42.315C27.1439 42.0264 28.2369 41.9385 29.2641 42.0723C29.6975 42.129 29.8818 41.7498 29.4474 41.6931C28.2369 41.5354 26.9606 41.6352 25.8716 41.9754C25.4811 42.0973 25.8297 42.4369 26.2203 42.315Z" fill="#7F4924"/>
<path d="M27.133 41.6761C26.6668 40.8693 26.0949 40.0637 25.1653 39.3913C24.722 39.0704 24.186 38.7875 23.5653 38.5811C22.818 38.3333 21.991 38.2511 21.1591 38.144C20.3162 38.0357 19.291 37.831 19.0768 37.2907C18.9782 37.0441 18.3126 37.1484 18.4102 37.395C18.5826 37.8282 19.1933 38.1451 19.8828 38.3243C20.7068 38.538 21.6223 38.5646 22.4742 38.7274C23.884 38.9972 24.8405 39.6929 25.5 40.4197C25.8956 40.8557 26.1985 41.3155 26.4675 41.781C26.605 42.0203 27.2725 41.9176 27.133 41.6761Z" fill="#7F4924"/>
<path d="M25.2162 39.6639C25.5719 39.5012 25.9286 39.3391 26.2843 39.1764C26.3491 39.1469 26.3858 39.0822 26.3858 39.0375C26.3858 38.9893 26.3481 38.9314 26.2843 38.8985C26.2185 38.864 26.1317 38.8384 26.0401 38.8407C25.9434 38.843 25.8707 38.864 25.796 38.8985C25.4403 39.0613 25.0837 39.2234 24.728 39.3861C24.6633 39.4156 24.6263 39.4802 24.6263 39.525C24.6263 39.5732 24.6643 39.6311 24.728 39.6639C24.7938 39.6985 24.8805 39.724 24.9721 39.7218C25.0688 39.7195 25.1405 39.6985 25.2162 39.6639Z" fill="#7F4924"/>
<path d="M17.6712 38.1217C17.5696 38.8095 18.0667 39.5142 18.9684 39.9746C19.1069 40.0454 19.3201 40.0522 19.4576 39.9746C19.5841 39.9026 19.5971 39.7676 19.4576 39.6962C18.6785 39.2976 18.2749 38.7148 18.3636 38.1212C18.3795 38.0152 18.1932 37.9244 18.0178 37.9244C17.8176 37.925 17.6871 38.0152 17.6712 38.1217Z" fill="#7F4924"/>
<path d="M15.4651 38.9665C15.8546 40.4117 17.1179 41.7616 18.991 42.7606C19.3158 42.9335 19.805 42.6563 19.4802 42.4828C17.6838 41.5246 16.5052 40.2467 16.1316 38.8622C16.0648 38.6121 15.3983 38.7182 15.4651 38.9665Z" fill="#7F4924"/>
<path d="M18.3645 43.4041C19.0659 43.027 19.87 42.7226 20.7538 42.4929C20.9231 42.4487 20.965 42.3093 20.8783 42.2236C20.7767 42.1244 20.5754 42.1086 20.4051 42.1533C19.4745 42.3954 18.6196 42.7265 17.8763 43.1257C17.7408 43.1988 17.7468 43.3304 17.8763 43.4041C18.0118 43.4812 18.229 43.4772 18.3645 43.4041Z" fill="#7F4924"/>
<path d="M19.2073 44.1921C20.667 45.1406 21.7051 46.2785 22.2411 47.5015C22.3487 47.7469 23.0153 47.6426 22.9077 47.3971C22.3428 46.1073 21.2338 44.9133 19.6965 43.9137C19.4026 43.7232 18.9154 44.0028 19.2073 44.1921Z" fill="#7F4924"/>
<path d="M24.1672 46.1204C23.0553 44.7717 21.0327 41.7775 20.4051 40.3318C20.2397 39.9519 20.0931 39.55 20.2844 39.1741C20.4757 38.7982 21.1214 38.4671 21.8009 38.5345C22.0769 38.5618 22.3229 38.6491 22.5451 38.746C24.5497 39.6197 25.021 41.2542 26.8154 42.2646C27.9024 42.8769 29.5902 43.428 29.3839 44.2886L24.1672 46.1204Z" fill="#F6A472"/>
<path d="M24.0037 47.0351C23.3262 46.2119 22.7373 45.3643 22.1684 44.515C21.5577 43.6033 20.9689 42.6837 20.4916 41.746C20.2475 41.2663 19.853 40.6631 20.1947 40.175C20.3492 39.9538 20.7297 39.7299 21.1771 39.7367C21.6344 39.7435 22.0549 39.9862 22.3578 40.1602C23.6431 40.8978 24.194 41.9342 25.2013 42.7824C25.7752 43.266 26.5134 43.6249 27.2736 44.0082C27.9451 44.3472 28.6894 44.7469 28.5758 45.3031C28.524 45.5542 29.2164 45.552 29.2672 45.3031C29.4974 44.1748 27.1501 43.5795 26.1069 42.8266C24.8954 41.9518 24.3584 40.8343 23.0413 39.9992C22.3807 39.5802 21.4003 39.1329 20.393 39.4668C19.3259 39.8206 19.2891 40.5565 19.5162 41.1683C19.8829 42.1542 20.5225 43.1169 21.1343 44.0603C21.8287 45.1307 22.557 46.2 23.4079 47.2341C23.5952 47.4626 24.191 47.2636 24.0037 47.0351Z" fill="#7F4924"/>
<path d="M75.1321 66.5922C77.1367 66.1947 79.3675 66.1783 81.389 66.5451C84.1259 67.0423 86.3526 68.1933 88.1749 69.4576C91.2376 71.582 93.4575 74.2461 93.1795 76.9896C92.9015 79.7331 89.6326 82.4704 84.913 83.0515C83.5092 83.2245 82.0545 83.2074 80.6247 83.1377C77.9675 83.0079 75.2576 82.6791 73.0617 81.8178C70.8658 80.9566 69.2766 79.4729 69.5715 77.9642L75.1321 66.5922Z" fill="#3DA7E9"/>
<path d="M77.1018 66.6692C80.4006 63.9688 83.9117 61.3534 87.625 58.8333C89.4911 57.5673 91.4081 56.3245 93.3728 55.1078C94.1619 54.6191 94.9301 54.1088 95.8018 53.6666C96.5351 53.2941 97.3213 52.9556 98.1184 52.6296C99.9476 51.8818 101.86 51.1657 103.868 50.5812C104.265 50.4661 103.915 50.1265 103.519 50.2416C101.729 50.7632 100.022 51.3937 98.3734 52.0474C97.5186 52.3864 96.6766 52.7379 95.8736 53.1155C95.0526 53.5011 94.3383 53.937 93.615 54.3804C89.6486 56.8092 85.8774 59.3407 82.3146 61.964C80.312 63.4381 78.3752 64.9411 76.506 66.4708C76.251 66.6789 76.8497 66.8756 77.1018 66.6692Z" fill="#3DA7E9"/>
<path d="M90.1866 57.1716C92.9055 55.8143 95.7929 54.5692 98.8267 53.4489C99.6875 53.1309 100.56 52.8236 101.443 52.5259C101.826 52.3967 101.478 52.057 101.094 52.1863C97.9479 53.2482 94.939 54.4383 92.0935 55.7457C91.2815 56.1187 90.4825 56.502 89.6984 56.8938C89.3626 57.061 89.8528 57.3383 90.1866 57.1716Z" fill="#3DA7E9"/>
<path d="M91.3173 80.2168C93.6617 79.5784 95.6035 78.5664 97.2972 77.4608C99.1365 76.2605 100.775 74.9594 102.468 73.6928C103.426 72.9761 104.383 72.2601 105.341 71.5434C106.228 70.879 107.141 70.2224 107.994 69.5426C109.502 68.3413 110.81 67.0554 111.94 65.727C113.198 64.249 114.276 62.6955 114.856 61.0825C114.944 60.8353 114.279 60.7298 114.189 60.9782C113.68 62.3939 112.783 63.7631 111.722 65.0727C110.637 66.4125 109.366 67.7085 107.906 68.9286C107.149 69.5619 106.32 70.1652 105.505 70.7746C104.57 71.4737 103.636 72.1733 102.701 72.8724C100.968 74.1702 99.2809 75.4957 97.4527 76.7509C95.6324 78.0005 93.5701 79.1685 90.9687 79.8766C90.5671 79.9866 90.9178 80.3256 91.3173 80.2168Z" fill="#3DA7E9"/>
<path d="M102.402 67.5497C102.007 67.9057 101.611 68.2617 101.217 68.6172C101.12 68.7045 101.18 68.8378 101.341 68.8865C101.512 68.9376 101.711 68.9092 101.814 68.8162C102.209 68.4602 102.605 68.1047 103 67.7487C103.097 67.6613 103.037 67.5281 102.876 67.4793C102.705 67.4278 102.506 67.4567 102.402 67.5497Z" fill="#3DA7E9"/>
<path d="M105.069 67.4404C104.661 67.882 104.254 68.3242 103.847 68.7659C103.761 68.86 103.805 68.9796 103.971 69.0352C104.126 69.0868 104.356 69.059 104.444 68.9649C104.852 68.5232 105.259 68.081 105.666 67.6394C105.752 67.5452 105.707 67.4256 105.542 67.3701C105.387 67.3179 105.156 67.3457 105.069 67.4404Z" fill="#3DA7E9"/>
<path d="M105.132 62.133C104.69 62.2487 104.342 62.5077 104.269 62.7822C104.254 62.8366 104.253 62.8848 104.303 62.9335C104.345 62.9744 104.428 63.0135 104.51 63.0237C104.598 63.035 104.697 63.0328 104.776 63.0038C104.846 62.9778 104.921 62.9358 104.934 62.8865C104.95 62.8292 104.978 62.7737 105.017 62.7204C105.005 62.7362 104.994 62.7515 104.982 62.7674C105.025 62.7119 105.079 62.6597 105.143 62.6115C105.125 62.6245 105.107 62.6382 105.09 62.6512C105.155 62.6036 105.23 62.5605 105.314 62.5231C105.291 62.5333 105.267 62.5435 105.244 62.5537C105.318 62.5214 105.396 62.4941 105.48 62.4726C105.555 62.4533 105.619 62.3983 105.639 62.3552C105.661 62.3082 105.651 62.2452 105.604 62.2039C105.556 62.1619 105.485 62.1251 105.397 62.1137C105.304 62.1007 105.222 62.1097 105.132 62.133Z" fill="#3DA7E9"/>
<path d="M100.074 63.1393C99.7533 63.4942 99.4325 63.8491 99.1127 64.2046C99.03 64.2959 99.0659 64.4223 99.2372 64.4739C99.3957 64.5215 99.6218 64.5011 99.7095 64.4036C100.03 64.0487 100.351 63.6932 100.671 63.3383C100.754 63.247 100.718 63.1206 100.547 63.069C100.389 63.0214 100.163 63.0418 100.074 63.1393Z" fill="#3DA7E9"/>
<path d="M88.0972 61.7429C87.5183 62.0122 87.0929 62.3796 86.8618 62.7833C86.806 62.8813 86.9266 63.0021 87.103 63.0253C87.2923 63.0497 87.4686 62.993 87.5284 62.8881C87.5533 62.8439 87.5812 62.8008 87.6111 62.7577C87.643 62.7112 87.5921 62.7816 87.613 62.7549C87.622 62.743 87.6309 62.7311 87.6399 62.7198C87.6569 62.6988 87.6738 62.6778 87.6927 62.6568C87.7664 62.5718 87.8511 62.4896 87.9458 62.4108C87.9687 62.3915 87.9927 62.3728 88.0166 62.3541C88.0275 62.3456 88.0385 62.3376 88.0484 62.3291C88.0733 62.3098 88.0116 62.3552 88.0525 62.3263C88.1043 62.2906 88.156 62.2549 88.2108 62.2208C88.3274 62.1488 88.4519 62.0819 88.5854 62.0201C88.7259 61.9549 88.7139 61.8092 88.5854 61.7418C88.436 61.6646 88.2467 61.6732 88.0972 61.7429Z" fill="#3DA7E9"/>
<path d="M90.3409 62.6386C90.1865 62.8626 90.0331 63.0859 89.8787 63.3099C89.8478 63.3547 89.8726 63.4216 89.9134 63.4613C89.9553 63.5021 90.038 63.5412 90.1197 63.5514C90.2084 63.5628 90.307 63.5605 90.3857 63.5316C90.4654 63.5021 90.5103 63.4641 90.5442 63.4142C90.6986 63.1903 90.852 62.9669 91.0065 62.7429C91.0373 62.6981 91.0124 62.6312 90.9715 62.5915C90.9297 62.5507 90.8471 62.5116 90.7654 62.5014C90.6767 62.4901 90.578 62.4923 90.4993 62.5212C90.4196 62.5502 90.3758 62.5882 90.3409 62.6386Z" fill="#3DA7E9"/>
<path d="M36.61 61.2173C39.2772 62.5026 41.243 64.229 42.2204 66.1385C42.4964 66.6783 42.6956 67.2316 42.8072 67.7901C42.857 68.039 43.5485 68.0418 43.4986 67.7901C43.0902 65.7343 41.6126 63.7789 39.2842 62.1902C38.6217 61.7378 37.8894 61.32 37.0993 60.939C36.7605 60.7763 36.2692 61.0535 36.61 61.2173Z" fill="#3DA7E9"/>
<path d="M43.3752 65.47C44.1294 66.1101 44.6454 66.8233 44.9025 67.5797C44.9384 67.684 45.1576 67.7435 45.3279 67.7169C45.5202 67.6868 45.605 67.5797 45.5691 67.4748C45.3021 66.689 44.7551 65.936 43.972 65.2716C43.7249 65.0624 43.1261 65.2591 43.3752 65.47Z" fill="#3DA7E9"/>
<path d="M51.253 64.9807C51.1364 66.4826 50.8984 67.9811 50.5337 69.4699C50.5078 69.5759 50.5795 69.6797 50.7748 69.712C50.9362 69.7381 51.1743 69.6797 51.2002 69.5748C51.5738 68.0508 51.8249 66.5183 51.9444 64.9813C51.9643 64.7273 51.2729 64.7284 51.253 64.9807Z" fill="#3DA7E9"/>
<path d="M87.6908 72.8241C89.0468 74.7585 89.5549 77.2679 88.989 79.3254C88.7987 80.0165 88.5328 80.7637 87.6012 81.219C86.7493 81.6352 85.5457 81.7055 84.4238 81.7361C81.4488 81.8177 78.4609 81.7542 75.5048 81.5478C74.631 81.4866 73.7383 81.4095 72.9651 81.1697C72.1621 80.9208 71.5503 80.5165 70.9625 80.118C62.416 74.3254 52.9898 61.8665 52.4308 61.7514C50.3844 61.3312 46.2397 60.3958 45.5473 59.2227C44.8538 58.0491 44.9215 55.5358 44.8697 54.2987C43.4819 54.483 41.823 54.111 41.3338 53.349C40.8446 52.5876 41.9615 52.2214 43.3683 52.3512C42.3421 52.2163 41.54 51.6533 41.5211 51.054C41.5022 50.4547 42.2663 49.8753 43.2835 49.7194C42.4038 49.3486 41.8977 49.2976 42.1388 48.6898C42.3799 48.082 43.2915 47.578 44.3666 47.4583C43.7708 46.8919 44.1384 46.5988 45.1557 46.3329C46.0892 46.0891 47.1603 46.0784 48.1228 46.283C51.3319 46.9645 54.3349 47.9159 55.3242 49.7766C55.8383 50.7427 55.92 51.7627 56.1492 52.7639C56.6543 54.9773 57.8967 57.1357 59.7918 59.0895C59.7918 59.0895 86.5879 71.2496 87.6908 72.8241Z" fill="#F6A472"/>
<path d="M42.2384 52.6552C43.6163 52.4732 45.0799 52.6036 46.2994 53.0101C46.684 53.1382 47.0327 52.7986 46.6481 52.6705C45.2672 52.2101 43.6112 52.0706 42.054 52.2759C41.6216 52.3331 41.805 52.7124 42.2384 52.6552Z" fill="#7F4924"/>
<path d="M42.6898 50.1774C44.3516 50.2142 45.9597 50.513 47.3486 51.0335C47.7212 51.173 48.0679 50.8328 47.6973 50.6939C46.2088 50.136 44.4702 49.823 42.6898 49.7839C42.2454 49.7743 42.2454 50.1678 42.6898 50.1774Z" fill="#7F4924"/>
<path d="M44.2001 47.7124C45.847 47.9204 47.4561 48.2198 48.9954 48.6133C49.1668 48.6569 49.365 48.6405 49.4686 48.543C49.5563 48.4591 49.5145 48.3173 49.3441 48.2737C47.749 47.866 46.0912 47.5491 44.3845 47.3331C43.9511 47.2781 43.7657 47.6574 44.2001 47.7124Z" fill="#7F4924"/>
<path d="M49.5863 47.79C48.2363 49.9455 46.955 52.1153 45.7415 54.2969C45.607 54.539 46.2746 54.6422 46.4081 54.4018C47.6216 52.2202 48.9028 50.0504 50.2528 47.8948C50.4023 47.6556 49.7348 47.553 49.5863 47.79Z" fill="#7F4924"/>
<path d="M52.7287 61.9799C53.5916 61.5343 54.4543 61.0886 55.3161 60.643C55.4546 60.5716 55.4436 60.4372 55.3161 60.3652C55.1786 60.2869 54.9664 60.2937 54.8279 60.3652C53.9651 60.8108 53.1022 61.2564 52.2404 61.7021C52.1019 61.7735 52.1129 61.9079 52.2404 61.9805C52.3769 62.0581 52.5893 62.0513 52.7287 61.9799Z" fill="#7F4924"/>
<path d="M39.2792 57.7777C38.9694 57.9733 38.8438 58.2494 38.9703 58.5051C39.0191 58.6043 39.2174 58.6752 39.3958 58.6423C39.5731 58.6094 39.6897 58.5062 39.6369 58.4002C39.624 58.3735 39.614 58.3469 39.608 58.3197C39.612 58.3373 39.6159 58.3548 39.6199 58.3718C39.6099 58.3225 39.61 58.2738 39.621 58.2244C39.617 58.242 39.6129 58.259 39.609 58.2766C39.6219 58.225 39.6458 58.1745 39.6807 58.1263C39.6688 58.1422 39.6578 58.1575 39.6458 58.1734C39.6797 58.128 39.7236 58.0855 39.7764 58.0464C39.7585 58.0594 39.7405 58.073 39.7226 58.0861C39.7375 58.0753 39.7534 58.0651 39.7694 58.0549C39.8312 58.0163 39.8711 57.9693 39.8711 57.916C39.8711 57.8678 39.8331 57.81 39.7694 57.7771C39.6359 57.7085 39.4088 57.696 39.2792 57.7777Z" fill="#3DA7E9"/>
<path d="M40.6345 57.8173C40.4073 58.043 40.1791 58.2686 39.9519 58.4943C39.8623 58.5833 39.9101 58.7137 40.0765 58.7636C40.2409 58.8129 40.4531 58.7885 40.5487 58.6927C40.7759 58.4671 41.0041 58.2414 41.2313 58.0158C41.321 57.9267 41.2731 57.7963 41.1077 57.7465C40.9423 57.6971 40.7301 57.7221 40.6345 57.8173Z" fill="#3DA7E9"/>
<path d="M67.9852 50.9486C67.6754 51.1442 67.5498 51.4203 67.6763 51.676C67.7251 51.7752 67.9234 51.8461 68.1018 51.8132C68.2791 51.7803 68.3957 51.6771 68.3429 51.5711C68.33 51.5445 68.32 51.5178 68.314 51.4906C68.318 51.5082 68.3219 51.5252 68.3259 51.5428C68.3159 51.4934 68.316 51.4447 68.327 51.3954C68.323 51.4129 68.3189 51.4305 68.315 51.4475C68.3279 51.3959 68.3518 51.3455 68.3867 51.2973C68.3748 51.3132 68.3638 51.3285 68.3518 51.3443C68.3857 51.299 68.4295 51.2565 68.4823 51.2173C68.4644 51.2304 68.4465 51.244 68.4286 51.257C68.4435 51.2463 68.4594 51.236 68.4754 51.2258C68.5371 51.1873 68.5771 51.1397 68.5771 51.0869C68.5771 51.0387 68.5391 50.9809 68.4754 50.948C68.3419 50.88 68.1148 50.867 67.9852 50.9486Z" fill="#3DA7E9"/>
<path d="M69.75 51.9708C69.6683 52.1937 69.5876 52.4165 69.5069 52.6393C69.47 52.7396 69.5586 52.8564 69.7479 52.8814C69.9203 52.9041 70.1335 52.8519 70.1733 52.7442C70.2541 52.5214 70.3357 52.2986 70.4174 52.0757C70.4543 51.9754 70.3657 51.8586 70.1764 51.8336C70.002 51.8115 69.7888 51.8631 69.75 51.9708Z" fill="#3DA7E9"/>
<path d="M62.5446 88.8933C62.8395 89.5657 63.1334 90.2376 63.4283 90.91C63.5359 91.1555 64.2025 91.0517 64.0949 90.8057C63.8 90.1333 63.5061 89.4614 63.2112 88.789C63.1036 88.5435 62.437 88.6473 62.5446 88.8933Z" fill="#827454"/>
<path d="M64.6328 89.0669C64.4903 89.5522 64.5292 90.046 64.7673 90.5205C64.8181 90.6226 65.0113 90.6861 65.1926 90.6577C65.3719 90.63 65.4856 90.5183 65.4338 90.4156C65.2315 90.012 65.1797 89.5817 65.3002 89.1712C65.3311 89.0663 65.2525 88.9597 65.0592 88.9291C64.8928 88.9036 64.6636 88.9614 64.6328 89.0669Z" fill="#827454"/>
<path d="M89.5778 89.6985C89.7203 89.9247 89.8627 90.151 90.0052 90.3766C90.0361 90.4254 90.083 90.4673 90.1637 90.494C90.2374 90.5183 90.347 90.5291 90.4297 90.5138C90.5971 90.4832 90.7365 90.3755 90.6707 90.2717C90.5283 90.0455 90.3858 89.8193 90.2434 89.5936C90.2125 89.5449 90.1656 89.5029 90.0849 89.4763C90.0112 89.4513 89.9016 89.4411 89.8189 89.4564C89.6525 89.4876 89.5131 89.5953 89.5778 89.6985Z" fill="#827454"/>
<path d="M92.5976 89.5182C92.5847 89.8306 92.5707 90.143 92.5577 90.4548C92.5538 90.558 92.7202 90.6561 92.9035 90.6515C93.0948 90.6464 93.2442 90.5653 93.2492 90.4548C93.2621 90.1424 93.2761 89.8306 93.2891 89.5182C93.293 89.4156 93.1266 89.3169 92.9433 89.3214C92.752 89.3265 92.6026 89.4082 92.5976 89.5182Z" fill="#827454"/>
<path d="M98.4751 89.732C98.4422 89.8051 98.4044 89.8771 98.3595 89.948C98.3486 89.9655 98.3366 89.9831 98.3246 90.0007C98.3177 90.0109 98.2778 90.071 98.3127 90.0194C98.2908 90.0523 98.2629 90.084 98.236 90.1158C98.1224 90.2496 97.986 90.376 97.8285 90.4945C97.7787 90.5325 97.7727 90.6022 97.7936 90.6459C97.8156 90.6912 97.8773 90.7411 97.952 90.7632C98.0327 90.7871 98.1294 90.7995 98.2181 90.7831C98.3098 90.7661 98.3675 90.736 98.4242 90.6929C98.76 90.4389 99.0042 90.1441 99.1407 89.8363C99.1846 89.7365 99.0839 89.618 98.8995 89.5942C98.7212 89.5709 98.5229 89.6254 98.4751 89.732Z" fill="#827454"/>
<path d="M11 0H0V179H11V0Z" fill="#FFCE9E"/>
</svg>
